<svg xmlns="http://www.w3.org/2000/svg" xmlns:xlink="http://www.w3.org/1999/xlink" viewBox="0 0 157.94 142.19"><defs><style>.cls-1{fill:url(#linear-gradient);}.cls-2{fill:url(#linear-gradient-2);}.cls-3{fill:#6f6571;}.cls-4{fill:#5d5360;}.cls-5{fill:#c3ddff;}.cls-6{fill:#ff8086;}.cls-7{fill:#4b3f4e;}.cls-8{fill:#a4ccff;}.cls-9{fill:#e5646e;}</style><linearGradient id="linear-gradient" x1="-5034.5" y1="-2554" x2="-4900.09" y2="-2476.4" gradientTransform="matrix(-1, 0, 0, 1, -4883.91, 2598.17)" gradientUnits="userSpaceOnUse"><stop offset="0" stop-color="#fff" stop-opacity="0"/><stop offset="0.63" stop-color="#fff"/></linearGradient><linearGradient id="linear-gradient-2" x1="7.91" y1="-2283.28" x2="134.06" y2="-2210.45" gradientTransform="matrix(1, 0.03, 0.03, -1, 69.65, -2183.83)" xlink:href="#linear-gradient"/></defs><g id="Layer_2" data-name="Layer 2"><g id="Layer_1-2" data-name="Layer 1"><path class="cls-1" d="M153,56.63c-5.77-19.74-22.42-60-50.56-56.4s-17.2,40-43,45C48,47.43,40.3,27.75,28.9,28.36,14.22,29.15,6.75,43.68,2.65,55.89-6,81.8,7,125.72,37.46,133.33,64.07,140,67.18,107.46,90.31,116.9c13,5.31,11.71,21.16,27.54,24.35,47.91,9.68,42.82-58.35,35.13-84.62Z"/><path class="cls-2" d="M9.16,87c4.88,18.68,19.4,56.92,45.9,54.3s17.23-37.08,41.6-41c10.73-1.75,17.43,16.93,28.14,16.66,13.79-.33,21.2-13.76,25.38-25.11,8.87-24.07-2.15-65.63-30.54-73.6-24.78-6.95-28.59,23.46-50,14C57.55,26.79,59.2,12,44.44,8.53-.24-1.86,2.67,62.1,9.16,87Z"/><path class="cls-3" d="M126.93,44.8A7.09,7.09,0,0,1,134,51.89v16l-3.55,1.77V57.18a3.51,3.51,0,0,0-3.51-3.51s0-8.84,0-8.84a0,0,0,0,1,0,0Z"/><path class="cls-3" d="M31.05,44.8A7.09,7.09,0,0,0,24,51.89v16l3.55,1.77V57.18a3.51,3.51,0,0,1,3.51-3.51s0-8.84,0-8.84,0,0,0,0Z"/><path class="cls-4" d="M89.64,67.86A7.07,7.07,0,0,0,82.86,73a.33.33,0,0,1-.31.23H75.44a.31.31,0,0,1-.31-.23,7.07,7.07,0,0,0-6.78-5.09H27.54l-2.37,8.87c0,2.94,2.57,3.6,5.51,3.6h2.55L33,92.81a10.65,10.65,0,0,0,10.65,10.65h14l10.65-1.89a17.79,17.79,0,0,0,6.38-9.19A4.44,4.44,0,0,1,79,89.15h0a4.46,4.46,0,0,1,4.27,3.23,17.75,17.75,0,0,0,17,12.74h16A10.65,10.65,0,0,0,126.9,94.47V82.05h1.77A5.32,5.32,0,0,0,134,76.73V67.86Z"/><path class="cls-5" d="M66.57,76.24h-25A1.78,1.78,0,0,0,39.82,78V94.47L41.74,98h16A10.65,10.65,0,0,0,68.35,87.38V78.5Z"/><path class="cls-6" d="M118,76.73H93.24a1.77,1.77,0,0,0-1.77,1.77v8.88l1.72,7.93A10.62,10.62,0,0,0,100.28,98h16a3.55,3.55,0,0,0,3.55-3.55v-16A1.78,1.78,0,0,0,118,76.73Z"/><path class="cls-7" d="M34.64,94.47V82.05a3.55,3.55,0,0,0-3.55-3.55H29.32a1.78,1.78,0,0,1-1.78-1.77V67.86H24v8.87a5.33,5.33,0,0,0,5.33,5.32h1.77V94.47a10.65,10.65,0,0,0,10.65,10.65h16a17.73,17.73,0,0,0,10.65-3.55H41.74a7.1,7.1,0,0,1-7.1-7.1Z"/><path class="cls-8" d="M57.7,78.5H68.35V76.73A1.78,1.78,0,0,0,66.57,75H40a1.77,1.77,0,0,0-1.77,1.77V94.47A3.55,3.55,0,0,0,41.74,98V94.47a16,16,0,0,1,16-16Z"/><path class="cls-9" d="M118,75H91.41a1.77,1.77,0,0,0-1.77,1.77V87.38a10.62,10.62,0,0,0,3.55,7.93v-.84a16,16,0,0,1,16-16H119.8V76.73A1.78,1.78,0,0,0,118,75Z"/><path class="cls-7" d="M79,76.73a3.55,3.55,0,0,1-3.55-3.55h7.1A3.55,3.55,0,0,1,79,76.73Z"/></g></g></svg>