<?xml version="1.0" encoding="utf-8"?>
<!-- Generator: Adobe Illustrator 23.0.0, SVG Export Plug-In . SVG Version: 6.00 Build 0)  -->
<svg version="1.1" id="Layer_1" xmlns="http://www.w3.org/2000/svg" xmlns:xlink="http://www.w3.org/1999/xlink" x="0px" y="0px"
	 viewBox="0 0 1001.7 491.4" style="enable-background:new 0 0 1001.7 491.4;" xml:space="preserve">
<style type="text/css">
	.st0{fill:#0781FF;}
	.st1{opacity:0.2;fill:#E7F1FB;enable-background:new    ;}
	.st2{opacity:0.2;fill:#DEEDFF;enable-background:new    ;}
	.st3{fill:#F99746;}
	.st4{fill:#FFB278;}
	.st5{fill:#82B378;}
	.st6{fill:#A8D29F;}
	.st7{fill:#F1A34F;}
	.st8{fill:#FFB973;}
	.st9{fill:#D86713;}
	.st10{fill:#D1A586;}
	.st11{fill:#E5BD9E;}
	.st12{fill:#DFB697;}
	.st13{fill:#A0795F;}
	.st14{fill:#6BB7BF;}
	.st15{fill:#8AD8DB;}
	.st16{fill:#ED9F4A;}
	.st17{fill:#FFB27D;}
	.st18{fill:#C45446;}
	.st19{fill:#E37970;}
	.st20{fill:#1C468A;}
	.st21{fill:#C65447;}
	.st22{fill:#163560;}
	.st23{fill:#F4A269;}
	.st24{fill:#599DAD;}
	.st25{fill:#E2915A;}
	.st26{fill:#233862;}
	.st27{fill:#2B478B;}
	.st28{fill:#E9F3FE;}
	.st29{fill:#22407A;}
	.st30{fill:#FFFFFF;}
	.st31{fill:#D9E9F9;}
	.st32{fill:#BA4C43;}
	.st33{fill:#AA413E;}
	.st34{fill:#B5453C;}
	.st35{fill:#ED975D;}
	.st36{fill:#699DEE;}
	.st37{fill:#4A75CB;}
	.st38{fill:#E7F1FD;}
	.st39{fill:#ED7D2B;}
	.st40{fill:#C69D7F;}
	.st41{fill:#E0B594;}
	.st42{clip-path:url(#SVGID_2_);}
	.st43{opacity:0.9;fill:#1A2E35;enable-background:new    ;}
	.st44{opacity:0.5;}
	.st45{fill:#1A2E35;fill-opacity:0;}
	.st46{fill:#1A2E35;}
	.st47{fill:#FAAF3B;}
</style>
<g>
	<g>
		<g id="Layer_1-2">
			<path class="st0" d="M976.5,395.4H54c0,0-0.8-7.6-1-19.9c-0.1-7.2-0.1-15.9,0.4-25.7c0-0.8,0.1-1.6,0.1-2.4
				c0.3-4.5,0.6-9.2,1.1-14c0-0.4,0.1-0.9,0.1-1.3c0.5-5,1.2-10.3,2-15.7c0.7-4.4,1.5-8.9,2.4-13.4c0.1-0.3,0.1-0.6,0.2-1
				c0.5-2.3,1-4.6,1.5-7c0.2-0.9,0.4-1.8,0.7-2.8c0.4-1.8,0.9-3.6,1.3-5.4c1.1-4.3,2.4-8.9,3.8-13.3c0.1-0.5,0.3-0.9,0.4-1.4
				c0.7-2,1.3-4,2-6c1.1-3,2.2-6.1,3.4-9.2c0.8-1.9,1.5-3.8,2.4-5.7c7.9-18.8,18.7-36.3,32-51.7c31.7-36.3,81.6-62.9,160-62.1
				c15.8,0.2,30.4-0.3,44-1.2l0,0c4.2-0.3,8.2-0.6,12.2-1l0,0c90.5-8.3,135.8-39.3,177-69.6l4.4-3.3c14.4-10.6,28.5-21,44.1-30.2
				c4-2.4,8.1-4.6,12.3-6.8c25.9-13.3,56.4-23,98.5-25.1c4-0.2,8-0.2,12,0.1c1.5,0.1,3,0.2,4.4,0.4c15.6,1.6,30.5,7.4,43,16.9
				c31.6,24,47.3,71,39.1,129.6c-5.6,39.7,7,61.2,28.5,75.3C846,261.3,974.2,243.2,976.5,395.4z"/>
			<polygon class="st1" points="530.5,243.4 530.5,225.3 526.2,225.3 526.2,194.1 503.4,194.1 503.4,225.3 482.1,225.3 482.1,174.5 
				458.6,174.5 458.6,207.5 453.3,207.5 453.3,168.1 429.8,168.1 429.8,241.9 400,241.9 400,285 388.9,285 388.9,265.8 363.4,265.8 
				363.4,277.1 348.7,277.1 348.7,226.4 330.6,226.4 330.6,263.9 312.5,263.9 312.5,401.5 330.6,401.5 346.1,401.5 348.7,401.5 
				363.4,401.5 371.7,401.5 384.9,401.5 388.9,401.5 400,401.5 410.5,401.5 429.8,401.5 435.7,401.5 447.4,401.5 453.3,401.5 
				458.6,401.5 470.9,401.5 479.3,401.5 482.1,401.5 503.4,401.5 525.8,401.5 526.2,401.5 530.5,401.5 548.6,401.5 548.6,243.4 			
				"/>
			<polygon class="st1" points="785.7,305.7 785.7,401.5 557.5,401.5 557.5,318.2 575,318.2 575,295.4 592.5,295.4 592.5,326.2 
				606.6,326.2 606.6,319.3 631.3,319.3 631.3,330.9 642,330.9 642,304.8 670.8,304.8 670.8,260.1 693.5,260.1 693.5,284 698.7,284 
				698.7,264 721.4,264 721.4,294.8 742,294.8 742,275.9 764,275.9 764,294.8 768.1,294.8 768.1,305.7 			"/>
			<polygon class="st1" points="314.9,268.2 314.9,401.1 106.8,401.1 106.8,285.4 122.8,285.4 122.8,253.9 138.7,253.9 138.7,296.5 
				151.6,296.5 151.6,287 174.1,287 174.1,303.1 183.9,303.1 183.9,266.9 210.1,266.9 210.1,204.9 230.8,204.9 230.8,238 235.6,238 
				235.6,210.3 256.3,210.3 256.3,252.9 275,252.9 275,226.8 295.1,226.8 295.1,252.9 298.9,252.9 298.9,268.2 			"/>
			<path class="st2" d="M560.9,25.3v375.4h-12.2V32.1C552.6,29.7,556.7,27.5,560.9,25.3z"/>
			<polygon class="st2" points="323.1,135.2 323.1,395.4 323.1,400.7 310.9,400.7 310.9,395.4 310.9,136.2 			"/>
			<path class="st3" d="M504.6,62.3v29.1c0,3.7-0.9,6.7-2.1,6.7h-0.3c-1.1,0-2.1-3-2.1-6.7V65.6L504.6,62.3z"/>
			<path class="st3" d="M501.2,86.4c-16.1,0-29.2,13.8-29.2,30.9h58.4C530.4,100.2,517.3,86.4,501.2,86.4z"/>
			<path class="st4" d="M503.5,86.8c-0.8-0.2-1.7-0.3-2.6-0.3c-10.5,0-19,13.8-19,30.8h5.1C487.1,101.7,494.2,88.8,503.5,86.8z"/>
			<path class="st3" d="M675.8,0.6v83.9c0,0.7,0,1.4,0,2.2c-0.2,6.5-1,11.6-2,11.6h-0.3c-1,0-1.8-4.3-2-10.2c0-0.5,0-1,0-1.5v-0.1
				c0-0.6,0-1.3,0-2V0.2C672.8,0.3,674.3,0.5,675.8,0.6z"/>
			<path class="st3" d="M672.4,86.4c-16.1,0-29.2,13.8-29.2,30.9h58.4C701.6,100.2,688.5,86.4,672.4,86.4z"/>
			<path class="st4" d="M674.7,86.8c-0.8-0.2-1.7-0.3-2.6-0.3c-10.5,0-19,13.8-19,30.8h5.1C658.3,101.7,665.4,88.8,674.7,86.8z"/>
			<path class="st2" d="M976.5,401.1H785.7v0h-66.9V17.5c31.6,24.4,47.3,72.1,39.1,131.6c-5.6,40.3,7,62.2,28.5,76.5
				C846,265,974.2,246.6,976.5,401.1z"/>
			<path class="st5" d="M858.6,355.8c0,0-7.4-8.6-0.5-14c0,0,5-3.1,9.2-2.8c0,0-5.8,9.8-3.9,10.8s5.7-11.4,5.7-11.4
				s11.5-1.1,15.2,0.7c0,0-9.8,8-7.8,8.5s12.7-7.4,12.7-7.4s10.7,1.8,10.1,8.3s-4.3,8.5-5.9,8.4s-11.1-3.8-11.3-2.5s5.5,5.7,9.5,5.9
				c0,0-7.5,8.3-12.5,5.9s-5.4-6.2-8.6-7.6s-5.8-1.4-4.5,0s6.9,2.9,8.7,6s3.4,5.3-1.8,4.5s-13.6-4.6-14-8.9L858.6,355.8z"/>
			<path class="st5" d="M894.1,348.6c0,0-29-1.1-35.5,7.2c-1.2,3.1-3.2,5.9-5.8,8.1l-0.7,1.9c0,0,5-5.3,6.8-5.6
				C859,360.1,856.2,349.9,894.1,348.6z"/>
			<path class="st5" d="M852.8,363.9c-3.9,3.2-6.3,7.8-6.7,12.9l1.1,0.1c0,0,2-8.5,5.6-11.9S852.8,363.9,852.8,363.9z"/>
			<path class="st6" d="M832.9,345c0,0,11.7-6.6,6.2-15.5c0,0-4.4-5.5-9.1-6.9c0,0,2.5,13.3,0,13.6s-1.7-15-1.7-15
				s-12.3-5.9-17.2-5.5c0,0,7.7,13,5.2,12.6S805.2,315,805.2,315s-12.7-2.3-14.7,5.2s1.3,11.2,3.1,11.7s13.9,0.3,13.6,1.9
				s-8.4,4.1-13,2.6c0,0,5,12.3,11.5,11.7s8.6-4.7,12.7-5s7,0.8,5,1.9s-8.9,0.4-12.2,3.1s-5.9,4.5,0.2,5.8s17,0.5,19.2-4.2
				L832.9,345z"/>
			<path class="st5" d="M796.3,322.5c0,0,32.8,10.6,36.5,22.5c0.1,4,1.2,7.9,3.1,11.4v2.3c0,0-3.4-8-5.3-9.1
				C830.7,349.7,838,339.4,796.3,322.5z"/>
			<path class="st5" d="M836,356.4c3,5.1,3.8,11.3,2.2,17l-1.3-0.4c0,0,1.3-10.3-1.4-15.5S836,356.4,836,356.4z"/>
			<path class="st6" d="M851.5,336c0,0-15.4-8.6-8.2-20.4c0,0,5.8-7.2,11.9-9.1c0,0-3.3,17.5,0,17.9s2.3-19.8,2.3-19.8
				s16.3-7.8,22.7-7.2c0,0-10.1,17.1-6.8,16.7s14.6-17.7,14.6-17.7s16.7-3.1,19.3,6.8s-1.7,14.8-4.1,15.4s-18.3,0.4-17.9,2.5
				s11.1,5.4,17.1,3.5c0,0-6.6,16.3-15.2,15.4s-11.3-6.2-16.7-6.6s-9.3,1-6.6,2.5s11.7,0.5,16.1,4.1s7.8,5.9-0.2,7.6
				s-22.4,0.6-25.3-5.6L851.5,336z"/>
			<path class="st5" d="M899.7,306.3c0,0-43.2,14-48.2,29.6c-0.1,5.3-1.6,10.4-4.1,15v3.1c0,0,4.5-10.5,7-11.9
				C854.4,342.1,844.7,328.5,899.7,306.3z"/>
			<path class="st5" d="M847.4,351c0,0-6.7,10.1-2.9,22.5l1.7-0.5c0,0-1.7-13.6,1.8-20.4S847.4,351,847.4,351z"/>
			<path class="st7" d="M851,400.2c16.7,0,30.3-13.5,30.3-30.3l0,0h-60.5C820.8,386.6,834.3,400.2,851,400.2z"/>
			<path class="st8" d="M858.5,399.9c-1.2,0.2-2.5,0.2-3.8,0.2c-16.7,0-30.3-13.5-30.3-30.3h7.5C832,385.2,843.3,398,858.5,399.9z"
				/>
			<path class="st7" d="M881.7,401.7h-61.3c0-2.1,1.7-3.7,3.7-3.7c0,0,0,0,0,0h53.9C880,398,881.7,399.6,881.7,401.7
				C881.7,401.7,881.7,401.7,881.7,401.7L881.7,401.7z"/>
			<rect x="819.8" y="369.9" class="st9" width="62.2" height="0.9"/>
			<path class="st10" d="M723.8,306.9c0.4-11.1,1.4-22.1,3.2-33c2.3-12.9,4.3-20.3,4.3-20.4c0.3-1.1,4.6-5.7,14.2-5.6
				s8.7,6.1,8.7,6.1l0,0c0,0.2,0,0.4-0.1,0.5c-5.9,23.6-8.8,47.9-8.5,72.2c0,0.6,0.1,1.5,0,2.2c0,0-22.2,0.6-22.2,0
				C722.7,325.5,723,315.7,723.8,306.9z"/>
			<path class="st11" d="M721.1,326.7c0,0.6,0.3,1,0.7,1l0,0c0.4,0,0.7-0.5,0.7-1h19c0,0.6,0.3,1,0.7,1l0,0c0.4,0,0.7-0.5,0.7-1
				c-0.1-10.7,0.4-21.4,1.6-32c2.5-23.8,7.2-39.8,7.3-40c0-0.2,0.1-0.4,0.1-0.5c0,0,0.9-6-8.7-6.1s-13.9,4.4-14.2,5.6
				c0,0.1-1.2,4.3-2.7,11.8c-0.5,2.5-1.1,5.4-1.6,8.6c-1.7,10.9-2.8,21.9-3.2,33C720.6,315.7,720.3,323.1,721.1,326.7z"/>
			<path class="st12" d="M721.1,326.7c0,0.6,0.3,1,0.7,1l0,0c0.4,0,0.7-0.5,0.7-1h19c0,0.6,0.3,1,0.7,1l0,0c0.4,0,0.7-0.5,0.7-1
				c-0.1-10.7,0.4-21.4,1.6-32c-3.1-15.1-15.3-26.7-18.2-29.3c-0.5,2.5-1.1,5.4-1.6,8.6c-1.7,10.9-2.8,21.9-3.2,33
				C720.6,315.7,720.3,323.1,721.1,326.7z"/>
			<path class="st10" d="M740.2,326.5L740.2,326.5c0,0,0,0,0-0.1l0,0c0-0.1,0-0.3-0.2-0.4c-0.6-0.6-2.9-0.6-5.8-0.5
				c-3.7,0.1-7.4-0.1-11.1-0.6c-2-0.4-0.7-15.8,0.8-30.3c0.3-2.5,0.4-4.4,0.5-5.5c0.9-12.3,6.4-34.2,6.5-34.4
				c0.2-0.9,3.5-4.3,10.6-4.2c2.7,0,4.6,0.7,5.7,2c0.7,0.8,1,1.7,0.9,2.7c0,0.1,0,0.3-0.1,0.4c0,0.1-4.9,28.4-5.7,35.2
				c-1.3,11.2-1.8,34.4-1.9,35.6v0.1L740.2,326.5z M736,325.2c2.1,0,3.6,0.1,4.2,0.6l0,0c0-0.5,0-1.5,0.1-3.4
				c0.1-2.2,0.2-5.7,0.3-9.6c0.3-6.8,0.8-16.2,1.5-22.2c0.8-7,5.7-35.2,5.8-35.2c0-0.1,0-0.2,0-0.4c0.1-0.9-0.2-1.9-0.8-2.6
				c-1-1.2-2.9-1.8-5.5-1.9c-7-0.1-10.2,3.2-10.4,4.1c0,0.2-5.5,22-6.4,34.3c-0.1,1.1-0.3,3.1-0.5,5.5c-1,9.7-3,29.7-1,30.1
				c3.6,0.5,7.3,0.7,11,0.6L736,325.2z"/>
			<path class="st11" d="M744.2,327.7h-74.5c0,0,1.7-6.9,44.8-5.9C745.1,322.5,744.2,327.7,744.2,327.7z"/>
			<path class="st10" d="M750.2,400c-8.6-43.1-6.4-69.5-6.4-69.9c0-0.7-1.2-1.3-1.9-1.3s-3.7-0.2-4,0.4c-0.5,0.7-2.2,33.3,10.7,70.8
				H750.2z"/>
			<path class="st10" d="M680.7,400c8.6-43.1,6.4-69.5,6.4-69.9c0-0.7,1.2-1.3,1.9-1.3s3.7-0.2,4,0.4c0.5,0.7,2.2,33.3-10.7,70.8
				H680.7z"/>
			<path class="st13" d="M666.9,400c8.6-43.1,6.4-69.5,6.4-69.9c0-0.7,1.2-1.3,1.9-1.3s3.7-0.2,4,0.4c0.5,0.7,2.2,33.3-10.7,70.8
				H666.9z"/>
			<path class="st13" d="M736.4,400c-8.6-43.1-6.4-69.5-6.4-69.9c0-0.7-1.2-1.3-1.9-1.3s-3.7-0.2-4,0.4c-0.5,0.7-2.2,33.3,10.7,70.8
				H736.4z"/>
			<path class="st10" d="M744.1,329.9h-74.5c-0.8,0-1.5-0.7-1.5-1.5v-1c0-0.8,0.7-1.5,1.5-1.5h74.5c0.8,0,1.5,0.7,1.5,1.5v1
				C745.6,329.2,745,329.9,744.1,329.9z"/>
			<path class="st10" d="M442.1,305.6c0.4-11.2,1.4-22.4,3.1-33.5c2.3-13.1,4.3-20.6,4.3-20.7c0.3-1.1,4.6-5.8,14.2-5.6
				s8.6,6.2,8.6,6.2l0,0c0,0.2,0,0.4-0.1,0.5c-5.9,24-8.7,48.6-8.5,73.2c0,0.6,0.1,1.6,0,2.2c0,0-22.1,0.6-22.2,0
				C440.9,324.5,441.3,314.5,442.1,305.6z"/>
			<path class="st11" d="M439.3,325.6c0,0.6,0.3,1,0.7,1l0,0c0.4,0,0.7-0.5,0.7-1h19c0,0.6,0.3,1,0.7,1l0,0c0.4,0,0.7-0.5,0.7-1.1
				c-0.1-10.8,0.4-21.7,1.6-32.4c2.5-24.2,7.2-40.3,7.3-40.6c0-0.2,0.1-0.4,0.1-0.5c0,0,0.9-6.1-8.6-6.2s-13.9,4.5-14.2,5.6
				c0,0.1-1.2,4.3-2.7,12c-0.5,2.5-1,5.5-1.6,8.7c-1.7,11.1-2.8,22.3-3.1,33.5C438.8,314.5,438.5,322.1,439.3,325.6z"/>
			<path class="st12" d="M439.3,325.6c0,0.6,0.3,1,0.7,1l0,0c0.4,0,0.7-0.5,0.7-1h19c0,0.6,0.3,1,0.7,1l0,0c0.4,0,0.7-0.5,0.7-1.1
				c-0.1-10.8,0.4-21.7,1.6-32.4c-3.1-15.3-15.3-27.1-18.2-29.7c-0.5,2.5-1,5.5-1.6,8.7c-1.7,11.1-2.8,22.3-3.1,33.5
				C438.8,314.5,438.5,322.1,439.3,325.6z"/>
			<path class="st10" d="M458.5,325.5L458.5,325.5C458.4,325.5,458.4,325.5,458.5,325.5L458.5,325.5c0-0.2-0.1-0.4-0.2-0.5
				c-0.6-0.6-2.9-0.6-5.8-0.6c-3.7,0.1-7.4-0.1-11.1-0.6c-2-0.4-0.7-16,0.8-30.7c0.2-2.5,0.4-4.5,0.5-5.6
				c0.9-12.4,6.4-34.7,6.4-34.8c0.2-0.9,3.5-4.4,10.6-4.3c2.7,0,4.6,0.7,5.6,2c0.7,0.8,1,1.8,0.9,2.8c0,0.1,0,0.3-0.1,0.4
				c0,0.1-4.9,28.8-5.8,35.7c-1.3,11.3-1.9,34.8-1.9,36.1v0.1L458.5,325.5z M454.2,324.1c2.1,0,3.6,0.1,4.1,0.6l0,0
				c0-0.5,0-1.6,0.1-3.5c0.1-2.3,0.2-5.8,0.3-9.7c0.3-6.9,0.8-16.5,1.5-22.5c0.8-7,5.7-35.6,5.8-35.7c0-0.1,0-0.2,0-0.4
				c0.1-1-0.2-1.9-0.9-2.6c-1-1.2-2.9-1.9-5.5-1.9h-0.3c-6.8,0-9.9,3.2-10.1,4.1c0,0.2-5.5,22.3-6.4,34.8l0,0
				c-0.1,1.2-0.3,3.1-0.5,5.6c-1,9.8-3,30.1-1,30.5c3.6,0.5,7.3,0.7,11,0.6L454.2,324.1z"/>
			<path class="st11" d="M462.4,326.7H388c0,0,1.7-7,44.9-6C463.3,321.5,462.4,326.7,462.4,326.7z"/>
			<path class="st10" d="M468.5,400c-8.6-43.7-6.4-70.5-6.4-70.9c0-0.7-1.2-1.3-1.9-1.3s-3.7-0.2-4,0.4c-0.5,0.8-2.2,33.8,10.7,71.8
				H468.5z"/>
			<path class="st10" d="M399,400c8.6-43.7,6.4-70.5,6.4-70.9c0-0.7,1.2-1.3,1.9-1.3s3.6-0.2,4,0.4c0.5,0.8,2.2,33.8-10.7,71.8H399z
				"/>
			<path class="st13" d="M385.2,400c8.6-43.7,6.4-70.5,6.4-70.9c0-0.7,1.2-1.3,1.9-1.3s3.7-0.2,4,0.4c0.5,0.8,2.2,33.8-10.7,71.8
				H385.2z"/>
			<path class="st13" d="M454.6,400c-8.6-43.7-6.4-70.5-6.4-70.9c0-0.7-1.2-1.3-1.9-1.3s-3.7-0.2-4,0.4c-0.5,0.8-2.2,33.8,10.7,71.8
				H454.6z"/>
			<path class="st10" d="M462.4,328.9h-74.4c-0.8,0-1.5-0.7-1.5-1.5v-1c0-0.8,0.7-1.5,1.5-1.5h74.5c0.8,0,1.5,0.7,1.5,1.5v1
				C463.9,328.2,463.2,328.9,462.4,328.9L462.4,328.9z"/>
			<path class="st14" d="M490.7,270.2c0,0,6.1,2.5,10.5-3.8C501.2,266.4,494.1,265.2,490.7,270.2z"/>
			<path class="st14" d="M490.3,267.6c-0.3-1.4-1.6-2.3-3-2.3C487.3,265.3,488.2,267.5,490.3,267.6z"/>
			<path class="st14" d="M491.5,254.7c1.9,0.1,3.6-1.1,4.1-3C495.6,251.8,492.4,252.1,491.5,254.7z"/>
			<path class="st14" d="M498.6,211.5c-6-1.3-6.1-6.2-6.1-6.2C499.6,207.5,498.6,211.5,498.6,211.5z"/>
			<path class="st14" d="M499,210.4c2.4,0.8,5.1-0.1,6.4-2.3C505.5,208.1,501.1,207.3,499,210.4z"/>
			<path class="st14" d="M490.8,284.6l-0.8,0.9c-0.1,0.1-0.2,0.1-0.3,0c0,0-0.1-0.1-0.1-0.1c0.1-20.5,2.1-41,6-61.1
				c1.5-7.8,3.5-15.6,6-23.1l0,0c0,0.1-2.7,8.8-5.7,23.3c-2.7,13.3-5.8,30.7-5,59.9C491,284.4,490.9,284.5,490.8,284.6z"/>
			<path class="st3" d="M501.6,197.6c-1,0.8-4.6,4.1-1.1,6.6c0,0,2.7,0.9,3.6-1.2c0.5-1.3,0.8-2.7,0.9-4.2c0-0.2-0.2-0.4-0.4-0.3
				c-0.3,0-0.5-0.1-0.8-0.2c-0.3-0.1-0.5-0.6-1-0.8c-0.3-0.1-0.6-0.1-0.9-0.1C501.9,197.5,501.7,197.5,501.6,197.6z"/>
			<path class="st14" d="M499.5,203.3c0.6,0.6,0.9,1.4,0.7,2.3v0.5c0.2-0.8,0.8-1.4,1.6-1.7C500.9,204.4,500.1,204,499.5,203.3z"/>
			<path class="st15" d="M498.6,211.5c-6-1.3-6.1-6.2-6.1-6.2S497.3,207.9,498.6,211.5z"/>
			<path class="st14" d="M492.9,208.1c-2.4,0.8-5.1-0.2-6.4-2.4C486.5,205.7,490.8,205.1,492.9,208.1z"/>
			<path class="st14" d="M499.6,282.5l0.8,0.9c0.1,0.1,0.2,0.1,0.3,0c0,0,0.1-0.1,0.1-0.2c0.4-20.5-1.2-41-4.7-61.2
				c-1.4-7.9-3.2-15.6-5.5-23.3l0,0c0,0.1,2.5,8.9,5.2,23.4c2.4,13.4,5.2,30.8,3.8,60C499.5,282.2,499.5,282.4,499.6,282.5z"/>
			<path class="st3" d="M490.6,195.3c1,0.8,4.5,4.1,0.9,6.6c0,0-2.8,0.8-3.6-1.3c-0.5-1.3-0.8-2.7-0.9-4.2c0-0.2,0.1-0.4,0.3-0.4
				c0.3,0,0.5-0.1,0.8-0.2c0.3-0.1,0.5-0.6,1-0.7c0.3-0.1,0.6-0.1,0.9-0.1C490.3,195.1,490.4,195.2,490.6,195.3z"/>
			<path class="st14" d="M492.5,201c-0.7,0.5-0.9,1.4-0.7,2.3v0.5c-0.2-0.8-0.8-1.5-1.6-1.7C491.1,202.1,491.9,201.7,492.5,201z"/>
			<path class="st14" d="M494.5,203.7c2.5,0.3,4.9-1.2,5.8-3.6C500.2,200,495.8,200.3,494.5,203.7z"/>
			<path class="st14" d="M502.6,277.9l-0.6,1c0,0.1-0.2,0.1-0.3,0.1c-0.1,0-0.1-0.1-0.1-0.1c-4.4-20-6.9-40.5-7.5-61
				c-0.2-8,0-16,0.8-23.9l0,0c0,0.1-0.8,9.2-0.5,23.9c0.3,13.6,1,31.2,8.2,59.6C502.7,277.7,502.7,277.8,502.6,277.9z"/>
			<path class="st3" d="M494.1,190.7c-0.8,1-3.6,5,0.4,6.7c0,0,2.9,0.2,3.3-2c0.2-1.4,0.2-2.8,0-4.3c0-0.2-0.2-0.3-0.4-0.3
				c-0.3,0-0.5,0-0.8,0c-0.4-0.1-0.6-0.5-1.1-0.5c-0.3,0-0.6,0-0.9,0.1C494.4,190.4,494.3,190.6,494.1,190.7z"/>
			<path class="st14" d="M493.4,196.7c0.8,0.4,1.2,1.2,1.2,2.1l0.1,0.5c0-0.8,0.5-1.6,1.2-2C495,197.5,494.1,197.2,493.4,196.7z"/>
			<path class="st14" d="M497.8,199.2c0,0,0-3.2,2.7-4.2C500.5,195.1,501.1,197.7,497.8,199.2z"/>
			<path class="st16" d="M491.4,194.2c0-1.4-0.8-2.7-2.2-3.1C489.2,191,488.7,193.3,491.4,194.2z"/>
			<path class="st16" d="M498.7,208.7c0.7-1.5,0.3-3.3-1-4.3C497.2,205.9,497.6,207.6,498.7,208.7z"/>
			<path class="st14" d="M500.2,208.5c0-0.7,0.4-1.3,1.1-1.4C501.4,207.1,501.5,208.1,500.2,208.5z"/>
			<path class="st14" d="M488.8,204.4c0,0-1-2-4.1-1.7C484.7,202.7,485.2,204.9,488.8,204.4z"/>
			<path class="st3" d="M505.9,287.6h-19.8c-1.2,0-2.2-1-2.2-2.2c0-0.1,0-0.2,0-0.3l9.2-63.6c0.1-0.6,0.6-1,1.2-1h3
				c0.6,0,1.2,0.5,1.3,1.1l9.5,63.7c0.1,1.2-0.7,2.2-1.9,2.3C506,287.6,506,287.6,505.9,287.6z"/>
			<path class="st4" d="M490.5,285.6l4.9-65.2c-0.5,0.1-0.9,0.5-1,1l-9.3,63.7c-0.2,1.2,0.7,2.3,1.9,2.5c0.1,0,0.2,0,0.3,0h4
				C490.7,287.1,490.4,286.4,490.5,285.6z"/>
			<path class="st17" d="M685,280.6c0,0-13.6,15.5-16.4,15.3s-4.6-1.2-7.1,0c-1.8,0.8-7.4,5.4-5.9,5s4.3-0.6,5-0.7
				c1-0.1,2.6-0.1,3.7-0.3c0.7-0.1,3.2-0.2,4-0.2c3.6-0.1,20.5-10,20.5-10L685,280.6z"/>
			<path class="st18" d="M662.6,264c-0.8-0.2-1.6-0.2-2.4,0v-1.1c0-0.3,0-0.5,0-0.7h-11.5c0,0.2,0,0.5,0,0.7v2.2
				c0,3.2,2.5,5.8,5.7,5.8c1.7,0,3.3-0.7,4.4-2l0,0c0,0,2.7-0.7,3.6-1.7S663.5,264.6,662.6,264z M662,266.1
				c-0.3,0.8-1.6,1.1-2.2,1.3c0.3-0.6,0.4-1.2,0.5-1.9c0.3-0.5,0.9-0.8,1.5-0.8C662.1,264.8,662.4,265.1,662,266.1z"/>
			<path class="st19" d="M649.7,262.9v2.2c0,3.2,2.6,5.8,5.8,5.8c0.3,0,0.5,0,0.8-0.1c-2.9-0.4-5-2.8-5-5.7v-2.2c0-0.2,0-0.5,0-0.7
				h-1.5C649.7,262.4,649.7,262.6,649.7,262.9z"/>
			<rect x="652.1" y="270.4" class="st18" width="4.7" height="0.7"/>
			<path class="st20" d="M694.5,201.7c0,0,0.6-7.8,11.8-5.8c3,0.5,5-4.8,9.9-2.9c10.5,4.1,11.1-1.3,14.1,6.2
				c1.3,3.1,9.3,6.8,6.8,12.3s1.7,9.1-1.2,13.4c-1.5,2.2-0.9,6.2-8,6.3c-3.5,0.1-9,6.6-12.9,7.8s-15.7-0.5-15.3-5.9
				c0.3-4.2-4.6-3.9-7.6-8.7c-2.6-4.3,2.1-5.3-0.5-12.2C689.8,207.1,694.6,205.9,694.5,201.7z"/>
			<path class="st17" d="M632.7,393.7c0.2,2.6-3.4,3.2-7.6,3.5s-2.9,1.1-8.7,2.1s-8.1-0.5-8.5-1.3s2.3-1.8,5.2-3l1.1-0.5
				c3.2-1.4,5-4.3,7.5-7s4.6-10.6,4.6-10.6l7.8-1.7c0,0-2.2,7.3-3,10.4c-0.5,1.8,0.2,3.9,0.8,5.5
				C632.3,391.9,632.6,392.8,632.7,393.7z"/>
			<path class="st21" d="M625.1,397.2c-4.2,0.2-2.9,1.1-8.7,2.1s-8.1-0.5-8.5-1.3s2.3-1.8,5.2-3l0,0c2.9,0.8,5.9,0.9,8.7,0.1
				c3.8-1,7.5-3.3,10.1-4c0.4,0.8,0.6,1.7,0.7,2.6C633,396.4,629.3,397,625.1,397.2z"/>
			<path class="st22" d="M702.2,294.9c0,0-43.5,2-53.3,8.1s-25.5,78.3-25.5,78.3c0.9,0.6,2,0.9,3.1,1c2,0.2,6.5-1,6.5-1
				s22.6-32.3,24.2-40.4s1.2-15.4,4.8-15.6s48.8,5.5,55.7-6.5S702.2,294.9,702.2,294.9z"/>
			<path class="st17" d="M650.7,394c0.2,2.6-3.4,3.3-7.6,3.5s-2.9,1.1-8.7,2.1s-8.1-0.5-8.5-1.3s2.3-1.8,5.2-3l1.1-0.5
				c3.2-1.4,5-4.3,7.5-7c2.4-2.5,4.6-10.6,4.6-10.6l7.8-1.7c0,0-2.2,7.3-3,10.4c-0.5,1.8,0.2,3.9,0.8,5.4
				C650.3,392.2,650.6,393.1,650.7,394z"/>
			<path class="st21" d="M643.1,397.5c-4.2,0.2-2.9,1.1-8.7,2.1s-8.1-0.5-8.5-1.3s2.3-1.8,5.2-3v0c2.9,0.8,5.9,0.9,8.7,0.1
				c3.8-1,7.5-3.3,10.1-4.1c0.4,0.8,0.6,1.7,0.7,2.6C650.9,396.6,647.3,397.3,643.1,397.5z"/>
			<path class="st20" d="M719,295.9c0,0-46.3,2.2-55.8,8.8s-22.5,79.2-22.5,79.2c1,0.6,2.1,0.9,3.2,0.9c2,0.1,6.4-1.2,6.4-1.2
				s21.3-33.1,22.6-41.3s0.6-15.4,4.2-15.8s49,3.6,55.4-8.7S719,295.9,719,295.9z"/>
			<path class="st17" d="M732.9,236.8L732.9,236.8c-0.4-0.5-0.9-0.9-1.3-1.2l0,0l0,0c-3.8-2.6-10.5-3.2-10.5-3.2l0,0
				c0,0-0.7-0.1-1.9-0.1c-1.3-3.4-2-7-2.2-10.7l-0.7,0.2l-11.3,3c0,0,0.5,3.6,0.7,7c0,0.7,0.1,1.5,0.1,2.2c-0.3,0.1-7.3,1.1-8.9,2.7
				s-4.6,12.5-5.3,14.5l43.4,0.7C734.9,251.8,736,240.5,732.9,236.8z"/>
			<path class="st14" d="M734.5,314.3c-5.1,0.5-22.4-10-28.2-13.4l-0.3-0.2c-2.4-1.4-5.8-2.1-9-2.6c-4.1-0.7-7.9-1.1-9.1-2.6
				c-1.5-1.7,2.8-3.7,6.3-5.7c1.7-1,3.3-2,3.7-3.1c0.4-0.8,0.3-2.6,0.1-4.9l0,0c0-0.4-0.1-0.9-0.2-1.3c-0.3,0.6-0.6,1.2-1,1.8
				c-1.1,1.6-2.3,3-3.7,4.3c-1.2,1.3-2.7,2.3-4.3,3c-0.7,0.1-1.4,0.1-2-0.2c-1.8-0.7-3.5-2.7-4.9-4.6c-0.3-0.5-0.6-0.9-0.9-1.3
				c-0.9-1.4-1.6-2.6-1.9-2.9c-0.8-0.9,3.1-2.5,4.7-3.8s7.8-25.8,7.8-25.8c0.8-1.9,3.8-12.8,5.3-14.5c0,0,6,7.3,13.7,6.8
				s20.8-7.8,21-7.9c0.5,0.3,1,0.7,1.4,1.2c3.1,3.7,2,15,2,15s-6,26.4-6,29.1c0,4.9,4,16.1,6,24.2
				C736.1,310.3,736.5,314.1,734.5,314.3z"/>
			<path class="st23" d="M704.9,224.7c0,0,0.5,3.6,0.7,7c6.4-0.6,9.4-6.6,10.5-10L704.9,224.7z"/>
			<path class="st17" d="M703,228.1c0,0,15.1-0.8,14.5-10.2s0.9-15.9-8.8-15.8s-11.3,3.8-11.9,7S699,228.1,703,228.1z"/>
			<path class="st20" d="M702.4,205.5c0,0,3.6-0.8,4.8,0.9s0.3,2.7,3,3.5s3.5,0.7,3.3,2.5s2.7,3.2,2.8,4.7c0.1,1.3,1.2,2.3,2.5,2.4
				c1.2,0.1,0.6-19-3.8-19.9s-8.8,0.2-10.1,1.2S702.4,205.5,702.4,205.5z"/>
			<path class="st20" d="M702.4,205.5c0,0-3.5-0.2-4.2,1.8s0.2,2.5-0.7,3.7s-0.4,3.4-0.4,3.4s-7-12.8,0.4-13.6
				S704.7,201.3,702.4,205.5z"/>
			<path class="st24" d="M697.8,277.7c-1.2,3.2-2.7,6.3-4.7,9.1c-1.2,1.3-2.7,2.3-4.3,3c-0.7,0.1-1.4,0.1-2-0.2
				c-1.8-0.7-3.5-2.7-4.9-4.6c-0.3-0.5-0.6-0.9-0.9-1.3c4.8-3.9,13.9-12.7,14.9-24.8C697.1,242.4,697.8,278.5,697.8,277.7z"/>
			<path class="st24" d="M686.8,289.5c1.7-2.5,5.1-5.1,10-7.1c-2.3,3.4-6.1,6.8-8,7.3C688.1,289.9,687.4,289.8,686.8,289.5z"/>
			<path class="st24" d="M726.8,257.8c0,0-3.8,38-20.5,43.2l-0.3-0.2c-2.4-1.4-5.8-2.1-9-2.6c-4.1-0.7-7.9-1.1-9.1-2.6
				c-1.5-1.7,2.8-3.7,6.3-5.7c1.7-1,3.3-2,3.7-3.1c0.4-0.8,0.3-2.6,0.1-4.9l0,0C714.2,276,726.8,257.8,726.8,257.8z"/>
			<path class="st17" d="M731,246.5c-1.8-7.9-9.7-3.4-9.7-3.4c-2.8-0.6-23,32.1-24.6,32.9c-1.4,0.6-20-4.8-25.7-6.5
				c-1.5-1.1-6.6-5.1-7.5-5.1s-8.1,1.7-8,2.8s1.7,2.8,4.3,3.2c2,0.3,5.3,1.6,7.4,1.9l0,0c0,0,20.6,14,29.3,15.7
				C704.5,289.6,732.8,254.5,731,246.5z"/>
			<path class="st14" d="M684.4,273.3c0,0-4.7,12.2,0.9,16.8s18,3.1,31.5-15.8s19-29.1,12-32.1s-12.8,1.7-16.4,9
				c-3.8,7.6-10.6,18.2-14.8,18.6S684.4,273.3,684.4,273.3z"/>
			<path class="st17" d="M565.6,158.8v1.8c0,0-0.5,5.8,6.6,6.6s12.9,0.7,12.7-3.7c-0.6-3.4-1.8-8.8-1.8-11.6c0-1.2,0.1-2.3,0.3-3.4
				l-13.7-0.3l-4,0.7L565.6,158.8z"/>
			<path class="st25" d="M565.5,148.9v9.9c1.6,0.7,3.3,1.1,5,1.1c6.3,0,10.4-4.6,12.5-8c0-1.2,0.1-2.3,0.3-3.4l-13.7-0.3
				L565.5,148.9z"/>
			<path class="st17" d="M584.3,146.3c-1.6,8.6-12.7,8.3-17.4,7.8c-1.3-0.1-2.2-0.3-2.2-0.3c-1.5-0.4-2.4-2.8-2.8-5.9
				c-0.8-6.2,0.2-15.3,1.3-17.6c1.6-3.5,4.5-7.3,15.7-4.6S586.4,135.3,584.3,146.3z"/>
			<path class="st26" d="M593.4,400h-15.7c0.3-1.9,0.7-3.8,1.3-5.6c0.2-0.8,0.5-1.5,0.9-2.3c1.5-3,11.2-1.1,11.2-1.1
				s0.9,0.8,1.6,3.7C593,396.4,593.3,398.2,593.4,400z"/>
			<path class="st26" d="M546,395c0,2.1-0.3,4.1-1.1,5h-31c0.4-1.1,1.5-2.8,4.7-3.3c3.6-0.6,9.3-2.3,12.5-5.8
				c1.2-1.2,2.1-2.7,2.5-4.4c1.5-6.5,12,2,12,2C545.9,390.6,546.1,392.8,546,395z"/>
			<path class="st27" d="M566.7,324.9c-0.4,1.9-0.6,3.8-0.8,5.7c-1,19.2-16.2,63.1-18.9,64.2c-4.2,1.6-10.8-1.8-14.3-2.9
				c-1.5-0.4-2.3-1.9-2.1-3.4c7.5-34.6,10.3-84.4,11.3-113.8c0.2-8.4,1.2-16.9,3.1-25.1c0,0,37-9.9,37.3,2.6
				C582.4,263.2,570,306.6,566.7,324.9z"/>
			<path class="st26" d="M566.7,324.9l-24.8-50.2c0.2-8.4,1.2-16.9,3.1-25.1c0,0,37-9.9,37.3,2.6C582.4,263.2,570,306.6,566.7,324.9
				z"/>
			<path class="st27" d="M558.4,252.2L578,394.1c0,0,8.6,2.1,15.3,0.4c0,0,5.7-75.5,5.3-93.7s4.1-48.8-1-52.2
				S558.4,252.2,558.4,252.2z"/>
			<path class="st26" d="M559.8,122.1c3.7-0.4,7.3-1.4,10.7-2.9c4.7-2,10.6,0.2,12.5,1.2c-0.1-0.4-0.2-0.8-0.5-1.1
				c0.5,0.4,0.8,0.9,1,1.5c0.1,0.1,0.1,0.1,0.1,0.1c0.5-0.1,1.1-0.1,1.6,0.1c0,0-0.4-0.1-0.6,0.2c0,0,0,0.1-0.1,0.1
				c7.3,3.5,8,15.1,5.6,17.8c-2.8,3.2-6.2,10.5-6.2,10.5c-0.8-1.4-1.1-3-0.7-4.6c0.5-2.8-1.9-2.8-5-4.1s-0.5-4.9-3.2-7.1
				s-12.6-0.9-12.5-2.6C558.8,129.8,559.8,122.5,559.8,122.1z"/>
			<path class="st28" d="M586.5,166l-4.5,96.7c0,0-37.6,0.6-36.6-7.9c1.1-8.5,13.6-85.9,13.6-85.9L586.5,166z"/>
			<path class="st29" d="M600,220.9c-2.2,6.7,2,29.3,3.5,36.9c0.3,1.6,0.5,2.6,0.5,2.6c-5.2,8.5-24.3,8.4-24.3,8.4
				c-3.7-16.2-5.6-42.1-5.6-42.1l14.7-64.2l18.4,17c0,0-1.4,10.4-3.1,21C602.7,208.8,601.2,217.3,600,220.9z"/>
			<path class="st30" d="M568.7,147.7c0,0-0.3,1.1-3.1,0.7c0,0-2.3-0.3-2.2-1.6C565.2,146.5,567.1,146.8,568.7,147.7z"/>
			<path class="st29" d="M547.5,167.5L547.5,167.5c-0.9,0.9-26,25.3-30.9,34.8s22.6,29,22.6,29c1,0.4,2,0.5,3,0.4
				c-1.3,10.7-2.8,20.6-1.9,24.8c1.6,7.6,8.6,10.2,8.6,9.6c0-0.2,2.6-27.7,4-42.1c3-30.8,10.5-61.4,10.5-61.4
				C558,163.4,552.6,165,547.5,167.5z M532.5,206.5c0,0,0-0.1,0-0.1c0-1.4,5.3-4.5,11.1-8.1l0.1-0.1l0,0c-0.1,3-0.1,5.9,0.1,8.6
				c0.2,5.7,0,11.5-0.6,17.1C540.4,219.5,533.1,208,532.5,206.5z"/>
			<path class="st31" d="M587.6,162.3c0-0.9-4.3-2.2-4.3-2.2s-5,6.9-13.3,7.1c0,0,2.3,4.6,5.1,5.8
				C575.1,172.9,587.3,167.8,587.6,162.3z"/>
			<path class="st31" d="M570,167c0,0-4.3-2.6-4.3-5.4c0,0-2.8-0.4-4,1c0,0-1,4.8,0.3,7.6C561.9,170.2,568.2,169.3,570,167z"/>
			<path class="st32" d="M573,166.6l-5.9-1.4c-0.5,0.1-0.8,0.5-0.8,1c0,1,1.7,3.8,2.4,4S574.4,168.6,573,166.6z"/>
			<path class="st28" d="M586.9,161.8c0-0.9-2.9-2.8-2.9-2.8s-5.7,6.7-14,6.8c0,0,2.3,4.6,5.1,5.8
				C575.1,171.6,586.7,167.3,586.9,161.8z"/>
			<path class="st28" d="M570,165.8c0,0-4.4-2.3-4.4-5.1c-1.4,0.6-2.8,1.5-3.9,2.5c-0.6,1.9-0.6,4,0.2,5.8
				C561.9,169.1,568.2,168.1,570,165.8z"/>
			<path class="st21" d="M558.4,232.6c0.2,2.3,1.2,4.4,2.9,5.9l2.6,2.4c0.6,0.6,1.6,0.5,2.2-0.1c0,0,0.1-0.1,0.1-0.1l3.3-4.1
				c0.9-1.1,1.3-2.5,1.2-3.9c-0.3-3.1-0.9-9.1-1.3-14.9c-0.4-4.7-0.7-9.3-0.7-12.1c-0.1-8.9,1.7-37.2,1.7-37.2l-2.1,0.1
				c-3.7,8.3-6.4,17-8,26c-0.7,3.8-1.2,7.7-1.4,11.6C558.7,206.2,557.5,222.4,558.4,232.6z"/>
			<path class="st32" d="M558.4,232.6c0.2,2.3,1.2,4.4,2.9,5.9l2.6,2.4c0.6,0.6,1.6,0.5,2.2-0.1c0,0,0.1-0.1,0.1-0.1l3.3-4.1
				c0.9-1.1,1.3-2.5,1.2-3.9c-0.3-3.1-0.9-9.1-1.3-14.9c-5.9-6.6-8.3-15.7-9.2-23.2c-0.7,3.9-1.2,7.7-1.4,11.7
				C558.7,206.2,557.5,222.4,558.4,232.6z"/>
			<path class="st17" d="M537.5,232.8c0-2.2,1.8-4.1,4-4.1c0.2,0,0.4,0,0.6,0c0.7,0.1,1.3,0.4,1.7,0.9c1.7,2.2,3.3,8.7,0.3,9
				c-1.2,0.1-2.8-0.7-4-1.6s-2.7-2.4-2.7-3.9L537.5,232.8z"/>
			<path class="st26" d="M603.5,257.8c-5.4-5.6-14.7-16.7-14.4-25.7c0.4-12.7,15-31.6,15-31.6c-1.4,8.4-2.9,16.9-4.1,20.4
				C597.7,227.6,602,250.1,603.5,257.8z"/>
			<path class="st17" d="M603.3,235.7c0,0-3.9,1.9-6.2,1s-5.1-1.7-7.8,1.3s-3.2,5.1-2.6,6.2s6.7,0.7,7.7,0s2.6-2.4,3.7-2.1
				c2.8,0.8,5.2-1.3,6.5-3C605.3,237.9,603.2,237.5,603.3,235.7z"/>
			<path class="st29" d="M588.8,162.5c0,0,15.5,1.7,19.1,8.4s22.6,34,22,45.3s-25.8,24-25.8,24s-5.6-2.4-5.7-4.9
				s17.4-17.7,16.4-20.6s-20.4-25.2-22.2-32.6S588.8,162.5,588.8,162.5z"/>
			<path class="st26" d="M543.7,198.1l-0.1,0.1c-5.8,3.6-11.1,6.7-11.1,8.1c-0.8-2.5,6.7-12.7,9.1-14.8S543.7,198.1,543.7,198.1z"/>
			<path class="st26" d="M584,159c0,0-11.7,49.1-9.9,67.6c0,0,4.3-19.8,14.7-36c0,0-3.8-3.3-3.6-4.6c1.8-0.5,3.7-0.6,5.5-0.3
				c0,0-0.3-21.2-2-23.4C587.5,160.9,585.8,159.8,584,159z"/>
			<path class="st26" d="M565.6,160.7c0.2-0.1-11.6,48-12.6,63.3c0,0,1.2-27.4,1.1-35.3c0,0,4.9-2.6,4.9-3.5s-5.2-3.4-5.2-3.4
				s3.3-16.9,5.1-18.7S565.6,160.7,565.6,160.7z"/>
			<path class="st17" d="M413,373.5c0.6,0.6,0.7,1.6,0.4,2.4l0,0c-0.6,1.6-2.4,3.3-4.6,5.1l-0.7,0.6l-0.2,0.1l-0.1,0.1
				c-2,1.9-1.3,2.3-4.9,6.1c-4.2,4.3-7,4.4-7.8,4s0.7-2.6,2.3-5.2l0.2-0.4l0.6-1c1.8-3.1,1.4-4.6,0.9-9.2c-0.4-3.8-5.8-21-5.8-21
				l8-1.4c0,0,2.4,13.7,5,15.8c1.4,1.1,3,1.1,4.4,2l0.3,0.2C411.6,372.2,412.4,372.8,413,373.5z"/>
			<path class="st21" d="M413,373.5c0.6,0.6,0.7,1.6,0.4,2.4l0,0c-0.7,1.6-2.5,3.3-4.6,5.1c-0.3,0.2-0.5,0.4-0.7,0.6l-0.2,0.1
				l-0.1,0.1c-2,1.9-1.3,2.3-4.9,6.1c-4.2,4.3-7,4.4-7.8,4s0.7-2.6,2.3-5.2c2.9-1.1,5.5-3,7.4-5.5c2.5-3.2,4.2-7.3,5.9-9.7l0.3,0.2
				C411.7,372.2,412.4,372.8,413,373.5z"/>
			<path class="st17" d="M348.8,368.5c-0.5,2.5-4,2-7.9,1.1s-3,0.2-8.6-0.4s-7.3-2.7-7.4-3.5s2.6-1,5.6-1.3l1.1-0.1
				c3.3-0.4,5.8-2.6,8.8-4.3c2.9-1.7,7.1-8.5,7.1-8.5l7.6,0.6c0,0-4,6.1-5.6,8.8c-0.7,1.6-1,3.4-0.8,5.2
				C348.9,366.7,348.9,367.6,348.8,368.5z"/>
			<path class="st21" d="M340.9,369.6c-3.9-1-3,0.2-8.6-0.4s-7.3-2.7-7.4-3.5s2.6-1,5.6-1.3v0.1c2.4,1.5,5.2,2.4,8,2.5
				c3.8,0.1,7.8-1,10.4-1c0.1,0.9,0.1,1.7-0.1,2.6C348.3,370.9,344.8,370.5,340.9,369.6z"/>
			<path class="st17" d="M365.8,256.2c0,0-1.8-4.5-3.8-4.7s-8.4-1.2-8.8-0.3s0,4.2,1.4,5.4c1.4,1.2,9.8,3.1,9.8,3.1L365.8,256.2z"/>
			<path class="st33" d="M378.1,319.6l16.5,44.4c1.7,0.1,3.3,0,5-0.5c1.7-0.6,3.3-1.4,4.8-2.3c0,0-4.1-42.6-11.6-51.4
				S378.1,319.6,378.1,319.6z"/>
			<path class="st21" d="M443.3,301.6c0,0-47.4-16-57.9-12.6s-42.3,66.5-42.3,66.5c0.7,0.8,1.6,1.4,2.7,1.7c1.8,0.7,6.2,0.6,6.2,0.6
				s28.6-24.5,32-31.7s4.8-14,8.2-13.3s43.9,16.7,53.1,7.2s6.8-21.9,6.8-21.9L443.3,301.6z"/>
			<path class="st34" d="M414.3,227.2c-0.8-1.6-1.6-4.3-2-9.3c0.1,0.5,0.9,6.7,3.3,10.3c9.9,6.5,28.7,28.1,28.4,32.2
				c0,0,6.6-11.3,6.8-11.4s12.3-15.6-2.3-24.5c-7.4-4.5-7.4-10.4-7-15.4s-2-26.9-16.8-21.1c0,0-2.4-1.1-3.4-0.9
				c0.5,0.1,0.9,0.3,1.3,0.6c-2.1-0.2-4.3,0.2-6.2,1.2C410.8,191.8,406,219.5,414.3,227.2z"/>
			<path class="st17" d="M416.2,228.5c0,0,4.8,2.5,8.4,1.5c3.4-0.9,5.6-5.3,5.6-5.3c-1.4-0.3-1.9-2.3-1.8-10.8l-0.6,0.1l-11,2.2
				c0,0,0.2,3.4,0.3,6.7C417,225.6,416.8,228.2,416.2,228.5z"/>
			<path class="st35" d="M416.7,216.2c0,0,0.2,3.4,0.3,6.7c6.1-0.2,9.4-5.8,10.7-8.9L416.7,216.2z"/>
			<path class="st34" d="M428.8,212.8c0,0,3.2-5.1,4-9.4c0.5-3.1-1-14.6-12.6-12.9c-2.3,0.3-4.5,1.2-6.5,2.5
				c-2.5,1.7-6.1,5.3-2.1,15.4l1,3.4L428.8,212.8z"/>
			<path class="st17" d="M414.7,219.2c0,0,14.5,0.2,14.5-8.8s1.9-15.1-7.4-15.6s-11,2.9-11.8,5.9S410.9,218.9,414.7,219.2z"/>
			<path class="st34" d="M415.2,194.6c0,0,4,10.6,10,12.1s8.7-0.1,8.7-0.1c-3-2.6-5-6.2-5.6-10.2
				C428.4,196.5,418.2,189.6,415.2,194.6z"/>
			<path class="st34" d="M416.2,195.5c0,0-3,2.4-3.7,4.7s-1,7-2.4,6.9c0,0-3-7.2,0.4-11.3C414,191.5,416.2,195.5,416.2,195.5z"/>
			<path class="st36" d="M454.4,301.9c-0.8,2.2-3.2,2.7-6.4,2.4c-6.1-0.7-15.2-4.8-21.8-7.7c-10-4.3-14.5-0.3-17.7-3
				s3.6-8.9-2.3-37.4c-2-9.7,10.7-30.4,10.7-30.4s1.1,6,13.2-1.2c0.4-0.3,5.2,6.8,9.8,15.5c5.1,9.6,9.9,21.3,8.5,27.3
				C445.7,278.9,456.7,295.6,454.4,301.9z"/>
			<path class="st36" d="M416.9,225.9l-7.5,30.7c0,0-0.9,1.7-2.4,4c-3.4,5.5-9.8,15-13.8,15.9c-2,0.5-6.3-1.2-11-3.6
				c-6.7-3.5-13.2-7.4-19.5-11.6c-0.7-4.1,2.9-7.4,2.9-7.4s21.3,8,23.5,8.2c4.6,0.3,9.3-22,13.6-29.4
				C405.9,227.3,416.9,225.9,416.9,225.9z"/>
			<path class="st30" d="M417.9,213.8c0,0-0.3,1.1-3.1,1c0,0-2.4-0.1-2.3-1.4C414.3,212.8,416.2,213,417.9,213.8z"/>
			<path class="st37" d="M454.4,301.9c-0.8,2.2-3.2,2.7-6.4,2.4c-4.2-1.9-22.5-8.9-22.4-13.8c0.3-7.1,3.5-7.3,1.3-16.1
				c-1.8-7,15.1-20.2,17.8-23c5.1,9.6,5.2,10.1,3.8,16.1C445.7,278.9,456.7,295.6,454.4,301.9z"/>
			<path class="st37" d="M407,260.6c-3.4,5.5-9.8,15-13.8,15.9c-2,0.5-6.3-1.2-11-3.6c3.3,0.8,6.7,1,10,0.5
				c3.5-0.3,4.5-4.6,10.1-11.1C406,258.1,406.9,259.2,407,260.6z"/>
			<path class="st17" d="M424,274.2c0,0-3.1-2.4-6-1.8s-4.3,2.6-4.2,3.5s1.6,3.5,3.9,3.7s8.5-1.4,8.5-1.4L424,274.2z"/>
			<path class="st36" d="M430.1,224.6c0,0,11.8,0.7,15.9,6.4c5.8,8,15.7,40.8,13,48.3l-35.9-0.1c0,0-0.9-4.1,0.3-6
				s20.9-5.1,21.8-6.1s-11.4-17.7-11.4-20.4S430.1,224.6,430.1,224.6z"/>
			<polygon class="st20" points="420.9,287.6 377.4,287.6 369.6,260.3 413,260.3 			"/>
			<rect x="377.6" y="286.6" class="st22" width="56.9" height="1.1"/>
			<path class="st22" d="M391.2,273.5c-0.3-0.6,0-1.4,0.7-1.6c0.2-0.1,0.4-0.1,0.6-0.1c1,0.1,1.9,0.8,2.2,1.7
				c0.3,0.7-0.1,1.4-0.7,1.7c-0.2,0.1-0.4,0.1-0.5,0.1C392.4,275.1,391.5,274.5,391.2,273.5z"/>
			<path class="st17" d="M284.3,225.6c0,0,4.8-3.9,6.5-3.9s5-0.9,4.8-0.3s-2.9,1.3-2.4,1.5s4.4-0.8,5.5-0.2s3.7,3.3,1.6,4.4
				s-8.4,3-10,2.8s-5.3-0.5-5.3-0.5L284.3,225.6z"/>
			<polygon class="st17" points="223.5,370 227.5,386.8 233.5,386.8 233.7,370 			"/>
			<polygon class="st17" points="273.8,370.8 285.1,386.8 289.5,381.2 282.7,368.5 			"/>
			<path class="st22" d="M250.5,167.7L250.5,167.7c0,0,0-0.1,0-0.1c-0.1-0.8-0.2-1.7-0.3-2.5l0,0c-0.3-2.4-0.8-4.8-1.4-7.1
				c-0.3-1.2-0.7-2.3-1.1-3.4l-0.2-0.5l0,0c-1-2.4-2.1-4.1-3.2-4.7c-1.9-1-4.1-1.4-6.3-1.2c0.4-0.3,0.8-0.5,1.3-0.6
				c-1.1-0.2-3.5,0.9-3.5,0.9c-14.9-5.7-17.3,16.2-16.9,21.3s-5,6.8-12.8,10.8c-14.8,7.7-16.1,17.9-16.1,17.9
				c0.1,0.1,0.2,0.1,0.4,0.2c0.7-1.2,2.3-3.6,3.5-3.9c-0.8,1.6-1.5,3.3-2.1,5c1.9,1.4,4.4,3.6,7.2,6l0,0c3.7,3.2,7.8,6.9,11,9.9
				c-0.1-1.1,0.1-2.2,0.4-3.2l0.6,3.7l0.1,0.5c2.1,1.9,3.7,3.4,4.6,4.2l0.2,0.2l0.4,0.4c-0.1-1.3,1.7-4.4,4.6-8.2l0.6-0.8
				c0.9-1.2,1.9-2.5,3-3.8c0.4-0.5,0.8-0.9,1.2-1.4l0,0c0.3-0.4,0.7-0.8,1-1.1l0,0c0.8-0.9,1.6-1.8,2.5-2.8c2.2-2.4,4.5-4.7,6.7-6.9
				c2.8-2.7,5.7-5.2,8.9-7.4c0.1-0.1,0.2-0.3,0.3-0.4c0.5-0.8,0.9-1.6,1.2-2.5c0.1-0.3,0.2-0.5,0.3-0.8c0.7-2.1,1.2-4.3,1.5-6.4
				c-0.1,2.2-0.5,4.4-1,6.6c-0.1,0.4-0.2,0.7-0.3,1l0,0c-0.2,0.6-0.4,1.1-0.7,1.7c0.4-0.4,0.8-0.9,1.2-1.4c0.2-0.3,0.5-0.7,0.7-1.1
				C250.6,181.3,251.1,174.4,250.5,167.7z"/>
			<path class="st17" d="M244.3,189.4c0,0-4.8,2.5-8.4,1.5c-3.4-0.9-5.7-5.4-5.6-5.4c1.4-0.3,1.9-2.3,1.8-10.8l0.6,0.1l11,2.2
				c0,0-0.3,3.5-0.3,6.7C243.6,186.5,243.7,189.1,244.3,189.4z"/>
			<path class="st19" d="M231.9,153c0,0,5.4-5.8,12.3-0.3C244.1,152.7,240.2,152,231.9,153z"/>
			<path class="st35" d="M243.8,177c0,0-0.3,3.5-0.3,6.7c-6.2-0.2-9.4-5.8-10.8-8.9L243.8,177z"/>
			<path class="st22" d="M231.7,173.6c0,0-3.2-5.1-4-9.5c-0.6-3.1,1-14.7,12.6-13c2.3,0.3,4.6,1.2,6.6,2.5c2.5,1.7,6.2,5.4,2.1,15.5
				l-1.1,3.4L231.7,173.6z"/>
			<path class="st27" d="M287.7,376.7l-5.8,0.2l-6.3,0.2c0,0-14.6-16.3-22.8-42.3c-0.2-0.6-0.4-1.2-0.6-1.8
				c-4.5-13.1-13.8-29.5-18.7-44.3c-0.8-2.4-1.5-4.6-2.1-6.7c-0.2-0.7-0.4-1.3-0.6-2c-2.8-9.7-4.7-19.6-5.6-29.6l35.4,0.3
				C265.5,293.5,274.6,335.7,287.7,376.7z"/>
			<path class="st38" d="M255.6,230.3c-0.1,16.8,2.5,24,2.5,24c-10.4,4.6-22.2,5.3-33.1,2c-0.2-0.1-14.9-3.4-14.9-3.4
				c0.3-0.7,3-12,3.3-12.6c3.8-8.2,6.7-11.7,7.1-14.2c0.8-4.7,0.9-9.4,0.4-14.1c-0.7-7.5-2.2-14.9-4.4-22.1c4.9-1.1,9.5-3.1,14.6-5
				c1.2,1.5,4.8,3,7.9,2.9c3.6-0.1,4.7-1.6,4.6-3.3c3.8,2.1,6.9,4.1,6.9,4.1c3.2,5.6,9.8,11.1,10.3,19.8
				C260.9,210.5,255.6,229.8,255.6,230.3z"/>
			<path class="st17" d="M245.9,180.1c0,0-14.6,0.2-14.6-8.9s-1.9-15.2,7.4-15.7s11.1,2.9,11.9,6S249.7,179.8,245.9,180.1z"/>
			<path class="st22" d="M245.3,155.3c0,0-4,10.7-10.1,12.2s-8.8-0.1-8.8-0.1c3-2.7,5-6.3,5.7-10.3
				C232.1,157.2,242.3,150.2,245.3,155.3z"/>
			<path class="st22" d="M244.3,156.2c0,0,3,2.4,3.7,4.7s1.1,7.1,2.4,6.9c0,0,3-7.3-0.4-11.4C246.5,152.1,244.3,156.2,244.3,156.2z"
				/>
			<path class="st17" d="M227.3,385.9c0.2,2.3,0,4.7-0.8,6.9c0,0-1,4.5,3.4,4.5s5.5-0.3,5-3.1s-1.4-7.5-1.4-7.5L227.3,385.9z"/>
			<path class="st18" d="M235.5,400h-9.6c-0.4-2,0.5-6.2,0.6-7c0,0,0-0.1,0-0.1c0,0,0,0,0,0c5,4.5,8.1-0.1,8.1-0.1l0,0
				C235.4,394.5,235.5,399.3,235.5,400z"/>
			<path class="st17" d="M300.1,394.7c0,0-8.1-9-10.6-13.5l-6,3.1l13.4,12.6l3.1-0.4L300.1,394.7z"/>
			<path class="st18" d="M305.2,400h-10.2c-1.5,0-2.7-2.5-4.3-5.7c-0.8-1.3-2.1-2.2-3.7-2.5v8.2h-2.3l-2.2-8.6
				c-1.4-2.6-0.1-5,0.9-7.1c1.2,0,4.3,0.8,10.3,7.5c1.5,1.9,3.9,3,6.3,2.9h0.1C305.2,397,305.2,400,305.2,400z"/>
			<path class="st26" d="M281.9,376.9l-6.3,0.2c0,0-14.6-16.3-22.8-42.3c-0.2-0.6-0.4-1.2-0.6-1.8c-4.5-13.1-13.8-29.5-18.7-44.3
				c-0.8-2.4-1.5-4.6-2.1-6.7c-0.2-0.7-0.4-1.3-0.6-2l5.2-4c0,0,15.7,25.4,20.5,49.2C260.7,345.8,277.5,370.7,281.9,376.9z"/>
			<path class="st27" d="M236.6,327.3c0.1,11.6-0.5,38.2-2,49.3h-5.6c-3.1,0-4.6,0-4.6,0c-3.8-19.2-6.5-35-8.4-48.7
				c-1.6-11.2-3-20.8-4.1-29.1s-1.9-15.3-2.1-21.2c0-0.9-0.1-1.8-0.1-2.7s0-1.7,0-2.6l30.6-3C239.7,289.6,236.5,320.6,236.6,327.3z"
				/>
			<path class="st26" d="M228.9,376.6c-3.1,0-4.6,0-4.6,0c-3.8-19.2-6.5-35-8.4-48.7c-1.6-11.2-3-20.8-4.1-29.1s-1.9-15.3-2.1-21.2
				l11.2,6.6c0,0-7.2,2.5-4.4,21.6S225.2,373.9,228.9,376.6z"/>
			<path class="st3" d="M230.4,277.3c0,0-2.1,7.8-9.6,6.8s-18-5.5-18-5.5s3.2-10.1,7.1-23.3c4.8-16,6-38.5,8.8-51.5
				c0.8-3.6,6.1-4.8,6.3-7l6.2-12c0,0,9.2,20.7,9.7,25.9S230.4,277.3,230.4,277.3z"/>
			<path class="st39" d="M225.2,226.1c-0.3,8.4-3.3,22.8-15.1,29.2l-0.1,0.1c4.8-16,4.7-31.4,7.5-44.4
				C223.8,209.7,225.4,221.5,225.2,226.1z"/>
			<path class="st18" d="M302.2,221.1h-11.4c0,0.1,0,0.3,0,0.6c0,1-0.1,3.1-0.1,3.3c0.2,2,1.5,3.8,3.5,4.4l0,0l0,0
				c0.4,0.1,0.7,0.3,1.1,0.3c0.3,0.1,0.5,0.1,0.8,0.1h0.4c3.2,0,5.8-2.6,5.8-5.8v-2.3C302.3,221.5,302.3,221.3,302.2,221.1z"/>
			<path class="st19" d="M301.3,221.1h-1.5c0,0.2,0,0.5,0,0.7v2.3c0,1.5-0.6,2.9-1.6,4c-0.5,0.5-1.1,0.9-1.8,1.2
				c-0.3,0.2-0.7,0.3-1.1,0.4c-0.2,0-0.3,0.1-0.5,0.1c0.3,0,0.5,0.1,0.8,0.1c0.2,0,0.3,0,0.5,0c0.6,0,1.3-0.2,1.9-0.5
				c1.1-0.5,2-1.3,2.6-2.3l0,0c0.2-0.4,0.4-0.8,0.6-1.3c0.2-0.6,0.2-1.1,0.3-1.7v-2.3C301.3,221.6,301.3,221.3,301.3,221.1z"/>
			<rect x="294.2" y="229.3" class="st18" width="4.7" height="0.7"/>
			<path class="st17" d="M212.2,244.9c0,0,5.3-1.1,6.7,0.4s2.1,3.9,0.8,4.8s-5.3-1.5-6.8-0.5c-1,0.7-1.3,2.4-2.4,1.8
				s-2.1-4.5-2.1-4.5L212.2,244.9z"/>
			<path class="st3" d="M231.1,184.9c0,0-14.4,0.6-17.8,3.8s-24.1,28-24.5,34.5s18.1,24.9,18.1,24.9s5.1-1.2,7.4-4.5
				c0,0-11.4-20.4-10.8-21.3s20.1-16.8,21.6-13.3C226.6,212.2,231.1,184.9,231.1,184.9z"/>
			<path class="st3" d="M285.7,223.5c0,0-16.4,5.5-18.4,5s-5-22.7-6.6-30.3c-2-9.8-9.8-11.8-9.8-11.8l-7.4-2c0,0,8.4,20.9,8.7,25.1
				s1,69,1,69s-0.5,3,5.2,1.7s7.2-2.5,7.2-2.5s-2.5-18.1-3.6-34.2c5.8-1,24.5-10.5,24.5-10.5C289.4,228.6,285.7,223.5,285.7,223.5z"
				/>
			<path class="st40" d="M331.5,293.5l-3,16.9l0,0l-8.3,46.7l-7.4,41.8c-0.1,0.6-0.7,1.1-1.3,1.1c-0.6,0-1-0.4-1-1c0,0,0,0,0-0.1
				l6.4-47.4l6.8-50.7l1-7.6L331.5,293.5z"/>
			<path class="st40" d="M364.2,293.5l-3,16.9l0,0l-8.2,46.7l-7.4,41.7c-0.1,0.6-0.7,1.1-1.3,1.1c-0.6,0-1-0.4-1-1c0,0,0,0,0-0.1
				l6.4-47.4l6.8-50.7l1-7.6L364.2,293.5z"/>
			<path class="st13" d="M328.6,310.3c0.4-7.3-4.8-9.5-4.8-9.5l1-7.6l6.7,0.2L328.6,310.3z"/>
			<path class="st40" d="M613.2,400c-0.7,0-1.2-0.5-1.3-1.1l-6.5-37.1l-9.4-53.4l-2.6-14.9l6.7-0.2l1.2,8.7l8.2,60.9l4.8,36.1
				C614.1,399.5,613.7,399.9,613.2,400z"/>
			<path class="st13" d="M601.1,301.9c-2.6,1.2-4.6,3.6-5.2,6.5l-2.6-14.9l6.7-0.2L601.1,301.9z"/>
			<path class="st40" d="M650.8,400c-0.7,0-1.2-0.5-1.3-1.1l-6.5-37.1l-9.4-53.4l-2.6-14.9l6.7-0.2l1.2,8.7l8.2,60.9l4.8,36.1
				C651.8,399.5,651.4,399.9,650.8,400C650.8,400,650.8,400,650.8,400z"/>
			<path class="st13" d="M638.7,301.9c-2.6,1.3-4.6,3.6-5.2,6.5l-2.6-14.9l6.7-0.2L638.7,301.9z"/>
			<path class="st41" d="M299.8,287.6h350.1c3.2,0,5.8,2.6,5.8,5.8v0.1c0,3.2-2.6,5.8-5.8,5.8H299.8c-3.2,0-5.8-2.6-5.8-5.8v-0.1
				C294,290.2,296.6,287.6,299.8,287.6z"/>
			<path class="st18" d="M369.3,280.5c-0.8-0.2-1.6-0.2-2.4,0v-1.1c0-0.2,0-0.5,0-0.7h-11.4c0,0.2,0,0.5,0,0.7v2.2
				c0,3.2,2.5,5.8,5.7,5.8c1.7,0,3.3-0.7,4.4-2l0,0c0,0,2.7-0.7,3.6-1.7S370.2,281.1,369.3,280.5z M368.7,282.5
				c-0.3,0.8-1.6,1.1-2.2,1.3c0.3-0.6,0.4-1.2,0.5-1.9c0.3-0.5,0.9-0.8,1.5-0.8C368.9,281.3,369.1,281.6,368.7,282.5L368.7,282.5z"
				/>
			<path class="st19" d="M356.4,279.4v2.3c0,3.2,2.6,5.8,5.8,5.8c0.3,0,0.5,0,0.8-0.1c-2.9-0.4-5-2.8-5-5.7v-2.3c0-0.2,0-0.5,0-0.7
				h-1.5C356.4,278.9,356.4,279.1,356.4,279.4z"/>
			<rect x="358.9" y="286.9" class="st18" width="4.7" height="0.7"/>
			<path class="st18" d="M531.9,280.5c-0.8-0.2-1.6-0.2-2.3,0v-1.1c0-0.2,0-0.5,0-0.7H518c0,0.2,0,0.5,0,0.7v2.2
				c0,3.2,2.5,5.8,5.7,5.8c1.7,0,3.3-0.7,4.4-2l0,0c0,0,2.7-0.7,3.6-1.7S532.8,281.1,531.9,280.5z M531.3,282.5
				c-0.3,0.8-1.6,1.1-2.2,1.3c0.3-0.6,0.4-1.2,0.5-1.9c0.3-0.5,0.9-0.8,1.5-0.8C531.4,281.3,531.7,281.6,531.3,282.5L531.3,282.5z"
				/>
			<path class="st19" d="M518.9,279.4v2.3c0,3.2,2.6,5.8,5.8,5.8c0.3,0,0.5,0,0.8-0.1c-2.9-0.4-5-2.8-5-5.7v-2.3c0-0.2,0-0.5,0-0.7
				H519C519,278.9,518.9,279.1,518.9,279.4z"/>
			<rect x="521.4" y="286.9" class="st18" width="4.7" height="0.7"/>
			<path class="st2" d="M106.9,199.5V400H54c0,0-0.8-7.8-1-20.4c-0.1-7.3-0.1-16.3,0.4-26.3c0-0.8,0.1-1.6,0.1-2.5
				c0.3-4.6,0.6-9.4,1.1-14.3c0-0.4,0.1-0.9,0.1-1.3c0.5-5.2,1.2-10.5,2-16c0.7-4.5,1.5-9,2.4-13.7c0.1-0.3,0.1-0.7,0.2-1
				c0.5-2.4,1-4.8,1.5-7.2c0.2-0.9,0.4-1.9,0.7-2.8c0.4-1.8,0.9-3.7,1.3-5.6c1.2-4.5,2.4-9.1,3.9-13.7c0.1-0.5,0.3-0.9,0.4-1.4
				c0.7-2,1.3-4.1,2-6.2c1.1-3.1,2.2-6.3,3.4-9.4c0.8-2,1.5-3.9,2.4-5.9C82.8,233.2,93.5,215.3,106.9,199.5z"/>
			<path class="st30" d="M28.6,399.8h971.8c0.7,0,1.3,0.6,1.3,1.3v0.9c0,0.7-0.6,1.3-1.3,1.3H28.6c-0.7,0-1.3-0.6-1.3-1.3v-0.9
				C27.3,400.4,27.9,399.8,28.6,399.8z"/>
			<g>
				<defs>
					<rect id="SVGID_1_" x="-1.3" y="-10.5" width="499.1" height="411.6"/>
				</defs>
				<clipPath id="SVGID_2_">
					<use xlink:href="#SVGID_1_"  style="overflow:visible;"/>
				</clipPath>
				<g class="st42">
					
						<rect x="43.4" y="45.1" transform="matrix(0.9817 -0.1903 0.1903 0.9817 -42.3425 50.9762)" class="st43" width="401.6" height="401.6"/>
					<path class="st30" d="M398,21.3l72.1,380.5l-380.5,72l-72-380.5L398,21.3 M410,3.7L0,81.4l77.7,410l410-77.6L410,3.7L410,3.7z"
						/>
				</g>
			</g>
			<g class="st44">
				<polygon class="st45" points="211.8,204.1 279.3,243 211.8,282 				"/>
				<path class="st46" d="M214.3,208.4l60,34.6l-60,34.6V208.4 M209.3,199.7v86.6l75-43.3L209.3,199.7z"/>
			</g>
			<polygon class="st45" points="208.8,201.1 276.3,240 208.8,279 			"/>
			<path class="st47" d="M211.3,205.4l60,34.6l-60,34.6V205.4 M206.3,196.7v86.6l75-43.3L206.3,196.7z"/>
		</g>
	</g>
</g>
</svg>
