<svg xmlns="http://www.w3.org/2000/svg" viewBox="0 0 974.33 403.31"><defs><style>.cls-1{isolation:isolate;}.cls-2{fill:#f8fbff;}.cls-2,.cls-3,.cls-4{mix-blend-mode:overlay;}.cls-3{fill:#e7f1fb;}.cls-3,.cls-4{opacity:0.2;}.cls-4{fill:#deedff;}.cls-5{fill:#f99746;}.cls-6{fill:#ffb278;}.cls-7{fill:#82b378;}.cls-8{fill:#a8d29f;}.cls-9{fill:#f1a34f;}.cls-10{fill:#ffb973;}.cls-11{fill:#d86713;}.cls-12{fill:#d1a586;}.cls-13{fill:#e5bd9e;}.cls-14{fill:#dfb697;}.cls-15{fill:#a0795f;}.cls-16{fill:#6bb7bf;}.cls-17{fill:#8ad8db;}.cls-18{fill:#ed9f4a;}.cls-19{fill:#ffb27d;}.cls-20{fill:#c45446;}.cls-21{fill:#e37970;}.cls-22{fill:#1c468a;}.cls-23{fill:#c65447;}.cls-24{fill:#163560;}.cls-25{fill:#f4a269;}.cls-26{fill:#599dad;}.cls-27{fill:#e2915a;}.cls-28{fill:#233862;}.cls-29{fill:#2b478b;}.cls-30{fill:#e9f3fe;}.cls-31{fill:#22407a;}.cls-32{fill:#fff;}.cls-33{fill:#d9e9f9;}.cls-34{fill:#ba4c43;}.cls-35{fill:#aa413e;}.cls-36{fill:#b5453c;}.cls-37{fill:#ed975d;}.cls-38{fill:#699dee;}.cls-39{fill:#4a75cb;}.cls-40{fill:#e7f1fd;}.cls-41{fill:#ed7d2b;}.cls-42{fill:#c69d7f;}.cls-43{fill:#e0b594;}</style></defs><g class="cls-1"><g id="Layer_2" data-name="Layer 2"><g id="Layer_1-2" data-name="Layer 1"><path class="cls-2" d="M949.14,395.37H26.62s-.8-7.61-1-19.92c-.13-7.16-.09-15.92.43-25.69,0-.8.09-1.61.14-2.42.27-4.48.63-9.16,1.12-14,0-.42.08-.85.13-1.28.54-5.05,1.2-10.28,2-15.67.68-4.37,1.45-8.84,2.36-13.38.06-.32.13-.64.19-1,.47-2.32,1-4.64,1.51-7,.21-.92.42-1.84.64-2.77.43-1.8.88-3.62,1.35-5.43q1.73-6.67,3.85-13.43c.15-.45.29-.92.44-1.38.64-2,1.32-4,2-6q1.6-4.59,3.42-9.17,1.14-2.88,2.37-5.74a194,194,0,0,1,31.93-51.66c31.7-36.33,81.62-62.93,160-62.16,15.74.16,30.38-.25,44-1.16h0q6.23-.41,12.19-1h0c90.49-8.32,135.83-39.35,177.05-69.61l4.42-3.26c14.42-10.62,28.51-21,44.06-30.23q6-3.54,12.26-6.81C559.32,11.93,589.82,2.23,632,.13a106.77,106.77,0,0,1,12,.08c1.5.1,3,.23,4.43.39a85.66,85.66,0,0,1,43,16.86c31.6,24,47.3,71,39.09,129.6-5.57,39.7,7,61.23,28.53,75.3C818.66,261.33,946.88,243.19,949.14,395.37Z"/><polygon class="cls-3" points="503.13 243.43 503.13 225.3 498.88 225.3 498.88 194.13 476.1 194.13 476.1 225.3 454.79 225.3 454.79 174.51 431.28 174.51 431.28 207.48 425.92 207.48 425.92 168.12 402.41 168.12 402.41 241.92 372.67 241.92 372.67 284.96 361.56 284.96 361.56 265.8 336.05 265.8 336.05 277.14 321.39 277.14 321.39 226.4 303.3 226.4 303.3 263.95 285.2 263.95 285.2 401.55 303.3 401.55 318.81 401.55 321.39 401.55 336.05 401.55 344.33 401.55 357.59 401.55 361.56 401.55 372.67 401.55 383.11 401.55 402.41 401.55 408.32 401.55 420.07 401.55 425.92 401.55 431.28 401.55 443.59 401.55 451.96 401.55 454.79 401.55 476.1 401.55 498.5 401.55 498.88 401.55 503.13 401.55 521.29 401.55 521.29 243.43 503.13 243.43"/><polygon class="cls-3" points="758.3 305.74 758.3 401.55 530.16 401.55 530.16 318.18 547.64 318.18 547.64 295.43 565.13 295.43 565.13 326.17 579.29 326.17 579.29 319.3 603.95 319.3 603.95 330.91 614.69 330.91 614.69 304.83 643.42 304.83 643.42 260.11 666.14 260.11 666.14 283.96 671.32 283.96 671.32 263.98 694.04 263.98 694.04 294.76 714.63 294.76 714.63 275.87 736.65 275.87 736.65 294.76 740.76 294.76 740.76 305.74 758.3 305.74"/><polygon class="cls-3" points="287.51 268.19 287.51 401.06 79.51 401.06 79.51 285.43 95.46 285.43 95.46 253.88 111.4 253.88 111.4 296.51 124.31 296.51 124.31 286.99 146.79 286.99 146.79 303.09 156.58 303.09 156.58 266.92 182.77 266.92 182.77 204.9 203.49 204.9 203.49 237.98 208.21 237.98 208.21 210.27 228.92 210.27 228.92 252.95 247.69 252.95 247.69 226.76 267.77 226.76 267.77 252.95 271.52 252.95 271.52 268.19 287.51 268.19"/><path class="cls-4" d="M533.55,25.29V400.68H521.29V32.1Q527.26,28.56,533.55,25.29Z"/><polygon class="cls-4" points="295.76 135.2 295.76 395.37 295.76 400.68 283.51 400.68 283.51 395.37 283.51 136.16 295.76 135.2"/><path class="cls-5" d="M477.23,62.33V91.52c0,3.67-.92,6.66-2.06,6.66h-.3c-1.13,0-2.06-3-2.06-6.66V65.59Z"/><path class="cls-5" d="M473.87,86.41c-16.13,0-29.21,13.83-29.21,30.88h58.41C503.07,100.24,490,86.41,473.87,86.41Z"/><path class="cls-6" d="M476.2,86.79a11.63,11.63,0,0,0-2.57-.28c-10.51,0-19,13.78-19,30.78h5.13C459.73,101.7,466.9,88.81,476.2,86.79Z"/><path class="cls-5" d="M648.42.6V84.46c0,.73,0,1.46,0,2.16-.16,6.54-1,11.56-2,11.56h-.29c-.95,0-1.76-4.32-2-10.17,0-.48,0-1,0-1.47,0,0,0-.07,0-.11,0-.64,0-1.3,0-2V.21C645.49.31,647,.44,648.42.6Z"/><path class="cls-5" d="M645.06,86.41c-16.13,0-29.21,13.83-29.21,30.88h58.41C674.26,100.24,661.19,86.41,645.06,86.41Z"/><path class="cls-6" d="M647.38,86.79a11.54,11.54,0,0,0-2.56-.28c-10.51,0-19,13.78-19,30.78h5.13C630.92,101.7,638.09,88.81,647.38,86.79Z"/><path class="cls-4" d="M949.14,401.14H758.3v.06H691.45V17.46c31.6,24.37,47.3,72.05,39.09,131.57-5.57,40.32,7,62.17,28.53,76.46C818.66,265.05,946.88,246.63,949.14,401.14Z"/><path class="cls-7" d="M831.29,355.81s-7.37-8.59-.46-14.05c0,0,5-3.05,9.17-2.8,0,0-5.84,9.77-4,10.75s5.71-11.37,5.71-11.37,11.49-1.11,15.19.66c0,0-9.82,8-7.76,8.52s12.68-7.41,12.68-7.41,10.69,1.82,10.12,8.34-4.26,8.54-5.87,8.36S855,353,854.82,354.35s5.49,5.66,9.49,5.86c0,0-7.54,8.32-12.55,5.92s-5.44-6.2-8.56-7.63-5.79-1.42-4.5,0,6.94,2.87,8.73,6,3.39,5.29-1.8,4.51-13.6-4.57-14-8.92Z"/><path class="cls-7" d="M866.74,348.63s-29-1.12-35.45,7.18a21,21,0,0,1-5.78,8.12l-.68,1.85s5-5.31,6.83-5.63C831.66,360.15,828.84,349.87,866.74,348.63Z"/><path class="cls-7" d="M825.51,363.93a18.19,18.19,0,0,0-6.67,12.84l1.13.1s2-8.51,5.59-11.84S825.51,363.93,825.51,363.93Z"/><path class="cls-8" d="M805.54,345s11.71-6.56,6.25-15.47c0,0-4.38-5.46-9.06-6.87,0,0,2.5,13.28,0,13.59s-1.72-15-1.72-15-12.34-5.94-17.18-5.47c0,0,7.65,13,5.15,12.65S777.89,315,777.89,315s-12.65-2.35-14.68,5.15,1.25,11.25,3.13,11.72,13.9.31,13.58,1.87-8.43,4.06-13,2.66c0,0,5,12.34,11.56,11.71s8.59-4.69,12.65-5,7,.78,5,1.88-8.9.35-12.18,3.14-5.94,4.51.15,5.76,17,.47,19.21-4.22Z"/><path class="cls-7" d="M769,322.51s32.8,10.63,36.55,22.5a24.87,24.87,0,0,0,3.12,11.4v2.34s-3.43-8-5.31-9.06C803.35,349.69,810.69,339.38,769,322.51Z"/><path class="cls-7" d="M808.66,356.41a21.64,21.64,0,0,1,2.18,17l-1.3-.35s1.26-10.3-1.39-15.48S808.66,356.41,808.66,356.41Z"/><path class="cls-8" d="M824.18,336s-15.44-8.65-8.24-20.38c0,0,5.77-7.21,11.94-9.06,0,0-3.29,17.5,0,17.91s2.27-19.77,2.27-19.77,16.26-7.82,22.65-7.2c0,0-10.09,17.09-6.8,16.67s14.62-17.7,14.62-17.7,16.68-3.09,19.35,6.79-1.64,14.83-4.11,15.44-18.33.42-17.92,2.48,11.12,5.35,17.09,3.5c0,0-6.59,16.26-15.23,15.44s-11.33-6.18-16.68-6.59-9.27,1-6.59,2.47,11.74.47,16.06,4.15,7.82,5.94-.21,7.59-22.44.61-25.32-5.56Z"/><path class="cls-7" d="M872.36,306.31s-43.24,14-48.18,29.65a32.92,32.92,0,0,1-4.12,15v3.09s4.53-10.5,7-11.94C827.06,342.14,817.38,328.55,872.36,306.31Z"/><path class="cls-7" d="M820.06,351s-6.67,10.12-2.87,22.45l1.72-.46s-1.67-13.58,1.82-20.4S820.06,351,820.06,351Z"/><path class="cls-9" d="M823.66,400.17a30.24,30.24,0,0,0,30.24-30.25H793.41A30.25,30.25,0,0,0,823.66,400.17Z"/><path class="cls-10" d="M831.1,399.94a31,31,0,0,1-3.76.23,30.25,30.25,0,0,1-30.25-30.25h7.52A30.26,30.26,0,0,0,831.1,399.94Z"/><path class="cls-9" d="M854.32,401.71H793a3.73,3.73,0,0,1,3.73-3.73h53.87a3.73,3.73,0,0,1,3.73,3.73Z"/><rect class="cls-11" x="792.41" y="369.92" width="62.18" height="0.93"/><path class="cls-12" d="M696.51,306.92a265.39,265.39,0,0,1,3.15-33c2.26-12.89,4.29-20.3,4.32-20.38.29-1.14,4.59-5.72,14.16-5.58s8.65,6.15,8.65,6.15h0a2,2,0,0,1-.07.54,285.11,285.11,0,0,0-8.49,72.23c0,.57.07,1.55,0,2.21,0,0-22.16.56-22.16,0C695.33,325.54,695.7,315.72,696.51,306.92Z"/><path class="cls-13" d="M693.72,326.67c0,.57.31,1,.68,1h0c.36,0,.66-.46.66-1h19c0,.57.31,1,.68,1h0c.37,0,.67-.48.67-1.05a280.52,280.52,0,0,1,1.57-32c2.53-23.84,7.19-39.78,7.26-40a2,2,0,0,0,.07-.53s.9-6-8.66-6.16-13.86,4.44-14.16,5.58c0,.06-1.17,4.26-2.7,11.81q-.76,3.75-1.62,8.57a267.33,267.33,0,0,0-3.15,33C693.23,315.72,693,323.13,693.72,326.67Z"/><path class="cls-14" d="M693.72,326.67c0,.57.31,1,.68,1h0c.36,0,.66-.46.66-1h19c0,.57.31,1,.68,1h0c.37,0,.67-.48.67-1.05a280.52,280.52,0,0,1,1.57-32c-3.14-15.13-15.27-26.7-18.19-29.3q-.76,3.75-1.62,8.57a267.33,267.33,0,0,0-3.15,33C693.23,315.72,693,323.13,693.72,326.67Z"/><path class="cls-12" d="M712.86,326.48l-.05,0s0,0,0-.09h0a.49.49,0,0,0-.15-.4c-.6-.61-2.9-.58-5.81-.55a60.5,60.5,0,0,1-11.08-.6c-2-.35-.66-15.84.79-30.33.24-2.46.44-4.4.52-5.54,1-12.33,6.4-34.2,6.45-34.37.24-.92,3.52-4.34,10.63-4.23,2.69,0,4.6.7,5.67,2a3.65,3.65,0,0,1,.87,2.74,1.92,1.92,0,0,1,0,.41c0,.12-5,28.41-5.75,35.2C713.53,301.85,713,325,713,326.29v.12Zm-4.24-1.31c2.12,0,3.62.1,4.15.63h0c0-.53,0-1.53.09-3.41.06-2.22.17-5.68.32-9.58.28-6.83.75-16.22,1.46-22.19.82-6.95,5.72-35.15,5.75-35.23a1.44,1.44,0,0,0,.05-.37,3.55,3.55,0,0,0-.83-2.59c-1-1.21-2.88-1.84-5.5-1.88-7-.09-10.19,3.18-10.42,4.07-.05.2-5.49,22-6.44,34.32-.09,1.15-.28,3.09-.53,5.56-1,9.65-3,29.74-1,30.08a60,60,0,0,0,11,.6Z"/><path class="cls-13" d="M716.82,327.69H642.37s1.74-6.92,44.85-5.89C717.73,322.53,716.82,327.69,716.82,327.69Z"/><path class="cls-12" d="M722.88,400c-8.63-43.1-6.41-69.55-6.4-69.88,0-.67-1.22-1.27-1.89-1.29s-3.65-.2-4,.37c-.45.74-2.19,33.33,10.68,70.8Z"/><path class="cls-12" d="M653.37,400c8.63-43.1,6.41-69.55,6.4-69.88,0-.67,1.22-1.27,1.88-1.29s3.66-.2,4,.37c.46.74,2.19,33.33-10.67,70.8Z"/><path class="cls-15" d="M639.59,400c8.63-43.1,6.41-69.55,6.4-69.88,0-.67,1.22-1.27,1.89-1.29s3.65-.2,4,.37c.45.74,2.19,33.33-10.68,70.8Z"/><path class="cls-15" d="M709,400c-8.63-43.1-6.41-69.55-6.4-69.88,0-.67-1.22-1.27-1.89-1.29s-3.65-.2-4,.37c-.46.74-2.19,33.33,10.67,70.8Z"/><rect class="cls-12" x="640.8" y="325.9" width="77.5" height="4" rx="1.51" transform="translate(1359.1 655.8) rotate(180)"/><path class="cls-12" d="M414.75,305.63a274.78,274.78,0,0,1,3.15-33.47c2.26-13.07,4.3-20.58,4.32-20.66.3-1.15,4.6-5.8,14.16-5.66s8.66,6.24,8.66,6.24h0a2,2,0,0,1-.07.54,292.88,292.88,0,0,0-8.49,73.23c0,.58.07,1.58,0,2.24,0,0-22.16.57-22.16,0C413.57,324.5,414,314.55,414.75,305.63Z"/><path class="cls-13" d="M412,325.65c0,.57.31,1,.67,1h0c.37,0,.66-.47.67-1h19c0,.57.31,1,.68,1h0c.38,0,.68-.48.67-1.06a285.75,285.75,0,0,1,1.58-32.44c2.52-24.17,7.19-40.33,7.26-40.56a2.06,2.06,0,0,0,.06-.54s.91-6.1-8.65-6.24-13.86,4.51-14.16,5.66c0,.06-1.17,4.31-2.7,12-.51,2.53-1.06,5.44-1.62,8.69a272.78,272.78,0,0,0-3.15,33.47C411.48,314.55,411.19,322.06,412,325.65Z"/><path class="cls-14" d="M412,325.65c0,.57.31,1,.67,1h0c.37,0,.66-.47.67-1h19c0,.57.31,1,.68,1h0c.38,0,.68-.48.67-1.06a285.75,285.75,0,0,1,1.58-32.44c-3.14-15.34-15.27-27.08-18.19-29.71-.51,2.53-1.06,5.44-1.62,8.69a272.78,272.78,0,0,0-3.15,33.47C411.48,314.55,411.19,322.06,412,325.65Z"/><path class="cls-12" d="M431.1,325.45l-.05,0s0,0,0-.1h0a.54.54,0,0,0-.16-.4c-.6-.62-2.9-.59-5.81-.56a59.63,59.63,0,0,1-11.07-.61c-2-.36-.67-16.05.78-30.74.25-2.49.44-4.46.53-5.62.94-12.43,6.4-34.67,6.45-34.85.24-.93,3.52-4.39,10.63-4.28,2.67,0,4.57.7,5.65,2a3.74,3.74,0,0,1,.89,2.8,1.84,1.84,0,0,1,0,.41c0,.12-5,28.8-5.75,35.69-1.32,11.33-1.85,34.83-1.88,36.14v.11Zm-4.24-1.32c2.12,0,3.62.1,4.15.64h0c0-.54,0-1.55.09-3.46.07-2.25.17-5.75.33-9.71.27-6.92.75-16.44,1.45-22.5.82-7,5.73-35.63,5.76-35.72a1.4,1.4,0,0,0,0-.37,3.56,3.56,0,0,0-.84-2.65c-1-1.21-2.88-1.84-5.48-1.88H432c-6.76,0-9.86,3.23-10.09,4.12-.06.21-5.5,22.3-6.44,34.8h0c-.09,1.17-.29,3.14-.53,5.64-1,9.78-3,30.14-1,30.5a60.08,60.08,0,0,0,11,.6Z"/><path class="cls-13" d="M435.07,326.68H360.62s1.73-7,44.85-6C436,321.45,435.07,326.68,435.07,326.68Z"/><path class="cls-12" d="M441.13,400c-8.64-43.69-6.42-70.51-6.4-70.85,0-.67-1.22-1.28-1.89-1.3s-3.66-.2-4,.37c-.45.76-2.19,33.8,10.68,71.78Z"/><path class="cls-12" d="M371.61,400c8.64-43.69,6.42-70.51,6.41-70.85,0-.67,1.21-1.28,1.88-1.3s3.66-.2,4,.37c.45.76,2.19,33.8-10.67,71.78Z"/><path class="cls-15" d="M357.84,400c8.63-43.69,6.41-70.51,6.4-70.85,0-.67,1.22-1.28,1.89-1.3s3.65-.2,4,.37c.45.76,2.19,33.8-10.68,71.78Z"/><path class="cls-15" d="M427.26,400c-8.63-43.69-6.41-70.51-6.4-70.85,0-.67-1.22-1.28-1.89-1.3s-3.65-.2-4,.37c-.45.76-2.19,33.8,10.68,71.78Z"/><path class="cls-12" d="M360.57,324.87H435a1.53,1.53,0,0,1,1.53,1.53v1a1.52,1.52,0,0,1-1.52,1.52H360.57A1.52,1.52,0,0,1,359,327.4v-1a1.52,1.52,0,0,1,1.52-1.52Z" transform="translate(795.6 653.79) rotate(180)"/><path class="cls-16" d="M463.34,270.17s6.16,2.49,10.53-3.78C473.87,266.39,466.77,265.18,463.34,270.17Z"/><path class="cls-16" d="M462.91,267.59a3,3,0,0,0-3-2.27S460.87,267.54,462.91,267.59Z"/><path class="cls-16" d="M464.21,254.73a4,4,0,0,0,4.1-2.95S465.08,252.14,464.21,254.73Z"/><path class="cls-16" d="M471.29,211.51c-6-1.29-6.12-6.21-6.12-6.21C472.25,207.54,471.29,211.51,471.29,211.51Z"/><path class="cls-16" d="M471.7,210.39a5.44,5.44,0,0,0,6.42-2.3S473.79,207.35,471.7,210.39Z"/><path class="cls-16" d="M463.46,284.6l-.78.9a.2.2,0,0,1-.34-.13,323.2,323.2,0,0,1,6-61.13,193.12,193.12,0,0,1,6-23.16h0c0,.09-2.73,8.8-5.67,23.25-2.71,13.31-5.8,30.7-5,59.93A.51.51,0,0,1,463.46,284.6Z"/><path class="cls-5" d="M474.22,197.63c-1,.77-4.63,4.06-1.07,6.59,0,0,2.74.87,3.64-1.23a13.48,13.48,0,0,0,.93-4.16.36.36,0,0,0-.33-.38,3.05,3.05,0,0,1-.78-.18c-.33-.13-.51-.64-1-.75a3,3,0,0,0-.91-.11A1,1,0,0,0,474.22,197.63Z"/><path class="cls-16" d="M472.18,203.31a2.21,2.21,0,0,1,.69,2.26v.52a2.44,2.44,0,0,1,1.62-1.69A2.91,2.91,0,0,1,472.18,203.31Z"/><path class="cls-17" d="M471.29,211.51c-6-1.29-6.12-6.21-6.12-6.21S469.93,207.92,471.29,211.51Z"/><path class="cls-16" d="M465.5,208.14a5.43,5.43,0,0,1-6.37-2.43S463.47,205.06,465.5,208.14Z"/><path class="cls-16" d="M472.25,282.5l.76.92a.2.2,0,0,0,.35-.13,323.49,323.49,0,0,0-4.74-61.24,197.4,197.4,0,0,0-5.5-23.26h0c0,.08,2.55,8.84,5.2,23.35,2.43,13.36,5.18,30.8,3.81,60A.5.5,0,0,0,472.25,282.5Z"/><path class="cls-5" d="M463.24,195.33c.94.79,4.55,4.15.93,6.62,0,0-2.75.81-3.61-1.31a13.27,13.27,0,0,1-.84-4.18.37.37,0,0,1,.34-.38,2.46,2.46,0,0,0,.77-.16c.34-.12.53-.63,1-.73a2.51,2.51,0,0,1,.92-.08A1,1,0,0,1,463.24,195.33Z"/><path class="cls-16" d="M465.16,201.05a2.22,2.22,0,0,0-.73,2.25v.52a2.42,2.42,0,0,0-1.59-1.72A2.92,2.92,0,0,0,465.16,201.05Z"/><path class="cls-16" d="M467.11,203.7a5.44,5.44,0,0,0,5.77-3.65S468.49,200.28,467.11,203.7Z"/><path class="cls-16" d="M475.25,277.93l-.56,1a.19.19,0,0,1-.36-.05,322.12,322.12,0,0,1-7.51-61,194.3,194.3,0,0,1,.77-23.9h0c0,.09-.74,9.18-.46,23.92.26,13.58,1,31.22,8.17,59.59A.5.5,0,0,1,475.25,277.93Z"/><path class="cls-5" d="M466.79,190.7c-.77,1-3.64,5,.39,6.67,0,0,2.86.25,3.28-2a13.14,13.14,0,0,0,0-4.26.35.35,0,0,0-.41-.3,3,3,0,0,1-.79,0c-.36-.05-.64-.51-1.11-.52a2.65,2.65,0,0,0-.91.1A.9.9,0,0,0,466.79,190.7Z"/><path class="cls-16" d="M466,196.69a2.2,2.2,0,0,1,1.16,2.06l.1.5a2.43,2.43,0,0,1,1.22-2A2.9,2.9,0,0,1,466,196.69Z"/><path class="cls-16" d="M470.41,199.25s0-3.16,2.72-4.16C473.13,195.09,473.73,197.74,470.41,199.25Z"/><path class="cls-18" d="M464,194.17a3.21,3.21,0,0,0-2.15-3.11S461.31,193.3,464,194.17Z"/><path class="cls-18" d="M471.33,208.69a3.5,3.5,0,0,0-1-4.29A4.12,4.12,0,0,0,471.33,208.69Z"/><path class="cls-16" d="M472.88,208.51a1.29,1.29,0,0,1,1.12-1.38S474.2,208.14,472.88,208.51Z"/><path class="cls-16" d="M461.45,204.4s-1-2-4.06-1.65C457.39,202.75,457.85,204.89,461.45,204.4Z"/><path class="cls-5" d="M478.56,287.57H458.72a2.19,2.19,0,0,1-2.17-2.5l9.24-63.65a1.2,1.2,0,0,1,1.19-1h2.95a1.29,1.29,0,0,1,1.28,1.1l9.45,63.64A2.12,2.12,0,0,1,478.56,287.57Z"/><path class="cls-6" d="M463.11,285.65,468,220.4a1.21,1.21,0,0,0-1,1l-9.23,63.65a2.18,2.18,0,0,0,2.16,2.5h4A2.35,2.35,0,0,1,463.11,285.65Z"/><path class="cls-19" d="M657.68,280.62s-13.61,15.54-16.4,15.29-4.58-1.16-7.06,0c-1.78.83-7.4,5.36-5.89,5.06s4.24-.65,5-.72c1-.1,2.59-.12,3.67-.31.69-.12,3.16-.19,4-.21,3.59-.12,20.53-10,20.53-10Z"/><path class="cls-20" d="M635.28,264a3.73,3.73,0,0,0-2.35,0v-1.1a5.81,5.81,0,0,0,0-.72H621.44a5.81,5.81,0,0,0-.05.72v2.24a5.76,5.76,0,0,0,10.09,3.81h0s2.72-.67,3.58-1.69S636.19,264.58,635.28,264Zm-.6,2.07c-.29.75-1.59,1.15-2.23,1.31a5.52,5.52,0,0,0,.46-1.9,1.68,1.68,0,0,1,1.48-.77C634.8,264.8,635,265.15,634.68,266.09Z"/><path class="cls-21" d="M622.33,262.87v2.25a5.77,5.77,0,0,0,5.76,5.76,6.53,6.53,0,0,0,.78-.05,5.79,5.79,0,0,1-5-5.71v-2.25a5.68,5.68,0,0,1,0-.72h-1.55A5.68,5.68,0,0,0,622.33,262.87Z"/><rect class="cls-20" x="624.8" y="270.38" width="4.71" height="0.7"/><path class="cls-22" d="M667.12,201.68s.62-7.8,11.84-5.78c3,.54,5-4.75,9.87-2.87,10.47,4.06,11.08-1.3,14.11,6.23,1.27,3.15,9.32,6.82,6.86,12.26s1.65,9.11-1.24,13.38c-1.49,2.2-.89,6.15-7.94,6.29-3.52.07-9,6.58-12.93,7.77s-15.79-.53-15.34-5.94c.34-4.22-4.58-3.87-7.6-8.72-2.65-4.24,2.07-5.31-.45-12.17C662.45,207.1,667.26,205.88,667.12,201.68Z"/><path class="cls-19" d="M605.39,393.75c.24,2.61-3.4,3.25-7.61,3.46s-2.94,1.07-8.71,2.11-8.08-.53-8.5-1.31,2.31-1.77,5.17-3l1.08-.46c3.22-1.42,5-4.3,7.53-7,2.38-2.53,4.64-10.65,4.64-10.65l7.84-1.67s-2.2,7.3-3,10.42c-.45,1.83.22,3.88.8,5.44A10.45,10.45,0,0,1,605.39,393.75Z"/><path class="cls-23" d="M597.78,397.21c-4.21.21-2.94,1.07-8.71,2.11s-8.08-.53-8.5-1.31,2.31-1.77,5.17-3l0,.05a16.42,16.42,0,0,0,8.74.11c3.81-1,7.5-3.32,10.13-4.06a10.45,10.45,0,0,1,.73,2.64C605.63,396.36,602,397,597.78,397.21Z"/><path class="cls-24" d="M674.83,294.88s-43.46,2-53.27,8.15S596,381.34,596,381.34a6.35,6.35,0,0,0,3.14,1c2,.22,6.46-1,6.46-1s22.61-32.27,24.21-40.39,1.2-15.39,4.83-15.58,48.84,5.49,55.67-6.55S674.83,294.88,674.83,294.88Z"/><path class="cls-19" d="M623.32,394c.24,2.62-3.4,3.25-7.61,3.46s-2.94,1.07-8.71,2.12-8.08-.54-8.5-1.32,2.31-1.77,5.17-3l1.08-.47c3.22-1.41,5-4.3,7.53-7s4.64-10.65,4.64-10.65l7.84-1.67s-2.2,7.3-3,10.42c-.45,1.83.22,3.89.81,5.45A10.67,10.67,0,0,1,623.32,394Z"/><path class="cls-23" d="M615.71,397.5c-4.21.21-2.94,1.07-8.71,2.12s-8.08-.54-8.5-1.32,2.31-1.77,5.17-3l.05.05a16.49,16.49,0,0,0,8.74.1c3.81-1,7.5-3.32,10.14-4a10.67,10.67,0,0,1,.72,2.63C623.56,396.66,619.92,397.29,615.71,397.5Z"/><path class="cls-22" d="M691.67,295.91s-46.29,2.19-55.85,8.76-22.48,79.25-22.48,79.25a6.4,6.4,0,0,0,3.18.89c2,.13,6.42-1.22,6.42-1.22s21.34-33.13,22.61-41.31.61-15.42,4.22-15.76,49,3.6,55.38-8.71S691.67,295.91,691.67,295.91Z"/><path class="cls-19" d="M705.53,236.76l-.06-.07a7.46,7.46,0,0,0-1.29-1.13h0c-3.78-2.64-10.54-3.21-10.54-3.21h0s-.74-.07-1.91-.12a35.45,35.45,0,0,1-2.21-10.66l-.67.18-11.26,3s.5,3.57.73,7c.06.74.09,1.47.11,2.15-.33.12-7.33,1.11-8.86,2.75s-4.57,12.54-5.34,14.48l43.37.7S708.67,240.47,705.53,236.76Z"/><path class="cls-16" d="M707.13,314.32c-5.13.49-22.44-10-28.2-13.35l-.29-.17c-2.4-1.42-5.78-2.08-9-2.61-4.09-.67-7.91-1.12-9.14-2.59-1.45-1.74,2.83-3.67,6.27-5.67,1.73-1,3.25-2,3.73-3.07.36-.81.34-2.58.09-4.85h0c0-.43-.09-.87-.16-1.33a13.85,13.85,0,0,1-1,1.79,26.33,26.33,0,0,1-3.67,4.3,12.28,12.28,0,0,1-4.27,2.94,3.34,3.34,0,0,1-2-.18c-1.8-.71-3.54-2.69-4.92-4.6-.32-.45-.63-.9-.91-1.33-.94-1.42-1.61-2.61-1.87-2.89-.77-.85,3.09-2.53,4.68-3.8s7.8-25.81,7.8-25.81c.77-1.94,3.82-12.84,5.34-14.49,0,0,5.94,7.26,13.65,6.85s20.75-7.79,21-7.91a4.7,4.7,0,0,1,1.37,1.22c3.14,3.7,2.05,15,2.05,15s-6,26.44-6,29.11c0,4.89,4,16.13,6,24.23C708.78,310.27,709.16,314.13,707.13,314.32Z"/><path class="cls-25" d="M677.57,224.76s.5,3.57.73,7c6.38-.61,9.37-6.66,10.53-10Z"/><path class="cls-19" d="M675.65,228.1s15.13-.75,14.51-10.17.92-15.85-8.76-15.76-11.33,3.8-11.88,7S671.7,228.06,675.65,228.1Z"/><path class="cls-22" d="M675,205.52s3.62-.85,4.8.91.34,2.75,3,3.48,3.53.69,3.27,2.54,2.65,3.21,2.77,4.69a2.58,2.58,0,0,0,2.5,2.32c1.16.11.64-19-3.85-19.89s-8.81.16-10.13,1.22S675,205.52,675,205.52Z"/><path class="cls-22" d="M675,205.52s-3.51-.25-4.14,1.76.21,2.48-.69,3.69-.38,3.36-.38,3.36-6.95-12.8.38-13.65S677.32,201.33,675,205.52Z"/><path class="cls-26" d="M670.42,277.67a38.88,38.88,0,0,1-4.68,9.1,12.28,12.28,0,0,1-4.27,2.94,3.34,3.34,0,0,1-2-.18c-1.8-.71-3.54-2.69-4.92-4.6-.32-.45-.63-.9-.91-1.33,4.8-3.85,13.91-12.67,14.86-24.75C669.75,242.36,670.49,278.43,670.42,277.67Z"/><path class="cls-26" d="M659.43,289.53c1.68-2.56,5.09-5.08,10-7.06-2.25,3.37-6.11,6.8-7.94,7.24A3.34,3.34,0,0,1,659.43,289.53Z"/><path class="cls-26" d="M699.42,257.79s-3.78,38-20.49,43.18l-.29-.17c-2.4-1.42-5.78-2.08-9-2.61-4.09-.67-7.91-1.12-9.14-2.59-1.45-1.74,2.83-3.67,6.27-5.67,1.73-1,3.25-2,3.73-3.07.36-.81.34-2.58.09-4.85h0C686.82,276,699.42,257.79,699.42,257.79Z"/><path class="cls-19" d="M703.68,246.55c-1.75-7.89-9.7-3.36-9.7-3.36-2.75-.63-23,32.13-24.59,32.88-1.37.63-20-4.79-25.65-6.45-1.46-1.15-6.6-5.13-7.49-5.2-1-.08-8.06,1.72-8,2.84s1.69,2.74,4.27,3.16c2,.31,5.29,1.6,7.41,1.92h0s20.56,14,29.32,15.72C677.11,289.6,705.43,254.44,703.68,246.55Z"/><path class="cls-16" d="M657.07,273.33s-4.74,12.18.94,16.81,18,3.07,31.5-15.75,19-29.08,12-32.07-12.8,1.7-16.4,9c-3.73,7.61-10.62,18.15-14.75,18.55S657.07,273.33,657.07,273.33Z"/><path class="cls-19" d="M538.24,158.86v1.83s-.51,5.75,6.58,6.59,12.88.74,12.69-3.7c-.64-3.44-1.78-8.77-1.83-11.61a21.62,21.62,0,0,1,.25-3.45l-13.72-.27-4,.66Z"/><path class="cls-27" d="M538.18,148.91l.06,10a11.68,11.68,0,0,0,4.94,1.09c6.31,0,10.38-4.63,12.51-8a21.62,21.62,0,0,1,.25-3.45l-13.72-.27Z"/><path class="cls-19" d="M557,146.32c-1.6,8.56-12.65,8.28-17.43,7.74-1.34-.15-2.19-.32-2.19-.32-1.51-.4-2.36-2.79-2.75-5.92-.78-6.19.2-15.27,1.25-17.6,1.57-3.49,4.54-7.28,15.67-4.55S559,135.34,557,146.32Z"/><path class="cls-28" d="M566,400H550.38a36.09,36.09,0,0,1,1.25-5.62,16.61,16.61,0,0,1,.88-2.26c1.53-3,11.2-1.11,11.2-1.11s.9.77,1.6,3.72A30.81,30.81,0,0,1,566,400Z"/><path class="cls-28" d="M518.7,395c0,2.13-.31,4.14-1.08,4.94h-31c.39-1.12,1.5-2.81,4.69-3.32,3.61-.59,9.24-2.33,12.53-5.81a9.22,9.22,0,0,0,2.43-4.39c1.46-6.49,12.05,2,12.05,2A52,52,0,0,1,518.7,395Z"/><path class="cls-29" d="M539.31,324.87a48,48,0,0,0-.77,5.72c-1,19.22-16.18,63.15-18.89,64.17-4.21,1.59-10.83-1.79-14.29-2.89a3,3,0,0,1-2.08-3.37c7.52-34.58,10.28-84.37,11.29-113.85a133.2,133.2,0,0,1,3-25.1s37-9.89,37.27,2.61C555.08,263.23,542.62,306.62,539.31,324.87Z"/><path class="cls-28" d="M539.31,324.87l-24.74-50.22a133.2,133.2,0,0,1,3-25.1s37-9.89,37.27,2.61C555.08,263.23,542.62,306.62,539.31,324.87Z"/><path class="cls-29" d="M531.07,252.21l19.58,141.93s8.6,2.07,15.29.41c0,0,5.73-75.48,5.26-93.73s4.11-48.83-1.05-52.2S531.07,252.21,531.07,252.21Z"/><path class="cls-28" d="M532.46,122.07a37,37,0,0,0,10.68-2.89c4.69-2,10.61.2,12.53,1.22a2.74,2.74,0,0,0-.47-1.16,2.54,2.54,0,0,1,1,1.47c.09.06.13.11.11.12a3.22,3.22,0,0,1,1.6.11s-.44-.07-.59.22a.23.23,0,0,1-.07.07c7.31,3.54,8,15.1,5.64,17.78-2.84,3.22-6.23,10.47-6.23,10.47a6.23,6.23,0,0,1-.73-4.55c.52-2.83-1.93-2.83-5-4.12s-.52-4.89-3.22-7.08-12.62-.9-12.49-2.58C531.51,129.81,532.46,122.44,532.46,122.07Z"/><path class="cls-30" d="M559.19,166l-4.51,96.74s-37.63.62-36.55-7.9S531.69,169,531.69,169Z"/><path class="cls-31" d="M572.63,220.88c-2.24,6.71,2,29.25,3.48,36.88.33,1.62.55,2.57.55,2.57-5.21,8.48-24.29,8.37-24.29,8.37-3.67-16.22-5.58-42.06-5.58-42.06l14.64-64.19,18.43,17s-1.4,10.38-3.12,21C575.38,208.8,573.84,217.32,572.63,220.88Z"/><path class="cls-32" d="M541.31,147.72s-.36,1.11-3.15.71c0,0-2.34-.34-2.17-1.57A7.6,7.6,0,0,1,541.31,147.72Z"/><path class="cls-31" d="M520.16,167.42v0c-.89.87-26,25.26-30.88,34.81s22.65,29,22.65,29a6.35,6.35,0,0,0,3,.43c-1.3,10.72-2.76,20.6-1.9,24.82,1.57,7.63,8.62,10.19,8.62,9.6,0-.18,2.58-27.71,4-42.08,3-30.8,10.53-61.39,10.53-61.39A53.19,53.19,0,0,0,520.16,167.42Zm-15,39s0-.11,0-.14c0-1.4,5.32-4.48,11.08-8.11l.11-.12h0c-.1,3-.09,5.88.09,8.59a110.58,110.58,0,0,1-.65,17.16C513.07,219.54,505.74,208,505.2,206.45Z"/><path class="cls-33" d="M560.26,162.33c0-.92-4.33-2.2-4.33-2.2s-5,6.94-13.25,7.06c0,0,2.35,4.57,5.12,5.76C547.8,173,560,167.81,560.26,162.33Z"/><path class="cls-33" d="M542.68,167s-4.37-2.59-4.38-5.4c0,0-2.83-.35-4.06,1,0,0-1,4.81.34,7.6C534.58,170.25,540.87,169.29,542.68,167Z"/><path class="cls-34" d="M545.64,166.61l-5.92-1.42a.9.9,0,0,0-.75,1c0,1,1.67,3.79,2.4,4S547.05,168.56,545.64,166.61Z"/><path class="cls-30" d="M559.57,161.85c0-.92-2.92-2.82-2.92-2.82s-5.73,6.69-14,6.81c0,0,2.35,4.58,5.12,5.76C547.8,171.6,559.29,167.34,559.57,161.85Z"/><path class="cls-30" d="M542.68,165.84s-4.42-2.34-4.43-5.15a14.14,14.14,0,0,0-3.9,2.55,8.11,8.11,0,0,0,.23,5.83S540.87,168.11,542.68,165.84Z"/><path class="cls-23" d="M531.1,232.57a9.14,9.14,0,0,0,2.91,5.91l2.62,2.41a1.53,1.53,0,0,0,2.25-.18l3.25-4.13a5.47,5.47,0,0,0,1.15-3.9c-.31-3.13-.87-9.15-1.33-15-.37-4.71-.66-9.28-.68-12.06-.08-8.88,1.69-37.2,1.69-37.2l-2.13.11a113.93,113.93,0,0,0-8.06,25.95,99.22,99.22,0,0,0-1.47,11.66S530.19,222.36,531.1,232.57Z"/><path class="cls-34" d="M531.1,232.57a9.14,9.14,0,0,0,2.91,5.91l2.62,2.41a1.53,1.53,0,0,0,2.25-.18l3.25-4.13a5.47,5.47,0,0,0,1.15-3.9c-.31-3.13-.87-9.15-1.33-15-5.88-6.61-8.26-15.75-9.18-23.2a99.22,99.22,0,0,0-1.47,11.66S530.19,222.36,531.1,232.57Z"/><path class="cls-19" d="M510.16,232.84a4.08,4.08,0,0,1,4.61-4.08,2.54,2.54,0,0,1,1.71.94c1.67,2.24,3.27,8.74.3,9-1.21.12-2.77-.73-4-1.64s-2.66-2.37-2.66-3.89Z"/><path class="cls-28" d="M576.11,257.76c-5.39-5.61-14.72-16.66-14.39-25.73.44-12.69,15-31.6,15-31.6-1.36,8.37-2.9,16.89-4.11,20.45C570.39,227.59,574.61,250.13,576.11,257.76Z"/><path class="cls-19" d="M575.94,235.68s-3.88,1.93-6.23,1-5.13-1.69-7.76,1.3-3.18,5.08-2.63,6.18,6.69.7,7.71,0,2.63-2.39,3.65-2.1c2.82.82,5.19-1.33,6.52-3C578,238,575.84,237.45,575.94,235.68Z"/><path class="cls-31" d="M561.43,162.45s15.45,1.71,19.09,8.43,22.59,34,22,45.33-25.84,24-25.84,24-5.59-2.36-5.67-4.9,17.43-17.72,16.37-20.55S567,189.55,565.14,182.17,561.43,162.45,561.43,162.45Z"/><path class="cls-28" d="M516.36,198.08l-.11.12c-5.76,3.63-11.08,6.71-11.08,8.11-.78-2.46,6.71-12.74,9.13-14.83S516.36,198.08,516.36,198.08Z"/><path class="cls-28" d="M556.65,159s-11.72,49.12-9.86,67.62c0,0,4.31-19.77,14.69-36,0,0-3.79-3.33-3.58-4.56a13,13,0,0,1,5.54-.27s-.3-21.17-2-23.41A12.52,12.52,0,0,0,556.65,159Z"/><path class="cls-28" d="M538.25,160.69c.23-.14-11.63,48-12.62,63.34,0,0,1.18-27.37,1.06-35.26,0,0,4.87-2.58,4.87-3.48s-5.19-3.35-5.19-3.35,3.29-16.86,5.08-18.72S538.25,160.69,538.25,160.69Z"/><path class="cls-19" d="M385.69,373.46a2.2,2.2,0,0,1,.39,2.36h0c-.56,1.57-2.44,3.32-4.61,5.06l-.75.62-.16.15-.13.12c-2,1.87-1.27,2.3-4.91,6.09-4.16,4.33-7,4.41-7.84,4s.71-2.63,2.26-5.21l.23-.37c.21-.34.41-.69.62-1,1.81-3.1,1.35-4.56.92-9.18-.35-3.75-5.84-21-5.84-21l8-1.37s2.4,13.71,5,15.82c1.41,1.13,3,1.14,4.36,2l.28.18A10.47,10.47,0,0,1,385.69,373.46Z"/><path class="cls-23" d="M385.69,373.46a2.2,2.2,0,0,1,.39,2.36h0c-.69,1.56-2.52,3.31-4.62,5.05l-.74.63-.16.15-.13.12c-2,1.87-1.27,2.3-4.91,6.09-4.16,4.33-7,4.41-7.84,4s.71-2.63,2.26-5.21a17.67,17.67,0,0,0,7.42-5.46c2.5-3.19,4.17-7.3,5.88-9.68l.28.18A10.47,10.47,0,0,1,385.69,373.46Z"/><path class="cls-19" d="M321.43,368.49c-.49,2.46-4,2.05-7.92,1.09s-3,.18-8.56-.44-7.26-2.69-7.43-3.52,2.6-1,5.55-1.34l1.12-.13c3.34-.42,5.78-2.57,8.81-4.34,2.87-1.68,7.16-8.5,7.16-8.5l7.64.61s-4,6.09-5.56,8.74a9.13,9.13,0,0,0-.75,5.21A10,10,0,0,1,321.43,368.49Z"/><path class="cls-23" d="M313.51,369.58c-3.92-1-3,.18-8.56-.44s-7.26-2.69-7.43-3.52,2.6-1,5.55-1.34l0,.06a15.7,15.7,0,0,0,8,2.48c3.78.09,7.78-1,10.4-.95a10,10,0,0,1-.06,2.62C320.94,371,317.43,370.54,313.51,369.58Z"/><path class="cls-19" d="M338.44,256.18s-1.82-4.46-3.82-4.64-8.38-1.19-8.84-.28a6.33,6.33,0,0,0,1.37,5.38c1.36,1.18,9.83,3.09,9.83,3.09Z"/><path class="cls-35" d="M350.73,319.59l16.48,44.35a15,15,0,0,0,5-.45,21.29,21.29,0,0,0,4.79-2.33s-4.09-42.59-11.58-51.44S350.73,319.59,350.73,319.59Z"/><path class="cls-23" d="M415.91,301.65s-47.35-16-57.91-12.6-42.27,66.49-42.27,66.49a6.07,6.07,0,0,0,2.67,1.68c1.82.69,6.21.64,6.21.64s28.62-24.53,32-31.68,4.77-14,8.17-13.28,43.95,16.69,53.14,7.15,6.8-21.93,6.8-21.93Z"/><path class="cls-36" d="M387,227.17c-.75-1.56-1.6-4.34-2-9.28.06.49.91,6.73,3.31,10.25,9.85,6.47,28.73,28.06,28.35,32.15,0,0,6.65-11.28,6.76-11.34s12.27-15.6-2.27-24.53c-7.38-4.54-7.35-10.37-7-15.43s-2-26.86-16.81-21.15c0,0-2.38-1.06-3.44-.9a3,3,0,0,1,1.31.62,11.49,11.49,0,0,0-6.21,1.19C383.49,191.83,378.64,219.49,387,227.17Z"/><path class="cls-19" d="M388.85,228.47s4.76,2.51,8.37,1.52c3.4-.92,5.62-5.33,5.58-5.34-1.44-.29-1.86-2.26-1.83-10.76l-.65.12-10.94,2.17s.25,3.44.26,6.69C389.64,225.59,389.48,228.18,388.85,228.47Z"/><path class="cls-37" d="M389.38,216.18s.25,3.44.26,6.69c6.12-.17,9.36-5.76,10.68-8.86Z"/><path class="cls-36" d="M401.45,212.82s3.21-5.07,4-9.4c.55-3.1-1-14.57-12.55-12.92a15.66,15.66,0,0,0-6.5,2.46c-2.5,1.69-6.12,5.34-2.08,15.35l1.05,3.38Z"/><path class="cls-19" d="M387.33,219.25s14.49.24,14.5-8.78,1.89-15.07-7.36-15.61-11.05,2.91-11.79,5.92S383.57,219,387.33,219.25Z"/><path class="cls-36" d="M387.87,194.64s4,10.59,10.05,12.15,8.73-.06,8.73-.06A17.24,17.24,0,0,1,401,196.55S390.86,189.6,387.87,194.64Z"/><path class="cls-36" d="M388.85,195.5s-3,2.37-3.68,4.66-1.05,7-2.43,6.87c0,0-3-7.19.37-11.27C386.68,191.45,388.85,195.5,388.85,195.5Z"/><path class="cls-38" d="M427,301.9c-.78,2.17-3.18,2.73-6.39,2.35-6.12-.71-15.22-4.82-21.77-7.67-10-4.33-14.54-.26-17.72-3s3.63-8.89-2.27-37.36c-2-9.65,10.69-30.34,10.69-30.34s1.09,6,13.24-1.22c.43-.25,5.2,6.82,9.81,15.55,5.07,9.62,9.93,21.25,8.5,27.24C418.39,278.86,429.29,295.6,427,301.9Z"/><path class="cls-38" d="M389.56,225.87l-7.49,30.7s-.93,1.66-2.39,4c-3.43,5.54-9.77,15-13.83,15.91-2,.47-6.27-1.19-11-3.58a223.4,223.4,0,0,1-19.46-11.56c-.68-4.09,2.88-7.42,2.88-7.42s21.35,8,23.47,8.18c4.62.33,9.33-22,13.65-29.41C378.53,227.33,389.56,225.87,389.56,225.87Z"/><path class="cls-32" d="M390.56,213.78s-.27,1.15-3.13,1c0,0-2.39-.15-2.32-1.41A7.76,7.76,0,0,1,390.56,213.78Z"/><path class="cls-39" d="M427,301.9c-.78,2.17-3.18,2.73-6.39,2.35-4.24-1.84-22.55-8.94-22.34-13.74.3-7.12,3.52-7.34,1.25-16.13-1.83-7.05,15.09-20.16,17.79-23,5.07,9.62,5.21,10.08,3.78,16.07C418.39,278.86,429.29,295.6,427,301.9Z"/><path class="cls-39" d="M379.68,260.59c-3.43,5.54-9.77,15-13.83,15.91-2,.47-6.27-1.19-11-3.58a28.3,28.3,0,0,0,10,.55c3.52-.34,4.54-4.65,10.11-11.12C378.62,258.15,379.5,259.2,379.68,260.59Z"/><path class="cls-19" d="M396.64,274.21s-3.06-2.38-6-1.81-4.32,2.55-4.2,3.46,1.64,3.46,3.86,3.69,8.52-1.36,8.52-1.36Z"/><path class="cls-38" d="M402.8,224.65s11.8.73,15.89,6.43c5.75,8,15.75,40.79,13,48.28l-35.92-.15s-.87-4.07.34-6,20.9-5.15,21.8-6.05-11.35-17.72-11.35-20.45S402.8,224.65,402.8,224.65Z"/><polygon class="cls-22" points="393.56 287.63 350.07 287.63 342.23 260.29 385.65 260.29 393.56 287.63"/><rect class="cls-24" x="350.22" y="286.56" width="56.85" height="1.07"/><path class="cls-24" d="M363.88,273.52a1.26,1.26,0,0,1,1.24-1.74,2.49,2.49,0,0,1,2.24,1.74,1.26,1.26,0,0,1-1.24,1.74A2.5,2.5,0,0,1,363.88,273.52Z"/><path class="cls-19" d="M256.91,225.58s4.75-3.88,6.46-3.9,4.95-.88,4.82-.32-2.86,1.28-2.39,1.54,4.44-.81,5.55-.17,3.72,3.28,1.62,4.44-8.36,3-10,2.77-5.29-.47-5.29-.47Z"/><polygon class="cls-19" points="196.2 370.05 200.18 386.84 206.16 386.8 206.37 370.05 196.2 370.05"/><polygon class="cls-19" points="246.43 370.76 257.77 386.84 262.19 381.16 255.37 368.55 246.43 370.76"/><path class="cls-24" d="M223.18,167.73h0a.49.49,0,0,0,0-.12c-.07-.84-.17-1.67-.28-2.49h0a55.31,55.31,0,0,0-1.43-7.1c-.35-1.24-.72-2.4-1.13-3.44l-.18-.47h0c-1-2.37-2.07-4.07-3.2-4.71a11.63,11.63,0,0,0-6.26-1.2,2.86,2.86,0,0,1,1.32-.62c-1.07-.17-3.47.9-3.47.9-14.9-5.74-17.24,16.2-16.93,21.3s-5,6.76-12.76,10.78c-14.8,7.66-16.1,17.93-16.1,17.93l.36.23c.74-1.24,2.25-3.57,3.52-3.93-.05.12-1.5,3.22-2.05,5,1.87,1.43,4.43,3.58,7.2,6h0c3.7,3.23,7.77,6.91,11,9.9a8.49,8.49,0,0,1,.39-3.23l.63,3.74.08.49c2.07,1.91,3.71,3.43,4.54,4.21l.23.21.37.35c-.12-1.31,1.72-4.4,4.6-8.21l.62-.81c.92-1.2,1.94-2.46,3-3.76.4-.46.79-.93,1.2-1.41h0c.32-.38.66-.76,1-1.15h0c.81-.92,1.64-1.83,2.48-2.75,2.19-2.38,4.47-4.73,6.71-6.86a67.42,67.42,0,0,1,8.9-7.42c.1-.14.19-.29.28-.43a16.33,16.33,0,0,0,1.22-2.52c.1-.27.2-.54.29-.8a36.86,36.86,0,0,0,1.54-6.46,38.17,38.17,0,0,1-1.07,6.58c-.09.35-.19.67-.29,1h0a13.21,13.21,0,0,1-.66,1.67,9.79,9.79,0,0,0,1.2-1.35,11.06,11.06,0,0,0,.67-1.05C223.25,181.36,223.79,174.41,223.18,167.73Z"/><path class="cls-19" d="M217,189.4c.05,0-4.79,2.53-8.43,1.54-3.42-.93-5.66-5.37-5.61-5.38,1.45-.29,1.86-2.28,1.83-10.85l.66.13,11,2.19s-.25,3.46-.26,6.73C216.2,186.5,216.37,189.11,217,189.4Z"/><path class="cls-21" d="M204.53,153s5.44-5.78,12.27-.29C216.8,152.7,212.82,152,204.53,153Z"/><path class="cls-37" d="M216.47,177s-.25,3.46-.26,6.73c-6.17-.17-9.43-5.8-10.76-8.92Z"/><path class="cls-24" d="M204.31,173.64s-3.23-5.1-4-9.47c-.55-3.12,1-14.67,12.65-13a15.86,15.86,0,0,1,6.54,2.48c2.52,1.7,6.16,5.38,2.09,15.46l-1.05,3.4Z"/><path class="cls-29" d="M260.39,376.75l-5.84.18-6.32.2s-14.61-16.26-22.8-42.33c-.19-.61-.39-1.22-.61-1.84-4.48-13.07-13.77-29.48-18.67-44.34q-1.17-3.54-2.11-6.7c-.2-.67-.4-1.34-.58-2a157.32,157.32,0,0,1-5.62-29.57l35.37.28A659.38,659.38,0,0,0,260.39,376.75Z"/><path class="cls-40" d="M228.26,230.31c-.09,16.83,2.47,24.06,2.47,24.06a47.58,47.58,0,0,1-33.15,2c-.21-.07-14.9-3.42-14.9-3.42.3-.68,3-12,3.27-12.65,3.8-8.16,6.69-11.74,7.14-14.25a53.47,53.47,0,0,0,.44-14.1,113.19,113.19,0,0,0-4.37-22.15c4.91-1.11,9.5-3.07,14.6-5,1.18,1.47,4.77,3,7.88,2.93,3.59-.08,4.75-1.62,4.56-3.29,3.82,2.12,6.87,4.13,6.87,4.13,3.25,5.64,9.83,11.12,10.31,19.77C233.5,210.51,228.26,229.84,228.26,230.31Z"/><path class="cls-19" d="M218.53,180.12s-14.59.24-14.6-8.85-1.9-15.18,7.41-15.71,11.13,2.92,11.87,6S222.32,179.82,218.53,180.12Z"/><path class="cls-24" d="M218,155.33s-4,10.67-10.13,12.24-8.79-.06-8.79-.06a17.4,17.4,0,0,0,5.68-10.26S215,150.26,218,155.33Z"/><path class="cls-24" d="M217,156.2s3,2.38,3.71,4.69,1,7.08,2.44,6.92c0,0,3-7.25-.37-11.35C219.19,152.12,217,156.2,217,156.2Z"/><path class="cls-19" d="M200,385.9a16.18,16.18,0,0,1-.76,6.88s-1,4.46,3.41,4.54,5.46-.33,5-3.06-1.44-7.46-1.44-7.46Z"/><path class="cls-20" d="M208.18,400h-9.61c-.39-2,.48-6.18.62-7a.78.78,0,0,1,0-.14v0c5,4.54,8.07-.12,8.07-.12l0,0C208,394.48,208.19,399.27,208.18,400Z"/><path class="cls-19" d="M272.76,394.7s-8.08-9-10.57-13.54l-6,3.08,13.44,12.62,3.15-.41Z"/><path class="cls-20" d="M277.9,400H267.73c-1.5,0-2.7-2.48-4.31-5.71a5.44,5.44,0,0,0-3.66-2.44l0,8.15h-2.34l-2.16-8.62c-1.44-2.63-.12-5,.89-7.1,1.17,0,4.32.8,10.3,7.53a7.81,7.81,0,0,0,6.28,2.93l.09.05C277.82,397,277.9,400,277.9,400Z"/><path class="cls-28" d="M254.55,376.93l-6.32.2s-14.61-16.26-22.8-42.33c-.19-.61-.39-1.22-.61-1.84-4.48-13.07-13.77-29.48-18.67-44.34q-1.17-3.54-2.11-6.7c-.2-.67-.4-1.34-.58-2l5.21-3.95s15.63,25.32,20.47,49.15C233.35,345.83,250.19,370.74,254.55,376.93Z"/><path class="cls-29" d="M209.21,327.35c.09,11.59-.5,38.23-2,49.26h-5.6c-3.09,0-4.64,0-4.64,0-3.78-19.18-6.48-35.05-8.44-48.72-1.61-11.22-3-20.84-4.14-29.13s-1.87-15.31-2.15-21.21c0-.92-.07-1.83-.09-2.7s0-1.74,0-2.57l30.56-3C212.3,289.56,209.16,320.62,209.21,327.35Z"/><path class="cls-28" d="M201.6,376.61c-3.09,0-4.64,0-4.64,0-3.78-19.18-6.48-35.05-8.44-48.72-1.61-11.22-3-20.84-4.14-29.13s-1.87-15.31-2.15-21.21l11.21,6.6s-7.15,2.53-4.42,21.64S197.8,373.91,201.6,376.61Z"/><path class="cls-5" d="M203.05,277.33s-2.16,7.77-9.61,6.78-18-5.46-18-5.46,3.18-10.06,7.14-23.27c4.79-16,6-38.48,8.78-51.48.78-3.65,6-4.83,6.25-7l6.18-12s9.22,20.68,9.71,25.89S203.05,277.33,203.05,277.33Z"/><path class="cls-41" d="M197.84,226.15c-.33,8.44-3.29,22.83-15.15,29.16l-.14.07c4.79-16,4.73-31.34,7.52-44.35C196.45,209.7,198,221.5,197.84,226.15Z"/><path class="cls-20" d="M274.9,221.1H263.46c0,.05,0,.27,0,.58,0,1-.11,3.07-.1,3.25a5.06,5.06,0,0,0,3.48,4.41h0a8,8,0,0,0,1.13.34,6.06,6.06,0,0,0,.77.12l.45,0a5.71,5.71,0,0,0,2.34-.5,5.79,5.79,0,0,0,3.43-5.26v-2.25A5.81,5.81,0,0,0,274.9,221.1Z"/><path class="cls-21" d="M274,221.1h-1.55a5.68,5.68,0,0,1,0,.72v2.25a5.77,5.77,0,0,1-1.65,4,6,6,0,0,1-1.78,1.23,6.41,6.41,0,0,1-1.07.36c-.16,0-.32.06-.49.09a6.49,6.49,0,0,0,.77.05l.49,0a5.55,5.55,0,0,0,1.86-.48,5.88,5.88,0,0,0,2.58-2.28h0a5.73,5.73,0,0,0,.84-3v-2.25A5.68,5.68,0,0,0,274,221.1Z"/><rect class="cls-20" x="266.83" y="229.33" width="4.71" height="0.7" transform="translate(538.36 459.36) rotate(180)"/><path class="cls-19" d="M184.81,244.88s5.32-1.14,6.69.37,2.13,3.94.76,4.79-5.32-1.48-6.74-.54c-1,.67-1.34,2.38-2.37,1.78s-2.1-4.52-2.1-4.52Z"/><path class="cls-5" d="M203.76,184.9s-14.36.63-17.81,3.84-24.11,28-24.45,34.46,18.1,24.93,18.1,24.93,5.12-1.23,7.34-4.46c0,0-11.44-20.4-10.76-21.29s20.07-16.78,21.66-13.25C199.21,212.16,203.76,184.9,203.76,184.9Z"/><path class="cls-5" d="M258.39,223.48s-16.4,5.47-18.45,5-5-22.67-6.56-30.29c-2-9.8-9.8-11.75-9.8-11.75l-7.38-2s8.44,20.85,8.69,25.07,1,69,1,69-.5,3,5.21,1.74,7.2-2.49,7.2-2.49-2.48-18.11-3.64-34.19c5.82-1,24.52-10.48,24.52-10.48C262.09,228.6,258.39,223.48,258.39,223.48Z"/><path class="cls-42" d="M304.21,293.43l-3,16.92h0L293,357.09l-7.38,41.78a1.34,1.34,0,0,1-1.33,1.09.93.93,0,0,1-.95-1l6.35-47.37,6.8-50.66,1-7.64Z"/><path class="cls-42" d="M336.85,293.43l-3,16.92h0l-8.25,46.74-7.37,41.78a1.35,1.35,0,0,1-1.34,1.09.93.93,0,0,1-1-1l6.36-47.37,6.8-50.66,1-7.64Z"/><path class="cls-15" d="M301.22,310.35c.4-7.27-4.75-9.47-4.75-9.47l1-7.64,6.71.19Z"/><path class="cls-42" d="M585.82,400a1.35,1.35,0,0,1-1.34-1.09l-6.55-37.12-9.42-53.39-2.63-14.93,6.71-.19,1.16,8.67,8.17,60.9,4.85,36.1A.94.94,0,0,1,585.82,400Z"/><path class="cls-15" d="M573.75,301.91a9.6,9.6,0,0,0-5.24,6.45l-2.63-14.93,6.71-.19Z"/><path class="cls-42" d="M623.43,400a1.34,1.34,0,0,1-1.33-1.09l-6.55-37.12-9.42-53.39-2.64-14.93,6.71-.19,1.17,8.67,8.17,60.9,4.85,36.1A1,1,0,0,1,623.43,400Z"/><path class="cls-15" d="M611.37,301.91a9.6,9.6,0,0,0-5.24,6.45l-2.64-14.93,6.71-.19Z"/><rect class="cls-43" x="266.64" y="287.57" width="361.69" height="11.72" rx="5.8"/><path class="cls-20" d="M342,280.52a3.73,3.73,0,0,0-2.35,0v-1.1a5.55,5.55,0,0,0-.05-.72H328.15a5.55,5.55,0,0,0,0,.72v2.24a5.76,5.76,0,0,0,10.09,3.81h0s2.72-.67,3.58-1.69S342.9,281.08,342,280.52Zm-.6,2.07c-.29.75-1.59,1.15-2.23,1.31a5.52,5.52,0,0,0,.46-1.9,1.71,1.71,0,0,1,1.48-.78C341.51,281.3,341.75,281.65,341.39,282.59Z"/><path class="cls-21" d="M329,279.37v2.24a5.78,5.78,0,0,0,5.76,5.77,4.93,4.93,0,0,0,.78-.06,5.77,5.77,0,0,1-5-5.71v-2.24a5.55,5.55,0,0,1,.05-.72h-1.55A5.55,5.55,0,0,0,329,279.37Z"/><rect class="cls-20" x="331.51" y="286.88" width="4.71" height="0.7"/><path class="cls-20" d="M504.55,280.52a3.76,3.76,0,0,0-2.36,0v-1.1a5.55,5.55,0,0,0-.05-.72H490.71a5.55,5.55,0,0,0,0,.72v2.24a5.76,5.76,0,0,0,10.09,3.81h0s2.72-.67,3.57-1.69S505.46,281.08,504.55,280.52Zm-.61,2.07c-.28.75-1.58,1.15-2.22,1.31a6,6,0,0,0,.46-1.9,1.7,1.7,0,0,1,1.47-.78C504.06,281.3,504.31,281.65,503.94,282.59Z"/><path class="cls-21" d="M491.6,279.37v2.24a5.78,5.78,0,0,0,5.76,5.77,5.12,5.12,0,0,0,.78-.06,5.77,5.77,0,0,1-5-5.71v-2.24a5.58,5.58,0,0,1,0-.72h-1.55A5.58,5.58,0,0,0,491.6,279.37Z"/><rect class="cls-20" x="494.07" y="286.88" width="4.71" height="0.7"/><path class="cls-4" d="M79.51,199.48V400H26.62s-.8-7.79-1-20.38c-.13-7.34-.09-16.3.43-26.3,0-.82.09-1.64.14-2.48.27-4.58.63-9.37,1.12-14.3,0-.44.08-.88.13-1.32.54-5.16,1.2-10.52,2-16,.68-4.47,1.45-9,2.36-13.7.06-.32.13-.65.19-1q.71-3.56,1.51-7.15c.21-.94.42-1.89.64-2.83.43-1.85.88-3.71,1.35-5.56q1.73-6.84,3.85-13.74c.15-.47.29-.94.44-1.42.64-2,1.32-4.1,2-6.16q1.6-4.69,3.42-9.39c.76-2,1.55-3.91,2.37-5.87A199.25,199.25,0,0,1,79.51,199.48Z"/><rect class="cls-32" y="399.84" width="974.33" height="3.48" rx="1.28"/></g></g></g></svg>