<svg xmlns="http://www.w3.org/2000/svg" xmlns:xlink="http://www.w3.org/1999/xlink" viewBox="0 0 487.62 487.62"><defs><style>.cls-1{fill:none;}.cls-2{isolation:isolate;}.cls-3{clip-path:url(#clip-path);}.cls-4,.cls-7,.cls-8{fill:#1a2e35;}.cls-4{opacity:0.9;}.cls-4,.cls-7{mix-blend-mode:darken;}.cls-5{fill:#fff;}.cls-6{opacity:0.5;mix-blend-mode:multiply;}.cls-7{opacity:0;}.cls-9{fill:#faaf3b;}</style><clipPath id="clip-path" transform="translate(-1.31 -14.27)"><rect class="cls-1" width="499.12" height="411.59"/></clipPath></defs><g class="cls-2"><g id="Layer_2" data-name="Layer 2"><g id="Layer_1-2" data-name="Layer 1"><g class="cls-3"><rect class="cls-4" x="43.99" y="56.94" width="402.27" height="402.27" transform="matrix(0.98, -0.19, 0.19, 0.98, -45.05, 35.85)"/><path class="cls-5" d="M399.35,31.79l72.06,380.52L90.89,484.36l-72-380.51L399.35,31.79M411.3,14.27,1.31,91.9,79,501.89l410-77.64-77.64-410Z" transform="translate(-1.31 -14.27)"/></g><g class="cls-6"><polygon class="cls-7" points="211.81 200.34 279.31 239.31 211.81 278.28 211.81 200.34"/><path class="cls-8" d="M215.62,218.94l60,34.64-60,34.64V218.94m-5-8.66v86.6l75-43.3-75-43.3Z" transform="translate(-1.31 -14.27)"/></g><polygon class="cls-7" points="208.81 197.34 276.31 236.31 208.81 275.28 208.81 197.34"/><path class="cls-9" d="M212.62,215.94l60,34.64-60,34.64V215.94m-5-8.66v86.6l75-43.3-75-43.3Z" transform="translate(-1.31 -14.27)"/></g></g></g></svg>