<svg xmlns="http://www.w3.org/2000/svg" viewBox="0 0 688.13 599.35"><defs><style>.cls-1{isolation:isolate;}.cls-2{fill:#b3dcff;}.cls-3{fill:#484e7d;}.cls-4{fill:#eea886;}.cls-5{fill:#5b639e;}.cls-6{fill:#292c47;}.cls-7{fill:#ff7e55;}.cls-8{fill:#323657;}.cls-9{fill:#807066;}.cls-10{fill:#d88a51;}.cls-11{fill:#a77860;}.cls-12{fill:#d6c5bf;}.cls-13{fill:#869135;}.cls-14{fill:#48753a;}.cls-15{fill:#78c2ff;}.cls-16{fill:#d6d6d6;}.cls-17{fill:#e8e8e8;}.cls-18{fill:#c2c2c2;}.cls-19{fill:#e3f2ff;}.cls-20{fill:#4da8f2;}.cls-21,.cls-30{opacity:0.78;}.cls-22{fill:#5377b3;}.cls-23{fill:#5b83c2;}.cls-24{fill:#2f4563;}.cls-25{fill:#354c70;}.cls-26{fill:#2b3b57;}.cls-27{fill:#353a3d;}.cls-28{fill:#e55353;}.cls-29{fill:#c2bebc;}.cls-30{mix-blend-mode:multiply;}.cls-31{fill:#eddad3;}.cls-32{fill:#c9b9b3;}.cls-33{fill:#ba5c3d;}.cls-34{fill:#dbcac3;}.cls-35{opacity:0.74;}.cls-36{fill:#fff;}.cls-37{fill:#ff4f5b;}.cls-38{fill:#2b454e;}.cls-39{opacity:0.83;}.cls-40{fill:#e0f1ff;}.cls-41{fill:#1a598c;}.cls-42{fill:#2273b5;}.cls-43{fill:#0071bb;}</style></defs><g class="cls-1"><g id="Layer_2" data-name="Layer 2"><g id="Layer_1-2" data-name="Layer 1"><path class="cls-2" d="M539,498.57H201.75a24,24,0,0,1-23.94-23.95V221.35a24,24,0,0,1,23.94-23.95H539A24,24,0,0,1,563,221.35V474.62A24,24,0,0,1,539,498.57ZM201.75,198.9a22.47,22.47,0,0,0-22.45,22.45V474.62a22.47,22.47,0,0,0,22.45,22.45H539a22.47,22.47,0,0,0,22.45-22.45V221.35A22.47,22.47,0,0,0,539,198.9Z"/><path class="cls-3" d="M613.61,230.8s6.15,2.78,8.9,3.74,12.81-.12,13.93.75,1.16,4.12-.45,4.7-13.64,3.53-17.84,3.11-11.57,2.41-13.33,2-1.91-10.26-1.54-12.54S613.61,230.8,613.61,230.8Z"/><path class="cls-4" d="M612.19,226.84l1.42,4s-7.42,2.64-10.33,1.8l-1-4Z"/><path class="cls-5" d="M597,234.33s5.8,3.53,8.43,4.84,12.73,1.51,13.75,2.51.7,4.25-1,4.61-13.94,1.78-18.05.83-11.76.91-13.46.33-.77-10.43-.15-12.64S597,234.33,597,234.33Z"/><path class="cls-4" d="M596.15,230.21l.87,4.12s-7.66,1.68-10.45.48l-.52-4.14Z"/><path class="cls-6" d="M538,156.06s26.46.24,29.7.69c3.52.5,17.29.95,18.95,3.47,16.78,25.47,27.73,67.17,27.73,67.17L601.11,230s-12.83-24.86-18.2-37.77c-4.82-11.59-8.95-14.57-19.08-14.32s-42.52-2-61.2-4.29Z"/><path class="cls-7" d="M535.19,94.72s7.85,16.9,7.21,23.18-7.39,23.67-7.86,27.17,2.94,10.41,2.94,10.41l-35.36,16.36a97.92,97.92,0,0,1,0-22.26c1.43-11.92,2.48-24.72,4.05-31.46,5.36-23,19.55-32.5,19.55-32.5Z"/><path class="cls-8" d="M537.48,155.48s26.46.23,29.7.69c3.52.5,17.6.74,19,3.46,9.61,19.42,11.77,71.25,11.77,71.25l-12.37,1.5s-5.26-26.46-8-38.84c-1.44-6.57-6.92-14.53-14.42-14.09-10.11.59-49.8,10.4-61-7.61Z"/><path class="cls-4" d="M514.63,110.68c.07-3.27,2-17.39,9.94-16.42s7,10.52,6.31,17.73c-.78,7.54-4.69,26-3.44,27s10.69,3.79,12.72,4.2,14.29,3.41,15.29,3.69-1,5-1,5-33.93-1-39.61-3.68S514.63,110.68,514.63,110.68Z"/><path class="cls-4" d="M555.45,146.86a31.87,31.87,0,0,0,3.74.73c1.22.1,7-2.18,8.76-1.85s13.3,5.88,13.82,6.27-.31,1.16-.31,1.16l-27-1Z"/><rect class="cls-9" x="544.26" y="152.4" width="44.93" height="4.12" transform="translate(6.7 -22.76) rotate(2.31)"/><rect class="cls-9" x="572.3" y="133.52" width="44.93" height="4.12" transform="translate(266.14 649.52) rotate(-70.25)"/><path class="cls-4" d="M555.78,68.11s.84,6.94-1,7.23c-1.55.24-1,6.94-1,8S550.82,84,550,84.4s-5.31,7-7.58,6.35S531.68,82.84,530.09,79s1.14-17.28,5-21.89S554.24,56,555.78,68.11Z"/><path class="cls-4" d="M538.07,85.84s-.23.61-.56,1.55c-.25.7-.56,1.57-.88,2.53a36.79,36.79,0,0,0-1.88,7.24c-.13,2.86-9-11.54-9-11.54a138.76,138.76,0,0,0,5.2-18.83C532.91,56.64,538.07,85.84,538.07,85.84Z"/><path class="cls-10" d="M555.91,69.6a9.47,9.47,0,0,0,1.64-11.79c-3.93-6.83-17.65-2.91-19-3.07s-8.15-2.33-9.48,10.86-.49,11.2-.49,11.2,3.36-5.66,5.76-4.74A34,34,0,0,0,541,73.41s.08-6.16,3.54-5.68S553.18,67.16,555.91,69.6Z"/><path class="cls-7" d="M514,111.3l18.19.66S535,93,524.58,93.4,514,111.3,514,111.3Z"/><path class="cls-4" d="M538.81,69c0-.85.35-4.36-3.09-3.57s-1.37,8.48-.93,8.75S538.73,76.13,538.81,69Z"/><path class="cls-4" d="M525.72,85.62s15.61,28.2,15.2,24.2c-.32-3.12-7.08-18.22-7.08-18.22Z"/><path class="cls-11" d="M537.51,87.39c-.25.7-.56,1.57-.88,2.53a50.93,50.93,0,0,1-6-9.73C531.94,82.53,537.51,87.39,537.51,87.39Z"/><polygon class="cls-12" points="537.48 155.48 502.71 176.47 502.12 171.84 537.48 155.48"/><path class="cls-13" d="M442.54,142.35s4.58,35.29-20.92,62.39-83,17.44-83,17.44,9.51-32,30.36-45.22S430.77,159.22,442.54,142.35Z"/><path class="cls-14" d="M412.87,75.43s21,39.57,3,82.8-90.11,57.3-90.11,57.3-3-42,15.75-66.74S406.47,100.51,412.87,75.43Z"/><rect class="cls-15" x="104.36" y="237.14" width="136.01" height="1.65"/><polygon class="cls-16" points="86.15 306.7 58.94 264.18 72.76 270.45 86.15 306.7"/><polygon class="cls-17" points="86.15 306.7 84.49 281.07 74.61 275.44 86.15 306.7"/><polygon class="cls-18" points="65.2 273.96 61.8 278.44 86.15 306.7 65.2 273.96"/><rect class="cls-19" x="195.02" y="176.52" width="383.65" height="299.67" rx="23.2"/><path class="cls-20" d="M578.67,199.72v6.56H195v-6.56a23.2,23.2,0,0,1,23.2-23.2H555.47A23.2,23.2,0,0,1,578.67,199.72Z"/><rect class="cls-2" x="229.65" y="246.21" width="126.19" height="46.29" rx="5.43"/><path class="cls-2" d="M346.88,354.73H238.61A9.72,9.72,0,0,1,228.9,345V316.65a9.72,9.72,0,0,1,9.71-9.71H346.88a9.72,9.72,0,0,1,9.7,9.71V345A9.72,9.72,0,0,1,346.88,354.73Zm-108.27-46.3a8.23,8.23,0,0,0-8.22,8.22V345a8.23,8.23,0,0,0,8.22,8.22H346.88a8.23,8.23,0,0,0,8.21-8.22V316.65a8.23,8.23,0,0,0-8.21-8.22Z"/><rect class="cls-2" x="384.21" y="369.16" width="102.79" height="7.47" rx="1.41"/><path class="cls-2" d="M385.62,396.29h100a1.41,1.41,0,0,1,1.41,1.41v4.64a1.42,1.42,0,0,1-1.42,1.42h-100a1.41,1.41,0,0,1-1.41-1.41v-4.64A1.41,1.41,0,0,1,385.62,396.29Z"/><path class="cls-2" d="M531.62,354.73H397a13.52,13.52,0,0,1-13.5-13.5V259A13.52,13.52,0,0,1,397,245.46H531.62A13.52,13.52,0,0,1,545.12,259v82.26A13.52,13.52,0,0,1,531.62,354.73ZM397,247a12,12,0,0,0-12,12v82.26a12,12,0,0,0,12,12H531.62a12,12,0,0,0,12-12V259a12,12,0,0,0-12-12Z"/><path class="cls-20" d="M525.85,379l-8.53-7.44a1.68,1.68,0,0,1,2.21-2.53l6,5.26,8.6-9.6a1.68,1.68,0,1,1,2.5,2.25Z"/><path class="cls-20" d="M525.85,407.8l-8.53-7.44a1.68,1.68,0,0,1,2.21-2.53l6,5.26,8.6-9.6a1.68,1.68,0,0,1,2.5,2.24Z"/><rect class="cls-2" x="384.21" y="425.1" width="102.79" height="7.47" rx="1.41"/><path class="cls-20" d="M525.85,436.6l-8.53-7.43a1.68,1.68,0,0,1,2.21-2.53l6,5.26,8.6-9.6a1.68,1.68,0,0,1,2.5,2.24Z"/><path class="cls-19" d="M267.27,269.53c0-.22,0-.45,0-.67v-.23a13,13,0,0,0-.79-3.86,13.45,13.45,0,1,0-16.95,17.33h0a13.17,13.17,0,0,0,4.14.7,13.31,13.31,0,0,0,4.69-.77,13.48,13.48,0,0,0,6.11-4.44,13.29,13.29,0,0,0,2.76-7C267.24,270.25,267.26,269.89,267.27,269.53Zm-23.53-.3a10.09,10.09,0,0,1,19.56-3.32h0a10.24,10.24,0,0,1,.59,2.89h0c0,.23,0,.45,0,.68a10.17,10.17,0,0,1-2.11,6,9.16,9.16,0,0,1-.88,1,10,10,0,0,1-7.22,2.92,10.22,10.22,0,0,1-2.16-.27,9.26,9.26,0,0,1-.94-.26A10.08,10.08,0,0,1,243.74,269.23Z"/><g class="cls-21"><rect class="cls-20" x="504.66" y="241.56" width="160.16" height="107.77" rx="7.73"/></g><rect class="cls-19" x="520.81" y="254.44" width="53.81" height="45.66" rx="2.92"/><rect class="cls-19" x="583.63" y="254.44" width="69.24" height="12.18" rx="1.71"/><rect class="cls-19" x="583.63" y="273.49" width="69.24" height="12.18" rx="1.71"/><rect class="cls-19" x="623.21" y="328.29" width="29.66" height="6.29" rx="1.55"/><path class="cls-4" d="M634,375.52s-2.56-4.47,1.49-16.46A12.09,12.09,0,0,1,657.31,356c4.31,7.42,2.86,12-3.49,20.43S636.64,379.36,634,375.52Z"/><path class="cls-4" d="M665.53,581.8s.67,4.92.76,5.66,7.47-.44,7.47-.44l.59-5.86S666.45,581.1,665.53,581.8Z"/><path class="cls-22" d="M666.21,586.83a20.23,20.23,0,0,1-4.61,4.26c-2.26,1.3-5.82,1.81-7.16,3.15-1,1-3.52,5.13,5.89,5s13.93.59,14.94-1-1.46-11.77-1.46-11.77S671.51,587.15,666.21,586.83Z"/><path class="cls-4" d="M614.38,581.8s.67,4.92.76,5.66,7.47-.44,7.47-.44l.59-5.86S615.3,581.1,614.38,581.8Z"/><path class="cls-23" d="M615.06,586.83a20.23,20.23,0,0,1-4.61,4.26c-2.26,1.3-10.59,2.36-11.93,3.7-1,1-2.57,4.86,10.66,4.49,9.39-.26,13.93.59,14.94-1s-1.46-11.77-1.46-11.77A38.82,38.82,0,0,1,615.06,586.83Z"/><path class="cls-24" d="M663,459.2s3.79,11.77,3.29,21.91,2,21.24,3,31.84c1.12,11.81,5.71,39.78,5.87,46.09s-.71,26.5-.71,26.5l-9.17.22s-7.71-48.89-9.7-53.88-11.89-40.55-12.23-44.54S663,459.2,663,459.2Z"/><path class="cls-25" d="M625,458s-5.57,31.12-6.24,37.33-1.11,30-1.44,33.92-2.22,50.78-4,56.54h10.23s10.5-34.09,10.5-50.22,7-35.06,11.45-45.7,14.76-10.9,17.52-30.64C663,459.2,628.74,451.71,625,458Z"/><path class="cls-4" d="M637.72,378.69s1.15,3.36,0,5.75,14.74,1,14.74,1a17,17,0,0,1,1.36-9C655.89,372.3,637.72,378.69,637.72,378.69Z"/><path class="cls-26" d="M663.78,461.76s-5.72,5.87-39.29-.91L625,458l38.16,1.44Z"/><path class="cls-4" d="M635.31,385.22s-5.87.6-7.55.92-13-2-15.28-2.26-12.2-7-12.52-7.81-6-15.2-6.33-18.32-5.54-1.5-5.09.65c.84,4,1.91,13.76,2.5,16.58.64,3,2.35,10,3.3,10.81s9.85,7.62,18.56,10.49a74.16,74.16,0,0,1,15.26,7.11h42.92s16.69-23.85,17-27.45-11.65-27.48-14-30.48-5.86,1-5.86,1,7.18,21.07,8.14,24.06-8.35,16.16-10.91,16.2-9.12-.8-12-.92a20.44,20.44,0,0,1-6-1.4Z"/><path class="cls-7" d="M616.82,401.16s5.25,3.49,5.73,9.48a125.37,125.37,0,0,0,3.35,18.69c1,3.24-.83,26.72-1.07,28.4s33.2,5.66,38.34,1.68c0,0,1.44-21.93,2-28.16s3.48-21.33,4.44-23.36,12.58-18.34,13.06-20.49c0,0-6-9.59-10.33-9.71,0,0-6.85,8-9.08,8.39s-15.93-2.15-15.93-2.17-1.49,2-9.44-.36c0,0-9.46,1.06-11,1.26-1.86.24-14.82-1.63-14.82-1.63s-5.19,8.78-4.28,13.21Z"/><path class="cls-4" d="M593.93,359.63s-1.17-5.56.24-7.15c.81-.91,2.74-3.31,2.92-3.67s2.25-1.54,2.25-2.11-2-1.28-3.8.35-2.87,2-3.57,1.81-1.73-6.05-1.81-7.5-.65-5.3-1.57-5-.86,1.95-.86,1.95-1.06-2.92-1.77-2.34-.62,2-.62,2-1.32-1.63-1.67-.44a4,4,0,0,0,0,2.25s-1.37-.75-1.46,1.11.4,7.28,1.37,9.22,4.61,7,5,9S593.93,359.63,593.93,359.63Z"/><path class="cls-4" d="M669.38,349.87s-4-6.71-5.35-7.31-3.28-.94-4.95-2.13-3.9-2.2-3.78-2.6,2.1-.24,4.21.68,3,.48,3.25,0-1.13-3.87-1.77-4.67-5.19-5.38-4.43-6,3.71,1.83,4.19,2.35c0,0-2.35-4.95-1.43-5.19s2.63,1.52,2.63,1.52-.2-4.24,4.36,2.63c0,0-1-2.27.43-1.51s2.76,5,3.2,7.19,2.43,9,4.13,10.68S669.38,349.87,669.38,349.87Z"/><path class="cls-27" d="M653.82,376.38s-2.11.18-6.58-1.36-4.81-9.37-5.78-8.44a2.82,2.82,0,0,1-4.58-.54s2.18-2.87,1.17-4.26a10.72,10.72,0,0,0-2.66-2.39s3.15-15.17,17.47-8.26C669.63,359.23,653.82,376.38,653.82,376.38Z"/><path class="cls-7" d="M637.72,384.44l.5-2.19a117,117,0,0,1,14.12.54l.53,2.62S646.48,388.3,637.72,384.44Z"/><path class="cls-4" d="M640,364.66c.83-1.38,3.9-2.31,4.26,1.6.28,3-5.49,6.33-5.54,3.51A8.56,8.56,0,0,1,640,364.66Z"/><path class="cls-28" d="M593.72,358.36s-3.3.09-4.9,1.53a3.32,3.32,0,0,0,.27,1.64,20.29,20.29,0,0,1,5-1.58A3.26,3.26,0,0,0,593.72,358.36Z"/><path class="cls-27" d="M589.83,359.19a1.42,1.42,0,0,0,2.61,1.1,1.42,1.42,0,1,0-2.61-1.1Z"/><path class="cls-29" d="M492.26,71.86l-.34-1.46a33.4,33.4,0,0,0,4-1.15l.55,1.39A34.38,34.38,0,0,1,492.26,71.86Z"/><path class="cls-29" d="M61.55,248.85c-.92-2.57-1.8-5.31-2.62-8.13l1.43-.41c.81,2.79,1.69,5.49,2.59,8Zm-4.78-16.38c-.64-2.71-1.24-5.52-1.78-8.35l1.47-.27c.53,2.8,1.12,5.59,1.76,8.27Zm-3.19-16.75c-.41-2.78-.78-5.62-1.09-8.46L54,207.1c.31,2.82.67,5.64,1.07,8.4Zm-1.85-16.95c-.2-2.81-.36-5.68-.46-8.51l1.5,0c.1,2.81.25,5.66.45,8.46Zm.89-17h-1.5c0-2.83.06-5.7.16-8.52l1.49.05C52.67,176.08,52.62,178.93,52.62,181.74Zm.62-16.92-1.49-.11c.2-2.84.47-5.69.78-8.49l1.48.16C53.7,159.16,53.44,162,53.24,164.82ZM55.11,148l-1.48-.23c.42-2.81.91-5.64,1.43-8.4l1.47.28C56,142.38,55.53,145.19,55.11,148Zm3.18-16.64L56.84,131c.65-2.77,1.37-5.55,2.13-8.26l1.44.4C59.65,125.84,58.94,128.6,58.29,131.35Zm4.59-16.29-1.42-.47c.89-2.71,1.86-5.41,2.86-8l1.4.54C64.72,109.69,63.76,112.37,62.88,115.06Zm6.06-15.8-1.37-.6c1.15-2.61,2.38-5.21,3.64-7.72l1.34.67C71.29,94.1,70.08,96.67,68.94,99.26Zm7.61-15.1-1.3-.74c1.42-2.47,2.92-4.93,4.45-7.29l1.25.81C79.43,79.28,78,81.71,76.55,84.16ZM475.24,73.75l0-1.49c2.9,0,5.72-.2,8.41-.49l.16,1.49C481.06,73.55,478.18,73.71,475.24,73.75Zm-8.54-.22c-2.78-.18-5.64-.46-8.51-.85l.2-1.48c2.83.38,5.66.66,8.4.84Zm-16.93-2.25c-2.74-.54-5.54-1.17-8.32-1.88l.37-1.45c2.76.71,5.53,1.33,8.24,1.87ZM85.75,70l-1.2-.88c1.68-2.3,3.44-4.56,5.24-6.74l1.15,1C89.16,65.47,87.42,67.71,85.75,70Zm347.49-2.91c-2.67-.83-5.38-1.74-8.08-2.72l.51-1.41c2.67,1,5.37,1.88,8,2.7Zm-16-5.8c-2.58-1.06-5.21-2.21-7.82-3.4l.62-1.36c2.59,1.19,5.2,2.32,7.76,3.38ZM96.52,57l-1.1-1c1.94-2.07,4-4.12,6-6.07l1,1.09C100.43,52.9,98.43,54.92,96.52,57Zm305.19-2.8c-2.49-1.25-5-2.59-7.54-4l.72-1.31c2.49,1.37,5,2.69,7.5,3.94ZM386.76,46l-2.94-1.76c-1.39-.84-2.85-1.7-4.36-2.56l.74-1.3c1.52.87,3,1.74,4.4,2.58,1,.6,1.95,1.18,2.92,1.75Zm-278-.68-1-1.14c1.49-1.25,3-2.5,4.57-3.69.7-.55,1.4-1.09,2.11-1.62l.9,1.19-2.1,1.61C111.74,42.86,110.22,44.09,108.75,45.33ZM372,37.61c-2.44-1.29-5-2.58-7.55-3.85l.66-1.34c2.58,1.27,5.14,2.57,7.59,3.87ZM122.23,35.13l-.84-1.23c2.33-1.61,4.73-3.19,7.12-4.68l.8,1.27C126.93,32,124.55,33.53,122.23,35.13Zm234.58-5c-2.55-1.17-5.15-2.32-7.76-3.44l.59-1.37c2.61,1.12,5.24,2.28,7.79,3.45Zm-220.23-4-.74-1.3c2.47-1.39,5-2.74,7.52-4l.68,1.33C141.53,23.44,139,24.78,136.58,26.16Zm204.63-2.7c-2.61-1-5.27-2.07-7.91-3l.51-1.4c2.66,1,5.33,2,8,3.05ZM151.67,18.52l-.62-1.36c2.58-1.16,5.22-2.28,7.86-3.32l.55,1.39C156.85,16.26,154.23,17.37,151.67,18.52Zm173.64-.94c-2.68-.91-5.39-1.8-8.06-2.64l.44-1.42c2.69.84,5.41,1.73,8.1,2.64Zm-16.19-5.07c-2.72-.77-5.47-1.51-8.18-2.21l.37-1.44c2.72.69,5.49,1.44,8.22,2.22Zm-141.73-.22-.48-1.41c2.66-.93,5.4-1.8,8.12-2.6l.42,1.43C172.75,10.51,170,11.37,167.39,12.29Zm125.31-4c-2.76-.63-5.55-1.22-8.29-1.76l.28-1.46c2.76.54,5.57,1.13,8.34,1.76ZM183.61,7.49,183.25,6c2.74-.68,5.54-1.31,8.32-1.87l.3,1.46C189.1,6.19,186.33,6.82,183.61,7.49Zm92.46-2.44c-2.8-.46-5.62-.89-8.38-1.26l.2-1.48c2.78.38,5.61.8,8.42,1.27Zm-75.88-.92L200,2.65c2.78-.44,5.62-.83,8.44-1.16L208.57,3C205.77,3.3,203,3.69,200.19,4.13Zm59.08-1.34c-2.81-.28-5.65-.53-8.44-.72l.1-1.49c2.81.19,5.66.44,8.49.73ZM217,2.15,216.88.66c2.8-.21,5.67-.38,8.51-.49l.05,1.49C222.62,1.77,219.78,1.94,217,2.15Zm25.37-.52c-2.71-.09-5.44-.14-8.12-.14h-.34V0h.35c2.69,0,5.45.05,8.17.14Z"/><path class="cls-29" d="M66.58,260.67c-.63-1.23-1.26-2.55-1.87-3.9l1.36-.61c.6,1.33,1.22,2.62,1.84,3.84Z"/><rect class="cls-15" x="220.75" y="392.26" width="11.48" height="41.72"/><rect class="cls-15" x="237.09" y="388.06" width="11.48" height="45.92"/><rect class="cls-15" x="253.65" y="396.8" width="11.48" height="37.19"/><rect class="cls-15" x="270.21" y="379.56" width="11.48" height="54.42"/><rect class="cls-15" x="287.59" y="384.98" width="11.48" height="49"/><rect class="cls-15" x="305.2" y="392.26" width="11.48" height="41.72"/><rect class="cls-15" x="321.54" y="388.06" width="11.48" height="45.92"/><rect class="cls-15" x="338.1" y="396.8" width="11.48" height="37.19"/><g class="cls-30"><rect class="cls-20" x="112.83" y="313.64" width="134.75" height="49.43" rx="5.43"/></g><path class="cls-4" d="M8.11,459.34s.53,2.89,2.16,3.32a9.53,9.53,0,0,1,3.37,2.28c.63.6,3.24,1.74,2.49,2.54s-4.4-1.66-5.27-2,.37,3.66,0,4.58-7.12,2.6-7.66-.26S4,463.5,3.81,463A18.91,18.91,0,0,1,3.34,461Z"/><path class="cls-4" d="M10.92,469.33s1.05,8.86.63,9.51-.91.68-1-.15-1.27-8.53-1.27-8.53-.51,10.7-.74,11.31c-.14.35-1.07.46-1.18,0s-.21-11.07-.21-11.07-.5,10-.85,10.44a.68.68,0,0,1-1.19-.46c0-.74-.08-10-.08-10s-.82,7.25-1.34,7.46c-.31.13-1.11.26-.84-1.6s.44-6.33.44-6.33Z"/><path class="cls-4" d="M103.26,350.64a24.18,24.18,0,0,0,2-4.88c.5-2.17,3.2-5.06,4.3-5.74s9.1-6.42,10-6.42.38,1.78-.42,2.3-7.29,5.58-7.29,5.58,8.08-5.58,8.92-5.43,1.45,1.23.54,2.33c0,0,1.84,1.21-.08,2.69L117.41,344s2.24-1.17,1.41.63c-.44,1-5.14,3.77-5.89,4.62s-6.68,3.75-6.68,3.75Z"/><path class="cls-4" d="M55.93,598.94h2s-.67-7.56,1.19-7.63,6.45,6.15,9.19,7.12,16.83,1.77,16.9-.82S79.8,594,78.1,593.23s-10-8.82-11.49-9.78-3.94-5.86-3.94-5.86H55.11s-.83,4.11-1.3,7.42a29.39,29.39,0,0,0-.33,3.11C53.41,590.94,55.93,598.94,55.93,598.94Z"/><path class="cls-4" d="M21.13,597.45H22.8v-7c1.39.11,6.06,4.54,7.51,5.82s3.43,1.22,9.52,1.61,6.66-3.26,5.7-4.5-4.08-1.79-5.7-2.56-8-8-9.73-9.7-2.74-6.59-2.74-6.59l-7.12.62a43.45,43.45,0,0,1-.76,8.22h0v0c-.07.32-.14.64-.23.94C18.18,588.2,21.13,597.45,21.13,597.45Z"/><path class="cls-4" d="M37.78,362.16s-3.47,7.33-1.62,13.32c0,0-10.68-1.46-11-2.71s1.34-12.49.1-15.93S37.78,362.16,37.78,362.16Z"/><path class="cls-7" d="M38,373.05s6.18,2.66,9,3.47,8.62,4,7.38,14.4-3.69,19.28-4.66,23.7-1.4,15.85-.74,21.46a82.78,82.78,0,0,1-33.11-2.4s3.86-9.21,4-11.65-8.94-23.3-9.2-26.51-1.36-17.36,3.66-20.1,8.9-2.05,11-3.29S35.14,371.84,38,373.05Z"/><path class="cls-7" d="M38,389.19s-2.38-12.46,9.71-12.44c10.62,0,20.65-2,22.33-2.93s8.18-4.13,11.59-7.64,21.9-17.57,21.9-17.57l5.11,5.17S89.15,375,86,377s-29.54,16.81-32.89,17.27S40.36,397.31,38,389.19Z"/><path class="cls-7" d="M0,427.7c-.36,4.39,2,34.7,2,34.7l8.59,1s-.61-29.93-1.09-36.84A34.42,34.42,0,0,1,10.63,418h0c.46-2.15,1-4.4,1.63-6.55,1.62-5.94,3.37-11.09,3.37-11.09s9.63-25-2.45-24A29.11,29.11,0,0,0,6.8,388.57c-1.9,7.59-4.07,19-4.16,23.5S.3,424.48,0,427.7Z"/><path class="cls-31" d="M47,435.83s2.77,6.56,3,8.22,8.94,23.29,9.55,29.63,2.44,23.49,3.1,25.93-1.47,13.38-1.8,15.83-.16,42.41,2.77,62.15c0,0-6.85,2.94-12.07,0,0,0-8.64-30.83-8.15-48.61s2.74-25.29,0-32.47-18.91-28.71-20.54-31S11,450.62,20.64,437,47,435.83,47,435.83Z"/><path class="cls-31" d="M13.56,494.23c.86,5.71-.05,13.21-1.84,34.1s3.14,46.16,3.14,46.16c6.2,2.12,13.34,0,13.34,0-.17-1.47,0-50.9,0-55.3s1.26-9.4,1.59-14.46c.22-3.44,1.82-9.8,3.63-16.28.54-1.94,1.09-3.9,1.64-5.79h0c.3-1.06.6-2.1.89-3.11,2.54-8.81,6-42.82,6-42.82s-18.93-15.25-28.15-.9-4.49,24.8-4.16,26.59S12.7,488.52,13.56,494.23Z"/><path class="cls-7" d="M50.24,410.18s-1.68,27,3.35,42.23c0,0-20,3.33-45.49-5.26,0,0,7-18.17,6.77-21s-7.62-35.92-4.08-43.32S49,385.92,50.24,410.18Z"/><path class="cls-4" d="M33.91,332c4.58-.19,16.25,1.58,14.07,19.17s-8.52,16.06-14.81,13.73-13-16.56-12.69-20.22S20.87,332.55,33.91,332Z"/><path class="cls-27" d="M47.92,343.07s-5.58,6.14-10.83,7.33c0,0-4.46,6.78-11.49,8.08,0,0-13.69-15.13-.55-24.81S48.39,337.68,47.92,343.07Z"/><path class="cls-4" d="M38.23,348c-.1-1-2.1-3.1-3.91-1s.83,7.42,2,7.5S38.62,351.75,38.23,348Z"/><path class="cls-32" d="M21.41,463.55c.15.33,9.58,21.27,12,24.9.54-1.94,1.09-3.9,1.64-5.79h0S21.72,464,21.41,463.55Z"/><path class="cls-33" d="M10.21,396.56s-.67,13.3.42,21.46c.46-2.15,1-4.4,1.63-6.55C12.21,411.17,10.38,398.66,10.21,396.56Z"/><path class="cls-27" d="M30.39,330.89s-15.9-.37-13.51,27c1.84,21-5.89,31.38-4.8,34.44s4.82,8.18,13.17,3.57,2.85-28.69,7.34-38.06,14.33-13.71,14.33-13.71S45.19,328.14,30.39,330.89Z"/><path class="cls-7" d="M51.86,386.23l4.49,16c1.12,4-4.09,11.47-8.7,9.17S51.86,386.23,51.86,386.23Z"/><path class="cls-34" d="M21.13,597.45H22.8v-7c1.39.11,6.06,4.54,7.51,5.82s3.43,1.22,9.52,1.61,6.66-3.26,5.7-4.5-4.08-1.79-5.7-2.56c-6.52.35-14.47-8.81-18.28-8.79-2,0-2,1.13-2.07,1.34h0v0c-.07.32-.14.64-.23.94C18.18,588.2,21.13,597.45,21.13,597.45Z"/><path class="cls-34" d="M55.93,598.94h2s-.67-7.56,1.19-7.63,6.45,6.15,9.19,7.12,16.83,1.77,16.9-.82S79.8,594,78.1,593.23c-5.81,0-15.26-6.4-18.19-7.7a10.55,10.55,0,0,0-6.1-.52,29.39,29.39,0,0,0-.33,3.11C53.41,590.94,55.93,598.94,55.93,598.94Z"/><path class="cls-19" d="M154.66,336.79v-.21a14.58,14.58,0,0,0-.84-4.13A14.36,14.36,0,1,0,135.71,351h0a14.36,14.36,0,0,0,18.9-12.21c0-.4.06-.8.07-1.21C154.68,337.29,154.67,337,154.66,336.79Zm-25.11.43a10.77,10.77,0,0,1,20.89-3.54h0a10.89,10.89,0,0,1,.63,3.08h0c0,.24,0,.48,0,.73a10.69,10.69,0,0,1-.47,3,10.88,10.88,0,0,1-1.78,3.45,11.86,11.86,0,0,1-.94,1.06,10.76,10.76,0,0,1-7.71,3.11,10.9,10.9,0,0,1-2.31-.28c-.34-.08-.68-.17-1-.28A10.78,10.78,0,0,1,129.55,337.22Z"/><g class="cls-35"><rect class="cls-20" x="305.75" y="404.15" width="215.67" height="168.6" rx="6.95"/></g><rect class="cls-36" x="404.77" y="421.39" width="103.77" height="131.01" rx="4.25"/><path class="cls-19" d="M330.56,421.39h50.63a2.6,2.6,0,0,1,2.6,2.6v13.47a2.6,2.6,0,0,1-2.6,2.6H330.56a2.6,2.6,0,0,1-2.6-2.6V424A2.61,2.61,0,0,1,330.56,421.39Z"/><rect class="cls-19" x="327.95" y="456.26" width="55.84" height="18.68" rx="2.6"/><path class="cls-37" d="M486,500.34l9.24-9.25a2.48,2.48,0,0,0-3.51-3.51l-9.24,9.24-9.25-9.24a2.48,2.48,0,0,0-3.51,3.51l9.24,9.25-9.24,9.24a2.49,2.49,0,1,0,3.51,3.52l9.25-9.25,9.24,9.25a2.49,2.49,0,1,0,3.52-3.52Z"/><path class="cls-38" d="M419.57,474.29a2.48,2.48,0,0,0,3.1-1.64,28.19,28.19,0,0,1,12.93-16.58,21.8,21.8,0,0,1,16.48-1.91,14.63,14.63,0,0,1,9,7.2,15.37,15.37,0,0,1,1.08,2.67,15.76,15.76,0,0,1-.64,10.76,34,34,0,0,1-3.21,5.37,29.54,29.54,0,0,0-4.46,8.43c-1.27,4.49-.49,9,.42,12.91.21.85.43,1.7.64,2.55a40,40,0,0,1,1.57,8.51c.13,3.74-1,6.91-3.11,8.69a9.55,9.55,0,0,1-8.43,1.46,21.09,21.09,0,0,1-8.54-5.12,2.48,2.48,0,1,0-3.34,3.68c3.63,3.28,7.1,5.33,10.63,6.25a16.58,16.58,0,0,0,4.15.53,13.41,13.41,0,0,0,8.73-3c3.29-2.77,5.06-7.38,4.87-12.66a44.68,44.68,0,0,0-1.71-9.57c-.21-.82-.43-1.64-.62-2.46-.77-3.25-1.43-7-.48-10.4a25.25,25.25,0,0,1,3.79-7,39.16,39.16,0,0,0,3.65-6.17,20.82,20.82,0,0,0,.85-14.21,21.32,21.32,0,0,0-1.43-3.51,19.42,19.42,0,0,0-11.94-9.67,26.88,26.88,0,0,0-20.32,2.32,33.14,33.14,0,0,0-15.28,19.47,2.48,2.48,0,0,0,1.65,3.1Z"/><path class="cls-38" d="M448.1,485.91a21.8,21.8,0,0,0,3.42-3.71,12.57,12.57,0,0,0,1.93-9.5,12.05,12.05,0,0,0-6.81-8.62,13.82,13.82,0,0,0-12.43.43,17.33,17.33,0,0,0-8.1,10.62,25.12,25.12,0,0,0,.05,12.86c.11.43.22.87.34,1.29,1.76,6.19,5.15,11.74,8.19,16.44a13.29,13.29,0,0,0,3.84,4.3,8.18,8.18,0,0,0,4.37,1.27,7.72,7.72,0,0,0,2.85-.54,7.62,7.62,0,0,0,4.66-5.74c.54-3.39-1.31-6.31-3.25-8.79-1.32-1.68-2.67-3.42-2.65-5,0-1.15.76-2.48,2.2-3.95.45-.46.92-.89,1.39-1.33Zm-3.38-3.64c-.52.49-1.05,1-1.55,1.48-2.37,2.41-3.59,4.89-3.63,7.37,0,3.36,2,6,3.75,8.22,1.23,1.57,2.46,3.38,2.22,4.88a2.64,2.64,0,0,1-1.59,1.91,3,3,0,0,1-2.7-.29,9.17,9.17,0,0,1-2.36-2.81c-2.84-4.41-6-9.57-7.58-15.11-.1-.36-.2-.74-.29-1.11a20.6,20.6,0,0,1-.1-10.34,12.42,12.42,0,0,1,5.71-7.6,8.92,8.92,0,0,1,4.28-1.08,8.71,8.71,0,0,1,3.66.8,7,7,0,0,1,4,5.09,7.71,7.71,0,0,1-1.16,5.72,18.39,18.39,0,0,1-2.7,2.87Z"/><g class="cls-39"><rect class="cls-40" x="61.58" y="47.74" width="301.9" height="195.48" rx="11.57"/></g><path class="cls-15" d="M118.15,161.35a45.44,45.44,0,0,0,60-42.47c0-1,0-2-.06-3a45.44,45.44,0,1,0-59.94,45.51ZM98.66,117.86a34.07,34.07,0,0,1,66.09-11.19v0a34,34,0,0,1,2,9.77c0,.75,0,1.51,0,2.28a34.06,34.06,0,1,1-68.12-.88Z"/><path class="cls-41" d="M159.66,139.16l9,7a45.52,45.52,0,0,1-50.5,15.23l3.65-10.77a34.15,34.15,0,0,0,37.86-11.42Z"/><path class="cls-42" d="M175.44,102.78l-10.69,3.89v0a34.13,34.13,0,0,1-5.09,32.47l9,7a45.56,45.56,0,0,0,6.79-43.34Z"/><path class="cls-20" d="M105.39,82a45.46,45.46,0,0,1,70.05,20.78l-10.69,3.91v0a34.07,34.07,0,0,0-52.69-15.45Z"/><rect class="cls-43" x="207.54" y="72.86" width="128.66" height="143.94" rx="10.18"/><rect class="cls-2" x="88.72" y="183.64" width="93.83" height="10.2" rx="2.31"/><rect class="cls-2" x="88.72" y="206.61" width="93.83" height="10.2" rx="2.31"/><path class="cls-36" d="M269.1,165.52c21.48,0,38.35-21.41,39-22.32a2.91,2.91,0,0,0,0-3.6c-.7-.91-17.57-22.33-39-22.33s-38.35,21.42-39.05,22.33a2.94,2.94,0,0,0,0,3.6c.7.91,17.57,22.32,39.05,22.32Zm0-42.39c15.23,0,28.51,13.34,32.89,18.27-4.37,4.93-17.62,18.26-32.89,18.26s-28.51-13.34-32.89-18.26c4.38-4.93,17.66-18.27,32.89-18.27Z"/><path class="cls-36" d="M269.1,155.25a13.85,13.85,0,1,0-13.85-13.85,13.87,13.87,0,0,0,13.85,13.85Zm0-21.84a8,8,0,1,1-8,8,8,8,0,0,1,8-8Z"/><path class="cls-37" d="M269.1,88.6a52.8,52.8,0,1,0,52.8,52.8,52.86,52.86,0,0,0-52.8-52.8Zm0,5.86a46.74,46.74,0,0,1,31,11.76l-66.2,66.2a46.9,46.9,0,0,1,35.17-78Zm0,93.87a46.76,46.76,0,0,1-31-11.76l66.2-66.2a46.89,46.89,0,0,1-35.17,78Z"/></g></g></g></svg>