<svg xmlns="http://www.w3.org/2000/svg" xmlns:xlink="http://www.w3.org/1999/xlink" viewBox="0 0 159.24 158.68"><defs><style>.cls-1{fill:url(#linear-gradient);}.cls-2{fill:url(#linear-gradient-2);}.cls-3{fill:#e8916f;}.cls-4{fill:#ebad88;}.cls-5{fill:#42a5f5;}.cls-6{fill:#2196f3;}.cls-7{fill:#e3e6eb;}.cls-8{fill:#f54558;}</style><linearGradient id="linear-gradient" x1="-2248.7" y1="-4222.4" x2="-2114.29" y2="-4144.8" gradientTransform="matrix(0, -1, -1, 0, -4124.39, -2098.11)" gradientUnits="userSpaceOnUse"><stop offset="0" stop-color="#fff" stop-opacity="0"/><stop offset="0.63" stop-color="#fff"/></linearGradient><linearGradient id="linear-gradient-2" x1="-2308.72" y1="-1503.36" x2="-2174.31" y2="-1425.76" gradientTransform="matrix(-0.45, 0.89, 0.89, 0.45, 384.11, 2741.01)" xlink:href="#linear-gradient"/></defs><g id="Layer_2" data-name="Layer 2"><g id="Layer_1-2" data-name="Layer 1"><path class="cls-1" d="M85.56,153c19.74-5.77,60-22.42,56.4-50.56s-40-17.2-45-43C94.76,48,114.44,40.3,113.83,28.9,113,14.22,98.51,6.75,86.29,2.65,60.39-6,16.47,7,8.86,37.46,2.22,64.07,34.73,67.18,25.29,90.31,20,103.31,4.13,102,.93,117.85-8.74,165.76,59.28,160.67,85.56,153Z"/><path class="cls-2" d="M91.45,6.36C71.22,2.64,27.76-.59,18.34,26.17s28,33.35,20.85,58.67C36,96,15,94,10.41,104.48,4.51,118,14.14,131.16,23.2,140.31,42.43,159.73,87.52,167.84,108,144c17.89-20.78-9.74-38.18,9.09-54.59,10.59-9.23,24.16-1,34.13-13.65C181.42,37.34,118.38,11.3,91.45,6.36Z"/><path class="cls-3" d="M46.25,67.64a3.44,3.44,0,0,1-2.86-6.21l15.55-9.2L63.24,35a3.43,3.43,0,1,1,6.66,1.67L65.26,55.29a3.44,3.44,0,0,1-1.58,2.13l-16.8,9.93a3.6,3.6,0,0,1-.63.29Z"/><path class="cls-3" d="M48.75,106.69a3.48,3.48,0,0,1-2.12,0l-7.46-2.28a3.43,3.43,0,1,1,2-6.57l4.23,1.29,5.88-18.25a3.45,3.45,0,0,1,1.29-1.76L72.22,65.3a3.44,3.44,0,1,1,4,5.62L57.47,84.11,50.9,104.49a3.46,3.46,0,0,1-2.15,2.2Z"/><path class="cls-4" d="M110.24,106.7a3.4,3.4,0,0,1-1.85.11,3.49,3.49,0,0,1-2.61-4.13l.75-3.74L84.06,91.7a3.39,3.39,0,0,1-2-1.65L71.18,69.74a3.73,3.73,0,0,1-.32-.84L63.23,36.67a3.43,3.43,0,0,1,4.42-4.05L88,39.41a3.45,3.45,0,0,1,2.06,1.88l8.06,18.47a3.43,3.43,0,1,1-6.29,2.74L84.62,46a1.33,1.33,0,0,0-.78-.71L71.33,41.09l6.11,25.79L87.16,85a1.7,1.7,0,0,0,1,.82l23.42,7.54a3.44,3.44,0,0,1,2.31,4l-1.38,6.84a3.41,3.41,0,0,1-2.25,2.57Z"/><path class="cls-4" d="M69.39,27.25a6.69,6.69,0,1,1-5.9-7.41,6.7,6.7,0,0,1,5.9,7.41Z"/><rect class="cls-5" x="16.73" y="114.86" width="108.73" height="15.31"/><rect class="cls-6" x="118.9" y="114.86" width="6.56" height="15.31"/><path class="cls-7" d="M125.46,113.22H16.73a1.63,1.63,0,0,0-1.64,1.64v15.31a1.63,1.63,0,0,0,1.64,1.64H125.46a1.63,1.63,0,0,0,1.64-1.64V114.86a1.63,1.63,0,0,0-1.64-1.64Zm-1.64,3.28v4.37H18.37V116.5Zm-105.45,12v-4.38H123.82v4.38Z"/><path class="cls-8" d="M62.23,114.89A3.28,3.28,0,1,1,59,111.61a3.28,3.28,0,0,1,3.28,3.28Z"/><path class="cls-8" d="M106.68,122.51a3.28,3.28,0,1,1-3.28-3.28,3.28,3.28,0,0,1,3.28,3.28Z"/></g></g></svg>