<svg xmlns="http://www.w3.org/2000/svg" xmlns:xlink="http://www.w3.org/1999/xlink" viewBox="0 0 272.1 68.15"><defs><style>.cls-1,.cls-21,.cls-6,.cls-7{fill:none;}.cls-2{isolation:isolate;}.cls-3{clip-path:url(#clip-path);}.cls-4,.cls-5{font-size:13.87px;font-family:Lalezar-Regular, Lalezar;}.cls-4,.cls-9{fill:#1b88c1;}.cls-5,.cls-8{fill:#3bb54b;}.cls-6{stroke:#1b88c1;}.cls-6,.cls-7{stroke-linecap:round;stroke-linejoin:round;stroke-width:1.88px;}.cls-7{stroke:#3bb54b;}.cls-10{fill:#ff931e;}.cls-11{opacity:0.2;}.cls-11,.cls-14,.cls-18{mix-blend-mode:multiply;}.cls-12{clip-path:url(#clip-path-3);}.cls-13{fill:#f38c1d;}.cls-14{opacity:0.05;}.cls-15{clip-path:url(#clip-path-4);}.cls-16{fill:#1d91cd;}.cls-17{fill:#21a8ee;}.cls-18{opacity:0.01;}.cls-19{clip-path:url(#clip-path-5);}.cls-20{fill:#1a1a1a;}.cls-21{stroke:#fff;stroke-miterlimit:10;stroke-width:0.22px;}</style><clipPath id="clip-path" transform="translate(-2.09 0)"><rect class="cls-1" width="274.2" height="68.15"/></clipPath><clipPath id="clip-path-3" transform="translate(-2.09 0)"><rect class="cls-1" x="209.51" width="34.49" height="34.5"/></clipPath><clipPath id="clip-path-4" transform="translate(-2.09 0)"><rect class="cls-1" x="221.76" y="20.84" width="43.01" height="42.11"/></clipPath><clipPath id="clip-path-5" transform="translate(-2.09 0)"><rect class="cls-1" x="231.28" y="27.01" width="26.84" height="27.5"/></clipPath></defs><g class="cls-2"><g id="Layer_2" data-name="Layer 2"><g id="Layer_1-2" data-name="Layer 1"><g class="cls-3"><g class="cls-3"><text class="cls-4" transform="translate(123.73 60)">Delta </text><text class="cls-5" transform="translate(156.88 60)">Soft</text><path class="cls-6" d="M209.7,26.57A31.36,31.36,0,0,1,270,27.3" transform="translate(-2.09 0)"/><path class="cls-7" d="M271.08,36.39a31.36,31.36,0,0,1-62.7-1.56" transform="translate(-2.09 0)"/><path class="cls-8" d="M210.33,31.76l-3.75-.09a1.23,1.23,0,0,0-1.26,1.2l-.1,3.75a1.25,1.25,0,0,0,1.21,1.27l3.75.09a1.22,1.22,0,0,0,1.26-1.2l.1-3.75a1.25,1.25,0,0,0-1.21-1.27" transform="translate(-2.09 0)"/><path class="cls-6" d="M213.14,19a31.37,31.37,0,0,1,57.95,16.6" transform="translate(-2.09 0)"/><path class="cls-9" d="M269.21,38.74H273a1.24,1.24,0,0,0,1.24-1.24V33.75A1.23,1.23,0,0,0,273,32.52h-3.75A1.24,1.24,0,0,0,268,33.76v3.75a1.22,1.22,0,0,0,1.23,1.23" transform="translate(-2.09 0)"/><path class="cls-10" d="M222.18,17.83V32.07a2.53,2.53,0,0,0,2.53,2.53h16.87a2.53,2.53,0,0,0,2.53-2.53V15.21a2.54,2.54,0,0,0-2.53-2.54H227.34a2.54,2.54,0,0,1-2.54-2.53V2.53A2.53,2.53,0,0,0,222.27,0H212a2.53,2.53,0,0,0-2.53,2.53V12.76A2.53,2.53,0,0,0,212,15.29h7.61a2.54,2.54,0,0,1,2.53,2.54" transform="translate(-2.09 0)"/><g class="cls-11"><g class="cls-12"><path class="cls-13" d="M229.06,14.35H243.3a2.69,2.69,0,0,1,.7.1,2.53,2.53,0,0,0-2.42-1.78H227.34a2.63,2.63,0,0,1-.7-.1,2.53,2.53,0,0,0,2.42,1.78" transform="translate(-2.09 0)"/><path class="cls-13" d="M223.9,19.51a2.54,2.54,0,0,0-1.83-2.44,2.68,2.68,0,0,1,.11.76V32.07A2.53,2.53,0,0,0,224,34.5a2.61,2.61,0,0,1-.11-.75Z" transform="translate(-2.09 0)"/><path class="cls-13" d="M211.34,15.19a2.67,2.67,0,0,1-.11-.75V4.22a2.54,2.54,0,0,1,2.53-2.54H224a2.69,2.69,0,0,1,.7.1A2.53,2.53,0,0,0,222.27,0H212a2.53,2.53,0,0,0-2.53,2.53V12.76a2.54,2.54,0,0,0,1.83,2.43" transform="translate(-2.09 0)"/></g></g><path class="cls-9" d="M242.65,36.62H224.92a3.16,3.16,0,0,0-3.16,3.15v21a3.16,3.16,0,0,0,3.16,3.15h21a3.15,3.15,0,0,0,3.15-3.15V43a3.15,3.15,0,0,1,3.16-3.16h9.46a3.16,3.16,0,0,0,3.16-3.15V24a3.16,3.16,0,0,0-3.16-3.16H249A3.15,3.15,0,0,0,245.81,24v9.46a3.17,3.17,0,0,1-3.16,3.16" transform="translate(-2.09 0)"/><g class="cls-14"><g class="cls-15"><path class="cls-16" d="M245.81,24v9.46a3.17,3.17,0,0,1-3.16,3.16H224.92a3.16,3.16,0,0,0-3.16,3.15v21a3.14,3.14,0,0,0,.88,2.18,3.5,3.5,0,0,1-.07-.65v-21a3.16,3.16,0,0,1,3.16-3.15h17.73A3.16,3.16,0,0,0,246.62,35V25.53a3.15,3.15,0,0,1,3.15-3.16H262.5a3.15,3.15,0,0,1,2.28,1,3.15,3.15,0,0,0-3.09-2.5H249A3.15,3.15,0,0,0,245.81,24" transform="translate(-2.09 0)"/></g></g><path class="cls-17" d="M244.62,37.08H233.3a2,2,0,0,0-2,2V52.5a2,2,0,0,0,2,2h13.4a2,2,0,0,0,2-2V41.18a2,2,0,0,1,2-2h6a2,2,0,0,0,2-2V29a2,2,0,0,0-2-2h-8.12a2,2,0,0,0-2,2v6a2,2,0,0,1-2,2" transform="translate(-2.09 0)"/><g class="cls-18"><g class="cls-19"><path class="cls-20" d="M233.3,54.51h.18a2,2,0,0,1-.67-1.49V39.61a2,2,0,0,1,2-2h11.32a2,2,0,0,0,2-2v-6a2,2,0,0,1,2-2h8a2,2,0,0,0-1.35-.52h-8.12a2,2,0,0,0-2,2v6a2,2,0,0,1-2,2H233.3a2,2,0,0,0-2,2V52.5a2,2,0,0,0,2,2" transform="translate(-2.09 0)"/></g></g><path class="cls-8" d="M30.27,23.12V36.19a2.37,2.37,0,0,1,0,.38,1.36,1.36,0,0,0,.14.37,2.1,2.1,0,0,0,.32.46c.14.13.23.19.27.19h2.83v5.26H31a7.94,7.94,0,0,1-2.53-.39A6.93,6.93,0,0,1,27,41.84a5.88,5.88,0,0,1-1.48.62,8,8,0,0,1-2.54.39H9.45a7.78,7.78,0,0,1-3-.58A7,7,0,0,1,4,40.67a6.57,6.57,0,0,1-1.37-2,5.62,5.62,0,0,1-.51-1.42h0v-10h6.6v8.92a1.9,1.9,0,0,0,.13.7,1.5,1.5,0,0,0,.33.51.74.74,0,0,0,.26.19H23s.13-.06.27-.19a1.59,1.59,0,0,0,.44-1V23.12ZM9.51,18.93a3.27,3.27,0,0,1,.26-1.29,3.64,3.64,0,0,1,.7-1.05,3.37,3.37,0,0,1,1-.7,3,3,0,0,1,1.23-.25,3,3,0,0,1,1.23.25,3.34,3.34,0,0,1,1,.7,3.27,3.27,0,0,1,.95,2.34,3.13,3.13,0,0,1-.25,1.27,3.21,3.21,0,0,1-.7,1,3.31,3.31,0,0,1-1,.69,3,3,0,0,1-1.23.25,3,3,0,0,1-1.23-.25,3.34,3.34,0,0,1-1-.69,3.58,3.58,0,0,1-.7-1A3.13,3.13,0,0,1,9.51,18.93Zm7.08,0a3.11,3.11,0,0,1,.27-1.29,3.67,3.67,0,0,1,.71-1.05,3.3,3.3,0,0,1,1-.7,3.18,3.18,0,0,1,1.28-.25,2.9,2.9,0,0,1,1.2.25,3.1,3.1,0,0,1,1,.7,3.39,3.39,0,0,1,.68,1.05A3.26,3.26,0,0,1,23,18.93a3.13,3.13,0,0,1-.25,1.27,3.33,3.33,0,0,1-.68,1,3.08,3.08,0,0,1-1,.69,2.9,2.9,0,0,1-1.2.25,3.18,3.18,0,0,1-1.28-.25,3.27,3.27,0,0,1-1-.69,3.61,3.61,0,0,1-.71-1A3,3,0,0,1,16.59,18.93ZM54.34,36.19a6,6,0,0,1-.51,2.47,6.48,6.48,0,0,1-1.4,2,7.16,7.16,0,0,1-2.4,1.6,7.6,7.6,0,0,1-3,.58H32.53V37.59h3.82c.11,0,.16-.06.16-.19a1.1,1.1,0,0,0-.06-.31,8.24,8.24,0,0,1-.36-1.6A16.92,16.92,0,0,1,36,33.3a3.54,3.54,0,0,1,0-.48c0-.62,0-1.25,0-1.91a11.42,11.42,0,0,1,.43-3.06,10.1,10.1,0,0,1,1.09-2.52,8.51,8.51,0,0,1,1.6-1.95,8.85,8.85,0,0,1,2-1.35,9.24,9.24,0,0,1,2-.71,9.42,9.42,0,0,1,2-.21h.19a9.32,9.32,0,0,1,4.19,1,9.59,9.59,0,0,1,1.92,1.33,8.46,8.46,0,0,1,1.56,1.89,9.88,9.88,0,0,1,1,2.41,10.5,10.5,0,0,1,.38,2.88ZM41.67,16.08a3.11,3.11,0,0,1,.27-1.29,3.67,3.67,0,0,1,.71-1,3.19,3.19,0,0,1,1-.7A3.14,3.14,0,0,1,45,12.79a2.93,2.93,0,0,1,1.2.25,3.21,3.21,0,0,1,1,.7,3.58,3.58,0,0,1,.68,1,3.45,3.45,0,0,1,.25,1.29,3.31,3.31,0,0,1-.25,1.27,3.52,3.52,0,0,1-.68,1,3,3,0,0,1-1,.69,3,3,0,0,1-1.2.26,3.15,3.15,0,0,1-1.28-.26,3,3,0,0,1-1-.69,3.61,3.61,0,0,1-.71-1A3,3,0,0,1,41.67,16.08Zm5.38,21.51s.11-.06.25-.19a1.62,1.62,0,0,0,.34-.52,2.58,2.58,0,0,0,.1-.88V30.6a5.63,5.63,0,0,0-.55-2.72,3.25,3.25,0,0,0-1.29-1.37,2.52,2.52,0,0,0-.71-.19,1.65,1.65,0,0,0-.63.17,3,3,0,0,0-.7.53,3.65,3.65,0,0,0-.64.91,5,5,0,0,0-.47,1.3,8.2,8.2,0,0,0-.2,1.76c0,.51,0,1,0,1.41,0,.21,0,.42,0,.63a13.32,13.32,0,0,0,.09,1.65,5.66,5.66,0,0,0,.26,1.18,2.19,2.19,0,0,0,.44.77l.39.37a1.43,1.43,0,0,0,.41.24,4.87,4.87,0,0,0,.7.2,10.84,10.84,0,0,0,1.16.15Zm32.83,5.26h-3a10.65,10.65,0,0,1-.47,2.29,11.24,11.24,0,0,1-1.13,2.58,8.12,8.12,0,0,1-1.67,2A10,10,0,0,1,71.5,51a12.49,12.49,0,0,1-2.33.84,19.27,19.27,0,0,1-2.43.43c-.82.09-1.66.14-2.5.15s-2,0-3.57,0V47.23h3c.62,0,1.2,0,1.76-.1a13.41,13.41,0,0,0,1.5-.22,5.47,5.47,0,0,0,1.16-.36,3.46,3.46,0,0,0,.79-.56,4.06,4.06,0,0,0,.67-.89,5.47,5.47,0,0,0,.5-1.36c.13-.54.21-.83.22-.86a22.58,22.58,0,0,1-2.55-.19,18.81,18.81,0,0,1-2.92-.54,10.6,10.6,0,0,1-2.32-.93,7.69,7.69,0,0,1-1.78-1.36A6.58,6.58,0,0,1,59.38,38a8.92,8.92,0,0,1-.65-2.13,14.85,14.85,0,0,1-.22-2.4V30.93a11.46,11.46,0,0,1,.43-3.08A10.1,10.1,0,0,1,60,25.33a8.51,8.51,0,0,1,1.6-1.95,8.85,8.85,0,0,1,2-1.35,9,9,0,0,1,4-.92h.19a9.32,9.32,0,0,1,4.19,1,9.59,9.59,0,0,1,1.92,1.33,8.46,8.46,0,0,1,1.56,1.89,9.88,9.88,0,0,1,1,2.41,10.14,10.14,0,0,1,.38,2.88v7h3ZM70.3,30.6a5.63,5.63,0,0,0-.55-2.72,3.22,3.22,0,0,0-1.31-1.37,2.25,2.25,0,0,0-.69-.19,1.65,1.65,0,0,0-.63.17A3.4,3.4,0,0,0,65.75,28a6.57,6.57,0,0,0-.64,3c0,.51,0,1,0,1.41,0,.21,0,.42,0,.63a13.32,13.32,0,0,0,.09,1.65,5.66,5.66,0,0,0,.26,1.18,2.07,2.07,0,0,0,.44.75,3.47,3.47,0,0,0,1.7.74,13.51,13.51,0,0,0,2.7.31Zm39.06,5.59a6,6,0,0,1-.51,2.47,6.48,6.48,0,0,1-1.4,2,7.16,7.16,0,0,1-2.4,1.6,7.6,7.6,0,0,1-3,.58H100.1a8,8,0,0,1-2.54-.39,5.71,5.71,0,0,1-1.48-.62,6.93,6.93,0,0,1-1.51.62,8,8,0,0,1-2.53.39H90a8,8,0,0,1-2.53-.39A6.93,6.93,0,0,1,86,41.84a5.71,5.71,0,0,1-1.48.62,8,8,0,0,1-2.54.39H78.61V37.59H82s.13-.06.27-.19a1.59,1.59,0,0,0,.44-1V23h6.6V36.19a2.37,2.37,0,0,1,0,.38,1.17,1.17,0,0,0,.15.37,2.06,2.06,0,0,0,.31.46c.14.13.23.19.27.19h2.08s.13-.06.27-.19a2.06,2.06,0,0,0,.31-.46,1.17,1.17,0,0,0,.15-.37,2.37,2.37,0,0,1,0-.38V23h6.6V36.46a1.36,1.36,0,0,0,.44.92q.21.21.27.21h2s.13-.06.27-.19a1.62,1.62,0,0,0,.34-.52,2,2,0,0,0,.1-.73V23h6.6Z" transform="translate(-2.09 0)"/><path class="cls-9" d="M130.77,14.84V36.19a1.9,1.9,0,0,0,.12.7,1.38,1.38,0,0,0,.34.49,1.65,1.65,0,0,0,.25.21h4v5.26h-4a7.77,7.77,0,0,1-3-.58,7.11,7.11,0,0,1-2.41-1.6,6.57,6.57,0,0,1-1.37-2,6,6,0,0,1-.51-2.47V14.84ZM146.42,23V36.19a2.37,2.37,0,0,1,0,.38,1.17,1.17,0,0,0,.15.37,2.06,2.06,0,0,0,.31.46c.14.13.23.19.27.19h4.53v5.26h-4.51a8,8,0,0,1-2.53-.39,6.93,6.93,0,0,1-1.51-.62,5.71,5.71,0,0,1-1.48.62,8,8,0,0,1-2.54.39h-4.84V37.59h4.86s.13-.06.27-.19a1.59,1.59,0,0,0,.44-1V23Zm-10.1-6.78a3.11,3.11,0,0,1,.27-1.29,3.45,3.45,0,0,1,.7-1,3.21,3.21,0,0,1,1-.7,3,3,0,0,1,1.23-.25,3.12,3.12,0,0,1,1.24.25,3.3,3.3,0,0,1,1,.7,3.12,3.12,0,0,1,.7,1,3.27,3.27,0,0,1,.26,1.29,3.05,3.05,0,0,1-.26,1.26,3,3,0,0,1-.7,1,3.45,3.45,0,0,1-1,.69,3.12,3.12,0,0,1-1.24.25,3,3,0,0,1-1.23-.25,3.36,3.36,0,0,1-1-.69,3.31,3.31,0,0,1-.7-1A2.91,2.91,0,0,1,136.32,16.23Zm7.09,0a3.11,3.11,0,0,1,.27-1.29,3.67,3.67,0,0,1,.71-1,3.08,3.08,0,0,1,1-.7,3.13,3.13,0,0,1,1.27-.25,3,3,0,0,1,1.21.25,3.06,3.06,0,0,1,1,.7,3.22,3.22,0,0,1,.68,1,3.27,3.27,0,0,1,.26,1.29,3.05,3.05,0,0,1-.26,1.26,3.09,3.09,0,0,1-.68,1,3.19,3.19,0,0,1-1,.69,3,3,0,0,1-1.21.25,3.13,3.13,0,0,1-1.27-.25,3.21,3.21,0,0,1-1-.69,3.52,3.52,0,0,1-.71-1A2.91,2.91,0,0,1,143.41,16.23Zm18.66-1.39V36.19a6,6,0,0,1-.51,2.47,6.75,6.75,0,0,1-1.37,2,7.07,7.07,0,0,1-2.4,1.6,7.75,7.75,0,0,1-3,.58h-4.38V37.59h4.4s.11-.06.25-.19a1.69,1.69,0,0,0,.34-.51,1.9,1.9,0,0,0,.12-.7V14.84Zm8.27,6c2,.26,3.43.47,4.13.65a17,17,0,0,1,2.19.77,9.13,9.13,0,0,1,2.21,1.39,10.67,10.67,0,0,1,2,2.25,12.56,12.56,0,0,1,1.51,3.23,21.63,21.63,0,0,1,.85,4.35q.09,1.11.09,2.34c0,1,0,2.09-.15,3.25L183,40.44c-.75.36-1.3.62-1.64.76s-.69.27-1,.4-.74.27-1.15.39a13.06,13.06,0,0,1-1.37.34,23.18,23.18,0,0,1-2.54.35c-.72.06-1.45.09-2.18.09h-.41a25,25,0,0,1-2.65-.19c-.86-.11-2.12-.37-3.76-.76l2.45-4.9a18.09,18.09,0,0,0,4.17.61h.2a22.28,22.28,0,0,0,3.57-.31c0-.37,0-.88,0-1.55a19.51,19.51,0,0,0-.19-2.81,12.07,12.07,0,0,0-.82-3.24,5.61,5.61,0,0,0-1.22-1.88,5.46,5.46,0,0,0-1.35-1,28.54,28.54,0,0,0-4.86-.88Z" transform="translate(-2.09 0)"/><line class="cls-21" x1="179.87" y1="48.32" x2="77.42" y2="48.32"/></g></g></g></g></g></svg>