<svg xmlns="http://www.w3.org/2000/svg" xmlns:xlink="http://www.w3.org/1999/xlink" viewBox="0 0 383.46 357.17"><defs><style>.cls-1{fill:none;}.cls-2{fill:#ccd3e6;}.cls-3{fill:#fff;}.cls-4{fill:#575759;}.cls-5{fill:#363638;}.cls-6{fill:#fd615b;}.cls-7{fill:#0592f5;}.cls-8{fill:#cedcec;}.cls-9{clip-path:url(#clip-path);}.cls-10{fill:#ff9b79;}.cls-11{fill:#f56c63;}.cls-12{fill:#ffb028;}.cls-13{fill:#dc7f21;}</style><clipPath id="clip-path" transform="translate(0 -3.92)"><path id="SVGID" class="cls-1" d="M63.1,195c-1.32,4-1.32,4.74-1.32,4L61.82,84c0-.71,0-.6,0-83.95H320.65l0,195Z"/></clipPath></defs><g id="Layer_2" data-name="Layer 2"><g id="Layer_1-2" data-name="Layer 1"><ellipse class="cls-2" cx="194.88" cy="348.1" rx="175.71" ry="9.06"/><path class="cls-2" d="M313.89,326.65H289.54V352H318v-21.2A4.13,4.13,0,0,0,313.89,326.65Z" transform="translate(0 -3.92)"/><rect class="cls-2" x="159.29" y="268.47" width="84.52" height="54.26"/><path class="cls-3" d="M91.19,322.73H292.51a15.92,15.92,0,0,1,15.92,15.92v9.4a0,0,0,0,1,0,0H75.26a0,0,0,0,1,0,0v-9.4A15.92,15.92,0,0,1,91.19,322.73Z"/><rect class="cls-3" x="148.93" y="268.47" width="84.52" height="54.26"/><polygon class="cls-2" points="148.93 285.13 233.45 278.37 233.47 268.47 149.04 268.47 148.93 285.13"/><rect class="cls-2" y="33.11" width="383.46" height="235.37" rx="11.29"/><path class="cls-4" d="M383.46,48.32V245.37H348.55V37h23.62A11.29,11.29,0,0,1,383.46,48.32Z" transform="translate(0 -3.92)"/><path class="cls-3" d="M369.11,48.32V261.11a11.29,11.29,0,0,1-11.3,11.29H11.29A11.29,11.29,0,0,1,0,261.11V48.32A11.3,11.3,0,0,1,11.29,37h347c.13,0,.25,0,.37,0h0l.27,0,.43,0,.29,0,.13,0,.28,0A11.31,11.31,0,0,1,369.11,48.32Z" transform="translate(0 -3.92)"/><path class="cls-5" d="M360.09,37.26l-.28,0-.13,0-.29,0-.43,0-.27,0h0c-.12,0-.24,0-.37,0h-347A11.3,11.3,0,0,0,0,48.32V245.37H369.11v-197A11.31,11.31,0,0,0,360.09,37.26Zm-5.63,188.43a3.06,3.06,0,0,1-3.07,3.07H17.71a3.06,3.06,0,0,1-3.07-3.07V54.74a3.07,3.07,0,0,1,3.07-3.07H351.39a3.07,3.07,0,0,1,3.07,3.07Z" transform="translate(0 -3.92)"/><rect class="cls-2" x="14.64" y="47.76" width="339.82" height="177.09" rx="3.07"/><path class="cls-3" d="M354.46,54.74V70.88H14.64V54.74a3.07,3.07,0,0,1,3.07-3.07H351.39A3.07,3.07,0,0,1,354.46,54.74Z" transform="translate(0 -3.92)"/><path class="cls-6" d="M328.14,61a2.61,2.61,0,1,1-2.61-2.61A2.61,2.61,0,0,1,328.14,61Z" transform="translate(0 -3.92)"/><circle class="cls-7" cx="333.99" cy="57.1" r="2.61"/><rect class="cls-8" x="44.31" y="54.34" width="270.34" height="5.52" rx="2.43"/><path d="M26.91,61v2.55a.47.47,0,0,1-.7.41L24,62.7l-2.21-1.28a.47.47,0,0,1,0-.81L24,59.33l2.22-1.28a.47.47,0,0,1,.7.41Z" transform="translate(0 -3.92)"/><path d="M30.8,61v2.55a.47.47,0,0,0,.7.41l2.21-1.28,2.22-1.28a.47.47,0,0,0,0-.81l-2.22-1.28L31.5,58.05a.47.47,0,0,0-.7.41Z" transform="translate(0 -3.92)"/><rect class="cls-5" x="339.14" y="60.19" width="6.27" height="1.47" rx="0.65" transform="translate(57.17 255.95) rotate(-45)"/><rect class="cls-5" x="341.54" y="57.79" width="1.47" height="6.27" rx="0.65" transform="translate(57.17 255.95) rotate(-45)"/><rect class="cls-3" x="53.05" y="70.85" width="262.09" height="147.12" rx="6.42"/><path class="cls-2" d="M128.91,150H71.45a1.6,1.6,0,0,1-1.6-1.59h0a1.6,1.6,0,0,1,1.6-1.6h57.46a1.6,1.6,0,0,1,1.6,1.6h0A1.6,1.6,0,0,1,128.91,150Z" transform="translate(0 -3.92)"/><path class="cls-2" d="M128.91,136.54H71.45a1.6,1.6,0,0,1-1.6-1.6h0a1.6,1.6,0,0,1,1.6-1.6h57.46a1.6,1.6,0,0,1,1.6,1.6h0A1.6,1.6,0,0,1,128.91,136.54Z" transform="translate(0 -3.92)"/><path class="cls-2" d="M128.91,163.55H71.45a1.6,1.6,0,0,1-1.6-1.6h0a1.6,1.6,0,0,1,1.6-1.59h57.46a1.6,1.6,0,0,1,1.6,1.59h0A1.6,1.6,0,0,1,128.91,163.55Z" transform="translate(0 -3.92)"/><path class="cls-2" d="M305.48,150H248a1.59,1.59,0,0,1-1.59-1.59h0a1.59,1.59,0,0,1,1.59-1.6h57.47a1.59,1.59,0,0,1,1.59,1.6h0A1.59,1.59,0,0,1,305.48,150Z" transform="translate(0 -3.92)"/><path class="cls-2" d="M305.48,136.54H248a1.6,1.6,0,0,1-1.59-1.6h0a1.6,1.6,0,0,1,1.59-1.6h57.47a1.6,1.6,0,0,1,1.59,1.6h0A1.6,1.6,0,0,1,305.48,136.54Z" transform="translate(0 -3.92)"/><path class="cls-2" d="M305.48,163.55H248a1.6,1.6,0,0,1-1.59-1.6h0a1.59,1.59,0,0,1,1.59-1.59h57.47a1.59,1.59,0,0,1,1.59,1.59h0A1.6,1.6,0,0,1,305.48,163.55Z" transform="translate(0 -3.92)"/><path class="cls-5" d="M53.05,199H315.14v21.49a1.36,1.36,0,0,1-1.36,1.35H54.41a1.36,1.36,0,0,1-1.36-1.35Z" transform="translate(0 -3.92)"/><path class="cls-3" d="M289.4,207.51v-1.94h2.42v-1.72h-3.28a.86.86,0,0,0-.87.86v2.8Z" transform="translate(0 -3.92)"/><path class="cls-3" d="M289.4,211h-1.73v3a.86.86,0,0,0,.87.86h3.28V213H289.4Z" transform="translate(0 -3.92)"/><path class="cls-3" d="M296.87,207.51h1.72v-2.8a.86.86,0,0,0-.86-.86h-3.16v1.72h2.3Z" transform="translate(0 -3.92)"/><path class="cls-3" d="M296.87,211V213h-2.3v1.72h3.16a.86.86,0,0,0,.86-.86v-3Z" transform="translate(0 -3.92)"/><polygon class="cls-3" points="68.32 205.76 68.32 200.32 73.03 203.04 77.75 205.76 73.03 208.48 68.32 211.2 68.32 205.76"/><rect class="cls-3" x="92.37" y="200.86" width="2.92" height="9.91" rx="0.84"/><rect class="cls-3" x="98.48" y="200.86" width="2.92" height="9.91" rx="0.84"/><rect class="cls-2" x="53.05" y="190.83" width="262.09" height="4.3"/><rect class="cls-6" x="53.05" y="190.83" width="134.48" height="4.3"/><path class="cls-5" d="M273.23,178h3v6.47h4v2.3h-6.92Z" transform="translate(0 -3.92)"/><path class="cls-5" d="M281,178h3v8.77h-3Z" transform="translate(0 -3.92)"/><path class="cls-5" d="M294.72,178,291,186.8H288.1L284.39,178h3.19l2.09,5.12,2.14-5.12Z" transform="translate(0 -3.92)"/><path class="cls-5" d="M302.3,184.57v2.23H295V178h7.13v2.23h-4.22v1h3.71v2.13h-3.71v1.16Z" transform="translate(0 -3.92)"/><path class="cls-6" d="M268.36,182.34a3.61,3.61,0,1,1-3.6-3.6A3.61,3.61,0,0,1,268.36,182.34Z" transform="translate(0 -3.92)"/><path class="cls-5" d="M85.07,184.78c0,2-1.9,3.3-4.63,3.3s-4.62-1.3-4.62-3.3a2.7,2.7,0,0,1,1.39-2.37,2.5,2.5,0,0,1-1-2c0-1.87,1.75-3.08,4.25-3.08s4.26,1.21,4.26,3.08a2.5,2.5,0,0,1-1,2A2.7,2.7,0,0,1,85.07,184.78Zm-3.49-.12a1.14,1.14,0,1,0-1.14,1.08A1,1,0,0,0,81.58,184.66Zm-2-4.13a.83.83,0,1,0,1.65,0,.83.83,0,1,0-1.65,0Z" transform="translate(0 -3.92)"/><path class="cls-5" d="M85.71,182.69c0-3.41,1.94-5.39,4.67-5.39s4.66,2,4.66,5.39-1.94,5.39-4.66,5.39S85.71,186.11,85.71,182.69Zm5.85,0c0-2-.5-2.6-1.18-2.6s-1.18.61-1.18,2.6.5,2.61,1.18,2.61S91.56,184.68,91.56,182.69Z" transform="translate(0 -3.92)"/><path class="cls-6" d="M69.78,179.8a3.17,3.17,0,1,1-3.17-3.17A3.17,3.17,0,0,1,69.78,179.8Z" transform="translate(0 -3.92)"/><path class="cls-6" d="M72.54,187.81H60.69a6.13,6.13,0,0,1,5.83-3.76h.18A6.14,6.14,0,0,1,72.54,187.81Z" transform="translate(0 -3.92)"/><g class="cls-9"><path class="cls-10" d="M103,108.29s-1.59,9.66-8.7,11.39c-5.75,1.39-11.17-4.13-13-6.3-.45-.52-.69-.85-.69-.85a9,9,0,0,1-1.07,0c-1.49,0-4.16-.33-5.2-2.17-1.49-2.62,3.92-4.42,3.92-4.42s-2.77-2.47-2.08-4.27,4.41-2.15,4.41-2.15-4-2.6-2.67-4.86c2-3.41,6.16.34,6.49.54-.26-.3-5.45-5.66-2.61-6.63,2.48-.84,6.56,2,9.24,4.71l.66.69.45-.31c1.34-.9,5.45-3.3,8.07-1.11C103.36,95.24,103,108.29,103,108.29Z" transform="translate(0 -3.92)"/><path class="cls-11" d="M95.58,114.22a.56.56,0,0,1-.56,0,.58.58,0,0,1-.16-.79,5,5,0,0,0,.86-4.22C94.79,105.55,90,103,89.9,103a.57.57,0,1,1,.51-1c.22.11,5.34,2.77,6.41,6.87a6.17,6.17,0,0,1-1,5.15A.57.57,0,0,1,95.58,114.22Z" transform="translate(0 -3.92)"/><path class="cls-11" d="M90.64,100.29a1.75,1.75,0,0,1-.8,1.54,2.42,2.42,0,0,1-.36.19,4.65,4.65,0,0,1-1,.23,3.3,3.3,0,0,1,.72.59,1.86,1.86,0,0,1,.44.66,1.47,1.47,0,0,1-.25,1.42c-.91,1.21-3,1.7-4.7,1.9a6,6,0,0,1,2.63,2.67,1.77,1.77,0,0,1-.22,1.72,3.34,3.34,0,0,1-1.22.9,18.24,18.24,0,0,1-4.59,1.27c-.45-.52-.69-.85-.69-.85a9,9,0,0,1-1.07,0,.5.5,0,0,1,.29-.12c2.1-.24,5.68-1,6.38-1.91a.65.65,0,0,0,0-.67c-.38-1.08-2.41-2.51-4.17-2.94a.55.55,0,0,1-.42-.62.55.55,0,0,1,.56-.49c1.4,0,5.24-.21,6.27-1.58.14-.19.11-.3.08-.36a1.92,1.92,0,0,0-.85-.78,14.09,14.09,0,0,0-3.35-1.26.54.54,0,0,1-.29-.17.58.58,0,0,1-.13-.51.57.57,0,0,1,.69-.41c.19,0,.6.14,1.1.3a12.67,12.67,0,0,0,2.55.09,2.17,2.17,0,0,0,1-.26.62.62,0,0,0,.28-.6,3.52,3.52,0,0,0-.61-1.71.58.58,0,0,1,0-.63s0,0,0,0a.56.56,0,0,1,.91.06A4.76,4.76,0,0,1,90.64,100.29Z" transform="translate(0 -3.92)"/><path class="cls-5" d="M86.5,89.72a15.42,15.42,0,0,1,2.65,1.94c.8.77,1.31,1.15,1.86,1.66h0L80.15,47.26a.56.56,0,0,0-1.09.22L86.5,89.72Z" transform="translate(0 -3.92)"/><path class="cls-5" d="M95.94,115.3c-3.76,2.43-4.82.63-4.82.63l-1.91-10.82a1.66,1.66,0,0,0,.41-1.61,1.86,1.86,0,0,0-.44-.66,2.4,2.4,0,0,0-.44-.39l0-.24a4.05,4.05,0,0,0,.78-.19,2.42,2.42,0,0,0,.36-.19,1.61,1.61,0,0,0,.7-.91,2.87,2.87,0,0,0,1.69.76,3.35,3.35,0,0,0,.55,0Z" transform="translate(0 -3.92)"/><path class="cls-11" d="M99.21,98.41a19.39,19.39,0,0,1-3.71,2.49,6.42,6.42,0,0,1-3.27.78,2.82,2.82,0,0,1-2-1.16c-1.79-2.4-.26-5.54.82-7.2l.66.69.45-.31c-.93,1.37-2.48,4.2-1,6.15a1.67,1.67,0,0,0,1.25.7c2,.21,5.09-2.09,6.11-3a.56.56,0,0,1,.8,0A.57.57,0,0,1,99.21,98.41Z" transform="translate(0 -3.92)"/><path class="cls-12" d="M157.33,87.23v0s0,0,0,0v.06l0,.14-.07.33-.15.73c-.05.25-.1.51-.16.77l-.18.78c-.24,1-.5,2.12-.79,3.19-.58,2.14-1.21,4.29-1.93,6.41s-1.48,4.22-2.34,6.27c-.43,1-.86,2-1.33,3s-.93,2-1.4,3c-1,2-2,3.9-3.14,5.77-.27.48-.57.93-.85,1.4s-.56.93-.87,1.38c-.6.89-1.18,1.81-1.81,2.68-1.22,1.78-2.57,3.43-3.91,5.09s-2.81,3.19-4.32,4.66c-.38.37-.75.75-1.13,1.11l-1.17,1.06-.58.53-.15.13.08-.07.1-.08a4.25,4.25,0,0,1,.43-.31,7.22,7.22,0,0,1,2.11-1c.18,0,.33-.09.5-.12l.25,0,.21,0,.42,0h.6l.22,0h.14l.06,0h0c.17.06-.16,0-.65-.21a14.5,14.5,0,0,1-1.88-1c-.73-.43-1.51-1-2.31-1.52-1.61-1.13-3.29-2.5-5-4s-3.39-3-5.08-4.63-3.38-3.29-5-5-3.34-3.46-5-5.23c-.82-.88-1.64-1.77-2.45-2.66l-2.36-2.59L88.2,121.05l.61.92.57.85,1.15,1.67c.78,1.1,1.56,2.19,2.36,3.27,1.6,2.16,3.23,4.28,4.94,6.38s3.47,4.17,5.31,6.21c.93,1,1.87,2,2.84,3.05s2,2,3,3a87.69,87.69,0,0,0,6.71,5.86c1.23,1,2.54,1.9,4,2.83a40.86,40.86,0,0,0,4.8,2.7A28.78,28.78,0,0,0,131,160l.49.1.54.09,1.08.15c.38,0,.79.07,1.18.09l.59,0h.63l1.28,0c.45,0,.92-.08,1.37-.13l.68-.1.72-.14c.48-.1,1-.2,1.43-.34a19.9,19.9,0,0,0,5.55-2.58c.41-.29.8-.59,1.19-.89l.29-.23.27-.22.2-.19.84-.74,1.67-1.49c.54-.51,1.07-1,1.61-1.56,2.15-2.06,4.13-4.28,6.06-6.52s3.69-4.63,5.33-7.06,3.19-4.92,4.63-7.45l1-1.91c.35-.64.66-1.29,1-1.94s.66-1.29,1-2l.92-2a106.53,106.53,0,0,0,5.79-16.18c.73-2.76,1.39-5.54,1.89-8.37.25-1.42.49-2.84.68-4.3.05-.36.09-.73.14-1.1l.12-1.12c0-.38.08-.77.11-1.16l.11-1.39Z" transform="translate(0 -3.92)"/><path class="cls-13" d="M100.11,118.27a1.57,1.57,0,1,0,1.43-1.7A1.57,1.57,0,0,0,100.11,118.27Z" transform="translate(0 -3.92)"/><path class="cls-13" d="M132.78,145.28a.68.68,0,0,0,.65-.51,50.35,50.35,0,0,0,1.09-11.64.67.67,0,1,0-1.34,0,50.5,50.5,0,0,1-1.05,11.27.68.68,0,0,0,.48.82Z" transform="translate(0 -3.92)"/><path class="cls-13" d="M137.07,140.41a.63.63,0,0,0,.3-.07.66.66,0,0,0,.3-.9,54.78,54.78,0,0,0-3.28-5.81.68.68,0,0,0-.95-.11.67.67,0,0,0-.11.94,55.85,55.85,0,0,1,3.14,5.58A.67.67,0,0,0,137.07,140.41Z" transform="translate(0 -3.92)"/><path class="cls-13" d="M95.28,131.32a.64.64,0,0,0,.48-.21c5.62-5.8,18.31-15,18.44-15.05a.66.66,0,0,0,.15-.93.67.67,0,0,0-.94-.15c-.13.09-12.91,9.32-18.61,15.2a.68.68,0,0,0,0,.95A.7.7,0,0,0,95.28,131.32Z" transform="translate(0 -3.92)"/><path class="cls-13" d="M100.71,126.36a.64.64,0,0,0,.43-.16.67.67,0,0,0,.09-.94l-6.79-8.14a.66.66,0,0,0-.94-.09.67.67,0,0,0-.09,1l6.79,8.14A.65.65,0,0,0,100.71,126.36Z" transform="translate(0 -3.92)"/><path class="cls-5" d="M173.92,284.78,183,231.1l.75-4.39-26.19-9.24-1.49-.53-6.24-2.2s-.5,2.3-1.27,6.24c-.09.48-.19,1-.29,1.5-2.46,12.7-7.07,38.87-8.32,62.3Z" transform="translate(0 -3.92)"/><path class="cls-4" d="M169.27,284.78c3.94-21.4,9-52.68,9.29-54.51a.7.7,0,0,0-.59-.81.72.72,0,0,0-.81.59c-.07.45-5.32,32.92-9.33,54.73Z" transform="translate(0 -3.92)"/><path class="cls-5" d="M226.9,197.6s2,18.7-2.29,29.11-59.31,5-73.35-4.32c-5.75-3.84,6.51-39.3,6.51-39.3Z" transform="translate(0 -3.92)"/><path class="cls-4" d="M148.28,222.49a16.67,16.67,0,0,0,2.43-.63,16.4,16.4,0,0,0,3.63-1.75,19.36,19.36,0,0,0,3.23-2.64c6.07-6.13,7.86-15.38,7.94-15.83a.71.71,0,1,0-1.39-.26c0,.11-1.88,9.73-8,15.56a16.78,16.78,0,0,1-2.52,2,14.77,14.77,0,0,1-3.45,1.65c-.51.16-1,.3-1.54.41C148.48,221.46,148.38,222,148.28,222.49Z" transform="translate(0 -3.92)"/><path class="cls-4" d="M182.25,227.72a.69.69,0,0,0,.67.71h0a.68.68,0,0,0,.73-.65c.13-2.55.28-5.17.44-7.78l.09-1.39c.56-8.54,1.26-16.93,1.8-22.85,0-.48.08-.94.12-1.39.12-1.3.23-2.45.32-3.43l-1.4-.22c-.09,1-.2,2.13-.32,3.45,0,.44-.08.91-.12,1.39-.53,5.87-1.23,14.18-1.79,22.68l-.09,1.4C182.54,222.35,182.38,225.07,182.25,227.72Z" transform="translate(0 -3.92)"/><path class="cls-4" d="M180.24,218.7a19.55,19.55,0,0,0,2.47.94,14.1,14.1,0,0,0,1.39.36,12.59,12.59,0,0,0,1.34.17,4.84,4.84,0,0,0,2.37-.37,2.88,2.88,0,0,0,1.61-2.16c.52-2.64,1.59-13.52,2.32-21.22,0-.47.09-.93.13-1.38.12-1.23.22-2.35.31-3.31l-1.41-.17c-.09,1-.19,2.09-.31,3.34,0,.44-.08.91-.13,1.38-.73,7.68-1.8,18.55-2.3,21.1a1.53,1.53,0,0,1-.85,1.2,5,5,0,0,1-3,0c-.47-.1-.95-.23-1.39-.37a19.35,19.35,0,0,1-1.94-.76.71.71,0,0,0-.94.3A.67.67,0,0,0,180.24,218.7Z" transform="translate(0 -3.92)"/><path class="cls-5" d="M220.05,284.78c2.18-19.92,4.7-46.59,6.12-62,.05-.49.09-.95.13-1.42.63-6.81,1-11.1,1-11.1-3.38-1.41-9.51-.44-16,1.41-.47.13-.94.26-1.42.41A194.62,194.62,0,0,0,186,221.38v63.4Z" transform="translate(0 -3.92)"/><path class="cls-4" d="M216.72,284.78c1.89-22.15,4.12-54.15,4.15-54.57a.71.71,0,1,0-1.42-.1c0,.42-2.26,32.54-4.15,54.67Z" transform="translate(0 -3.92)"/><path class="cls-4" d="M206,201.64a37.19,37.19,0,0,0,3.9,10.41,23,23,0,0,0,7.27,8.06,16.58,16.58,0,0,0,9,2.64c.05-.49.09-1,.13-1.42a15.11,15.11,0,0,1-8.39-2.41,21.24,21.24,0,0,1-6.62-7.28,36.14,36.14,0,0,1-3.93-10.26.71.71,0,1,0-1.39.26Z" transform="translate(0 -3.92)"/><path class="cls-12" d="M149.33,196.42c15.25,14.23,51.29,21.8,79.08,8.27,3-8.33,6.39-38.06,7.29-46.94.18-1.77.33-3.54.44-5.31a229.22,229.22,0,0,0,0-26.09c0-.49,0-1-.07-1.47-.36-7.39-.9-15-1.42-23.19-1-16.1-6.39-26-15.72-27.51a37.85,37.85,0,0,1-10.31-3.11c-.31-.15-.61-.29-.89-.44A28.92,28.92,0,0,1,203,67.71H182.21a15.81,15.81,0,0,1-6.48,5.42l-.82.38c-7.39,3.19-16,2.55-17.79,11.47-1.12,5.6,3.17,17.11,2.72,40.46,0,1.72-.09,3.49-.18,5.33s-.19,3.51-.32,5.36-.29,3.48-.47,5.3c-.15,1.6-.33,3.23-.54,4.91s-.44,3.48-.7,5.28C156.25,161.33,152.53,183.94,149.33,196.42Z" transform="translate(0 -3.92)"/><path class="cls-13" d="M220.72,201.29a.45.45,0,0,1-.16,0,.61.61,0,0,1-.44-.76c11.57-42.42,9.23-85.54,9.21-86a.63.63,0,0,1,.59-.66.63.63,0,0,1,.66.59c0,.43,2.37,43.75-9.26,86.37A.62.62,0,0,1,220.72,201.29Z" transform="translate(0 -3.92)"/><path class="cls-13" d="M158,146.19a.65.65,0,0,0,.66-.59c1.39-12.27,1.4-36.68,1.4-36.92a.67.67,0,1,0-1.34,0c0,.24,0,24.57-1.39,36.77a.67.67,0,0,0,.59.74Z" transform="translate(0 -3.92)"/><path class="cls-13" d="M186.48,192.4a1.58,1.58,0,0,0,1.7,1.43,1.57,1.57,0,1,0-1.7-1.43Z" transform="translate(0 -3.92)"/><path class="cls-13" d="M186.23,200a1.57,1.57,0,0,0,3.13-.27,1.57,1.57,0,0,0-3.13.27Z" transform="translate(0 -3.92)"/><path class="cls-13" d="M167.89,116.42c-4.09-4.75-2.55-15.32-2.48-15.77a.67.67,0,0,1,.66-.57h13.87a.68.68,0,0,1,.66.57c.07.45,1.6,11-2.48,15.77a6.88,6.88,0,0,1-10.23,0Zm-1.23-15c-.26,2.24-.94,10.43,2.25,14.13a5.56,5.56,0,0,0,8.19,0c3.18-3.7,2.5-11.89,2.25-14.13Z" transform="translate(0 -3.92)"/><path class="cls-5" d="M204.92,16.36c-3.88-2.52-16.1-3.78-16.1-3.78s-2-5.28-4.28-6.79c-5.15-3.44-5.79,3.52-5.79,3.52s-5-7-9.56-5,1.26,8.55,1.26,8.55-6.8-1.25-6,4.53,7.3,8.31,7.3,8.31-2,3.27-1,8.56S174,39.76,174,39.76l28.19,2.52s5.78,0,7.29-7.3-3.52-10.32-3.52-10.32S209.2,19.13,204.92,16.36Z" transform="translate(0 -3.92)"/><path class="cls-10" d="M181.9,64.17v5.3a16.81,16.81,0,0,0,1.88,1.31c9.19,5.52,19.11-1.31,19.11-1.31V51.11L184.4,62.61Z" transform="translate(0 -3.92)"/><path class="cls-5" d="M181.9,64v5.45a16.81,16.81,0,0,0,1.88,1.31c7.82-3.1,13.52-11.31,13.52-11.31l-12.9,3.14Z" transform="translate(0 -3.92)"/><path class="cls-12" d="M202.84,64.09a10.47,10.47,0,0,1,7.89,8.12c-6,6.3-11.36,11.77-20,13.37V72.91A22.29,22.29,0,0,0,202.84,64.09Z" transform="translate(0 -3.92)"/><path class="cls-12" d="M181.71,65.92s-5.53,1.18-7.68,8.25c5.57,6.78,8.55,9.33,16.71,11.41V72.91S186.19,72.84,181.71,65.92Z" transform="translate(0 -3.92)"/><polygon class="cls-5" points="178.59 160.45 182.18 169.1 182.18 169.1 183.78 172.99 188.33 183.97 190.52 179.73 191.3 178.23 193.06 174.83 193.84 173.33 195.6 169.93 196.38 168.43 198.14 165.03 198.14 165.03 198.91 163.53 200.57 160.33 200.53 159.99 200.28 157.45 199.69 151.71 199.43 149.17 198.85 143.42 198.59 140.89 198 135.14 197.75 132.61 197.16 126.86 196.9 124.33 196.32 118.58 196.06 116.05 195.48 110.3 195.22 107.76 194.63 102.02 194.38 99.48 193.79 93.74 193.53 91.2 192.93 85.27 188.54 85.09 188.41 86.08 188.14 88.09 187.54 92.65 187.28 94.66 186.68 99.22 186.41 101.23 185.81 105.79 185.54 107.81 184.94 112.36 184.68 114.37 184.07 118.94 183.81 120.95 183.21 125.51 182.94 127.52 182.34 132.07 182.07 134.09 181.47 138.65 181.21 140.66 180.6 145.22 180.34 147.23 179.74 151.79 179.47 153.8 178.87 158.36 178.6 160.37 178.59 160.45"/><polygon class="cls-4" points="188.14 88.09 193.79 93.74 193.53 91.2 188.41 86.08 188.14 88.09"/><polygon class="cls-4" points="187.28 94.66 194.63 102.02 194.38 99.48 187.54 92.65 187.28 94.66"/><polygon class="cls-4" points="186.41 101.23 195.48 110.3 195.22 107.76 186.68 99.22 186.41 101.23"/><polygon class="cls-4" points="185.54 107.81 196.32 118.58 196.06 116.05 185.81 105.79 185.54 107.81"/><polygon class="cls-4" points="184.68 114.37 197.16 126.86 196.9 124.33 184.94 112.36 184.68 114.37"/><polygon class="cls-4" points="183.81 120.95 198 135.14 197.75 132.61 184.07 118.94 183.81 120.95"/><polygon class="cls-4" points="182.94 127.52 198.85 143.42 198.59 140.89 183.21 125.51 182.94 127.52"/><polygon class="cls-4" points="182.07 134.09 199.69 151.71 199.43 149.17 182.34 132.07 182.07 134.09"/><polygon class="cls-4" points="181.21 140.66 200.53 159.99 200.28 157.45 181.47 138.65 181.21 140.66"/><polygon class="cls-4" points="180.34 147.23 198.14 165.03 198.91 163.53 180.6 145.22 180.34 147.23"/><polygon class="cls-4" points="179.47 153.8 195.6 169.93 196.38 168.43 179.74 151.79 179.47 153.8"/><polygon class="cls-4" points="178.6 160.37 193.06 174.83 193.84 173.33 178.87 158.36 178.6 160.37"/><polygon class="cls-4" points="182.18 169.1 183.78 172.99 190.52 179.73 191.3 178.23 182.18 169.1"/><polygon class="cls-4" points="192.93 85.27 190.74 88.51 188.54 85.09 188.15 88.02 190.71 90.62 193.16 87.53 192.93 85.27"/><polygon class="cls-5" points="196.6 79.81 190.74 88.51 185.13 79.81 190.74 72.54 196.6 79.81"/><path class="cls-13" d="M200,89.68a.71.71,0,0,0,.42-.14c5.8-4.63,10.73-16.57,10.94-17.08a.67.67,0,1,0-1.24-.51c-.05.12-4.7,11.37-10,16.09l-8.82-12a.63.63,0,0,0-.55-.27.65.65,0,0,0-.54.28L182,87.75c-1.25-2.27-4.56-8.29-7.33-13.87a.67.67,0,1,0-1.2.59c3.5,7,7.84,14.79,7.88,14.87a.67.67,0,0,0,1.13.06l8.31-11.8,8.69,11.81a.69.69,0,0,0,.45.27Z" transform="translate(0 -3.92)"/><path class="cls-13" d="M190.76,77.13a.67.67,0,0,0,.67-.67v-3a.67.67,0,1,0-1.34,0v3A.67.67,0,0,0,190.76,77.13Z" transform="translate(0 -3.92)"/><path class="cls-11" d="M175.28,40.71s-3-3.56-4.7,0-.39,10.74,4.18,9.56Z" transform="translate(0 -3.92)"/><path class="cls-10" d="M172.08,53.17s0,10.94,11.37,10.92,19-8.91,19.43-9.32h0l.12-2.3.65-11.94.34-6.39s1.45-11.49-9.48-13.58c-8-1.54-15.46-.21-19.24,3.95-.12.14-.24.27-.35.42a9.83,9.83,0,0,0-2.15,5.35l-.35,11.46-.09,2.81Z" transform="translate(0 -3.92)"/><path class="cls-5" d="M185.15,33.51s4.78,3.56,7.62,1.29-3.78-4.74-6-4.55S183.73,32.7,185.15,33.51Z" transform="translate(0 -3.92)"/><path class="cls-5" d="M180,33.51s-4.78,3.56-7.62,1.29,3.78-4.74,6-4.55S181.37,32.7,180,33.51Z" transform="translate(0 -3.92)"/><path class="cls-11" d="M183.72,54.6A4.74,4.74,0,0,0,187,53.55a.5.5,0,1,0-.66-.76,3.48,3.48,0,0,1-3.49.54.51.51,0,0,0-.67.26.5.5,0,0,0,.26.66A4.2,4.2,0,0,0,183.72,54.6Z" transform="translate(0 -3.92)"/><path class="cls-3" d="M188.65,46.78s-7,1.4-10.46,1.09c0,0,1.31,5.17,6.48,3.86A5.19,5.19,0,0,0,188.65,46.78Z" transform="translate(0 -3.92)"/><path class="cls-5" d="M174.93,24.92c1.79-.64,3.08-.05,5.86,1.17,4,1.77,8.52.18,12.5-1.85s6.36.79,5,2.65-1.21,3.36.29,5.72-2.84,3.47-.44,5.32a2.46,2.46,0,0,1,.54,3,1.64,1.64,0,0,0,1.84,2.17h0c1.3-.33,3.13-2.62,3.13-2.62l.34-6.39s1.45-11.49-9.48-13.58c-8-1.54-15.46-.21-19.24,3.95C175.16,24.64,175,24.77,174.93,24.92Z" transform="translate(0 -3.92)"/><path class="cls-11" d="M187.28,43.14c0,.8,1.64,1.44,3.67,1.44s3.66-.64,3.66-1.44S193,41.7,191,41.7,187.28,42.34,187.28,43.14Z" transform="translate(0 -3.92)"/><path class="cls-11" d="M172.34,44.54a8.57,8.57,0,0,0,.89,0c2,0,3.66-.64,3.66-1.44s-1.64-1.44-3.66-1.44c-.28,0-.54,0-.8,0Z" transform="translate(0 -3.92)"/><path class="cls-5" d="M185.69,38.75c0,1.1.5,2,1.11,2s1.11-.89,1.11-2-.5-2-1.11-2S185.69,37.66,185.69,38.75Z" transform="translate(0 -3.92)"/><path class="cls-5" d="M174.69,38.75c0,1.1.5,2,1.11,2s1.11-.89,1.11-2-.49-2-1.11-2S174.69,37.66,174.69,38.75Z" transform="translate(0 -3.92)"/><path class="cls-5" d="M199.31,50.33c.05.12,1.49,3.46,3.57,4.44h0l.12-2.3A7.89,7.89,0,0,1,199.31,50.33Z" transform="translate(0 -3.92)"/><path class="cls-10" d="M201.32,42.73s4.37-5.88,7.58-1.26c2.64,3.8-2.35,13.72-7.58,10.32Z" transform="translate(0 -3.92)"/><path class="cls-5" d="M201.92,50a.44.44,0,0,0,.44-.4,7.52,7.52,0,0,1,4.37-6.06.45.45,0,0,0-.33-.84,8.42,8.42,0,0,0-4.93,6.81.45.45,0,0,0,.4.49Z" transform="translate(0 -3.92)"/><path class="cls-5" d="M206.12,47.29a.44.44,0,0,0,.35-.16.46.46,0,0,0-.07-.64c-.18-.14-1.79-1.41-3.14-1.07a.45.45,0,0,0-.33.55.46.46,0,0,0,.55.33c.78-.2,2,.58,2.35.89A.46.46,0,0,0,206.12,47.29Z" transform="translate(0 -3.92)"/><path class="cls-5" d="M182.14,44.26a.45.45,0,0,0,.45-.45.45.45,0,0,0-.45-.45,3.09,3.09,0,0,1-2.69-1.25c1.8-3.7,3.58-7.43,3.6-7.47a.45.45,0,0,0-.21-.6.44.44,0,0,0-.6.21s-1.87,3.91-3.7,7.68a.48.48,0,0,0,0,.39A3.86,3.86,0,0,0,182.14,44.26Z" transform="translate(0 -3.92)"/><path class="cls-10" d="M291.09,84.85s6.06,6.12,12.05,3.74c4.83-1.93,5.9-8.65,6.14-11.17.05-.6.06-1,.06-1a7,7,0,0,0,.78-.52c1.07-.77,2.82-2.35,2.63-4.21-.27-2.64-5.06-1.16-5.06-1.16s.72-3.2-.7-4.13-4.25.71-4.25.71,1.55-3.91-.57-4.85c-3.18-1.42-4.24,3.38-4.37,3.7,0-.35,1.55-15.08-1-14.32-2.21.66-4.24,13-4.76,16.32-.08.53-.12.83-.12.83h-.48c-1.42,0-5.59.41-6.36,3.32C284.18,75.67,291.09,84.85,291.09,84.85Z" transform="translate(0 -3.92)"/><path class="cls-11" d="M303.49,74.45a5.27,5.27,0,0,0-.52,3.26,1.54,1.54,0,0,0,1,1.12,2.93,2.93,0,0,0,1.33,0,16.15,16.15,0,0,0,3.94-1.43c.05-.6.06-1,.06-1a7.63,7.63,0,0,0,.79-.52.55.55,0,0,0-.28.07c-1.62.89-4.56,2.19-5.54,1.87a.56.56,0,0,1-.38-.44c-.27-1,.45-3,1.49-4.24a.49.49,0,0,0-.67-.72c-1,.73-3.86,2.51-5.29,2.06-.21-.07-.24-.17-.25-.22a1.66,1.66,0,0,1,.22-1,12.29,12.29,0,0,1,1.75-2.61.5.5,0,0,0,.12-.28.49.49,0,0,0-.16-.42.51.51,0,0,0-.71,0,14.12,14.12,0,0,0-1.79,2.59,4.29,4.29,0,0,0-.41,1.24,1.63,1.63,0,0,0,0,.7,1.32,1.32,0,0,0,.91.9C300.42,75.89,302.17,75.17,303.49,74.45Z" transform="translate(0 -3.92)"/><path class="cls-11" d="M295.89,70.26a.5.5,0,0,1,.36.43,3.17,3.17,0,0,0,.43,1.54.61.61,0,0,0,.52.29,1.94,1.94,0,0,0,.81-.3A14.31,14.31,0,0,0,300.67,70a.47.47,0,0,1-.12.27,12.29,12.29,0,0,0-1.75,2.61l-.3.18a3.77,3.77,0,0,1-.9.39,2.58,2.58,0,0,1-.36.05,1.57,1.57,0,0,1-1.36-.7,4.21,4.21,0,0,1-.63-2,.49.49,0,0,1,.63-.5Z" transform="translate(0 -3.92)"/><path class="cls-11" d="M288.77,75.83a16.35,16.35,0,0,0,3.93-.11,5.62,5.62,0,0,0,2.75-1.1,2.48,2.48,0,0,0,.87-1.87c.06-2.64-2.64-4.11-4.26-4.75-.08.53-.12.83-.12.83h-.48c1.36.5,3.92,1.75,3.87,3.89a1.5,1.5,0,0,1-.54,1.14c-1.32,1.17-4.72,1.1-5.91,1a.5.5,0,0,0-.55.44A.5.5,0,0,0,288.77,75.83Z" transform="translate(0 -3.92)"/><path class="cls-11" d="M299.44,85.32a.48.48,0,0,0,.38-.31.51.51,0,0,0-.28-.65,4.46,4.46,0,0,1-2.78-2.59c-1.17-3.07,1-7.34,1.05-7.38a.51.51,0,0,0-.21-.67.49.49,0,0,0-.67.21c-.1.19-2.43,4.71-1.1,8.19a5.41,5.41,0,0,0,3.35,3.17A.48.48,0,0,0,299.44,85.32Z" transform="translate(0 -3.92)"/><path class="cls-12" d="M225.67,77.71l10.36,9c1.66,1.54,3.32,3.08,5,4.6s3.32,3,5,4.56,3.33,3,5,4.45,3.33,2.89,5,4.26,3.29,2.71,4.83,3.85c.76.57,1.5,1.09,2.1,1.48l.41.26.16.1.06,0,.13.14c.05.07,0,.12.11.18a.81.81,0,0,0,.51.08,8,8,0,0,0,2.91-1.13,25.07,25.07,0,0,0,4-3,54.85,54.85,0,0,0,4.1-4.11,103.17,103.17,0,0,0,7.72-10c2.46-3.55,4.2-6.29,6.42-10.07a16.66,16.66,0,0,0,15.1,5.77,132.17,132.17,0,0,1-5.84,13.48A103.76,103.76,0,0,1,291,114.79a66.33,66.33,0,0,1-5,6.35,47,47,0,0,1-6.49,6.06,33.92,33.92,0,0,1-4.23,2.75,27.58,27.58,0,0,1-5.25,2.18,23.69,23.69,0,0,1-6.33,1,22.75,22.75,0,0,1-6.72-.85,25.82,25.82,0,0,1-3.1-1.1l-.72-.33-.61-.29-.57-.29-.54-.29c-1.4-.76-2.6-1.49-3.75-2.22-2.28-1.45-4.34-2.89-6.35-4.35s-3.91-2.94-5.81-4.42-3.76-3-5.59-4.49-3.64-3-5.44-4.57-3.56-3.09-5.33-4.65-3.5-3.14-5.23-4.73l-2.59-2.4-1.28-1.22c-.44-.41-.85-.81-1.3-1.25Z" transform="translate(0 -3.92)"/><path class="cls-13" d="M235.56,120.22a.6.6,0,0,1-.36-.12c-6.84-4.79-19-14.88-19.13-15a.62.62,0,0,1-.08-.88.63.63,0,0,1,.88-.08c.12.1,12.24,10.16,19,14.92a.62.62,0,0,1,.16.87A.64.64,0,0,1,235.56,120.22Z" transform="translate(0 -3.92)"/><path class="cls-13" d="M221.4,109.3h-.09l-4.82-.7a.63.63,0,0,1,.18-1.24l4.82.7a.63.63,0,0,1,.53.71A.62.62,0,0,1,221.4,109.3Z" transform="translate(0 -3.92)"/><path class="cls-13" d="M301.16,96a.64.64,0,0,0,.33-.7.65.65,0,0,0-.76-.49c-9.08,2-13.6-6.68-13.64-6.76a.63.63,0,0,0-.86-.28h0a.64.64,0,0,0-.28.85c.05.1,5,9.62,15.05,7.44A.44.44,0,0,0,301.16,96Z" transform="translate(0 -3.92)"/><path class="cls-13" d="M296.49,96.2a.67.67,0,0,0,.3-.32l3-7a.64.64,0,1,0-1.17-.5l-3,7a.65.65,0,0,0,.34.84A.64.64,0,0,0,296.49,96.2Z" transform="translate(0 -3.92)"/><path class="cls-13" d="M291.14,89.49a1.1,1.1,0,1,0,.47-1.49A1.11,1.11,0,0,0,291.14,89.49Z" transform="translate(0 -3.92)"/><path class="cls-13" d="M262.34,118.48a.67.67,0,0,0,.34-.46,27.13,27.13,0,0,1,1.85-6.34.64.64,0,1,0-1.13-.58,28.54,28.54,0,0,0-2,6.71.63.63,0,0,0,.52.73A.68.68,0,0,0,262.34,118.48Z" transform="translate(0 -3.92)"/><path class="cls-13" d="M266.47,117.05a.5.5,0,0,0,.12-.08.64.64,0,0,0,.08-.9,11.54,11.54,0,0,1-2.21-4.23.64.64,0,1,0-1.25.25,12.88,12.88,0,0,0,2.48,4.8A.65.65,0,0,0,266.47,117.05Z" transform="translate(0 -3.92)"/></g></g></g></svg>