<svg xmlns="http://www.w3.org/2000/svg" viewBox="0 0 757.36 463.3"><defs><style>.cls-1{opacity:0.8;}.cls-2{opacity:0.5;}.cls-3{fill:#ccd3e6;}</style></defs><g id="Layer_2" data-name="Layer 2"><g id="Layer_1-2" data-name="Layer 1"><g class="cls-1"><g class="cls-2"><path class="cls-3" d="M406,168.86a199.37,199.37,0,0,1-90.9-38.52C275,100,191,48.46,110.8,74.15.24,109.58-.25,212.08,28.55,267.75s233,218.72,497.75,192.78C763.2,437.31,809.37,171.59,683,123.5,573.43,81.8,536.05,188.06,406,168.86Z"/></g><g class="cls-2"><ellipse class="cls-3" cx="747.09" cy="129.53" rx="10.27" ry="11.06"/></g><path class="cls-3" d="M76.42,56.7a6.65,6.65,0,0,1,7.45,4.17c1.9,5.13-3.06,10.88-9.73,8.3h0C68.38,64.91,70.89,57.72,76.42,56.7Z"/><circle class="cls-3" cx="719.04" cy="30.71" r="13.38" transform="translate(573.21 735.47) rotate(-80.75)"/><g class="cls-1"><path class="cls-3" d="M117,46.15a13.52,13.52,0,1,1-16.67-9.37A13.51,13.51,0,0,1,117,46.15Z"/></g><path class="cls-3" d="M651.83,448.88a6.66,6.66,0,0,1,8.1,2.71c2.81,4.69-1,11.26-8,10h0C645.46,458.44,646.58,450.91,651.83,448.88Z"/><path class="cls-3" d="M689.73,431a13.52,13.52,0,1,1-18.12-6.11A13.52,13.52,0,0,1,689.73,431Z"/><circle class="cls-3" cx="693.83" cy="10.23" r="8.23"/></g><g class="cls-1"><path class="cls-3" d="M724,159.36C724,85.82,662.75,5.23,586.54.37c-1.34-.09-2.69-.16-4.06-.23C473.23-4.95,464.91,128.3,366.06,143.33S191.73,82.49,73.45,132c-106.22,44.45-135,294.26,177.12,304.28C500.29,444.29,724,378.77,724,159.36Z"/></g></g></g></svg>