<svg xmlns="http://www.w3.org/2000/svg" viewBox="0 0 289.68 341.59"><defs><style>.cls-1{fill:#ccd3e6;}.cls-2{fill:#ff9b79;}.cls-3{fill:#dc7f21;}.cls-4{fill:#ffb028;}.cls-5{fill:#363638;}.cls-6{fill:#575759;}.cls-7{fill:#0076fa;}.cls-8{fill:#004ecb;}.cls-9{fill:#fff;}.cls-10{fill:#f56c63;}.cls-11{opacity:0.8;}.cls-12{fill:#00b570;}.cls-13{fill:#007d55;}.cls-14{fill:#fd615b;}.cls-15{fill:#ce101d;}</style></defs><g id="Layer_2" data-name="Layer 2"><g id="Layer_1-2" data-name="Layer 1"><ellipse class="cls-1" cx="144.84" cy="332.77" rx="144.84" ry="8.81"/><path class="cls-2" d="M135.8,87.44l14.64,53.49-5.22-6a26.23,26.23,0,0,0,6.64,2.37,48.11,48.11,0,0,0,8,1c2.83.14,5.77.12,8.77,0s6.08-.35,9.2-.61h0a8.36,8.36,0,0,1,2,16.58c-3.21.52-6.48,1-9.84,1.39s-6.8.68-10.36.76a66.74,66.74,0,0,1-11.07-.61A45.65,45.65,0,0,1,137,152.61a9.1,9.1,0,0,1-5-5.46l-.19-.55L114.21,94a11.29,11.29,0,0,1,21.41-7.15C135.69,87,135.75,87.25,135.8,87.44Z"/><path class="cls-3" d="M141.44,281.37a1.91,1.91,0,0,1-.66-.11L64.14,253.63A1.93,1.93,0,0,1,65.45,250l76.64,27.63a1.93,1.93,0,0,1-.65,3.75Z"/><path class="cls-3" d="M61.61,281.37a1.93,1.93,0,0,1-.66-3.75l77.56-28.08a1.93,1.93,0,1,1,1.31,3.63L62.27,281.26A1.91,1.91,0,0,1,61.61,281.37Z"/><path class="cls-4" d="M148.25,330.76a3.31,3.31,0,0,1-3.27-2.87L131.14,224.52H73.21L59.58,327.88A3.31,3.31,0,0,1,53,327L67,220.78a3.31,3.31,0,0,1,3.28-2.87H134a3.3,3.3,0,0,1,3.28,2.87L151.54,327a3.31,3.31,0,0,1-2.84,3.72Z"/><path class="cls-4" d="M115.57,221.22H74.19C61.07,221.22,47,214,45,201.08a246,246,0,0,1-2.61-49.5,60.29,60.29,0,0,1,22.86-44.41h0s8.26,36-2.13,85.76C67.11,211.82,115.57,221.22,115.57,221.22Z"/><path class="cls-5" d="M107,9.9S102-1.95,89,.28C79.9,1.84,76,13.18,76.56,30.7c.78,25.49-7.84,40.85-7.84,40.85l11.44,2.6S109.29,30.45,107,9.9Z"/><path class="cls-5" d="M211.33,286.47H192.84s-4.28-20.52-5.71-32S185,215.66,185,215.66s-14.74,4.78-45.57,3C71.05,214.65,97,164.45,97,164.45c2.31,3.19,16.45,1,26.12,2.5,29.67,2.84,55.39,14.49,70.83,21.15a75.58,75.58,0,0,1,9.92,5.09c3.73,2.29,6.05,9.25,7.46,18.41C215.5,239.12,211.33,286.47,211.33,286.47Z"/><path class="cls-6" d="M195.13,276.58a.67.67,0,0,1-.65-.53c-2.66-13.2-3.56-29.63-4.28-42.83-.59-10.95-1.16-21.29-2.56-22.53-1.14-1-5.87-.22-11.86.77-11.91,2-29.9,5-49.75.35-10.81-2.52-18.76-7.77-23.62-15.61-8.39-13.52-4.57-30.29-4.53-30.45a.67.67,0,0,1,.8-.5.66.66,0,0,1,.49.8c0,.16-3.73,16.41,4.37,29.46,4.67,7.53,12.34,12.58,22.79,15,19.59,4.56,37.43,1.6,49.24-.36,7.07-1.18,11.33-1.88,12.94-.46s2.23,9.1,3,23.45c.71,13.15,1.61,29.53,4.25,42.64a.67.67,0,0,1-.52.78Z"/><path class="cls-6" d="M211.68,276.93h0l-20.55-.44a.67.67,0,0,1,0-1.33l20.55.44a.67.67,0,0,1,0,1.33Z"/><polygon class="cls-2" points="210.82 310.15 197.77 310.15 195.25 294.84 193.88 286.47 210.09 286.47 210.35 294.84 210.82 310.15"/><polygon class="cls-4" points="210.82 310.15 197.77 310.15 195.9 298.75 195.25 294.84 210.35 294.84 210.47 298.9 210.82 310.15"/><polygon class="cls-3" points="210.47 298.9 195.9 298.75 195.25 294.84 210.35 294.84 210.47 298.9"/><path class="cls-7" d="M243,330.76H193.66A7,7,0,0,1,193,328c-.31-4.18,1-10.84,1.67-15,.08-.49.15-1,.2-1.36a14.8,14.8,0,0,0,.15-1.72c0-3.43,3-2.84,3-2.84,5,4.9,10.65-2.44,14,0l.44.34c.28.22.7.56,1.28,1.05.84.7,2,1.72,3.62,3.16,3.92,3.52,10.58,5.85,16.26,8.22.72.3,1.39.61,2,.91s.92.45,1.34.68c4.64,2.51,6.12,4.9,6.45,6.64A3.87,3.87,0,0,1,243,330.76Z"/><path class="cls-8" d="M237,321.38c-1.27,1-4.1,3-6.36,3h-.3c-1.6-.14-7.48-3-12.27-5.66-2.74-1.51-5.25-3-7-4.18-3-1.94-3.46-2.69-3.58-3.2-.43-1.95,2.79-3.31,5.05-4,.28.22.7.56,1.28,1.05-2.8.76-5.11,2-5,2.64.27.58,3.2,2.81,10.18,6.63,5.33,2.91,10.38,5.27,11.5,5.37,1.52.12,3.76-1.26,5.21-2.35C236.11,320.92,236.55,321.15,237,321.38Z"/><path class="cls-8" d="M243,330.76H193.66A7.16,7.16,0,0,1,193,328h50.41A3.87,3.87,0,0,1,243,330.76Z"/><path class="cls-8" d="M198.7,330.76h-1.47a10.8,10.8,0,0,0,2.66-7.9,13.93,13.93,0,0,0-5.2-9.88c.08-.49.15-1,.2-1.36a15.12,15.12,0,0,1,6.17,11.18A12,12,0,0,1,198.7,330.76Z"/><path class="cls-9" d="M216.52,314.48a.81.81,0,0,1-.78-.62.8.8,0,0,1,.59-1l3.08-.77a.81.81,0,1,1,.39,1.58l-3.08.76A.64.64,0,0,1,216.52,314.48Z"/><path class="cls-9" d="M213.46,311.91a.82.82,0,0,1-.79-.62.81.81,0,0,1,.6-1l3.08-.77a.81.81,0,0,1,1,.6.8.8,0,0,1-.59,1l-3.08.77Z"/><path class="cls-9" d="M219.61,316.27a.81.81,0,0,1-.2-1.6l3.09-.77a.81.81,0,0,1,.39,1.58l-3.09.77Z"/><path class="cls-9" d="M222.69,318a.81.81,0,0,1-.19-1.6l3.08-.76a.81.81,0,0,1,.39,1.57l-3.08.77A.68.68,0,0,1,222.69,318Z"/><path class="cls-9" d="M226.05,319.59a.82.82,0,0,1-.19-1.61l3.08-.76a.81.81,0,0,1,.39,1.58l-3.08.76A.69.69,0,0,1,226.05,319.59Z"/><path class="cls-9" d="M229.7,321a.82.82,0,0,1-.2-1.61l3.08-.76a.81.81,0,1,1,.4,1.58l-3.09.76A.63.63,0,0,1,229.7,321Z"/><path class="cls-8" d="M62.74,148.53s-.59,4,4.75,5.11l55.68,1.86a6.29,6.29,0,0,0,3.08-6.56S102.74,135.74,62.74,148.53Z"/><path class="cls-2" d="M123.93,167C95,182.84,63.48,170,63.48,170A88.15,88.15,0,0,0,67,156.76c1-5,1.51-9.46,1.75-11.8,12.3-.67,42.43-2,54.24.85l.09,4.73Z"/><path class="cls-10" d="M102.58,159.32c-.21,1.49-.88,2.63-1.5,2.54s-.94-1.37-.73-2.86.89-2.62,1.5-2.54S102.8,157.83,102.58,159.32Z"/><path class="cls-10" d="M123.07,150.54c-12.31-.75-36.52-1-56.08,6.22,1-5,1.51-9.46,1.75-11.8,12.3-.67,42.43-2,54.24.85Z"/><path class="cls-7" d="M136.8,127.67a9.25,9.25,0,0,1-.41,1l-.19.35a27.32,27.32,0,0,1-5.95,7.13c-.42.36-.82.7-1.19,1-.74.6-1.37,1.07-1.8,1.38l-.63.43s0,.05,0,.09c0,.21,0,.44-.06.67-.07.91-.13,2-.17,3.23,0,1-.07,2.09-.1,3.26,0,.87,0,1.78,0,2.72-16.33-7.29-50-2.69-63.51-.41.24-1.17.47-2.31.68-3.43a107.74,107.74,0,0,0,1.71-14A146.92,146.92,0,0,0,63.59,106c-.08-.63-.17-1.25-.26-1.88-.06-.4-.12-.81-.19-1.22-.46-3-1-6-1.61-9-2.67-12.82-.8-26.27,12.2-27.86.94-.12,1.87-.22,2.77-.32,6.13-.65,11.16-.88,12.56-.93l.39,0,25.12,7.3,2.39.69c1.37.44,2.64.87,3.82,1.29l1.45.53c1.22.46,2.32.91,3.33,1.35a27.62,27.62,0,0,1,4.86,2.65c5.51,3.91,4.66,8.33,4.52,17.06,0,0,0,.08,0,.12v.49c0,.35,0,.71,0,1.06,0,1.13,0,2.25.11,3.38.1,1.64.24,3.28.42,4.89.07.64.15,1.28.23,1.92s.15,1.19.22,1.77C136.92,116.9,138.17,123.59,136.8,127.67Z"/><path class="cls-8" d="M134.93,95.74v.49c0,.35,0,.71,0,1.06l-5.28,3.32a.75.75,0,0,1-1-.23.74.74,0,0,1,.24-1l5.59-3.51A.73.73,0,0,1,134.93,95.74Z"/><path class="cls-8" d="M100.13,124a.75.75,0,0,1-.55-.24.74.74,0,0,1,.06-1l4.91-4.42a.74.74,0,1,1,1,1.09l-4.92,4.42A.7.7,0,0,1,100.13,124Z"/><path class="cls-8" d="M135.91,109.25l-3.36,3a.74.74,0,0,1-1,0,.74.74,0,0,1,.05-1l4.13-3.71C135.76,108.07,135.84,108.67,135.91,109.25Z"/><path class="cls-8" d="M90.17,106.24a.76.76,0,0,1-.11-.59.74.74,0,0,1,.89-.55l6.43,1.52a.73.73,0,1,1-.34,1.43l-6.43-1.51A.78.78,0,0,1,90.17,106.24Z"/><path class="cls-8" d="M67.23,118.86a.73.73,0,0,1-.55-.25.74.74,0,0,1,0-1l4.91-4.42a.74.74,0,0,1,1,1.1l-4.91,4.42A.77.77,0,0,1,67.23,118.86Z"/><path class="cls-8" d="M124.39,117.8a.75.75,0,0,1,.4-.44.74.74,0,0,1,1,.38l2.64,6.06a.74.74,0,0,1-1.35.59l-2.64-6.06A.75.75,0,0,1,124.39,117.8Z"/><path class="cls-8" d="M136.8,127.67a9.25,9.25,0,0,1-.41,1l-.19.35-3.59-1.13a.75.75,0,0,1-.41-.33.78.78,0,0,1-.07-.6.74.74,0,0,1,.93-.48Z"/><path class="cls-8" d="M116.52,128.2a.72.72,0,0,1,.57.19.74.74,0,0,1,0,1l-4.44,4.89a.73.73,0,0,1-1,.05.74.74,0,0,1,0-1l4.44-4.89A.77.77,0,0,1,116.52,128.2Z"/><path class="cls-8" d="M113.91,116.92a.74.74,0,0,1-.27-1.35l5.6-3.51a.73.73,0,1,1,.78,1.24l-5.6,3.52A.72.72,0,0,1,113.91,116.92Z"/><path class="cls-8" d="M117.47,95.64a.68.68,0,0,1,.18.57.73.73,0,0,1-.81.65l-6.57-.71a.74.74,0,0,1,.16-1.47l6.57.72A.74.74,0,0,1,117.47,95.64Z"/><path class="cls-8" d="M107.92,81.39a.74.74,0,0,1,1.37-.17L112.41,87a.74.74,0,1,1-1.3.69L108,81.91A.73.73,0,0,1,107.92,81.39Z"/><path class="cls-8" d="M130.25,136.16c-.42.36-.82.7-1.19,1l-.86-2.2a.74.74,0,1,1,1.37-.54Z"/><path class="cls-8" d="M69.85,125a.74.74,0,0,1,.9-1L77,126.16a.73.73,0,1,1-.5,1.38l-6.22-2.23A.77.77,0,0,1,69.85,125Z"/><path class="cls-8" d="M72.9,133.37a.71.71,0,0,1,.54.24.73.73,0,0,1-.06,1L68.43,139a.74.74,0,0,1-1-.06.73.73,0,0,1,.07-1l4.94-4.38A.69.69,0,0,1,72.9,133.37Z"/><path class="cls-8" d="M81.87,140.32a.74.74,0,0,1-.71,1.18l-6.51-1.11a.74.74,0,0,1,.25-1.45l6.51,1.11A.73.73,0,0,1,81.87,140.32Z"/><path class="cls-8" d="M87.31,78.46a.77.77,0,0,1,.09-.59.73.73,0,0,1,1-.22L94,81.23a.74.74,0,1,1-.8,1.24l-5.56-3.59A.77.77,0,0,1,87.31,78.46Z"/><path class="cls-8" d="M125.2,82.68a.71.71,0,0,1,.59-.05.73.73,0,0,1,.45.94L124,89.8a.74.74,0,0,1-.94.45.75.75,0,0,1-.45-.94l2.21-6.23A.73.73,0,0,1,125.2,82.68Z"/><path class="cls-8" d="M122.23,74.56l-3.41,4.38a.74.74,0,1,1-1.16-.91l3.12-4Z"/><path class="cls-8" d="M88.86,135a.61.61,0,0,0,.45.4.55.55,0,0,0,.31,0,34.66,34.66,0,0,1,22,1.16,37.45,37.45,0,0,0,14.9,3.19c0-.23,0-.46.06-.67V139l.63-.43a35.89,35.89,0,0,1-15.14-3.11,35.33,35.33,0,0,0-22.88-1.19A.6.6,0,0,0,88.86,135Z"/><path class="cls-8" d="M114.57,72.05c-1.41,2.18-4.31,4.66-10.19,4.23C96.27,75.69,90.93,68,89.06,64.77h.39Z"/><path class="cls-9" d="M105.94,86.41a5.93,5.93,0,0,0,.72.1,6.27,6.27,0,0,0,5.4-1.93c3.9-4.26,2.3-14,2.23-14.39a.6.6,0,0,0-1.19.2c0,.1,1.58,9.55-1.93,13.38a5,5,0,0,1-4.41,1.54C98.89,84.68,90.09,64.72,90,64.51a.61.61,0,0,0-.79-.31.62.62,0,0,0-.31.8C89.26,65.82,97.61,84.72,105.94,86.41Z"/><path class="cls-2" d="M130.42,78.56A43.85,43.85,0,0,0,135,100.67c-.09-1.48-.13-3-.11-4.44v-.15c0-.16,0-.31,0-.46C135.08,86.89,135.93,82.47,130.42,78.56Z"/><path class="cls-2" d="M84.22,88.7c-2.89,11.12-13.42,20-20.63,17.26-.08-.63-.17-1.25-.26-1.87-.06-.41-.12-.82-.19-1.23-.46-3-1-6-1.61-9C58.86,81.06,60.73,67.61,73.72,66c1-.12,1.88-.22,2.78-.32C83,68.47,87.53,75.9,84.22,88.7Z"/><path class="cls-2" d="M85.7,80.22,102.59,142l-6-6.94a30.45,30.45,0,0,0,7.66,2.74,55.89,55.89,0,0,0,9.23,1.18c3.25.17,6.65.14,10.11,0s7-.41,10.62-.72h0a9.65,9.65,0,0,1,2.34,19.15c-3.71.59-7.49,1.15-11.36,1.6s-7.85.78-12,.87a76.57,76.57,0,0,1-12.77-.7,52.9,52.9,0,0,1-13.41-3.71,10.5,10.5,0,0,1-5.8-6.29L81,148.5,60.78,87.78a13,13,0,1,1,24.71-8.25C85.56,79.75,85.64,80,85.7,80.22Z"/><path class="cls-10" d="M93.26,140a.5.5,0,0,1-.25-.93,20.86,20.86,0,0,1,7.71-2.47.49.49,0,0,1,.54.46.5.5,0,0,1-.46.53,20.42,20.42,0,0,0-7.3,2.35A.5.5,0,0,1,93.26,140Z"/><path class="cls-10" d="M99.39,137.75a.48.48,0,0,1-.26-.07A13.38,13.38,0,0,0,94,136.05a.5.5,0,1,1,.07-1,13.79,13.79,0,0,1,5.62,1.77.49.49,0,0,1,.17.68A.49.49,0,0,1,99.39,137.75Z"/><path class="cls-8" d="M114.45,105.21c7.47,1.52,10.74-6.21,10.77-6.29a.6.6,0,1,0-1.11-.45c-.12.29-2.94,6.88-9.42,5.56-6.81-1.37-19.51-14.77-19.64-14.91a.6.6,0,1,0-.87.83C94.71,90.51,107.27,103.76,114.45,105.21Z"/><path class="cls-5" d="M102.7,56.59s-12-2.26-15.37-14.36c-3.22-11.52-.74-17.5,2.61-23.72,2.52-4.69,10.51-11,21.73-8.75s19.79,8.1,21,17.41C135.05,44.6,121,65.85,102.7,56.59Z"/><path class="cls-4" d="M87.9,44.09a.61.61,0,0,1-.54-.31,27.11,27.11,0,0,1-1.08-21.39A19.59,19.59,0,0,1,97.92,10.1a21,21,0,0,1,7.84-1.44.62.62,0,0,1-.06,1.24h0a20.22,20.22,0,0,0-7.38,1.39A18.17,18.17,0,0,0,87.46,22.8a26.41,26.41,0,0,0,1,20.36.62.62,0,0,1-.23.85A.6.6,0,0,1,87.9,44.09Z"/><path class="cls-10" d="M126,44.29s3.9-3.08,4.93,1-1.87,11.33-6.41,9.13Z"/><path class="cls-4" d="M122.15,51.79a6.18,6.18,0,0,0-4.09,4.49A5.88,5.88,0,1,0,125,51.69h-.06a1,1,0,0,0,.16,1A5,5,0,1,1,119,56.46a4.81,4.81,0,0,1,3.65-3.77Z"/><path class="cls-2" d="M114.14,61.77,112.5,72s-7.65,7.8-21.62-6.2c3.75-2.79,5.19-9.27,4.75-13.45a20.25,20.25,0,0,1,2.8,2.2,11.37,11.37,0,0,0,1.17.82C103.29,57.87,109,61.13,114.14,61.77Z"/><path class="cls-5" d="M114.14,61.77l-.78,4.85c-4.19-1.87-11.6-5.86-14.93-12.08l1.17.82C103.29,57.87,109,61.13,114.14,61.77Z"/><path class="cls-2" d="M129.74,41.83l-.63,3.09c-.22,1.06-.43,2.06-.64,3-1.54,7.07-2.82,10.86-4.88,12.27-10.43,7.18-27.4-7.35-27.95-7.81v0c0-.83,0-1.66,0-2.47a64,64,0,0,1,3.16-18.77,14.39,14.39,0,0,1,12-12.18c6.46-1,11.32,2.77,14.36,4.42C129.74,25.86,131.53,32.81,129.74,41.83Z"/><path class="cls-5" d="M99.14,24.71s7.3-14,21.86-10.12,15.34,10.68,15.59,14.06S129.05,26,129.05,26s-.26,6.76-2.86,4.68c-3.19-2.56-6.76-8.07-6.76-8.07s-8.67,8.52-16.91,6.22C97.84,27.57,99.14,24.71,99.14,24.71Z"/><path class="cls-10" d="M117,55.6a4.86,4.86,0,0,1-3.25-1.38.52.52,0,0,1,.74-.72,3.61,3.61,0,0,0,3.55.88.52.52,0,0,1,.34,1A4.18,4.18,0,0,1,117,55.6Z"/><path class="cls-9" d="M112.67,47.1s7,2.08,10.66,2.08c0,0-1.82,5.2-7,3.38A5.35,5.35,0,0,1,112.67,47.1Z"/><path class="cls-5" d="M125.71,32.48s-1.83-.18-1.53,1.58,4.25.69,6.2,4.23C130.38,38.29,132.27,34.58,125.71,32.48Z"/><path class="cls-5" d="M117.6,30.84s1.75.54.79,2.05-4.18-1-7.36,1.48C111,34.37,110.73,30.21,117.6,30.84Z"/><path class="cls-10" d="M114.43,43.51c-.17.83-2,1.16-4.14.73s-3.7-1.45-3.53-2.29,2-1.16,4.14-.73S114.6,42.67,114.43,43.51Z"/><path class="cls-9" d="M135.16,44.06l-5.67-1a5.59,5.59,0,0,1-.15.71.42.42,0,0,1,0,.12l5.71,1a.42.42,0,0,0,.49-.34A.41.41,0,0,0,135.16,44.06Z"/><path class="cls-9" d="M120,39.22a8.3,8.3,0,0,0,0-.87,7.23,7.23,0,0,0-1.91-4.06,7.15,7.15,0,0,0-3.67-2.07h-.07a7.14,7.14,0,0,0-7.94,4,5.36,5.36,0,0,0-.3.79,6.21,6.21,0,0,0-.2.74A7,7,0,0,0,106.8,43a6.87,6.87,0,0,0,1.13,1.4,7,7,0,0,0,3.5,1.85,7.15,7.15,0,0,0,8.44-5.55v0A6.83,6.83,0,0,0,120,39.22Zm-8.42,6.15-.1,0a6.31,6.31,0,0,1-4.79-7.42A5.84,5.84,0,0,1,107,37s0,0,0-.06a6.3,6.3,0,0,1,5.5-4,5.8,5.8,0,0,1,1.65.12,6.2,6.2,0,0,1,3.07,1.61,6.3,6.3,0,0,1-5.62,10.72Z"/><path class="cls-9" d="M132.72,36.29l-.59-.28c-.24-.09-.49-.18-.75-.25l-.53-.14a7.16,7.16,0,0,0-1-.13,6.74,6.74,0,0,0-1.19,0,7.31,7.31,0,0,0-3,1.05,7.16,7.16,0,0,0-2.44,2.54,6.46,6.46,0,0,0-.4.84.08.08,0,0,0,0,0,7.8,7.8,0,0,0-.36,1.19,7.15,7.15,0,0,0,2.63,7.1,6.9,6.9,0,0,0,2.32,1.19l.4.11.2,0a6.79,6.79,0,0,0,2,.13l.32,0a6.68,6.68,0,0,0,.87-.17,6.46,6.46,0,0,0,1.53-.59,7.15,7.15,0,0,0,0-12.65Zm2.85,7.6c0,.14-.06.27-.1.4a5.22,5.22,0,0,1-.18.56,6.39,6.39,0,0,1-3.94,3.76,6.86,6.86,0,0,1-.92.22l-.27,0a6.39,6.39,0,0,1-2-.08l-.19,0-.11,0a6.28,6.28,0,0,1-2.64-1.43l-.31-.3a6.27,6.27,0,0,1-1.64-5.65,6.58,6.58,0,0,1,.44-1.34,6.28,6.28,0,0,1,3.06-3.08,6.21,6.21,0,0,1,2.67-.6l.46,0a7.5,7.5,0,0,1,.81.11,5.47,5.47,0,0,1,.58.15,7,7,0,0,1,.76.29c.19.09.38.18.57.29A6.32,6.32,0,0,1,135.57,43.89Z"/><path class="cls-9" d="M97.35,37.51l-.15,0a.43.43,0,0,1-.12-.59c2.84-4.44,9.66-.45,9.73-.41A.42.42,0,0,1,107,37a.43.43,0,0,1-.58.15c-.06,0-6.19-3.61-8.59.14A.42.42,0,0,1,97.35,37.51Z"/><path class="cls-9" d="M123.09,40.18a.39.39,0,0,1-.27-.18c-.91-1.4-2.85-.77-2.87-.77a.42.42,0,0,1-.54-.26.43.43,0,0,1,.27-.54,3.35,3.35,0,0,1,3.85,1.11.41.41,0,0,1-.13.58A.35.35,0,0,1,123.09,40.18Z"/><g class="cls-11"><path class="cls-10" d="M129.11,44.92c-.22,1.06-.43,2.06-.64,3-1.93-.47-3.32-1.42-3.16-2.21S127.14,44.59,129.11,44.92Z"/></g><path class="cls-5" d="M115.92,39.32c-.23,1.14-.94,2-1.58,1.84s-1-1.17-.74-2.31.94-2,1.58-1.84S116.16,38.17,115.92,39.32Z"/><path class="cls-5" d="M127.26,41.62c-.23,1.14-.94,2-1.58,1.84s-1-1.17-.74-2.32.94-2,1.58-1.84S127.5,40.47,127.26,41.62Z"/><path class="cls-5" d="M121.41,44.69a3.71,3.71,0,0,0,1,.09.44.44,0,0,0,.35-.17.49.49,0,0,0,.1-.37l-.73-5.35a.48.48,0,0,0-.95.13l.65,4.76A3.83,3.83,0,0,1,120,43a.47.47,0,0,0-.67.06.48.48,0,0,0,.06.68A4.67,4.67,0,0,0,121.41,44.69Z"/><path class="cls-5" d="M100.31,48.48c-.08.12-2.29,3.31-4.67,3.9h0v0c0-.83,0-1.66,0-2.47A8.83,8.83,0,0,0,100.31,48.48Z"/><path class="cls-2" d="M99.83,40.1S96.49,33,92.15,37.17C88.58,40.59,91.7,52,97.9,49.59Z"/><path class="cls-4" d="M91.62,46.2a6.19,6.19,0,0,0-4.09,4.5A5.88,5.88,0,1,0,96.61,47a5.71,5.71,0,0,0-2.16-.91h0a.94.94,0,0,0,.16,1,5.06,5.06,0,0,1,1.73.84,5,5,0,1,1-7.87,3,4.82,4.82,0,0,1,3.66-3.77Z"/><path class="cls-5" d="M97.65,47.61h0a.49.49,0,0,0,.53-.44A9,9,0,0,0,94.5,39a.47.47,0,0,0-.66.13.47.47,0,0,0,.14.67h0a8.06,8.06,0,0,1,3.29,7.28A.47.47,0,0,0,97.65,47.61Z"/><path class="cls-5" d="M93.83,43.86a.51.51,0,0,0,.32,0c.47-.25,1.88-.82,2.65-.44a.5.5,0,0,0,.65-.23.49.49,0,0,0-.23-.64c-1.34-.65-3.3.34-3.52.45a.48.48,0,0,0-.2.65A.46.46,0,0,0,93.83,43.86Z"/><path class="cls-5" d="M104.13,28.08S99.64,40.27,99.4,42.73c-.34,3.35-4.77-8.13-.31-17.93Z"/><path class="cls-5" d="M179.14,286.53H160.66s-4.28-20.52-5.72-32-2.18-38.79-2.18-38.79-14.73,4.79-45.57,3c-68.33-4-42.42-54.19-42.42-54.19,2.31,3.19,19.63,7.58,29.29,9.11,29.67,2.84,52.22,7.88,67.66,14.54a77.48,77.48,0,0,1,9.92,5.09c3.72,2.29,6.05,9.26,7.45,18.41C183.31,239.18,179.14,286.53,179.14,286.53Z"/><path class="cls-6" d="M163,276.64a.65.65,0,0,1-.65-.53c-2.66-13.2-3.56-29.63-4.28-42.83-.6-10.94-1.16-21.28-2.57-22.53-1.13-1-5.86-.22-11.85.78-11.91,2-29.91,5-49.75.34-10.81-2.51-18.76-7.76-23.63-15.6-8.38-13.53-4.56-30.29-4.52-30.46a.65.65,0,0,1,.8-.49.66.66,0,0,1,.49.79c0,.17-3.73,16.42,4.37,29.47,4.67,7.52,12.34,12.57,22.79,15,19.59,4.56,37.43,1.6,49.23-.36,7.07-1.17,11.34-1.88,13-.46s2.23,9.1,3,23.45c.72,13.16,1.61,29.53,4.26,42.64a.66.66,0,0,1-.52.78Z"/><path class="cls-6" d="M179.5,277h0l-20.56-.44a.66.66,0,0,1-.64-.68.64.64,0,0,1,.67-.64l20.56.44a.66.66,0,0,1,.65.67A.67.67,0,0,1,179.5,277Z"/><polygon class="cls-2" points="178.63 310.21 165.59 310.21 163.07 294.91 161.7 286.53 177.91 286.53 178.16 294.91 178.63 310.21"/><polygon class="cls-4" points="178.63 310.21 165.59 310.21 163.71 298.82 163.07 294.91 178.16 294.91 178.29 298.96 178.63 310.21"/><polygon class="cls-3" points="178.29 298.96 163.71 298.82 163.07 294.91 178.16 294.91 178.29 298.96"/><path class="cls-7" d="M210.83,330.82H161.48a6.77,6.77,0,0,1-.65-2.74c-.31-4.17,1-10.84,1.68-15,.08-.49.14-.94.2-1.36a14.44,14.44,0,0,0,.14-1.72c0-3.42,3-2.84,3-2.84,5,4.9,10.65-2.44,14,0l.43.33,1.29,1.05c.84.7,2,1.72,3.62,3.16,3.91,3.53,10.58,5.85,16.25,8.23.73.3,1.4.6,2,.9s.92.46,1.34.69c4.64,2.5,6.11,4.89,6.45,6.63A3.84,3.84,0,0,1,210.83,330.82Z"/><path class="cls-8" d="M204.79,321.45c-1.27,1-4.1,3-6.37,3h-.29c-1.61-.13-7.49-3-12.27-5.65-2.74-1.51-5.25-3-7.05-4.18-2.95-1.95-3.47-2.69-3.58-3.21-.43-1.95,2.79-3.31,5-4l1.29,1.05c-2.81.76-5.11,2-5,2.65.27.57,3.19,2.8,10.18,6.62,5.32,2.92,10.38,5.28,11.5,5.37,1.52.12,3.75-1.26,5.21-2.35C203.92,321,204.37,321.22,204.79,321.45Z"/><path class="cls-8" d="M210.83,330.82H161.48a6.77,6.77,0,0,1-.65-2.74h50.41A3.84,3.84,0,0,1,210.83,330.82Z"/><path class="cls-8" d="M166.52,330.82h-1.47a10.83,10.83,0,0,0,2.65-7.9,14,14,0,0,0-5.19-9.88c.08-.49.14-.94.2-1.36a15.14,15.14,0,0,1,6.17,11.18A12,12,0,0,1,166.52,330.82Z"/><path class="cls-9" d="M184.34,314.54a.81.81,0,0,1-.19-1.6l3.08-.77a.81.81,0,0,1,1,.6.8.8,0,0,1-.59,1l-3.08.77Z"/><path class="cls-9" d="M181.28,312a.82.82,0,0,1-.2-1.61l3.09-.76a.81.81,0,0,1,.39,1.58l-3.09.76A.63.63,0,0,1,181.28,312Z"/><path class="cls-9" d="M187.42,316.33a.8.8,0,0,1-.78-.61.81.81,0,0,1,.59-1l3.08-.76a.81.81,0,1,1,.39,1.58l-3.08.76A.65.65,0,0,1,187.42,316.33Z"/><path class="cls-9" d="M190.51,318.06a.82.82,0,0,1-.2-1.61l3.08-.76a.81.81,0,1,1,.4,1.58l-3.09.76A.63.63,0,0,1,190.51,318.06Z"/><path class="cls-9" d="M193.87,319.65a.81.81,0,0,1-.2-1.6l3.09-.77a.81.81,0,0,1,.39,1.58l-3.08.77Z"/><path class="cls-9" d="M197.51,321a.81.81,0,0,1-.78-.62.8.8,0,0,1,.59-1l3.08-.77a.81.81,0,1,1,.39,1.58l-3.08.76A.69.69,0,0,1,197.51,321Z"/><path class="cls-12" d="M247.24,163.77v4.1c0,2.36-1.42,4.27-3.18,4.27H22.59c-1.75,0-3.18-1.91-3.18-4.27v-4.1c0-2.35,1.43-4.26,3.18-4.26H244.06C245.82,159.51,247.24,161.42,247.24,163.77Z"/><rect class="cls-13" x="19.41" y="165.07" width="227.83" height="1.88"/><path class="cls-13" d="M240.59,182.67H32.41A1.68,1.68,0,0,1,30.73,181v-8.9H242.27V181A1.68,1.68,0,0,1,240.59,182.67Z"/><rect class="cls-13" x="45.07" y="234.92" width="186.17" height="7.26"/><polygon class="cls-12" points="31.65 332.11 67.69 182.67 55.03 182.67 18.99 332.11 31.65 332.11"/><polygon class="cls-12" points="244.41 332.11 208.37 182.67 221.03 182.67 257.07 332.11 244.41 332.11"/><rect class="cls-4" x="37.97" y="125.28" width="3.95" height="29.81" transform="translate(-20.77 7.67) rotate(-8.71)"/><polygon class="cls-2" points="39.64 125.15 35.73 125.75 36.59 122.76 37.04 121.22 37.93 122.56 39.64 125.15"/><rect class="cls-5" x="40.06" y="152.76" width="3.95" height="2.17" transform="translate(-22.81 8.14) rotate(-8.71)"/><path class="cls-14" d="M44.15,156.36l-3.38.52a.26.26,0,0,1-.3-.22l-.22-1.45,3.9-.6.23,1.45A.27.27,0,0,1,44.15,156.36Z"/><polygon class="cls-5" points="37.93 122.56 36.59 122.76 37.04 121.22 37.93 122.56"/><rect class="cls-3" x="39.78" y="151.23" width="3.95" height="1.55" transform="matrix(0.99, -0.15, 0.15, 0.99, -22.53, 8.07)"/><path class="cls-3" d="M36.93,127.05l3.34,21.82a.3.3,0,0,0,.34.25h0a.3.3,0,0,0,.26-.34L37.52,127a.29.29,0,0,0-.34-.25h0A.28.28,0,0,0,36.93,127.05Z"/><path class="cls-3" d="M38.45,126.81l3.35,21.82a.3.3,0,0,0,.34.26h0a.3.3,0,0,0,.25-.35l-3.34-21.82a.3.3,0,0,0-.34-.25h0A.31.31,0,0,0,38.45,126.81Z"/><rect class="cls-12" x="42.8" y="125.29" width="3.95" height="29.81" transform="translate(-0.46 0.15) rotate(-0.19)"/><polygon class="cls-2" points="46.71 125.28 42.75 125.3 44.05 122.47 44.72 121.01 45.4 122.47 46.71 125.28"/><rect class="cls-5" x="42.85" y="152.93" width="3.95" height="2.17" transform="translate(-0.51 0.15) rotate(-0.19)"/><path class="cls-14" d="M46.55,156.82H43.12a.27.27,0,0,1-.27-.26V155.1H46.8v1.47A.26.26,0,0,1,46.55,156.82Z"/><polygon class="cls-5" points="45.4 122.47 44.05 122.47 44.72 121.01 45.4 122.47"/><rect class="cls-13" x="42.84" y="151.38" width="3.95" height="1.55" transform="translate(-0.5 0.15) rotate(-0.19)"/><path class="cls-13" d="M43.74,126.76l.07,22.08a.31.31,0,0,0,.31.3h0a.31.31,0,0,0,.3-.31l-.08-22.07a.29.29,0,0,0-.3-.3h0A.3.3,0,0,0,43.74,126.76Z"/><path class="cls-13" d="M45.29,126.76l.07,22.07a.3.3,0,0,0,.3.3h0a.3.3,0,0,0,.3-.3l-.07-22.08a.31.31,0,0,0-.3-.3h0A.3.3,0,0,0,45.29,126.76Z"/><rect class="cls-7" x="34.57" y="138.2" width="29.81" height="3.95" transform="translate(-96.27 169.45) rotate(-81.91)"/><polygon class="cls-2" points="53.53 125.7 49.61 125.15 51.3 122.54 52.17 121.19 52.63 122.73 53.53 125.7"/><rect class="cls-5" x="45.55" y="152.78" width="3.95" height="2.17" transform="translate(22.11 -5.16) rotate(8.09)"/><path class="cls-14" d="M48.83,156.89l-3.39-.48a.25.25,0,0,1-.22-.3l.2-1.45,3.92.56-.21,1.44A.26.26,0,0,1,48.83,156.89Z"/><polygon class="cls-5" points="52.63 122.73 51.3 122.54 52.17 121.19 52.63 122.73"/><rect class="cls-8" x="47.02" y="150.05" width="1.55" height="3.95" transform="translate(-109.44 177.95) rotate(-81.91)"/><path class="cls-8" d="M50.38,126.74l-3.1,21.86a.3.3,0,0,0,.25.34h0a.3.3,0,0,0,.34-.26L51,126.83a.31.31,0,0,0-.26-.35h0A.31.31,0,0,0,50.38,126.74Z"/><path class="cls-8" d="M51.91,127l-3.1,21.85a.29.29,0,0,0,.25.34h0a.29.29,0,0,0,.34-.25L52.51,127a.3.3,0,0,0-.26-.34h0A.3.3,0,0,0,51.91,127Z"/><polygon class="cls-14" points="54.81 137.07 54.61 138.67 54.42 140.13 54.13 142.33 53.95 143.77 53.66 145.99 53.48 147.41 53.19 149.65 53.01 151.05 52.72 153.31 52.54 154.69 52.24 156.97 52.07 158.33 51.92 159.51 36.38 159.51 36.23 158.33 36.05 156.97 35.76 154.69 35.58 153.31 35.29 151.05 35.1 149.65 34.82 147.41 34.63 145.99 34.34 143.77 34.16 142.33 33.88 140.13 33.69 138.67 33.48 137.07 54.81 137.07"/><polygon class="cls-15" points="54.61 138.67 54.42 140.13 33.88 140.13 33.69 138.67 54.61 138.67"/><polygon class="cls-15" points="54.13 142.33 53.95 143.77 34.34 143.77 34.16 142.33 54.13 142.33"/><polygon class="cls-15" points="53.66 145.99 53.48 147.41 34.82 147.41 34.63 145.99 53.66 145.99"/><polygon class="cls-15" points="53.19 149.65 53.01 151.05 35.29 151.05 35.1 149.65 53.19 149.65"/><polygon class="cls-15" points="52.72 153.31 52.54 154.69 35.76 154.69 35.58 153.31 52.72 153.31"/><polygon class="cls-15" points="52.24 156.97 52.07 158.33 36.23 158.33 36.05 156.97 52.24 156.97"/><path class="cls-5" d="M246,80.25l-13.25,56-.35,1.47-.89,3.78a3.62,3.62,0,0,1-3.52,2.79H138.68a3.62,3.62,0,0,1-3.53-4.46l14.49-61.28a3.64,3.64,0,0,1,3.53-2.79h89.26A3.62,3.62,0,0,1,246,80.25Z"/><polygon class="cls-6" points="232.7 136.29 232.35 137.76 139.67 137.76 139.67 136.29 232.7 136.29"/><path class="cls-6" d="M202.58,112.46a8,8,0,0,1-7.76,7,6.14,6.14,0,0,1-6.21-7,8,8,0,0,1,7.75-7A6.14,6.14,0,0,1,202.58,112.46Z"/><path class="cls-6" d="M156.7,75.8l-15.43,68.53h-2.59a3.63,3.63,0,0,1-3.53-4.46l14.49-61.28a3.64,3.64,0,0,1,3.53-2.79Z"/><polygon class="cls-9" points="182.56 144.32 179.85 159.55 188.79 159.55 191.5 144.32 182.56 144.32"/><path class="cls-9" d="M166.46,156.93l1.84-2.57a3.48,3.48,0,0,1,2.84-1.47h24.52a3.48,3.48,0,0,1,3.08,1.87l1.24,2.37a1.65,1.65,0,0,1-1.47,2.42H167.82A1.66,1.66,0,0,1,166.46,156.93Z"/><path class="cls-9" d="M115.37,159.55H189l.8-2.78a2.72,2.72,0,0,0-2.62-3.49h-68a2.73,2.73,0,0,0-2.63,2Z"/></g></g></svg>