<svg xmlns="http://www.w3.org/2000/svg" viewBox="0 0 562.6 401.53"><defs><style>.cls-1{fill:#ccd3e6;}.cls-2{fill:#363638;}.cls-3{fill:#575759;}.cls-4{fill:#00b570;}.cls-5{fill:#0076fa;}.cls-6{fill:#004ecb;}.cls-7{fill:#fff;}</style></defs><g id="Layer_2" data-name="Layer 2"><g id="Layer_1-2" data-name="Layer 1"><ellipse class="cls-1" cx="522.14" cy="397.53" rx="40.45" ry="4"/><rect class="cls-2" x="494.08" y="364.31" width="54.59" height="4.32" rx="2.16"/><rect class="cls-3" x="494.98" y="316.4" width="52.9" height="9.13" rx="1.5"/><path class="cls-4" d="M508.26,277.53s-21-4.16-26.91-18.84S497,233,508.26,240.89C520.37,249.32,508.26,277.53,508.26,277.53Z"/><path class="cls-2" d="M520.77,316.1a.38.38,0,0,1-.37-.33c-2-13.63-10.14-33.25-16.6-47.3-7-15.25-13.62-27.41-13.69-27.53a.38.38,0,1,1,.67-.37c.07.13,6.69,12.31,13.71,27.58,6.48,14.1,14.63,33.79,16.66,47.51a.38.38,0,0,1-.32.43Z"/><path class="cls-2" d="M507.47,276.11a.38.38,0,0,1-.33-.2c-9.15-17-24-29.41-24.17-29.53a.38.38,0,0,1,.49-.59c.15.12,15.12,12.58,24.35,29.76a.38.38,0,0,1-.16.52A.39.39,0,0,1,507.47,276.11Z"/><path class="cls-2" d="M507.89,277.33a.36.36,0,0,1-.29-.13,73,73,0,0,0-18.07-15.45,44.77,44.77,0,0,0-8.38-4.05.39.39,0,0,1-.25-.48.39.39,0,0,1,.48-.25,45.81,45.81,0,0,1,8.51,4.11,73.56,73.56,0,0,1,18.29,15.63.38.38,0,0,1-.05.53A.36.36,0,0,1,507.89,277.33Z"/><path class="cls-2" d="M506,272.87a.38.38,0,0,1-.36-.26c-5.13-15.06-3.25-33.36-3.23-33.54a.39.39,0,0,1,.42-.34.38.38,0,0,1,.34.42c0,.18-1.89,18.32,3.19,33.21a.38.38,0,0,1-.24.48A.27.27,0,0,1,506,272.87Z"/><path class="cls-2" d="M507.33,275.85a.39.39,0,0,1-.38-.32,53,53,0,0,1,.93-22.15A35.19,35.19,0,0,1,511.1,245a.38.38,0,0,1,.65.39,35.11,35.11,0,0,0-3.15,8.18,52.43,52.43,0,0,0-.9,21.8.37.37,0,0,1-.31.44Z"/><path class="cls-4" d="M530.46,281.37s21.25-2.91,28-17.21-14.05-26.57-25.81-19.37C520,252.49,530.46,281.37,530.46,281.37Z"/><path class="cls-2" d="M522.4,314.85h0a.37.37,0,0,1-.37-.38c.08-7,1.61-15,4.55-23.78a155.63,155.63,0,0,1,9.64-22.25,203.55,203.55,0,0,1,13.9-22.95.38.38,0,1,1,.62.44,203.48,203.48,0,0,0-13.85,22.87c-6.33,12.15-13.92,29.94-14.1,45.67A.39.39,0,0,1,522.4,314.85Z"/><path class="cls-2" d="M531.35,280a.39.39,0,0,1-.2-.06.37.37,0,0,1-.12-.52c10.22-16.61,25.91-28.16,26.07-28.27a.37.37,0,0,1,.53.08.38.38,0,0,1-.09.53c-.15.12-15.72,11.58-25.86,28.06A.41.41,0,0,1,531.35,280Z"/><path class="cls-2" d="M530.87,281.19a.39.39,0,0,1-.27-.1.38.38,0,0,1,0-.54A73.52,73.52,0,0,1,549.77,266a45.71,45.71,0,0,1,8.74-3.6.39.39,0,0,1,.46.28.38.38,0,0,1-.27.46,45.09,45.09,0,0,0-8.61,3.55,73.27,73.27,0,0,0-19,14.35A.36.36,0,0,1,530.87,281.19Z"/><path class="cls-2" d="M533,276.84l-.15,0a.37.37,0,0,1-.2-.49c5.94-14.57,5.15-32.79,5.14-33a.38.38,0,0,1,.36-.4.39.39,0,0,1,.4.37c0,.18.81,18.56-5.2,33.28A.38.38,0,0,1,533,276.84Z"/><path class="cls-2" d="M531.51,279.74h-.08a.39.39,0,0,1-.29-.46,52.19,52.19,0,0,0,.39-21.81,34.67,34.67,0,0,0-2.66-8.35.39.39,0,0,1,.17-.52.39.39,0,0,1,.51.17,34.45,34.45,0,0,1,2.72,8.52,52.83,52.83,0,0,1-.39,22.16A.37.37,0,0,1,531.51,279.74Z"/><path class="cls-4" d="M522.28,253.69s-18-11.66-18-27.47,24-18.09,31.59-6.57C544,232,522.28,253.69,522.28,253.69Z"/><path class="cls-2" d="M519.76,294.17h-.09a.38.38,0,0,1-.28-.46c3.17-13.41,2.89-34.64,2.09-50.09-.86-16.75-2.5-30.5-2.51-30.64a.37.37,0,0,1,.33-.42.37.37,0,0,1,.42.33c0,.14,1.66,13.91,2.52,30.69.8,15.5,1.09,36.81-2.11,50.31A.38.38,0,0,1,519.76,294.17Z"/><path class="cls-2" d="M522.21,252.1a.38.38,0,0,1-.38-.34c-2.19-19.22-11.41-36.21-11.51-36.38a.39.39,0,0,1,.15-.52.39.39,0,0,1,.52.15c.09.18,9.39,17.29,11.6,36.67a.39.39,0,0,1-.34.42Z"/><path class="cls-2" d="M522.14,253.39a.38.38,0,0,1-.36-.26,73.09,73.09,0,0,0-11.06-21,44.8,44.8,0,0,0-6.29-6.86.38.38,0,1,1,.49-.59,44.81,44.81,0,0,1,6.39,7,73.56,73.56,0,0,1,11.19,21.29.38.38,0,0,1-.24.48Z"/><path class="cls-2" d="M522.08,248.55h0a.38.38,0,0,1-.36-.4c.81-15.88,9.34-32.18,9.42-32.34a.38.38,0,1,1,.67.35c-.08.16-8.53,16.32-9.33,32A.38.38,0,0,1,522.08,248.55Z"/><path class="cls-2" d="M522.17,251.8h-.08a.39.39,0,0,1-.29-.45A53.63,53.63,0,0,1,530.88,231a36.34,36.34,0,0,1,6.11-6.66.37.37,0,0,1,.53.07.38.38,0,0,1-.06.53,36.06,36.06,0,0,0-6,6.53,53,53,0,0,0-8.94,20A.37.37,0,0,1,522.17,251.8Z"/><path class="cls-5" d="M544.27,292.12l-.63,1.67-.39,1-1.14,3-.4,1.05L540.54,302l-.39,1.05-5,13.32h-27.4l-5-13.32-.39-1.05-1.17-3.11-.4-1.05-1.14-3-.4-1-.62-1.67a1.74,1.74,0,0,1,1.63-2.36h42.42A1.74,1.74,0,0,1,544.27,292.12Z"/><polygon class="cls-6" points="543.64 293.79 543.25 294.84 499.61 294.84 499.21 293.79 543.64 293.79"/><polygon class="cls-6" points="542.11 297.87 541.71 298.92 501.15 298.92 500.75 297.87 542.11 297.87"/><polygon class="cls-6" points="540.54 302.02 540.15 303.08 502.71 303.08 502.32 302.02 540.54 302.02"/><polygon class="cls-2" points="514.09 325.53 512.57 330.43 491.42 398.61 487.28 398.61 500.7 331.82 501.96 325.53 514.09 325.53"/><polygon class="cls-2" points="555.7 398.61 551.57 398.61 529.79 328.41 528.89 325.53 541.02 325.53 541.33 327.06 541.33 327.06 555.7 398.61"/><rect class="cls-3" x="494.08" y="354.9" width="54.59" height="4.32" rx="2.16"/><ellipse class="cls-1" cx="27.12" cy="30.26" rx="27.12" ry="26.78"/><ellipse class="cls-5" cx="27.12" cy="26.78" rx="27.12" ry="26.78"/><ellipse class="cls-7" cx="27.12" cy="26.78" rx="22.04" ry="21.77"/><path class="cls-1" d="M49.16,26.78c0,.58,0,1.15-.07,1.72a22.07,22.07,0,0,0-43.95,0c0-.57-.07-1.14-.07-1.72a22,22,0,0,1,44.09,0Z"/><path class="cls-2" d="M27.12,29a.55.55,0,0,1-.45-.22L15.86,14.45a.55.55,0,0,1,.11-.77.55.55,0,0,1,.77.12l10.56,14,12-5.2a.55.55,0,1,1,.44,1L27.34,29A.57.57,0,0,1,27.12,29Z"/></g></g></svg>