<svg xmlns="http://www.w3.org/2000/svg" viewBox="0 0 29.24 29.24"><defs><style>.cls-1{fill:#0067ff;}.cls-2{fill:#fff;}</style></defs><g id="Layer_2" data-name="Layer 2"><g id="Layer_1-2" data-name="Layer 1"><rect class="cls-1" width="29.24" height="29.24" rx="2.08"/><path class="cls-2" d="M12.88,13.51a3.72,3.72,0,0,0,.6-2.11A3.81,3.81,0,0,0,9.65,7.69H3.86a.49.49,0,0,0-.49.49V20.9a.49.49,0,0,0,.49.49h6.47a4.36,4.36,0,0,0,4.39-4.32,4.31,4.31,0,0,0-1.84-3.56Zm-7-3.29H9.7a1.25,1.25,0,1,1,0,2.49H5.91Zm4.47,8.63H5.91v-3.6h4.47a1.8,1.8,0,1,1,0,3.6Z"/><path class="cls-2" d="M25.85,16.17a5.21,5.21,0,1,0-5.21,5.37A5.15,5.15,0,0,0,25,19.15a5.45,5.45,0,0,0,.33-.58.22.22,0,0,0-.2-.31H22.54a.2.2,0,0,0-.15.06,2.42,2.42,0,0,1-1.75.69A2.71,2.71,0,0,1,18,16.78h7.3a.51.51,0,0,0,.51-.51Zm-5.21-2.84a2.64,2.64,0,0,1,2.23,1.28H18.41a2.64,2.64,0,0,1,2.23-1.28Z"/><path class="cls-2" d="M22.8,10.16H18.19a.38.38,0,0,1-.39-.39V8.62a.38.38,0,0,1,.39-.39H22.8a.38.38,0,0,1,.39.39V9.77a.38.38,0,0,1-.39.39Z"/></g></g></svg>