<svg xmlns="http://www.w3.org/2000/svg" xmlns:xlink="http://www.w3.org/1999/xlink" viewBox="0 0 148.97 100.91"><defs><style>.cls-1{fill:#fff;}.cls-2{clip-path:url(#clip-path);}.cls-3{clip-path:url(#clip-path-2);}.cls-4{clip-path:url(#clip-path-3);}.cls-5{clip-path:url(#clip-path-4);}</style><clipPath id="clip-path"><path class="cls-1" d="M141.76,0H7.21A7.21,7.21,0,0,0,0,7.21V93.7a7.21,7.21,0,0,0,7.21,7.21H141.76A7.21,7.21,0,0,0,149,93.7V7.21A7.21,7.21,0,0,0,141.76,0ZM4.81,81.69V19.22H144.16V81.69Zm137-76.88a2.4,2.4,0,0,1,2.4,2.4v7.21H124.94V4.81Zm-21.63,0v9.61H100.91V4.81Zm-24,0v9.61H76.89V4.81Zm-24,0v9.61H52.86V4.81Zm-24,0v9.61H28.83V4.81ZM4.81,7.21a2.39,2.39,0,0,1,2.4-2.4H24v9.61H4.81Zm2.4,88.9a2.4,2.4,0,0,1-2.4-2.41V86.5H24v9.61Zm21.62,0V86.5H48.05v9.61Zm24,0V86.5H72.08v9.61Zm24,0V86.5H96.11v9.61Zm24,0V86.5h19.22v9.61Zm43.25-2.41a2.41,2.41,0,0,1-2.4,2.41H124.94V86.5h19.22Z"/></clipPath><clipPath id="clip-path-2"><path class="cls-1" d="M90.79,48.44,68.58,34a2.41,2.41,0,0,0-3.71,2V64.87a2.41,2.41,0,0,0,3.71,2L90.79,52.47a2.4,2.4,0,0,0,0-4Zm-21.11,12v-20l15.39,10Z"/></clipPath><clipPath id="clip-path-3"><path class="cls-1" d="M33.64,74.48h-24a2.41,2.41,0,0,0,0,4.81h24a2.41,2.41,0,0,0,0-4.81Z"/></clipPath><clipPath id="clip-path-4"><path class="cls-1" d="M43.25,74.48h-2.4a2.41,2.41,0,1,0,0,4.81h2.4a2.41,2.41,0,0,0,0-4.81Z"/></clipPath></defs><g id="Layer_2" data-name="Layer 2"><g id="Layer_1-2" data-name="Layer 1"><path class="cls-1" d="M141.76,0H7.21A7.21,7.21,0,0,0,0,7.21V93.7a7.21,7.21,0,0,0,7.21,7.21H141.76A7.21,7.21,0,0,0,149,93.7V7.21A7.21,7.21,0,0,0,141.76,0ZM4.81,81.69V19.22H144.16V81.69Zm137-76.88a2.4,2.4,0,0,1,2.4,2.4v7.21H124.94V4.81Zm-21.63,0v9.61H100.91V4.81Zm-24,0v9.61H76.89V4.81Zm-24,0v9.61H52.86V4.81Zm-24,0v9.61H28.83V4.81ZM4.81,7.21a2.39,2.39,0,0,1,2.4-2.4H24v9.61H4.81Zm2.4,88.9a2.4,2.4,0,0,1-2.4-2.41V86.5H24v9.61Zm21.62,0V86.5H48.05v9.61Zm24,0V86.5H72.08v9.61Zm24,0V86.5H96.11v9.61Zm24,0V86.5h19.22v9.61Zm43.25-2.41a2.41,2.41,0,0,1-2.4,2.41H124.94V86.5h19.22Z"/><g class="cls-2"><rect class="cls-1" width="148.97" height="100.91"/></g><path class="cls-1" d="M90.79,48.44,68.58,34a2.41,2.41,0,0,0-3.71,2V64.87a2.41,2.41,0,0,0,3.71,2L90.79,52.47a2.4,2.4,0,0,0,0-4Zm-21.11,12v-20l15.39,10Z"/><g class="cls-3"><rect class="cls-1" x="64.87" y="33.64" width="27.1" height="33.64"/></g><path class="cls-1" d="M33.64,74.48h-24a2.41,2.41,0,0,0,0,4.81h24a2.41,2.41,0,0,0,0-4.81Z"/><g class="cls-4"><rect class="cls-1" x="7.21" y="74.48" width="28.83" height="4.81"/></g><path class="cls-1" d="M43.25,74.48h-2.4a2.41,2.41,0,1,0,0,4.81h2.4a2.41,2.41,0,0,0,0-4.81Z"/><g class="cls-5"><rect class="cls-1" x="38.44" y="74.48" width="7.21" height="4.81"/></g></g></g></svg>