<svg xmlns="http://www.w3.org/2000/svg" viewBox="0 0 512.76 512.76"><defs><style>.cls-1{isolation:isolate;}.cls-2{fill:#858585;opacity:0.2;mix-blend-mode:multiply;}.cls-3{fill:#21a8ee;}.cls-4{opacity:0.1;}.cls-5{fill:#1a1a1a;}</style></defs><g class="cls-1"><g id="Layer_2" data-name="Layer 2"><g id="Layer_1-2" data-name="Layer 1"><path class="cls-2" d="M248.61,187.75H37.55A37.55,37.55,0,0,0,0,225.3V475.21a37.55,37.55,0,0,0,37.55,37.55H287.46A37.55,37.55,0,0,0,325,475.21V264.15a37.55,37.55,0,0,1,37.55-37.55H475.21a37.55,37.55,0,0,0,37.55-37.55V37.55A37.55,37.55,0,0,0,475.21,0H323.71a37.55,37.55,0,0,0-37.55,37.55V150.2A37.55,37.55,0,0,1,248.61,187.75Z"/><path class="cls-3" d="M260.16,202.5H63.4a35,35,0,0,0-35,35v233a35,35,0,0,0,35,35h233a35,35,0,0,0,35-35V273.72a35,35,0,0,1,35-35h105a35,35,0,0,0,35-35V62.48a35,35,0,0,0-35-35H330.17a35,35,0,0,0-35,35v105A35,35,0,0,1,260.16,202.5Z"/><g class="cls-4"><path class="cls-5" d="M63.4,505.49h3.07a34.89,34.89,0,0,1-11.62-26v-233a35,35,0,0,1,35-35H286.61a35,35,0,0,0,35-35v-105a35,35,0,0,1,35-35H494.79a34.79,34.79,0,0,0-23.39-9H330.17a35,35,0,0,0-35,35v105a35,35,0,0,1-35,35H63.4a35,35,0,0,0-35,35v233A35,35,0,0,0,63.4,505.49Z"/></g></g></g></g></svg>