<svg xmlns="http://www.w3.org/2000/svg" viewBox="0 0 1125 813" width="1125" height="813">
	<style>
		tspan { white-space:pre }
		.txt0 { font-size: 36px;fill: #ffffff;font-weight: 300;font-family: "Calibri" } 
		.txt1 { font-size: 36px;fill: #f05a24;font-weight: 300;font-family: "Calibri" } 
		.shp2 { opacity: 0.2;mix-blend-mode: multiply;fill: #858585 } 
		.shp3 { fill: #ff931e } 
		.shp4 { fill: #f38c1d } 
		.shp5 { fill: #1b88c1 } 
		.shp6 { fill: #1d91cd } 
		.shp7 { fill: #21a8ee } 
		.shp8 { fill: #1a1a1a } 
		.shp9 { fill: #ffffff } 
		.shp10 { fill: #f6921e } 
		.shp11 { fill: #89d5ef } 
		.shp12 { fill: none;stroke: #ffffff;stroke-width: 4.46 } 
		.shp13 { fill: none;stroke: #fca566;stroke-linecap:round;stroke-linejoin:round;stroke-width: 4.46 } 
		.shp14 { fill: none;stroke: #ffffff;stroke-linecap:round;stroke-linejoin:round;stroke-width: 2.08 } 
		.shp15 { fill: none;stroke: #ff921e;stroke-linecap:round;stroke-linejoin:round;stroke-width: 2.08 } 
		.shp16 { fill: none;stroke: #ffffff;stroke-linecap:round;stroke-linejoin:round;stroke-width: 4.46 } 
		.shp17 { fill: #f1f1f1 } 
	</style>
	<g id="Layer">
		<g id="Layer_2">
			<g id="Layer_1-2">
				<text id="EVALUATION" style="transform: matrix(1,0,0,1,340.46,674.56)" >
					<tspan x="0" y="0" class="txt0">EVALUATION</tspan>
				</text>
				<text id="DEVELOPMENT" style="transform: matrix(1,0,0,1,32.81,550.05)" >
					<tspan x="0" y="0" class="txt1">DEVELOPMENT</tspan>
				</text>
				<text id="IMPLEMENTATION" style="transform: matrix(1,0,0,1,804.66,711.88)" >
					<tspan x="0" y="0" class="txt0">IMPLEMENTATION</tspan>
				</text>
				<text id="ANALYSIS" style="transform: matrix(1,0,0,1,688.43,208.53)" >
					<tspan x="0" y="0" class="txt1">ANALYSIS</tspan>
				</text>
				<path id="Layer" class="shp2" d="M325.93 335.5L508.85 335.5C513.12 335.5 517.35 334.66 521.29 333.03C525.24 331.39 528.83 329 531.85 325.98C534.87 322.97 537.27 319.38 538.91 315.44C540.55 311.5 541.39 307.27 541.4 303L541.4 86.36C541.4 82.09 540.56 77.85 538.92 73.9C537.29 69.95 534.89 66.37 531.87 63.34C528.84 60.32 525.26 57.92 521.31 56.29C517.36 54.65 513.12 53.81 508.85 53.81L292.26 53.81C287.99 53.81 283.75 54.65 279.8 56.29C275.85 57.92 272.27 60.32 269.24 63.34C266.22 66.37 263.82 69.95 262.19 73.9C260.55 77.85 259.71 82.09 259.71 86.36L259.71 269.28C259.71 273.55 258.87 277.79 257.24 281.74C255.6 285.68 253.2 289.27 250.18 292.3C247.16 295.32 243.57 297.72 239.62 299.35C235.68 300.99 231.44 301.83 227.17 301.83L129.53 301.83C125.26 301.83 121.03 302.67 117.08 304.31C113.13 305.95 109.55 308.34 106.53 311.36C103.51 314.39 101.11 317.97 99.48 321.92C97.84 325.87 97 330.1 97 334.37L97 465.68C97 469.95 97.84 474.18 99.48 478.13C101.11 482.08 103.51 485.67 106.53 488.69C109.55 491.71 113.14 494.11 117.09 495.74C121.04 497.38 125.27 498.22 129.54 498.22L260.84 498.22C265.11 498.22 269.35 497.38 273.3 495.75C277.24 494.11 280.83 491.71 283.86 488.69C286.88 485.67 289.28 482.08 290.91 478.13C292.55 474.19 293.39 469.95 293.39 465.68L293.39 368C293.4 363.73 294.24 359.5 295.88 355.56C297.52 351.62 299.91 348.03 302.93 345.02C305.96 342 309.54 339.61 313.49 337.97C317.43 336.34 321.66 335.5 325.93 335.5L325.93 335.5Z" />
				<path id="Layer" class="shp3" d="M330.52 325.7L501.05 325.7C505.03 325.7 508.98 324.92 512.66 323.39C516.34 321.87 519.69 319.63 522.5 316.81C525.32 314 527.56 310.65 529.08 306.97C530.61 303.29 531.39 299.34 531.39 295.36L531.39 93.45C531.39 89.47 530.61 85.52 529.08 81.84C527.56 78.16 525.32 74.81 522.5 72C519.69 69.18 516.34 66.94 512.66 65.42C508.98 63.89 505.03 63.11 501.05 63.11L299.13 63.11C295.15 63.11 291.2 63.89 287.52 65.42C283.84 66.94 280.49 69.18 277.68 72C274.86 74.81 272.62 78.16 271.1 81.84C269.57 85.52 268.79 89.47 268.79 93.45L268.79 264C268.79 267.98 268.01 271.93 266.48 275.61C264.96 279.29 262.72 282.64 259.9 285.45C257.09 288.27 253.74 290.51 250.06 292.03C246.38 293.56 242.43 294.34 238.45 294.34L147.45 294.34C143.47 294.34 139.52 295.12 135.84 296.65C132.16 298.17 128.81 300.41 126 303.23C123.18 306.04 120.94 309.39 119.42 313.07C117.89 316.75 117.11 320.7 117.11 324.68L117.11 447.08C117.11 451.06 117.89 455.01 119.42 458.69C120.94 462.37 123.18 465.72 126 468.53C128.81 471.35 132.16 473.59 135.84 475.11C139.52 476.64 143.47 477.42 147.45 477.42L269.85 477.42C273.83 477.42 277.78 476.64 281.46 475.11C285.14 473.59 288.49 471.35 291.3 468.53C294.12 465.72 296.36 462.37 297.88 458.69C299.41 455.01 300.19 451.06 300.19 447.08L300.19 356C300.2 352.02 300.98 348.08 302.51 344.4C304.04 340.73 306.27 337.39 309.09 334.58C311.9 331.76 315.24 329.53 318.92 328.01C322.6 326.49 326.54 325.7 330.52 325.7L330.52 325.7Z" />
				<path id="Layer" class="shp4" d="M288.92 243.39L288.92 72.86C288.92 72.15 288.95 71.44 289 70.74C289.05 70.03 289.13 69.32 289.23 68.62C289.33 67.92 289.45 67.22 289.6 66.53C289.75 65.84 289.92 65.15 290.12 64.47C287.05 65.43 284.15 66.87 281.53 68.73C278.9 70.6 276.6 72.87 274.69 75.47C272.78 78.06 271.3 80.94 270.3 84C269.3 87.05 268.79 90.25 268.79 93.47L268.79 264C268.79 264.71 268.76 265.42 268.71 266.12C268.66 266.83 268.59 267.54 268.49 268.24C268.39 268.94 268.26 269.64 268.11 270.33C267.96 271.02 267.79 271.71 267.59 272.39C270.66 271.43 273.56 269.99 276.18 268.13C278.81 266.26 281.11 263.99 283.02 261.39C284.93 258.8 286.41 255.92 287.41 252.86C288.41 249.81 288.92 246.61 288.92 243.39L288.92 243.39Z" />
				<path id="Layer" class="shp4" d="M350.65 305.11C347.38 305.11 344.13 305.64 341.03 306.68C337.93 307.72 335.02 309.25 332.41 311.22C329.8 313.18 327.53 315.56 325.67 318.25C323.82 320.94 322.41 323.92 321.51 327.06C322.24 326.84 322.97 326.64 323.72 326.47C324.46 326.3 325.21 326.16 325.96 326.04C326.71 325.93 327.47 325.84 328.23 325.79C328.99 325.73 329.75 325.7 330.51 325.7L501.05 325.7C504.32 325.7 507.57 325.17 510.67 324.13C513.77 323.09 516.68 321.56 519.29 319.59C521.9 317.63 524.17 315.25 526.03 312.56C527.88 309.87 529.29 306.89 530.19 303.75C529.46 303.98 528.73 304.17 527.99 304.35C527.24 304.52 526.49 304.66 525.74 304.77C524.99 304.89 524.23 304.97 523.47 305.03C522.71 305.08 521.95 305.11 521.19 305.11L350.65 305.11Z" />
				<path id="Layer" class="shp4" d="M299 455.45C298.27 455.68 297.54 455.87 296.8 456.05C296.05 456.22 295.3 456.36 294.55 456.47C293.8 456.59 293.04 456.67 292.28 456.73C291.52 456.78 290.76 456.81 290 456.81L167.56 456.81C163.58 456.81 159.63 456.03 155.95 454.5C152.27 452.98 148.92 450.74 146.11 447.92C143.29 445.11 141.05 441.76 139.53 438.08C138 434.4 137.22 430.45 137.22 426.47L137.22 304.07C137.22 303.36 137.25 302.65 137.3 301.95C137.35 301.24 137.43 300.53 137.53 299.83C137.63 299.13 137.76 298.43 137.91 297.74C138.06 297.05 138.23 296.36 138.43 295.68C135.36 296.64 132.46 298.07 129.83 299.94C127.21 301.81 124.91 304.08 123 306.67C121.09 309.27 119.61 312.15 118.61 315.21C117.61 318.26 117.1 321.46 117.1 324.68L117.1 447.08C117.1 451.06 117.88 455.01 119.41 458.69C120.93 462.37 123.17 465.72 125.99 468.53C128.8 471.35 132.15 473.59 135.83 475.11C139.51 476.64 143.46 477.42 147.44 477.42L269.84 477.42C273.11 477.42 276.36 476.89 279.46 475.85C282.57 474.81 285.48 473.28 288.09 471.31C290.71 469.34 292.99 466.96 294.84 464.27C296.69 461.57 298.1 458.59 299 455.45Z" />
				<path id="Layer" class="shp2" d="M610.18 566L610.18 368.41C610.18 363.79 609.27 359.22 607.5 354.95C605.73 350.69 603.14 346.81 599.87 343.54C596.61 340.28 592.73 337.69 588.46 335.93C584.19 334.16 579.62 333.26 575 333.26L341.09 333.26C336.47 333.26 331.9 334.17 327.64 335.94C323.37 337.7 319.5 340.29 316.24 343.56C312.97 346.82 310.38 350.69 308.62 354.96C306.85 359.22 305.94 363.79 305.94 368.41L305.94 602.41C305.94 607.03 306.85 611.6 308.62 615.86C310.38 620.13 312.97 624 316.24 627.26C319.5 630.53 323.37 633.12 327.64 634.88C331.9 636.65 336.47 637.56 341.09 637.56L538.67 637.56C543.29 637.56 547.86 638.47 552.12 640.24C556.39 642 560.26 644.59 563.52 647.86C566.79 651.12 569.38 654.99 571.14 659.26C572.91 663.52 573.82 668.09 573.82 672.71L573.82 778.11C573.82 782.73 574.73 787.3 576.5 791.57C578.27 795.84 580.86 799.71 584.13 802.98C587.39 806.24 591.27 808.83 595.54 810.6C599.81 812.37 604.38 813.27 609 813.27L750.82 813.27C755.44 813.27 760.01 812.36 764.27 810.59C768.54 808.82 772.41 806.23 775.68 802.97C778.94 799.7 781.53 795.83 783.29 791.56C785.06 787.3 785.97 782.73 785.97 778.11L785.97 636.3C785.97 631.68 785.06 627.11 783.29 622.85C781.53 618.58 778.94 614.71 775.68 611.44C772.41 608.18 768.54 605.59 764.27 603.82C760.01 602.05 755.44 601.14 750.82 601.14L645.34 601.14C640.72 601.14 636.15 600.23 631.89 598.47C627.62 596.7 623.75 594.11 620.48 590.85C617.22 587.59 614.63 583.71 612.86 579.45C611.09 575.19 610.18 570.62 610.18 566Z" />
				<path id="Layer" class="shp5" d="M605.45 559.25L605.45 375.06C605.45 370.76 604.6 366.5 602.96 362.52C601.31 358.54 598.89 354.93 595.85 351.89C592.81 348.85 589.2 346.43 585.22 344.78C581.24 343.14 576.98 342.29 572.68 342.29L354.59 342.29C350.29 342.29 346.03 343.14 342.05 344.78C338.07 346.43 334.46 348.85 331.42 351.89C328.38 354.93 325.96 358.54 324.31 362.52C322.67 366.5 321.82 370.76 321.82 375.06L321.82 593.15C321.82 597.45 322.67 601.71 324.31 605.69C325.96 609.67 328.38 613.28 331.42 616.32C334.46 619.36 338.07 621.78 342.05 623.43C346.03 625.07 350.29 625.92 354.59 625.92L538.78 625.92C543.08 625.92 547.34 626.77 551.32 628.41C555.3 630.06 558.91 632.48 561.95 635.52C564.99 638.56 567.41 642.17 569.06 646.15C570.7 650.13 571.55 654.39 571.55 658.69L571.55 757C571.55 761.3 572.4 765.56 574.04 769.54C575.69 773.52 578.11 777.13 581.15 780.17C584.19 783.21 587.8 785.63 591.78 787.28C595.76 788.92 600.02 789.77 604.32 789.77L736.53 789.77C740.83 789.77 745.09 788.92 749.07 787.28C753.05 785.63 756.66 783.21 759.7 780.17C762.74 777.13 765.16 773.52 766.81 769.54C768.45 765.56 769.3 761.3 769.3 757L769.3 624.79C769.3 620.48 768.46 616.22 766.81 612.24C765.17 608.27 762.75 604.65 759.71 601.61C756.67 598.56 753.05 596.14 749.08 594.5C745.1 592.85 740.84 592 736.53 592L638.22 592C633.92 592 629.66 591.15 625.68 589.51C621.71 587.86 618.1 585.45 615.06 582.41C612.01 579.37 609.6 575.76 607.95 571.78C606.3 567.81 605.45 563.55 605.45 559.25Z" />
				<path id="Layer" class="shp6" d="M736.53 592L638.22 592C633.92 592 629.66 591.15 625.68 589.51C621.7 587.86 618.09 585.44 615.05 582.4C612.01 579.36 609.59 575.75 607.94 571.77C606.3 567.79 605.45 563.53 605.45 559.23L605.45 375.06C605.45 370.76 604.6 366.5 602.96 362.52C601.31 358.54 598.89 354.93 595.85 351.89C592.81 348.85 589.2 346.43 585.22 344.78C581.24 343.14 576.98 342.29 572.68 342.29L354.59 342.29C352.5 342.29 350.41 342.49 348.36 342.89C346.31 343.28 344.3 343.88 342.36 344.66C340.42 345.44 338.56 346.41 336.81 347.55C335.05 348.68 333.41 349.99 331.91 351.44C332.47 351.32 333.03 351.22 333.59 351.13C334.16 351.04 334.72 350.96 335.29 350.9C335.86 350.84 336.43 350.8 337 350.77C337.57 350.74 338.14 350.72 338.71 350.72L556.8 350.72C561.1 350.72 565.36 351.57 569.34 353.22C573.31 354.86 576.93 357.28 579.97 360.32C583.01 363.36 585.43 366.98 587.07 370.95C588.72 374.93 589.57 379.19 589.57 383.49L589.57 567.68C589.57 571.98 590.42 576.24 592.06 580.22C593.71 584.2 596.13 587.81 599.17 590.85C602.21 593.89 605.82 596.31 609.8 597.96C613.78 599.6 618.04 600.45 622.34 600.45L720.64 600.45C724.94 600.45 729.2 601.3 733.18 602.94C737.16 604.59 740.77 607.01 743.81 610.05C746.85 613.09 749.27 616.7 750.92 620.68C752.56 624.66 753.41 628.92 753.41 633.22L753.41 765.43C753.41 767.63 753.19 769.83 752.75 771.99C752.31 774.14 751.65 776.25 750.79 778.27C749.92 780.3 748.85 782.23 747.6 784.04C746.35 785.85 744.91 787.53 743.32 789.05C746.97 788.28 750.46 786.89 753.64 784.94C756.82 783 759.65 780.52 762 777.63C764.35 774.73 766.19 771.45 767.43 767.94C768.68 764.42 769.32 760.72 769.32 756.99L769.32 624.79C769.32 620.48 768.48 616.22 766.83 612.24C765.18 608.26 762.77 604.64 759.72 601.6C756.68 598.55 753.06 596.14 749.08 594.49C745.1 592.84 740.84 592 736.53 592L736.53 592Z" />
				<path id="Layer" class="shp2" d="M847.68 227.8L636.62 227.8C631.69 227.8 626.81 228.77 622.25 230.66C617.69 232.55 613.55 235.31 610.07 238.8C606.58 242.28 603.82 246.42 601.93 250.98C600.04 255.54 599.07 260.42 599.07 265.35L599.07 515.26C599.07 520.19 600.04 525.07 601.93 529.63C603.82 534.19 606.58 538.33 610.07 541.81C613.55 545.3 617.69 548.06 622.25 549.95C626.81 551.84 631.69 552.81 636.62 552.81L886.53 552.81C891.46 552.81 896.34 551.84 900.9 549.95C905.46 548.06 909.6 545.3 913.08 541.81C916.57 538.33 919.33 534.19 921.22 529.63C923.11 525.07 924.08 520.19 924.08 515.26L924.08 304.19C924.08 299.26 925.05 294.38 926.94 289.82C928.83 285.26 931.59 281.12 935.08 277.64C938.56 274.15 942.7 271.39 947.26 269.5C951.82 267.61 956.7 266.64 961.63 266.64L1074.28 266.64C1079.21 266.64 1084.09 265.67 1088.65 263.78C1093.21 261.89 1097.35 259.13 1100.83 255.64C1104.32 252.16 1107.08 248.02 1108.97 243.46C1110.86 238.9 1111.83 234.02 1111.83 229.09L1111.83 77.6C1111.83 72.67 1110.86 67.79 1108.97 63.23C1107.08 58.67 1104.32 54.53 1100.83 51.05C1097.35 47.56 1093.21 44.8 1088.65 42.91C1084.09 41.02 1079.21 40.05 1074.28 40.05L922.79 40.05C917.86 40.05 912.98 41.02 908.42 42.91C903.86 44.8 899.72 47.56 896.23 51.05C892.75 54.53 889.98 58.67 888.09 63.23C886.2 67.79 885.23 72.67 885.23 77.6L885.23 190.25C885.23 195.18 884.26 200.06 882.37 204.62C880.48 209.18 877.72 213.32 874.23 216.8C870.75 220.29 866.61 223.05 862.05 224.94C857.49 226.83 852.61 227.8 847.68 227.8L847.68 227.8Z" />
				<path id="Layer" class="shp7" d="M859.23 242.55L662.48 242.55C657.88 242.55 653.33 243.46 649.09 245.21C644.84 246.97 640.98 249.55 637.73 252.8C634.48 256.05 631.9 259.91 630.14 264.16C628.39 268.4 627.48 272.95 627.48 277.55L627.48 510.55C627.48 515.15 628.39 519.7 630.14 523.94C631.9 528.19 634.48 532.05 637.73 535.3C640.98 538.55 644.84 541.13 649.09 542.89C653.33 544.64 657.88 545.55 662.48 545.55L895.48 545.55C900.08 545.55 904.63 544.64 908.87 542.89C913.12 541.13 916.98 538.55 920.23 535.3C923.48 532.05 926.06 528.19 927.82 523.94C929.57 519.7 930.48 515.15 930.48 510.55L930.48 313.77C930.48 309.17 931.39 304.62 933.14 300.38C934.9 296.13 937.48 292.27 940.73 289.02C943.98 285.77 947.84 283.19 952.09 281.43C956.33 279.68 960.88 278.77 965.48 278.77L1070.48 278.77C1075.08 278.77 1079.63 277.86 1083.87 276.11C1088.12 274.35 1091.98 271.77 1095.23 268.52C1098.48 265.27 1101.06 261.41 1102.82 257.16C1104.57 252.92 1105.48 248.37 1105.48 243.77L1105.48 102.53C1105.48 97.93 1104.57 93.38 1102.82 89.14C1101.06 84.89 1098.48 81.03 1095.23 77.78C1091.98 74.53 1088.12 71.95 1083.87 70.19C1079.63 68.44 1075.08 67.53 1070.48 67.53L929.25 67.53C924.65 67.53 920.1 68.44 915.86 70.19C911.61 71.95 907.75 74.53 904.5 77.78C901.25 81.03 898.67 84.89 896.91 89.14C895.16 93.38 894.25 97.93 894.25 102.53L894.25 207.53C894.25 212.13 893.35 216.68 891.59 220.93C889.83 225.18 887.25 229.05 884 232.3C880.75 235.55 876.88 238.13 872.63 239.89C868.38 241.65 863.83 242.55 859.23 242.55L859.23 242.55Z" />
				<g id="Layer" style="opacity: 0.102">
					<path id="Layer" class="shp8" d="M662.48 545.53L665.54 545.53C663.72 543.9 662.07 542.08 660.63 540.1C659.18 538.13 657.95 536.01 656.95 533.77C655.95 531.54 655.19 529.2 654.68 526.81C654.17 524.42 653.92 521.98 653.92 519.53L653.92 286.53C653.92 281.93 654.83 277.38 656.58 273.14C658.34 268.89 660.92 265.03 664.17 261.78C667.42 258.53 671.28 255.95 675.53 254.19C679.77 252.44 684.32 251.53 688.92 251.53L885.67 251.53C890.27 251.53 894.82 250.62 899.06 248.87C903.31 247.11 907.17 244.53 910.42 241.28C913.67 238.03 916.25 234.17 918.01 229.92C919.76 225.68 920.67 221.13 920.67 216.53L920.67 111.53C920.67 106.93 921.58 102.38 923.33 98.14C925.09 93.89 927.67 90.03 930.92 86.78C934.17 83.53 938.03 80.95 942.28 79.19C946.52 77.44 951.07 76.53 955.67 76.53L1093.83 76.53C1092.25 75.1 1090.53 73.81 1088.71 72.69C1086.89 71.57 1084.97 70.62 1082.98 69.86C1080.98 69.09 1078.92 68.5 1076.82 68.11C1074.72 67.72 1072.59 67.53 1070.45 67.53L929.25 67.53C924.65 67.53 920.1 68.44 915.86 70.19C911.61 71.95 907.75 74.53 904.5 77.78C901.25 81.03 898.67 84.89 896.91 89.14C895.16 93.38 894.25 97.93 894.25 102.53L894.25 207.53C894.25 212.13 893.34 216.68 891.59 220.92C889.83 225.17 887.25 229.03 884 232.28C880.75 235.53 876.89 238.11 872.64 239.87C868.4 241.62 863.85 242.53 859.25 242.53L662.48 242.53C657.88 242.53 653.33 243.44 649.09 245.19C644.84 246.95 640.98 249.53 637.73 252.78C634.48 256.03 631.9 259.89 630.14 264.14C628.39 268.38 627.48 272.93 627.48 277.53L627.48 510.53C627.48 515.13 628.39 519.68 630.14 523.92C631.9 528.17 634.48 532.03 637.73 535.28C640.98 538.53 644.84 541.11 649.09 542.87C653.33 544.62 657.88 545.53 662.48 545.53Z" />
				</g>
				<text id="DESIGN" style="transform: matrix(1,0,0,1,339.56,30.64)" >
					<tspan x="0" y="0" class="txt1">DESIGN</tspan>
				</text>
				<path id="Layer" class="shp9" d="M833.24 442.38L860.68 469.82C861.3 470.44 861.85 471.11 862.33 471.83C862.81 472.56 863.23 473.32 863.56 474.13C863.89 474.93 864.14 475.77 864.31 476.62C864.48 477.47 864.57 478.34 864.57 479.21L864.57 479.21C864.57 480.96 864.23 482.68 863.56 484.3C862.89 485.91 861.91 487.38 860.68 488.61C859.44 489.85 857.98 490.83 856.37 491.49C854.75 492.16 853.03 492.51 851.28 492.51L851.28 492.51C850.41 492.51 849.54 492.43 848.69 492.26C847.83 492.09 847 491.83 846.19 491.5C845.39 491.16 844.62 490.75 843.89 490.27C843.17 489.78 842.49 489.23 841.88 488.61L814.45 461.18L833.24 442.38Z" />
				<path id="Layer" class="shp10" d="M798.79 445.51L817.58 426.71L833.24 442.38L814.45 461.17L798.79 445.51L798.79 445.51L798.79 445.51Z" />
				<path id="Layer" class="shp11" d="M758.06 323.34C783.4 323.34 806.25 338.61 815.95 362.02C825.65 385.44 820.29 412.39 802.37 430.31C784.45 448.23 757.5 453.59 734.08 443.89C710.67 434.19 695.4 411.34 695.4 386C695.4 377.77 697.02 369.62 700.17 362.02C703.32 354.42 707.93 347.51 713.75 341.7C719.57 335.88 726.48 331.26 734.08 328.12C741.68 324.97 749.83 323.35 758.06 323.35L758.06 323.34Z" />
				<path id="Layer" class="shp10" d="M727.64 385.07L732.08 380.64L750.87 399.44L746.44 403.87L727.64 385.07L727.64 385.07L727.64 385.07Z" />
				<path id="Layer" class="shp10" d="M758.97 399.44L784.04 374.38L788.47 378.81L763.4 403.87L758.97 399.44L758.97 399.44L758.97 399.44Z" />
				<path id="Layer" class="shp10" d="M845.77 323.34L930.4 323.34L930.4 329.6L845.77 329.6L845.77 323.34L845.77 323.34L845.77 323.34Z" />
				<path id="Layer" class="shp10" d="M695.4 373.46L714.2 373.46L714.2 379.73L695.4 379.73L695.4 373.46L695.4 373.46L695.4 373.46Z" />
				<path id="Layer" class="shp10" d="M815.36 343.06L827.89 330.53L832.32 334.96L819.79 347.49L815.36 343.06L815.36 343.06L815.36 343.06Z" />
				<path id="Layer" fill-rule="evenodd" class="shp9" d="M712.01 381.4C710.06 376.71 711.13 371.31 714.72 367.73C718.3 364.14 723.7 363.06 728.39 365C733.07 366.94 736.13 371.52 736.13 376.59C736.13 378.24 735.81 379.87 735.18 381.39C734.55 382.91 733.63 384.29 732.46 385.46C731.3 386.62 729.92 387.54 728.4 388.18C726.88 388.81 725.25 389.13 723.6 389.13C718.53 389.13 713.95 386.08 712.01 381.4ZM723.6 370.33C721.06 370.33 718.77 371.85 717.8 374.2C716.83 376.54 717.36 379.24 719.16 381.03C720.95 382.83 723.65 383.36 725.99 382.39C728.34 381.42 729.86 379.13 729.86 376.59C729.86 375.77 729.7 374.95 729.38 374.19C729.07 373.43 728.61 372.74 728.03 372.16C727.45 371.58 726.76 371.12 726 370.81C725.24 370.49 724.42 370.33 723.6 370.33Z" />
				<path id="Layer" fill-rule="evenodd" class="shp9" d="M743.34 412.72C741.4 408.03 742.48 402.64 746.06 399.06C749.64 395.48 755.03 394.4 759.72 396.34C764.4 398.28 767.45 402.85 767.45 407.92C767.45 409.57 767.13 411.19 766.5 412.72C765.87 414.24 764.94 415.62 763.78 416.78C762.62 417.94 761.24 418.87 759.72 419.5C758.19 420.13 756.57 420.45 754.92 420.45C749.85 420.45 745.28 417.4 743.34 412.72ZM749.13 405.53C748.16 407.88 748.69 410.57 750.49 412.37C752.29 414.16 754.98 414.69 757.33 413.72C759.67 412.75 761.19 410.46 761.19 407.92C761.19 407.1 761.03 406.28 760.71 405.52C760.4 404.76 759.94 404.07 759.35 403.49C758.77 402.91 758.08 402.45 757.32 402.13C756.56 401.82 755.74 401.66 754.92 401.66C752.38 401.66 750.1 403.19 749.13 405.53Z" />
				<path id="Layer" fill-rule="evenodd" class="shp9" d="M824.8 331.26C822.86 326.58 823.94 321.19 827.52 317.61C831.11 314.02 836.5 312.95 841.18 314.89C845.86 316.83 848.91 321.4 848.91 326.47C848.91 328.12 848.59 329.75 847.96 331.27C847.32 332.79 846.4 334.17 845.24 335.33C844.07 336.5 842.69 337.42 841.17 338.05C839.65 338.68 838.02 339 836.37 339C831.3 339 826.74 335.94 824.8 331.26ZM830.58 324.08C829.61 326.43 830.14 329.12 831.94 330.92C833.74 332.71 836.43 333.24 838.78 332.27C841.12 331.3 842.64 329.01 842.64 326.47C842.64 325.65 842.48 324.83 842.16 324.07C841.85 323.31 841.39 322.62 840.8 322.04C840.22 321.46 839.53 321 838.77 320.68C838.01 320.37 837.19 320.21 836.37 320.21C833.83 320.21 831.55 321.74 830.58 324.08Z" />
				<path id="Layer" class="shp10" d="M796.56 361.86L809.09 349.33L813.52 353.76L800.99 366.29L796.56 361.86L796.56 361.86L796.56 361.86Z" />
				<path id="Layer" fill-rule="evenodd" class="shp9" d="M758.06 310.82C767.93 310.82 777.71 312.76 786.83 316.54C795.95 320.32 804.24 325.86 811.22 332.84C818.2 339.82 823.74 348.11 827.52 357.23C831.3 366.35 833.24 376.13 833.24 386C833.24 416.41 814.92 443.83 786.82 455.47C758.72 467.1 726.38 460.67 704.88 439.16C683.38 417.66 676.95 385.32 688.59 357.22C700.23 329.12 727.65 310.81 758.06 310.81L758.06 310.82ZM758.06 448.66C766.29 448.66 774.43 447.04 782.04 443.89C789.64 440.74 796.54 436.12 802.36 430.3C808.18 424.49 812.79 417.58 815.94 409.98C819.09 402.38 820.71 394.23 820.71 386C820.71 360.65 805.45 337.8 782.03 328.1C758.62 318.4 731.66 323.76 713.74 341.68C695.82 359.6 690.46 386.56 700.16 409.97C709.86 433.39 732.71 448.65 758.06 448.65L758.06 448.66Z" />
				<path id="Layer" fill-rule="evenodd" class="shp9" d="M780.94 375.13C779 370.44 780.08 365.05 783.66 361.47C787.24 357.89 792.63 356.81 797.32 358.75C802 360.69 805.05 365.26 805.05 370.33C805.05 371.98 804.73 373.6 804.1 375.13C803.47 376.65 802.54 378.03 801.38 379.19C800.22 380.35 798.84 381.28 797.32 381.91C795.79 382.54 794.17 382.86 792.52 382.86C787.45 382.86 782.88 379.81 780.94 375.13ZM786.72 367.92C785.75 370.27 786.28 372.96 788.07 374.76C789.87 376.56 792.56 377.09 794.91 376.12C797.25 375.15 798.78 372.87 798.78 370.33C798.78 369.51 798.62 368.69 798.3 367.93C797.99 367.17 797.53 366.48 796.95 365.9C796.37 365.32 795.68 364.86 794.92 364.54C794.16 364.22 793.34 364.06 792.52 364.06C789.98 364.06 787.69 365.58 786.72 367.92Z" />
				<path id="Layer" class="shp9" d="M649.6 645.61C649.91 645.61 650.22 645.55 650.51 645.43C650.8 645.31 651.06 645.13 651.28 644.91C651.5 644.69 651.67 644.43 651.79 644.14C651.91 643.85 651.97 643.54 651.97 643.23L651.97 640.23C651.93 639.63 651.66 639.06 651.22 638.65C650.78 638.23 650.2 638 649.6 638C648.99 638 648.41 638.23 647.97 638.65C647.53 639.06 647.26 639.63 647.22 640.23L647.22 643.23C647.22 643.54 647.28 643.85 647.4 644.14C647.52 644.43 647.7 644.69 647.92 644.91C648.14 645.13 648.4 645.31 648.69 645.43C648.98 645.55 649.29 645.61 649.6 645.61L649.6 645.61Z" />
				<path id="Layer" class="shp9" d="M675.8 648.69C675.58 648.47 675.32 648.29 675.03 648.17C674.74 648.05 674.43 647.99 674.12 647.99C673.81 647.99 673.5 648.05 673.21 648.17C672.92 648.29 672.66 648.47 672.44 648.69L670.3 650.82C669.9 651.27 669.68 651.86 669.7 652.47C669.72 653.08 669.97 653.65 670.4 654.08C670.83 654.51 671.4 654.76 672.01 654.78C672.62 654.8 673.21 654.58 673.66 654.18L675.8 652.05C676.02 651.83 676.2 651.57 676.32 651.28C676.44 650.99 676.5 650.68 676.5 650.37C676.5 650.06 676.44 649.75 676.32 649.46C676.2 649.17 676.02 648.91 675.8 648.69Z" />
				<path id="Layer" class="shp9" d="M684.27 677.27C684.9 677.27 685.51 677.02 685.95 676.57C686.4 676.13 686.65 675.52 686.65 674.89C686.65 674.26 686.4 673.65 685.95 673.21C685.51 672.76 684.9 672.51 684.27 672.51L681.27 672.51C680.64 672.51 680.03 672.76 679.59 673.21C679.14 673.65 678.89 674.26 678.89 674.89C678.89 675.52 679.14 676.13 679.59 676.57C680.03 677.02 680.64 677.27 681.27 677.27L684.27 677.27Z" />
				<path id="Layer" class="shp9" d="M673.66 695.6C673.2 695.16 672.6 694.92 671.97 694.92C671.33 694.92 670.73 695.18 670.29 695.63C669.84 696.08 669.6 696.68 669.6 697.31C669.6 697.95 669.86 698.55 670.31 698.99L672.44 701.13C672.55 701.24 672.67 701.34 672.8 701.43C672.93 701.52 673.07 701.59 673.21 701.65C673.35 701.71 673.5 701.76 673.66 701.79C673.81 701.82 673.96 701.83 674.12 701.83C674.59 701.83 675.05 701.69 675.44 701.43C675.83 701.17 676.13 700.79 676.31 700.36C676.49 699.93 676.54 699.45 676.45 698.99C676.36 698.53 676.13 698.1 675.8 697.77L673.66 695.6Z" />
				<path id="Layer" class="shp9" d="M652 706.55C652.04 705.89 651.81 705.25 651.36 704.77C650.91 704.29 650.28 704.02 649.63 704.02C648.97 704.02 648.34 704.29 647.89 704.77C647.44 705.25 647.21 705.89 647.25 706.55L647.25 709.55C647.21 710.21 647.44 710.85 647.89 711.33C648.34 711.81 648.97 712.08 649.63 712.08C650.28 712.08 650.91 711.81 651.36 711.33C651.81 710.85 652.04 710.21 652 709.55L652 706.55Z" />
				<path id="Layer" class="shp9" d="M623.39 701.09C623.61 701.31 623.87 701.49 624.16 701.61C624.45 701.73 624.76 701.79 625.08 701.79C625.39 701.79 625.7 701.73 625.99 701.61C626.28 701.49 626.54 701.31 626.76 701.09L628.89 698.96C629.38 698.52 629.67 697.91 629.69 697.25C629.71 696.6 629.46 695.96 628.99 695.5C628.53 695.03 627.89 694.78 627.24 694.8C626.58 694.82 625.97 695.11 625.53 695.6L623.39 697.73C623.17 697.95 623 698.21 622.88 698.5C622.76 698.79 622.7 699.1 622.7 699.41C622.7 699.72 622.76 700.03 622.88 700.32C623 700.61 623.17 700.87 623.39 701.09L623.39 701.09Z" />
				<path id="Layer" class="shp9" d="M614.92 672.51C614.29 672.51 613.68 672.76 613.24 673.21C612.79 673.65 612.54 674.26 612.54 674.89C612.54 675.52 612.79 676.13 613.24 676.57C613.68 677.02 614.29 677.27 614.92 677.27L617.92 677.27C618.55 677.27 619.16 677.02 619.6 676.57C620.05 676.13 620.3 675.52 620.3 674.89C620.3 674.26 620.05 673.65 619.6 673.21C619.16 672.76 618.55 672.51 617.92 672.51L614.92 672.51Z" />
				<path id="Layer" class="shp9" d="M628.89 654.18C629.11 653.96 629.29 653.7 629.41 653.41C629.53 653.12 629.59 652.81 629.59 652.5C629.59 652.19 629.53 651.88 629.41 651.59C629.29 651.3 629.11 651.04 628.89 650.82L626.76 648.69C626.31 648.26 625.71 648.02 625.09 648.03C624.47 648.03 623.87 648.28 623.43 648.72C622.99 649.16 622.74 649.76 622.73 650.38C622.72 651 622.96 651.6 623.39 652.05L625.53 654.18C625.75 654.4 626.01 654.58 626.3 654.7C626.59 654.82 626.9 654.88 627.21 654.88C627.52 654.88 627.83 654.82 628.12 654.7C628.41 654.58 628.67 654.4 628.89 654.18L628.89 654.18Z" />
				<path id="Layer" fill-rule="evenodd" class="shp10" d="M754.61 716.19C754.82 716.28 755.02 716.41 755.19 716.55C755.37 716.7 755.52 716.88 755.64 717.07C755.77 717.26 755.87 717.47 755.93 717.69C756 717.91 756.03 718.14 756.03 718.37L756.03 725.79C756.03 726.02 756 726.25 755.93 726.47C755.86 726.69 755.77 726.9 755.64 727.09C755.52 727.28 755.36 727.46 755.19 727.6C755.02 727.75 754.82 727.88 754.61 727.97L750.22 729.88L748.01 735.24L749.75 739.7C749.83 739.91 749.88 740.14 749.9 740.37C749.92 740.6 749.91 740.83 749.86 741.05C749.81 741.28 749.74 741.5 749.63 741.7C749.52 741.9 749.38 742.09 749.22 742.25L743.97 747.49C743.81 747.65 743.62 747.79 743.42 747.9C743.22 748.01 743 748.09 742.78 748.14C742.55 748.19 742.32 748.2 742.09 748.18C741.86 748.16 741.63 748.11 741.42 748.03L736.97 746.28L731.61 748.5L729.69 752.89C729.6 753.1 729.47 753.3 729.33 753.47C729.18 753.65 729 753.8 728.81 753.92C728.62 754.05 728.41 754.15 728.19 754.21C727.97 754.28 727.74 754.31 727.51 754.31L720.09 754.31C719.86 754.31 719.63 754.28 719.41 754.21C719.19 754.14 718.98 754.05 718.79 753.92C718.6 753.8 718.42 753.64 718.28 753.47C718.13 753.3 718 753.1 717.91 752.89L716 748.5L710.65 746.31L706.19 748.06C705.98 748.14 705.75 748.19 705.52 748.21C705.29 748.23 705.06 748.22 704.83 748.17C704.61 748.12 704.39 748.04 704.19 747.93C703.99 747.82 703.8 747.68 703.64 747.52L698.4 742.28C698.24 742.12 698.1 741.93 697.99 741.73C697.88 741.53 697.8 741.31 697.75 741.09C697.7 740.86 697.69 740.63 697.71 740.4C697.73 740.17 697.78 739.94 697.86 739.73L699.61 735.27L697.39 729.91L693 728C692.79 727.91 692.59 727.78 692.41 727.63C692.24 727.48 692.08 727.3 691.96 727.11C691.83 726.91 691.74 726.7 691.67 726.48C691.61 726.25 691.58 726.02 691.58 725.79L691.58 718.37C691.58 718.14 691.61 717.91 691.68 717.69C691.74 717.47 691.84 717.26 691.97 717.07C692.09 716.88 692.24 716.7 692.42 716.55C692.59 716.41 692.79 716.28 693 716.19L697.38 714.27L699.6 708.91L697.85 704.46C697.77 704.25 697.72 704.02 697.7 703.79C697.68 703.56 697.69 703.33 697.74 703.1C697.79 702.88 697.87 702.66 697.98 702.46C698.09 702.26 698.23 702.07 698.39 701.91L703.63 696.66C703.79 696.5 703.98 696.36 704.18 696.25C704.38 696.14 704.6 696.07 704.83 696.02C705.05 695.97 705.28 695.96 705.51 695.98C705.74 696 705.97 696.05 706.18 696.13L710.64 697.87L716 695.66L717.87 691.27C717.96 691.06 718.09 690.86 718.24 690.69C718.38 690.52 718.56 690.36 718.75 690.24C718.94 690.11 719.15 690.02 719.37 689.95C719.59 689.88 719.82 689.85 720.05 689.85L727.47 689.85C727.7 689.85 727.93 689.88 728.15 689.95C728.37 690.01 728.58 690.11 728.77 690.24C728.96 690.36 729.14 690.51 729.29 690.69C729.43 690.86 729.56 691.06 729.65 691.27L731.57 695.66L736.93 697.87L741.38 696.13C741.59 696.05 741.82 696 742.05 695.98C742.28 695.96 742.51 695.97 742.73 696.02C742.96 696.07 743.18 696.14 743.38 696.25C743.58 696.36 743.77 696.5 743.93 696.66L749.18 701.91C749.34 702.07 749.48 702.26 749.59 702.46C749.7 702.66 749.77 702.88 749.82 703.11C749.87 703.33 749.88 703.56 749.86 703.79C749.84 704.02 749.79 704.25 749.71 704.46L747.97 708.91L750.18 714.27L754.57 716.19L754.61 716.19ZM751.27 719.87L747.43 718.2C747.29 718.14 747.16 718.06 747.03 717.98C746.91 717.89 746.79 717.79 746.69 717.69C746.58 717.58 746.49 717.46 746.4 717.33C746.32 717.2 746.25 717.07 746.19 716.93L743.19 709.8C743.13 709.66 743.09 709.51 743.06 709.36C743.03 709.21 743.01 709.06 743.01 708.91C743.01 708.76 743.03 708.61 743.06 708.46C743.09 708.31 743.13 708.16 743.19 708.02L744.72 704.13L741.66 701.13L737.77 702.65C737.63 702.71 737.48 702.75 737.33 702.78C737.18 702.81 737.03 702.83 736.88 702.83C736.73 702.83 736.58 702.81 736.43 702.78C736.28 702.75 736.13 702.71 735.99 702.65L728.86 699.65C728.72 699.59 728.59 699.52 728.46 699.44C728.33 699.36 728.22 699.26 728.11 699.15C728 699.05 727.9 698.93 727.82 698.81C727.73 698.68 727.66 698.55 727.6 698.41L725.92 694.57L721.6 694.57L719.93 698.41C719.87 698.55 719.79 698.68 719.71 698.81C719.62 698.93 719.52 699.05 719.42 699.15C719.31 699.26 719.19 699.35 719.06 699.44C718.93 699.52 718.8 699.59 718.66 699.65L711.53 702.65C711.39 702.71 711.24 702.75 711.1 702.78C710.95 702.81 710.8 702.83 710.65 702.83C710.49 702.83 710.34 702.81 710.19 702.78C710.05 702.75 709.9 702.71 709.76 702.65L705.86 701.13L702.81 704.13L704.33 708.02C704.39 708.16 704.43 708.31 704.46 708.46C704.49 708.61 704.5 708.76 704.5 708.91C704.5 709.06 704.49 709.21 704.46 709.36C704.43 709.51 704.39 709.66 704.33 709.8L701.33 716.93C701.27 717.07 701.2 717.2 701.12 717.33C701.03 717.46 700.94 717.58 700.83 717.69C700.73 717.79 700.61 717.89 700.49 717.98C700.36 718.06 700.23 718.14 700.09 718.2L696.25 719.87L696.25 724.19L700.09 725.86C700.23 725.92 700.36 726 700.49 726.08C700.61 726.17 700.73 726.27 700.83 726.37C700.94 726.48 701.03 726.6 701.12 726.73C701.2 726.86 701.27 726.99 701.33 727.13L704.33 734.26C704.39 734.4 704.43 734.55 704.46 734.69C704.49 734.84 704.5 734.99 704.5 735.14C704.5 735.3 704.49 735.45 704.46 735.6C704.43 735.74 704.39 735.89 704.33 736.03L702.81 739.93L705.86 742.93L709.76 741.41C709.9 741.35 710.05 741.31 710.19 741.28C710.34 741.25 710.49 741.23 710.65 741.23C710.8 741.23 710.95 741.25 711.1 741.28C711.24 741.31 711.39 741.35 711.53 741.41L718.66 744.41C718.8 744.47 718.93 744.54 719.06 744.62C719.19 744.71 719.31 744.8 719.42 744.91C719.52 745.01 719.62 745.13 719.71 745.25C719.79 745.38 719.87 745.51 719.93 745.65L721.6 749.49L725.89 749.49L727.57 745.65C727.63 745.51 727.7 745.38 727.79 745.25C727.87 745.13 727.97 745.01 728.08 744.91C728.19 744.8 728.3 744.71 728.43 744.62C728.56 744.54 728.69 744.47 728.83 744.41L735.96 741.41C736.1 741.35 736.25 741.31 736.4 741.28C736.55 741.25 736.7 741.23 736.85 741.23C737 741.23 737.15 741.25 737.3 741.28C737.45 741.31 737.6 741.35 737.74 741.41L741.63 742.93L744.69 739.93L743.16 736.03C743.1 735.89 743.06 735.74 743.03 735.6C743 735.45 742.98 735.3 742.98 735.14C742.98 734.99 743 734.84 743.03 734.69C743.06 734.55 743.1 734.4 743.16 734.26L746.16 727.13C746.22 726.99 746.29 726.86 746.37 726.73C746.46 726.6 746.55 726.48 746.66 726.37C746.76 726.27 746.88 726.17 747 726.08C747.13 726 747.26 725.92 747.4 725.86L751.24 724.19L751.27 719.87Z" />
				<path id="Layer" class="shp10" d="M723.76 711.88C724.77 711.88 725.77 712.03 726.74 712.32C727.7 712.61 728.62 713.05 729.46 713.61C730.29 714.17 731.04 714.86 731.68 715.64C732.31 716.42 732.83 717.3 733.21 718.23C733.43 718.85 733.89 719.34 734.48 719.61C735.07 719.88 735.75 719.89 736.36 719.64C736.96 719.4 737.44 718.91 737.67 718.31C737.91 717.7 737.89 717.02 737.61 716.43C734.91 709.78 727.88 705.98 720.84 707.36C713.8 708.74 708.71 714.91 708.71 722.08C708.71 729.25 713.8 735.42 720.84 736.8C727.88 738.18 734.91 734.38 737.61 727.73C737.89 727.14 737.91 726.46 737.67 725.85C737.44 725.25 736.96 724.76 736.36 724.52C735.75 724.27 735.07 724.28 734.48 724.55C733.89 724.82 733.43 725.31 733.21 725.93C731.8 729.43 728.58 731.87 724.82 732.27C721.07 732.67 717.4 730.97 715.29 727.84C713.18 724.71 712.97 720.67 714.74 717.34C716.52 714 719.98 711.92 723.76 711.93L723.76 711.88Z" />
				<path id="Layer" class="shp9" d="M649.6 699.93C655.84 700.02 661.89 697.78 666.56 693.64C671.23 689.5 674.18 683.77 674.84 677.56C675.5 671.36 673.81 665.13 670.11 660.11C666.41 655.08 660.96 651.62 654.84 650.41C654.21 650.25 653.55 650.35 653 650.69C652.45 651.03 652.06 651.58 651.92 652.21C651.79 652.85 651.91 653.51 652.28 654.05C652.64 654.58 653.2 654.95 653.84 655.06C663.99 657.24 670.86 666.72 669.76 677.04C668.67 687.36 659.96 695.19 649.59 695.19C639.21 695.19 630.5 687.36 629.41 677.04C628.31 666.72 635.18 657.24 645.33 655.06C645.93 654.91 646.44 654.53 646.76 654.01C647.09 653.48 647.19 652.86 647.07 652.25C646.94 651.65 646.58 651.13 646.07 650.78C645.56 650.44 644.94 650.3 644.33 650.41C638.21 651.62 632.76 655.08 629.06 660.11C625.36 665.13 623.67 671.36 624.33 677.57C624.99 683.78 627.94 689.51 632.62 693.65C637.29 697.79 643.34 700.03 649.58 699.93L649.6 699.93Z" />
				<path id="Layer" class="shp9" d="M694.57 707.33L691.15 698.59L695.74 687.52L704.34 683.76C704.55 683.67 704.75 683.54 704.92 683.39C705.09 683.25 705.25 683.07 705.37 682.88C705.5 682.69 705.59 682.48 705.66 682.26C705.73 682.04 705.76 681.81 705.76 681.58L705.76 668.2C705.76 667.97 705.73 667.74 705.66 667.52C705.6 667.3 705.5 667.1 705.37 666.9C705.25 666.71 705.1 666.54 704.92 666.39C704.75 666.24 704.55 666.12 704.34 666.03L695.74 662.26L691.15 651.19L694.57 642.45C694.65 642.24 694.71 642.01 694.73 641.78C694.75 641.55 694.73 641.32 694.69 641.1C694.64 640.87 694.56 640.65 694.45 640.45C694.34 640.25 694.2 640.06 694.04 639.9L684.58 630.45C684.42 630.29 684.23 630.15 684.03 630.04C683.83 629.93 683.61 629.85 683.39 629.8C683.17 629.75 682.94 629.74 682.71 629.76C682.48 629.78 682.25 629.83 682.04 629.91L673.29 633.34L662.22 628.75L658.46 620.15C658.37 619.94 658.25 619.74 658.1 619.56C657.95 619.39 657.78 619.23 657.58 619.11C657.39 618.98 657.18 618.88 656.96 618.82C656.74 618.75 656.51 618.72 656.28 618.72L642.91 618.72C642.68 618.72 642.45 618.75 642.23 618.82C642.01 618.88 641.8 618.98 641.61 619.11C641.41 619.23 641.24 619.39 641.09 619.56C640.94 619.74 640.82 619.94 640.73 620.15L636.97 628.75L625.9 633.34L617.16 629.91C616.95 629.83 616.72 629.78 616.49 629.76C616.26 629.74 616.03 629.75 615.8 629.8C615.58 629.85 615.36 629.93 615.16 630.04C614.96 630.15 614.77 630.29 614.61 630.45L605.15 639.9C604.99 640.06 604.85 640.25 604.74 640.45C604.63 640.65 604.55 640.87 604.5 641.1C604.46 641.32 604.44 641.55 604.46 641.78C604.48 642.01 604.54 642.24 604.62 642.45L608.04 651.19L603.46 662.26L594.86 666.03C594.65 666.12 594.45 666.24 594.28 666.39C594.1 666.54 593.95 666.71 593.82 666.9C593.69 667.09 593.6 667.3 593.53 667.52C593.46 667.74 593.43 667.97 593.43 668.2L593.43 681.58C593.43 681.81 593.46 682.04 593.53 682.26C593.6 682.48 593.69 682.69 593.82 682.88C593.95 683.08 594.1 683.25 594.28 683.4C594.45 683.55 594.65 683.67 594.86 683.76L603.46 687.52L608 698.59L604.58 707.33C604.5 707.54 604.44 707.77 604.42 708C604.4 708.23 604.42 708.46 604.46 708.68C604.51 708.91 604.59 709.13 604.7 709.33C604.81 709.53 604.95 709.72 605.11 709.88L614.57 719.33C614.73 719.49 614.92 719.63 615.12 719.74C615.32 719.85 615.54 719.93 615.76 719.98C615.99 720.03 616.22 720.04 616.45 720.02C616.68 720 616.91 719.95 617.12 719.87L625.86 716.45L637 721L640.76 729.6C640.85 729.81 640.97 730.01 641.12 730.19C641.27 730.36 641.44 730.52 641.64 730.64C641.83 730.77 642.04 730.87 642.26 730.93C642.48 731 642.71 731.03 642.94 731.03L644.87 731.03C645.5 731.03 646.11 730.78 646.55 730.33C647 729.89 647.25 729.28 647.25 728.65C647.25 728.02 647 727.41 646.55 726.97C646.11 726.52 645.5 726.27 644.87 726.27L644.49 726.27L640.97 718.27C640.91 718.13 640.84 718 640.75 717.87C640.66 717.75 640.57 717.63 640.46 717.52C640.35 717.42 640.23 717.32 640.1 717.24C639.98 717.16 639.84 717.09 639.7 717.03L626.86 711.71C626.72 711.65 626.57 711.61 626.43 711.58C626.28 711.55 626.13 711.53 625.97 711.53C625.82 711.53 625.67 711.55 625.52 711.58C625.38 711.61 625.23 711.65 625.09 711.71L616.9 714.91L609.64 707.66L612.85 699.47C612.91 699.33 612.95 699.18 612.98 699.03C613.01 698.88 613.02 698.73 613.02 698.58C613.02 698.43 613.01 698.28 612.98 698.13C612.95 697.98 612.91 697.83 612.85 697.69L607.53 684.85C607.47 684.71 607.4 684.58 607.32 684.45C607.23 684.32 607.14 684.2 607.03 684.1C606.93 683.99 606.81 683.89 606.69 683.8C606.56 683.72 606.43 683.64 606.29 683.58L598.18 680L598.18 669.76L606.24 666.24C606.38 666.18 606.51 666.1 606.64 666.02C606.76 665.93 606.88 665.83 606.98 665.73C607.09 665.62 607.18 665.5 607.27 665.37C607.35 665.24 607.42 665.11 607.48 664.97L612.8 652.13C612.86 651.99 612.9 651.84 612.93 651.69C612.96 651.54 612.97 651.39 612.97 651.24C612.97 651.09 612.96 650.94 612.93 650.79C612.9 650.64 612.86 650.49 612.8 650.35L609.59 642.17L616.85 634.91L625.04 638.11C625.18 638.17 625.33 638.21 625.47 638.24C625.62 638.27 625.77 638.28 625.92 638.28C626.08 638.28 626.23 638.27 626.38 638.24C626.52 638.21 626.67 638.17 626.81 638.11L639.65 632.79C639.79 632.73 639.93 632.66 640.05 632.58C640.18 632.49 640.3 632.39 640.41 632.29C640.51 632.18 640.61 632.06 640.7 631.94C640.79 631.81 640.86 631.68 640.92 631.54L644.44 623.54L654.71 623.54L658.23 631.54C658.29 631.68 658.36 631.81 658.45 631.94C658.54 632.06 658.64 632.18 658.74 632.29C658.85 632.39 658.97 632.49 659.1 632.58C659.22 632.66 659.36 632.73 659.5 632.79L672.34 638.11C672.48 638.17 672.63 638.21 672.78 638.24C672.93 638.27 673.08 638.28 673.23 638.28C673.38 638.28 673.53 638.27 673.68 638.24C673.83 638.21 673.98 638.17 674.12 638.11L682.3 634.91L689.56 642.17L686.35 650.35C686.29 650.49 686.25 650.64 686.22 650.79C686.2 650.94 686.18 651.09 686.18 651.24C686.18 651.39 686.2 651.54 686.22 651.69C686.25 651.84 686.29 651.99 686.35 652.13L691.71 665C691.77 665.14 691.84 665.27 691.92 665.4C692.01 665.53 692.1 665.64 692.21 665.75C692.31 665.86 692.43 665.96 692.55 666.05C692.68 666.13 692.81 666.21 692.95 666.27L701.01 669.79L701.01 680L693 683.54C692.86 683.6 692.73 683.68 692.61 683.76C692.48 683.85 692.37 683.95 692.26 684.06C692.15 684.17 692.06 684.28 691.98 684.41C691.89 684.54 691.82 684.67 691.76 684.81L686.44 697.65C686.38 697.79 686.34 697.94 686.31 698.09C686.29 698.24 686.27 698.39 686.27 698.54C686.27 698.69 686.29 698.84 686.31 698.99C686.34 699.14 686.38 699.29 686.44 699.43L689.65 707.62L682.39 714.87L674.21 711.67C674.07 711.61 673.92 711.57 673.77 711.54C673.62 711.51 673.47 711.49 673.32 711.49C673.17 711.49 673.02 711.51 672.87 711.54C672.72 711.57 672.57 711.61 672.43 711.67L659.52 717C659.38 717.06 659.24 717.13 659.12 717.21C658.99 717.29 658.87 717.39 658.76 717.49C658.65 717.6 658.56 717.72 658.47 717.84C658.38 717.97 658.31 718.1 658.25 718.24L654.73 726.24L654.35 726.24C653.72 726.24 653.11 726.49 652.67 726.94C652.22 727.38 651.97 727.99 651.97 728.62C651.97 729.25 652.22 729.86 652.67 730.3C653.11 730.75 653.72 731 654.35 731L656.28 731C656.51 731 656.74 730.97 656.96 730.9C657.18 730.84 657.39 730.74 657.58 730.61C657.78 730.49 657.95 730.33 658.1 730.16C658.25 729.98 658.37 729.78 658.46 729.57L662.22 720.97L673.29 716.38L682.04 719.81C682.25 719.89 682.48 719.94 682.71 719.96C682.94 719.98 683.17 719.97 683.39 719.92C683.61 719.87 683.83 719.79 684.03 719.68C684.23 719.57 684.42 719.43 684.58 719.27L694.04 709.82C694.2 709.66 694.34 709.47 694.45 709.27C694.56 709.07 694.64 708.85 694.69 708.62C694.73 708.4 694.75 708.17 694.73 707.94C694.71 707.71 694.65 707.48 694.57 707.27L694.57 707.33Z" />
				<path id="Layer" class="shp12" d="M390.52 366.45L507.76 366.45C514.4 366.45 519.77 371.82 519.77 378.46L519.77 575.92C519.77 582.56 514.4 587.93 507.76 587.93L390.52 587.93C383.88 587.93 378.51 582.56 378.51 575.92L378.51 378.46C378.51 371.82 383.88 366.45 390.52 366.45Z" />
				<path id="Layer" class="shp13" d="M411 465.33L426.05 450.28L438.03 462.26L463.05 437.23L491.15 465.33" />
				<path id="Layer" class="shp13" d="M428.66 431.85C423.99 431.85 420.22 428.08 420.22 423.41C420.22 418.74 423.99 414.97 428.66 414.97C433.33 414.97 437.1 418.74 437.1 423.41C437.1 428.08 433.33 431.85 428.66 431.85Z" />
				<path id="Layer" class="shp13" d="M499.34 465.33L456.38 465.33" />
				<path id="Layer" class="shp13" d="M432.08 477.18L446.4 477.18" />
				<path id="Layer" class="shp14" d="M415.4 526.95L419.25 534.75L427.87 536.01L421.63 542.08L423.11 550.66L415.4 546.61L407.69 550.66L409.17 542.08L402.93 536.01L411.55 534.75L415.4 526.95L415.4 526.95Z" />
				<path id="Layer" class="shp14" d="M449.14 526.95L452.99 534.75L461.61 536.01L455.38 542.08L456.85 550.66L449.14 546.61L441.44 550.66L442.91 542.08L436.67 536.01L445.29 534.75L449.14 526.95L449.14 526.95Z" />
				<path id="Layer" class="shp15" d="M482.88 526.95L486.74 534.75L495.35 536.01L489.12 542.08L490.59 550.66L482.88 546.61L475.18 550.66L476.65 542.08L470.41 536.01L479.03 534.75L482.88 526.95L482.88 526.95Z" />
				<path id="Layer" class="shp16" d="M468 426.64C468.61 426.12 469.27 425.66 469.97 425.26C470.66 424.85 471.39 424.51 472.15 424.24C472.9 423.96 473.68 423.75 474.47 423.62C475.26 423.48 476.07 423.41 476.87 423.41L477.33 423.41C479.14 423.41 480.94 423.05 482.62 422.36C484.3 421.66 485.82 420.65 487.1 419.36C488.39 418.08 489.4 416.56 490.1 414.88C490.79 413.2 491.15 411.4 491.15 409.59L491.15 405.75C491.15 403.94 490.79 402.14 490.1 400.46C489.4 398.78 488.39 397.26 487.1 395.98C485.82 394.69 484.3 393.68 482.62 392.98C480.94 392.29 479.14 391.93 477.33 391.93L399.64 391.93" />
				<path id="Layer" class="shp16" d="M491.15 409.59L458.81 409.59" />
				<path id="Layer" class="shp12" d="M378.51 501.56L519.77 501.56" />
				<g id="Layer" style="opacity: 0.302">
					<path id="Layer" fill-rule="evenodd" class="shp9" d="M257.45 414.11C257.61 414.24 257.75 414.41 257.86 414.59C257.97 414.77 258.05 414.97 258.08 415.18C258.12 415.39 258.12 415.61 258.09 415.82C258.05 416.02 257.98 416.23 257.87 416.41L250.62 428.97C250.51 429.15 250.38 429.32 250.21 429.45C250.05 429.59 249.86 429.69 249.66 429.76C249.46 429.84 249.25 429.87 249.04 429.87C248.83 429.87 248.62 429.83 248.42 429.75L237.83 425.75C236.97 426.52 236.06 427.24 235.13 427.91C234.19 428.59 233.22 429.22 232.22 429.79C231.23 430.37 230.2 430.9 229.15 431.38C228.1 431.86 227.02 432.28 225.93 432.65L224.07 443.78C224.04 443.99 223.96 444.19 223.86 444.38C223.75 444.57 223.62 444.73 223.45 444.87C223.29 445.01 223.11 445.12 222.91 445.19C222.71 445.26 222.49 445.3 222.28 445.3L207.78 445.3C207.57 445.3 207.36 445.26 207.16 445.19C206.96 445.12 206.77 445.01 206.61 444.87C206.45 444.73 206.31 444.56 206.21 444.38C206.1 444.19 206.03 443.99 206 443.78L204.14 432.61C203.05 432.24 201.97 431.82 200.92 431.34C199.87 430.87 198.84 430.34 197.84 429.76C196.84 429.18 195.87 428.55 194.93 427.87C194 427.2 193.09 426.48 192.23 425.71L181.63 429.71C181.43 429.79 181.22 429.83 181.01 429.83C180.8 429.83 180.59 429.8 180.39 429.72C180.19 429.65 180 429.55 179.84 429.41C179.67 429.28 179.54 429.11 179.43 428.93L172.18 416.37C172.07 416.19 172 415.99 171.96 415.78C171.92 415.57 171.92 415.35 171.96 415.14C172 414.94 172.07 414.73 172.18 414.55C172.29 414.37 172.43 414.2 172.59 414.07L181.32 406.88C181.08 405.75 180.9 404.61 180.77 403.46C180.65 402.31 180.59 401.15 180.59 400C180.59 398.84 180.65 397.68 180.77 396.53C180.9 395.38 181.08 394.24 181.32 393.11L172.59 385.93C172.42 385.79 172.28 385.63 172.18 385.45C172.07 385.26 171.99 385.06 171.95 384.85C171.92 384.64 171.92 384.43 171.95 384.22C171.99 384.01 172.06 383.8 172.17 383.62L179.42 371.07C179.53 370.89 179.66 370.72 179.83 370.58C179.99 370.45 180.17 370.34 180.37 370.27C180.57 370.2 180.79 370.16 181 370.16C181.21 370.17 181.42 370.2 181.62 370.28L192.22 374.28C193.08 373.51 193.99 372.79 194.92 372.11C195.86 371.44 196.83 370.81 197.83 370.23C198.83 369.65 199.86 369.12 200.91 368.65C201.96 368.17 203.04 367.75 204.13 367.38L205.99 356.24C206.03 356.03 206.1 355.83 206.2 355.64C206.31 355.46 206.45 355.29 206.61 355.16C206.77 355.02 206.96 354.91 207.16 354.84C207.36 354.77 207.57 354.73 207.78 354.73L222.27 354.73C222.48 354.73 222.69 354.77 222.89 354.84C223.09 354.91 223.28 355.02 223.44 355.16C223.6 355.29 223.74 355.46 223.85 355.64C223.95 355.83 224.02 356.03 224.06 356.24L225.91 367.38C227.01 367.75 228.08 368.17 229.13 368.65C230.19 369.12 231.22 369.65 232.22 370.23C233.22 370.81 234.19 371.44 235.12 372.11C236.06 372.79 236.96 373.51 237.83 374.28L248.43 370.28C248.63 370.21 248.84 370.17 249.05 370.17C249.26 370.16 249.47 370.2 249.67 370.27C249.87 370.34 250.06 370.45 250.22 370.59C250.39 370.72 250.52 370.89 250.63 371.07L257.88 383.62C257.99 383.81 258.06 384.01 258.09 384.22C258.13 384.43 258.13 384.64 258.09 384.85C258.05 385.06 257.98 385.26 257.87 385.45C257.76 385.63 257.62 385.79 257.46 385.93L248.73 393.11C248.97 394.24 249.15 395.38 249.27 396.53C249.39 397.68 249.45 398.84 249.45 400C249.45 401.15 249.39 402.31 249.27 403.46C249.15 404.61 248.97 405.75 248.73 406.88L257.45 414.11ZM215 416.31C217.14 416.31 219.27 415.89 221.25 415.07C223.23 414.26 225.03 413.05 226.55 411.54C228.06 410.03 229.27 408.23 230.09 406.25C230.91 404.27 231.33 402.14 231.33 400C231.33 393.41 227.36 387.46 221.27 384.93C215.17 382.41 208.16 383.8 203.49 388.46C198.83 393.12 197.43 400.13 199.95 406.23C202.46 412.32 208.41 416.3 215 416.31Z" />
				</g>
				<path id="Layer" fill-rule="evenodd" class="shp9" d="M260.5 332.95C261.43 332.95 262.35 333.13 263.22 333.49C264.08 333.85 264.86 334.37 265.52 335.03C266.18 335.69 266.7 336.47 267.05 337.33C267.41 338.2 267.59 339.12 267.59 340.05L267.59 425.19C267.59 426.12 267.41 427.04 267.05 427.91C266.7 428.77 266.18 429.55 265.52 430.21C264.86 430.87 264.08 431.39 263.22 431.75C262.35 432.11 261.43 432.29 260.5 432.29L156.5 432.29C155.57 432.29 154.65 432.1 153.79 431.75C152.93 431.39 152.14 430.87 151.49 430.21C150.83 429.55 150.31 428.77 149.95 427.9C149.59 427.04 149.41 426.12 149.41 425.19L149.41 340.1C149.41 339.17 149.59 338.25 149.95 337.39C150.31 336.52 150.83 335.74 151.49 335.08C152.14 334.42 152.93 333.9 153.79 333.54C154.65 333.19 155.57 333 156.5 333L260.5 333L260.5 332.95ZM156.49 337.68C156.18 337.68 155.87 337.74 155.59 337.86C155.3 337.98 155.04 338.16 154.82 338.38C154.6 338.6 154.43 338.86 154.31 339.15C154.19 339.43 154.13 339.74 154.13 340.05L154.13 351.91L262.87 351.91L262.87 340.1C262.87 339.79 262.81 339.48 262.69 339.19C262.57 338.91 262.4 338.64 262.18 338.42C261.96 338.2 261.69 338.03 261.41 337.91C261.12 337.79 260.81 337.73 260.5 337.73L156.5 337.73L156.49 337.68ZM260.5 427.51C260.81 427.51 261.12 427.45 261.41 427.33C261.69 427.21 261.96 427.04 262.18 426.82C262.4 426.6 262.57 426.33 262.69 426.05C262.81 425.76 262.87 425.45 262.87 425.14L262.87 356.59L154.14 356.59L154.14 425.19C154.14 425.5 154.2 425.81 154.32 426.09C154.44 426.38 154.61 426.64 154.83 426.86C155.05 427.08 155.31 427.26 155.6 427.38C155.88 427.5 156.19 427.56 156.5 427.56L260.5 427.56L260.5 427.51Z" />
				<path id="Layer" class="shp17" d="M161.22 347.14L163.58 347.14C164.23 347.18 164.88 346.95 165.35 346.5C165.83 346.06 166.1 345.43 166.1 344.77C166.1 344.12 165.83 343.49 165.35 343.05C164.88 342.6 164.23 342.37 163.58 342.41L161.22 342.41C160.62 342.45 160.06 342.72 159.64 343.15C159.23 343.59 159 344.17 159 344.77C159 345.38 159.23 345.96 159.64 346.4C160.06 346.83 160.62 347.1 161.22 347.14Z" />
				<path id="Layer" class="shp17" d="M173 347.14L175.36 347.14C176.01 347.18 176.66 346.95 177.13 346.5C177.61 346.06 177.88 345.43 177.88 344.77C177.88 344.12 177.61 343.49 177.13 343.05C176.66 342.6 176.01 342.37 175.36 342.41L173 342.41C172.4 342.45 171.84 342.72 171.42 343.15C171.01 343.59 170.78 344.17 170.78 344.77C170.78 345.38 171.01 345.96 171.42 346.4C171.84 346.83 172.4 347.1 173 347.14Z" />
				<path id="Layer" class="shp17" d="M184.86 347.14L187.22 347.14C187.87 347.18 188.52 346.95 188.99 346.5C189.47 346.06 189.74 345.43 189.74 344.77C189.74 344.12 189.47 343.49 188.99 343.05C188.52 342.6 187.87 342.37 187.22 342.41L184.86 342.41C184.21 342.37 183.56 342.6 183.09 343.05C182.61 343.49 182.34 344.12 182.34 344.77C182.34 345.43 182.61 346.06 183.09 346.5C183.56 346.95 184.21 347.18 184.86 347.14Z" />
				<path id="Layer" class="shp17" d="M227.41 347.14L255.77 347.14C256.42 347.18 257.07 346.95 257.54 346.5C258.02 346.06 258.29 345.43 258.29 344.77C258.29 344.12 258.02 343.49 257.54 343.05C257.07 342.6 256.42 342.37 255.77 342.41L227.41 342.41C226.76 342.37 226.11 342.6 225.64 343.05C225.16 343.49 224.89 344.12 224.89 344.77C224.89 345.43 225.16 346.06 225.64 346.5C226.11 346.95 226.76 347.18 227.41 347.14Z" />
				<path id="Layer" class="shp5" d="M171.37 389C171.81 389.44 172.41 389.69 173.04 389.69C173.67 389.69 174.27 389.44 174.71 389C175.15 388.56 175.4 387.96 175.4 387.33C175.4 386.7 175.15 386.1 174.71 385.66L166.93 377.88L174.71 370.09C175.15 369.65 175.4 369.05 175.4 368.42C175.4 367.79 175.15 367.19 174.71 366.75C174.27 366.31 173.67 366.06 173.04 366.06C172.41 366.06 171.81 366.31 171.37 366.75L161.91 376.21C161.69 376.43 161.52 376.69 161.4 376.98C161.28 377.26 161.22 377.57 161.22 377.88C161.22 378.19 161.28 378.5 161.4 378.78C161.52 379.07 161.69 379.33 161.91 379.55L171.37 389Z" />
				<path id="Layer" class="shp5" d="M192.64 389C192.86 389.22 193.12 389.4 193.41 389.52C193.7 389.64 194 389.7 194.31 389.7C194.63 389.7 194.93 389.64 195.22 389.52C195.51 389.4 195.77 389.22 195.99 389L205.44 379.55C205.66 379.33 205.83 379.07 205.95 378.78C206.07 378.5 206.13 378.19 206.13 377.88C206.13 377.57 206.07 377.26 205.95 376.98C205.83 376.69 205.66 376.43 205.44 376.21L196 366.74C195.55 366.34 194.96 366.13 194.36 366.15C193.76 366.17 193.18 366.41 192.76 366.84C192.33 367.26 192.08 367.84 192.06 368.44C192.04 369.04 192.25 369.63 192.65 370.08L200.44 377.87L192.65 385.65C192.43 385.87 192.26 386.13 192.14 386.42C192.02 386.7 191.96 387.01 191.96 387.32C191.96 387.63 192.02 387.94 192.14 388.22C192.26 388.51 192.43 388.77 192.65 388.99L192.64 389Z" />
				<path id="Layer" class="shp5" d="M179.3 389.54C179.59 389.65 179.9 389.7 180.21 389.69C180.52 389.68 180.83 389.61 181.11 389.48C181.4 389.35 181.65 389.16 181.86 388.94C182.08 388.71 182.24 388.44 182.35 388.15L189.44 369.24C189.66 368.65 189.63 368 189.37 367.43C189.11 366.86 188.64 366.42 188.05 366.2C187.46 365.98 186.81 366.01 186.24 366.27C185.67 366.53 185.23 367 185.01 367.59L177.92 386.5C177.82 386.79 177.77 387.09 177.78 387.4C177.8 387.7 177.87 388 178 388.28C178.13 388.56 178.31 388.81 178.53 389.02C178.75 389.23 179.01 389.39 179.3 389.5L179.3 389.54Z" />
				<path id="Layer" class="shp17" d="M253.41 385L227.41 385C226.76 384.96 226.11 385.19 225.64 385.64C225.16 386.08 224.89 386.71 224.89 387.37C224.89 388.02 225.16 388.65 225.64 389.09C226.11 389.54 226.76 389.77 227.41 389.73L253.41 389.73C254.01 389.69 254.57 389.42 254.99 388.99C255.4 388.55 255.63 387.97 255.63 387.37C255.63 386.76 255.4 386.18 254.99 385.74C254.57 385.31 254.01 385.04 253.41 385Z" />
				<path id="Layer" class="shp17" d="M253.41 399.14L199 399.14C198.4 399.18 197.84 399.45 197.42 399.88C197.01 400.32 196.78 400.9 196.78 401.5C196.78 402.11 197.01 402.69 197.42 403.13C197.84 403.56 198.4 403.83 199 403.87L253.37 403.87C253.97 403.83 254.53 403.56 254.95 403.13C255.36 402.69 255.59 402.11 255.59 401.5C255.59 400.9 255.36 400.32 254.95 399.88C254.53 399.45 253.97 399.18 253.37 399.14L253.41 399.14Z" />
				<path id="Layer" class="shp17" d="M163.58 403.87L189.58 403.87C190.18 403.83 190.74 403.56 191.16 403.13C191.57 402.69 191.8 402.11 191.8 401.5C191.8 400.9 191.57 400.32 191.16 399.88C190.74 399.45 190.18 399.18 189.58 399.14L163.58 399.14C162.98 399.18 162.42 399.45 162 399.88C161.59 400.32 161.36 400.9 161.36 401.5C161.36 402.11 161.59 402.69 162 403.13C162.42 403.56 162.98 403.83 163.58 403.87Z" />
				<path id="Layer" class="shp17" d="M253.41 413.32L227.41 413.32C226.76 413.28 226.11 413.51 225.64 413.96C225.16 414.4 224.89 415.03 224.89 415.69C224.89 416.34 225.16 416.97 225.64 417.41C226.11 417.86 226.76 418.09 227.41 418.05L253.41 418.05C254.01 418.01 254.57 417.74 254.99 417.31C255.4 416.87 255.63 416.29 255.63 415.69C255.63 415.08 255.4 414.5 254.99 414.06C254.57 413.63 254.01 413.36 253.41 413.32Z" />
				<path id="Layer" class="shp17" d="M218 413.32L163.58 413.32C162.98 413.36 162.42 413.63 162 414.06C161.59 414.5 161.36 415.08 161.36 415.69C161.36 416.29 161.59 416.87 162 417.31C162.42 417.74 162.98 418.01 163.58 418.05L218 418.05C218.65 418.09 219.3 417.86 219.77 417.41C220.25 416.97 220.52 416.34 220.52 415.69C220.52 415.03 220.25 414.4 219.77 413.96C219.3 413.51 218.65 413.28 218 413.32Z" />
				<path id="Layer" fill-rule="evenodd" class="shp9" d="M-136.24 119.16C-135.29 119.16 -134.36 119.34 -133.48 119.71C-132.61 120.07 -131.81 120.6 -131.14 121.27C-130.47 121.93 -129.94 122.73 -129.58 123.6C-129.22 124.48 -129.03 125.41 -129.03 126.36L-129.03 212.86C-129.03 213.81 -129.22 214.74 -129.58 215.62C-129.94 216.49 -130.47 217.29 -131.14 217.96C-131.81 218.63 -132.61 219.16 -133.48 219.52C-134.36 219.88 -135.29 220.07 -136.24 220.07L-270.79 220.07C-271.74 220.07 -272.67 219.88 -273.55 219.52C-274.42 219.16 -275.22 218.63 -275.89 217.96C-276.56 217.29 -277.09 216.49 -277.45 215.62C-277.81 214.74 -278 213.81 -278 212.86L-278 126.36C-278 125.41 -277.81 124.48 -277.45 123.6C-277.09 122.73 -276.56 121.93 -275.89 121.27C-275.22 120.6 -274.42 120.07 -273.55 119.71C-272.67 119.34 -271.74 119.16 -270.79 119.16L-136.24 119.16ZM-133.84 200.85L-133.84 138.38L-273.19 138.38L-273.19 200.85L-133.84 200.85ZM-153.06 124L-153.06 133.57L-133.79 133.57L-133.79 126.36C-133.79 126.05 -133.85 125.73 -133.98 125.44C-134.1 125.15 -134.27 124.89 -134.5 124.67C-134.72 124.44 -134.98 124.27 -135.27 124.15C-135.56 124.02 -135.88 123.96 -136.19 123.96L-153.06 124ZM-177.09 124L-177.09 133.57L-157.82 133.57L-157.82 123.96L-177.09 124ZM-201.11 124L-201.11 133.57L-181.82 133.57L-181.82 123.96L-201.11 124ZM-225.14 124L-225.14 133.57L-205.82 133.57L-205.82 123.96L-225.14 124ZM-249.17 124L-249.17 133.57L-229.82 133.57L-229.82 123.96L-249.17 124ZM-273.19 133.57L-254 133.57L-254 123.96L-270.66 123.96C-270.98 123.96 -271.29 124.02 -271.58 124.14C-271.87 124.26 -272.13 124.44 -272.36 124.66C-272.58 124.89 -272.76 125.15 -272.88 125.44C-273 125.73 -273.06 126.04 -273.06 126.36L-273.19 133.57ZM-254 215.26L-254 205.65L-273.06 205.65L-273.06 212.86C-273.06 213.18 -273 213.49 -272.88 213.78C-272.76 214.07 -272.58 214.34 -272.36 214.56C-272.14 214.78 -271.87 214.96 -271.58 215.08C-271.29 215.2 -270.98 215.26 -270.66 215.26L-254 215.26ZM-229.95 215.26L-229.95 205.65L-249.04 205.65L-249.04 215.26L-229.95 215.26ZM-205.92 215.26L-205.92 205.65L-225.04 205.65L-225.04 215.26L-205.92 215.26ZM-181.89 215.26L-181.89 205.65L-201.04 205.65L-201.04 215.26L-181.89 215.26ZM-157.82 215.26L-157.82 205.65L-177.04 205.65L-177.04 215.26L-157.82 215.26ZM-133.84 205.65L-153.06 205.65L-153.06 215.26L-136.19 215.26C-135.87 215.26 -135.56 215.2 -135.27 215.08C-134.98 214.96 -134.72 214.78 -134.49 214.56C-134.27 214.33 -134.09 214.07 -133.97 213.78C-133.85 213.49 -133.79 213.18 -133.79 212.86L-133.84 205.65Z" />
				<g id="Layer">
					<path id="Layer" class="shp9" d="M-278 119.16L-129.03 119.16L-129.03 220.07L-278 220.07L-278 119.16Z" />
				</g>
				<path id="Layer" fill-rule="evenodd" class="shp9" d="M-187.21 167.58C-186.88 167.8 -186.61 168.1 -186.42 168.45C-186.23 168.79 -186.14 169.18 -186.14 169.58C-186.14 169.98 -186.23 170.37 -186.42 170.71C-186.61 171.06 -186.88 171.36 -187.21 171.58L-209.42 186C-209.78 186.23 -210.2 186.36 -210.63 186.38C-211.06 186.4 -211.49 186.3 -211.86 186.09C-212.24 185.89 -212.56 185.59 -212.78 185.22C-213 184.85 -213.12 184.43 -213.13 184L-213.13 155.18C-213.12 154.75 -213 154.33 -212.78 153.96C-212.56 153.59 -212.24 153.29 -211.86 153.09C-211.49 152.88 -211.06 152.78 -210.63 152.8C-210.2 152.82 -209.78 152.95 -209.42 153.18L-187.21 167.6L-187.21 167.58ZM-192.93 169.6L-208.32 159.6L-208.32 179.6L-192.93 169.6Z" />
				<g id="Layer">
					<path id="Layer" class="shp9" d="M-213.13 152.79L-186.03 152.79L-186.03 186.43L-213.13 186.43L-213.13 152.79Z" />
				</g>
				<path id="Layer" class="shp9" d="M-244.36 193.64L-268.36 193.64C-268.97 193.68 -269.54 193.95 -269.96 194.4C-270.38 194.84 -270.61 195.43 -270.61 196.04C-270.61 196.66 -270.38 197.25 -269.96 197.69C-269.54 198.14 -268.97 198.41 -268.36 198.45L-244.36 198.45C-243.75 198.41 -243.18 198.14 -242.76 197.69C-242.34 197.25 -242.11 196.66 -242.11 196.04C-242.11 195.43 -242.34 194.84 -242.76 194.4C-243.18 193.95 -243.75 193.68 -244.36 193.64Z" />
				<g id="Layer">
					<path id="Layer" class="shp9" d="M-270.79 193.64L-241.96 193.64L-241.96 198.45L-270.79 198.45L-270.79 193.64Z" />
				</g>
				<path id="Layer" class="shp9" d="M-234.75 193.64L-237.15 193.64C-237.81 193.6 -238.47 193.83 -238.95 194.29C-239.44 194.74 -239.72 195.38 -239.72 196.04C-239.72 196.71 -239.44 197.35 -238.95 197.8C-238.47 198.26 -237.81 198.49 -237.15 198.45L-234.75 198.45C-234.14 198.41 -233.57 198.14 -233.15 197.69C-232.73 197.25 -232.5 196.66 -232.5 196.04C-232.5 195.43 -232.73 194.84 -233.15 194.4C-233.57 193.95 -234.14 193.68 -234.75 193.64Z" />
				<g id="Layer">
					<path id="Layer" class="shp9" d="M-239.56 193.64L-232.35 193.64L-232.35 198.45L-239.56 198.45L-239.56 193.64Z" />
				</g>
				<path id="Layer" fill-rule="evenodd" class="shp9" d="M387.72 199.99C388.49 198.14 389.61 196.46 391.03 195.05C392.44 193.64 394.12 192.51 395.97 191.75C397.82 190.98 399.8 190.59 401.8 190.59C407.96 190.59 413.52 194.3 415.88 200C418.24 205.7 416.93 212.25 412.57 216.61C408.21 220.97 401.66 222.27 395.96 219.91C390.27 217.55 386.56 211.98 386.56 205.82C386.56 203.82 386.96 201.84 387.72 199.99ZM410.23 202.33C409.77 201.22 409.1 200.21 408.25 199.37C407.41 198.52 406.4 197.85 405.29 197.39C404.19 196.93 403 196.69 401.8 196.69C398.1 196.69 394.76 198.91 393.35 202.33C391.93 205.74 392.71 209.68 395.33 212.29C397.94 214.91 401.88 215.69 405.29 214.27C408.71 212.86 410.93 209.52 410.93 205.82C410.93 204.62 410.69 203.43 410.23 202.33Z" />
				<g id="Layer">
					<path id="Layer" class="shp9" d="M386.5 190.56L417.02 190.56L417.02 221.08L386.5 221.08L386.5 190.56Z" />
				</g>
				<path id="Layer" class="shp9" d="M401.8 224.1C401.4 224.1 401.01 224.18 400.64 224.33C400.27 224.49 399.94 224.71 399.66 225C399.38 225.28 399.16 225.62 399.01 225.99C398.87 226.36 398.79 226.75 398.8 227.15L398.8 230.15C398.85 230.95 399.16 231.71 399.72 232.27C400.29 232.83 401.05 233.15 401.85 233.15C402.64 233.15 403.4 232.83 403.97 232.27C404.53 231.71 404.85 230.95 404.85 230.15L404.89 227.15C404.9 226.75 404.82 226.36 404.68 225.99C404.53 225.62 404.31 225.28 404.03 225C403.75 224.71 403.42 224.49 403.05 224.33C402.68 224.18 402.29 224.1 401.89 224.1L401.8 224.1Z" />
				<g id="Layer">
					<path id="Layer" class="shp9" d="M398.66 224.1L404.87 224.1L404.87 233.33L398.66 233.33L398.66 224.1Z" />
				</g>
				<path id="Layer" fill-rule="evenodd" class="shp9" d="M447.3 219.8C447.4 220.03 447.48 220.26 447.52 220.51C447.56 220.75 447.58 221 447.56 221.25C447.55 221.49 447.5 221.74 447.43 221.98C447.35 222.21 447.25 222.44 447.12 222.65L425.61 257.65L426.25 257.65C426.65 257.65 427.04 257.73 427.41 257.88C427.78 258.04 428.11 258.26 428.39 258.55C428.67 258.83 428.89 259.17 429.04 259.54C429.18 259.91 429.26 260.3 429.25 260.7L429.25 269.84L435.34 269.84C435.74 269.83 436.13 269.91 436.5 270.05C436.87 270.2 437.21 270.42 437.49 270.7C437.78 270.98 438 271.31 438.16 271.68C438.31 272.05 438.39 272.44 438.39 272.84L438.39 285C438.39 285.4 438.31 285.79 438.16 286.16C438 286.53 437.78 286.86 437.49 287.14C437.21 287.42 436.87 287.64 436.5 287.79C436.13 287.93 435.74 288.01 435.34 288L368.34 288C367.95 288 367.56 287.92 367.19 287.77C366.83 287.62 366.5 287.4 366.22 287.12C365.94 286.84 365.72 286.51 365.57 286.15C365.42 285.78 365.34 285.39 365.34 285L365.34 272.81C365.34 272.42 365.42 272.03 365.57 271.66C365.72 271.3 365.94 270.97 366.22 270.69C366.5 270.41 366.83 270.19 367.19 270.04C367.56 269.89 367.95 269.81 368.34 269.81L374.43 269.81L374.43 260.67C374.42 260.27 374.5 259.88 374.64 259.51C374.79 259.14 375.01 258.8 375.29 258.52C375.57 258.23 375.9 258.01 376.27 257.85C376.64 257.7 377.03 257.62 377.43 257.62L380.75 257.62L356.65 222.8C356.5 222.59 356.37 222.35 356.28 222.1C356.19 221.86 356.13 221.6 356.11 221.34C356.08 221.08 356.09 220.81 356.14 220.55C356.18 220.29 356.26 220.04 356.37 219.8L399.02 125.37C399.25 124.82 399.63 124.35 400.12 124.02C400.62 123.69 401.2 123.51 401.8 123.51C402.39 123.51 402.97 123.69 403.47 124.02C403.96 124.35 404.34 124.82 404.57 125.37L447.3 219.8ZM432.26 275.91L371.33 275.91L371.33 282L432.26 282L432.26 275.91ZM423.12 269.8L423.12 263.7L380.47 263.7L380.47 269.8L423.12 269.8ZM441 220.84L401.8 134L362.63 220.75L388.16 257.61L398.75 257.61L398.8 239.33C398.8 238.53 399.11 237.77 399.67 237.21C400.24 236.65 401 236.33 401.8 236.33C402.59 236.33 403.35 236.65 403.92 237.21C404.48 237.77 404.8 238.53 404.84 239.33L404.84 257.61L418.37 257.61L441 220.84Z" />
				<g id="Layer">
					<path id="Layer" class="shp9" d="M356.07 123.58L447.55 123.58L447.55 288.08L356.07 288.08L356.07 123.58Z" />
				</g>
				<path id="Layer" fill-rule="evenodd" class="shp9" d="M493 190.64C493.4 190.64 493.79 190.72 494.15 190.87C494.52 191.02 494.85 191.24 495.14 191.52C495.42 191.8 495.64 192.13 495.8 192.49C495.96 192.85 496.04 193.24 496.05 193.64L496.05 205.82C496.06 206.22 495.98 206.62 495.83 207C495.68 207.37 495.46 207.71 495.17 207.99C494.89 208.28 494.55 208.5 494.18 208.65C493.8 208.8 493.4 208.88 493 208.87L480.82 208.87C480.42 208.87 480.03 208.79 479.66 208.64C479.29 208.48 478.96 208.26 478.68 207.97C478.4 207.69 478.18 207.35 478.03 206.98C477.89 206.61 477.81 206.22 477.82 205.82L477.82 193.64C477.83 193.25 477.91 192.86 478.06 192.5C478.22 192.14 478.44 191.81 478.72 191.54C478.99 191.26 479.32 191.04 479.68 190.88C480.04 190.73 480.43 190.65 480.82 190.64L483.82 190.64C482.3 149.21 449.17 113.35 410.82 111.53L410.82 114.53C410.82 114.92 410.74 115.31 410.59 115.68C410.44 116.04 410.22 116.37 409.94 116.65C409.66 116.93 409.33 117.15 408.97 117.3C408.6 117.45 408.21 117.53 407.82 117.53L395.63 117.53C395.24 117.53 394.85 117.45 394.48 117.3C394.12 117.15 393.79 116.93 393.51 116.65C393.23 116.37 393.01 116.04 392.86 115.68C392.71 115.31 392.63 114.92 392.63 114.53L392.63 111.53C354.32 113.35 321.19 149.21 319.63 190.64L322.63 190.64C323.02 190.64 323.41 190.72 323.78 190.87C324.14 191.02 324.47 191.24 324.75 191.52C325.03 191.8 325.25 192.13 325.4 192.49C325.55 192.86 325.63 193.25 325.63 193.64L325.63 205.77C325.64 206.17 325.56 206.56 325.42 206.93C325.27 207.3 325.05 207.64 324.77 207.92C324.49 208.21 324.16 208.43 323.79 208.59C323.42 208.74 323.03 208.82 322.63 208.82L310.45 208.82C310.05 208.82 309.66 208.74 309.29 208.59C308.92 208.43 308.59 208.21 308.31 207.92C308.03 207.64 307.81 207.3 307.66 206.93C307.52 206.56 307.44 206.17 307.45 205.77L307.45 193.59C307.46 193.2 307.54 192.81 307.69 192.45C307.85 192.09 308.07 191.76 308.35 191.49C308.62 191.21 308.95 190.99 309.31 190.83C309.67 190.68 310.06 190.6 310.45 190.59L313.57 190.59C315.15 145.91 351.11 107.21 392.7 105.39L392.7 102.25C392.7 101.86 392.78 101.47 392.93 101.1C393.08 100.74 393.3 100.41 393.58 100.13C393.86 99.85 394.19 99.63 394.55 99.48C394.92 99.33 395.31 99.25 395.7 99.25L407.93 99.25C408.32 99.25 408.71 99.33 409.08 99.48C409.44 99.63 409.77 99.85 410.05 100.13C410.33 100.41 410.55 100.74 410.7 101.1C410.85 101.47 410.93 101.86 410.93 102.25L410.93 105.39C452.52 107.21 488.48 145.91 490.06 190.59L493.18 190.59L493 190.64ZM319.55 196.69L313.45 196.69L313.45 202.78L319.55 202.78L319.55 196.69ZM404.84 105.3L398.75 105.3L398.75 111.39L404.84 111.39L404.84 105.3ZM490.1 196.69L484 196.69L484 202.78L490.14 202.78L490.1 196.69Z" />
				<g id="Layer">
					<path id="Layer" class="shp9" d="M307.36 99.18L496.26 99.18L496.26 208.94L307.36 208.94L307.36 99.18Z" />
				</g>
			</g>
		</g>
	</g>
</svg>