<svg xmlns="http://www.w3.org/2000/svg" viewBox="0 0 444.41 444.41"><defs><style>.cls-1{isolation:isolate;}.cls-2{fill:#858585;opacity:0.2;mix-blend-mode:multiply;}.cls-3{fill:#ff931e;}.cls-4{fill:#f38c1d;}</style></defs><g class="cls-1"><g id="Layer_2" data-name="Layer 2"><g id="Layer_1-2" data-name="Layer 1"><path class="cls-2" d="M228.94,281.69H411.87a32.54,32.54,0,0,0,32.54-32.55V32.55A32.54,32.54,0,0,0,411.87,0H195.27a32.54,32.54,0,0,0-32.54,32.55V215.47A32.55,32.55,0,0,1,130.18,248H32.55A32.54,32.54,0,0,0,0,280.56V411.87a32.54,32.54,0,0,0,32.55,32.54h131.3a32.54,32.54,0,0,0,32.54-32.54V314.23A32.54,32.54,0,0,1,228.94,281.69Z"/><path class="cls-3" d="M233.53,271.89H404.06a30.34,30.34,0,0,0,30.34-30.34V39.64A30.34,30.34,0,0,0,404.06,9.3H202.15a30.34,30.34,0,0,0-30.34,30.34V210.17a30.35,30.35,0,0,1-30.34,30.34h-91a30.34,30.34,0,0,0-30.34,30.34v122.4a30.34,30.34,0,0,0,30.34,30.34h122.4a30.34,30.34,0,0,0,30.34-30.34v-91A30.35,30.35,0,0,1,233.53,271.89Z"/><path class="cls-4" d="M191.94,189.58V19.05a30.11,30.11,0,0,1,1.2-8.39,30.34,30.34,0,0,0-21.33,29V210.17a30.59,30.59,0,0,1-1.2,8.39A30.36,30.36,0,0,0,191.94,189.58Z"/><path class="cls-4" d="M253.66,251.3a30.34,30.34,0,0,0-29.14,21.95,30.52,30.52,0,0,1,9-1.36H404.06a30.33,30.33,0,0,0,29.14-21.95,30.09,30.09,0,0,1-9,1.36Z"/><path class="cls-4" d="M202,401.64a30.09,30.09,0,0,1-9,1.36H70.58a30.34,30.34,0,0,1-30.34-30.34V250.26a30.11,30.11,0,0,1,1.2-8.39,30.34,30.34,0,0,0-21.33,29v122.4a30.34,30.34,0,0,0,30.34,30.34H172.86A30.32,30.32,0,0,0,202,401.64Z"/></g></g></g></svg>