<svg xmlns="http://www.w3.org/2000/svg" viewBox="0 0 162.56 135.59"><defs><style>.cls-1{fill:#fff;}.cls-2{fill:#f6921e;}</style></defs><g id="Layer_2" data-name="Layer 2"><g id="Layer_1-2" data-name="Layer 1"><path class="cls-1" d="M56.17,26.89a2.38,2.38,0,0,0,2.37-2.38v-3a2.38,2.38,0,1,0-4.75,0v3a2.38,2.38,0,0,0,2.38,2.38Z"/><path class="cls-1" d="M82.37,30A2.37,2.37,0,0,0,79,30L76.87,32.1a2.38,2.38,0,0,0,3.36,3.36l2.14-2.13a2.37,2.37,0,0,0,0-3.36Z"/><path class="cls-1" d="M90.84,58.54a2.38,2.38,0,1,0,0-4.75h-3a2.38,2.38,0,1,0,0,4.75Z"/><path class="cls-1" d="M80.23,76.87a2.38,2.38,0,0,0-3.36,3.36L79,82.37a2.37,2.37,0,0,0,1.68.69,2.4,2.4,0,0,0,1.68-.69,2.37,2.37,0,0,0,0-3.36Z"/><path class="cls-1" d="M58.54,87.83a2.38,2.38,0,1,0-4.75,0v3a2.38,2.38,0,1,0,4.75,0Z"/><path class="cls-1" d="M30,82.37a2.38,2.38,0,0,0,3.37,0l2.13-2.13a2.38,2.38,0,0,0-3.36-3.37L30,79a2.39,2.39,0,0,0,0,3.36Z"/><path class="cls-1" d="M21.49,53.79a2.38,2.38,0,1,0,0,4.75h3a2.38,2.38,0,0,0,0-4.75Z"/><path class="cls-1" d="M35.46,35.46a2.37,2.37,0,0,0,0-3.36L33.33,30A2.38,2.38,0,0,0,30,33.33l2.14,2.13a2.37,2.37,0,0,0,3.36,0Z"/><path class="cls-2" d="M161.14,97.47l-4.39-1.92-2.21-5.36,1.74-4.45a2.4,2.4,0,0,0-.53-2.55l-5.25-5.25a2.37,2.37,0,0,0-2.55-.53l-4.45,1.74-5.36-2.22-1.92-4.38A2.37,2.37,0,0,0,134,71.12h-7.42a2.38,2.38,0,0,0-2.18,1.43l-1.91,4.38-5.36,2.22-4.46-1.74a2.37,2.37,0,0,0-2.55.53l-5.24,5.25a2.39,2.39,0,0,0-.54,2.55l1.75,4.45-2.22,5.36-4.39,1.92a2.37,2.37,0,0,0-1.42,2.17v7.43a2.37,2.37,0,0,0,1.42,2.17l4.39,1.92,2.22,5.36L104.38,121a2.39,2.39,0,0,0,.54,2.55l5.24,5.25a2.37,2.37,0,0,0,2.55.53l4.46-1.74,5.36,2.22,1.91,4.38a2.38,2.38,0,0,0,2.18,1.43H134a2.37,2.37,0,0,0,2.18-1.43l1.92-4.38,5.36-2.22L148,129.3a2.37,2.37,0,0,0,2.55-.53l5.25-5.25a2.4,2.4,0,0,0,.53-2.55l-1.74-4.45,2.21-5.36,4.39-1.92a2.37,2.37,0,0,0,1.42-2.17V99.64a2.37,2.37,0,0,0-1.42-2.17Zm-3.33,8L154,107.19a2.37,2.37,0,0,0-1.24,1.27l-2.95,7.13a2.31,2.31,0,0,0,0,1.77l1.53,3.9-3.06,3-3.89-1.53a2.43,2.43,0,0,0-1.78,0l-7.13,3a2.37,2.37,0,0,0-1.26,1.25l-1.68,3.83h-4.32L126.5,127a2.39,2.39,0,0,0-1.27-1.25l-7.13-3a2.41,2.41,0,0,0-1.77,0l-3.9,1.53-3.05-3,1.52-3.9a2.36,2.36,0,0,0,0-1.77l-3-7.13a2.37,2.37,0,0,0-1.24-1.27l-3.84-1.68V101.2l3.84-1.68a2.34,2.34,0,0,0,1.24-1.27l3-7.12a2.38,2.38,0,0,0,0-1.78l-1.52-3.9,3.05-3,3.9,1.53a2.36,2.36,0,0,0,1.77,0l7.13-3a2.41,2.41,0,0,0,1.27-1.24l1.67-3.84h4.32l1.68,3.84A2.35,2.35,0,0,0,135.43,81l7.13,3a2.38,2.38,0,0,0,1.78,0l3.89-1.53,3.06,3-1.53,3.9a2.34,2.34,0,0,0,0,1.78l2.95,7.12A2.34,2.34,0,0,0,154,99.52l3.84,1.68Z"/><path class="cls-2" d="M130.33,93.15a10.19,10.19,0,0,1,9.45,6.35,2.38,2.38,0,0,0,4.4-1.79,15,15,0,1,0,0,11.3,2.38,2.38,0,1,0-4.4-1.8,10.2,10.2,0,1,1-9.45-14.06Z"/><path class="cls-1" d="M56.17,81.21a25,25,0,0,0,5.24-49.53,2.38,2.38,0,0,0-1,4.65,20.29,20.29,0,1,1-8.51,0,2.38,2.38,0,1,0-1-4.65,25,25,0,0,0,5.25,49.53Z"/><path class="cls-1" d="M101.14,88.61l-3.42-8.74,4.59-11.08,8.6-3.76a2.38,2.38,0,0,0,1.42-2.18V49.48a2.39,2.39,0,0,0-1.42-2.18l-8.6-3.76L97.72,32.47l3.42-8.74a2.37,2.37,0,0,0-.53-2.55l-9.46-9.46a2.38,2.38,0,0,0-2.54-.53l-8.75,3.42L68.79,10,65,1.43A2.37,2.37,0,0,0,62.85,0H49.48A2.37,2.37,0,0,0,47.3,1.43L43.54,10,32.47,14.61l-8.74-3.42a2.4,2.4,0,0,0-2.55.53l-9.46,9.46a2.37,2.37,0,0,0-.53,2.55l3.42,8.74L10,43.54,1.43,47.3A2.38,2.38,0,0,0,0,49.48V62.85A2.37,2.37,0,0,0,1.43,65L10,68.79l4.58,11.08-3.42,8.74a2.37,2.37,0,0,0,.53,2.55l9.46,9.45a2.37,2.37,0,0,0,2.55.53l8.74-3.42,11.07,4.59,3.76,8.6a2.36,2.36,0,0,0,2.18,1.42h1.93a2.38,2.38,0,1,0,0-4.75H51l-3.52-8a2.36,2.36,0,0,0-1.27-1.25L33.4,93a2.36,2.36,0,0,0-1.77,0l-8.19,3.2-7.26-7.26,3.21-8.18a2.38,2.38,0,0,0,0-1.78L14.05,66.09a2.37,2.37,0,0,0-1.24-1.27L4.75,61.3V51l8.06-3.53a2.35,2.35,0,0,0,1.24-1.26L19.37,33.4a2.36,2.36,0,0,0,0-1.77l-3.21-8.19,7.26-7.26,8.19,3.21a2.36,2.36,0,0,0,1.77,0l12.84-5.32a2.34,2.34,0,0,0,1.27-1.24L51,4.75H61.3l3.52,8.06a2.37,2.37,0,0,0,1.27,1.24l12.84,5.32a2.38,2.38,0,0,0,1.78,0l8.18-3.21,7.26,7.26-3.21,8.19a2.4,2.4,0,0,0,0,1.77l5.32,12.85a2.39,2.39,0,0,0,1.24,1.26L107.58,51V61.3l-8.06,3.52a2.41,2.41,0,0,0-1.24,1.27L93,78.93a2.43,2.43,0,0,0,0,1.78l3.21,8.18-7.26,7.26-8.18-3.21a2.43,2.43,0,0,0-1.78,0L66.09,98.28a2.39,2.39,0,0,0-1.27,1.25l-3.52,8h-.38a2.38,2.38,0,1,0,0,4.75h1.93A2.36,2.36,0,0,0,65,110.91l3.76-8.6,11.07-4.59,8.75,3.42a2.35,2.35,0,0,0,2.54-.53l9.46-9.46a2.35,2.35,0,0,0,.53-2.54Z"/></g></g></svg>