<svg xmlns="http://www.w3.org/2000/svg" xmlns:xlink="http://www.w3.org/1999/xlink" viewBox="0 0 1389.83 773.22"><defs><style>.cls-1{fill:#fff;}.cls-2{isolation:isolate;}.cls-3{fill:#858585;opacity:0.2;mix-blend-mode:multiply;}.cls-4{fill:#ff931e;}.cls-5{fill:#f38c1d;}.cls-6{fill:#1b88c1;}.cls-7{fill:#1d91cd;}.cls-8{fill:#21a8ee;}.cls-9{opacity:0.1;}.cls-10{fill:#1a1a1a;}.cls-11{fill:#f6921e;}.cls-12{fill:#89d5ef;}.cls-13,.cls-14,.cls-15,.cls-16,.cls-17{fill:none;}.cls-13,.cls-15,.cls-17{stroke:#fff;}.cls-13{stroke-miterlimit:10;}.cls-13,.cls-14,.cls-17{stroke-width:4.46px;}.cls-14{stroke:#fca566;}.cls-14,.cls-15,.cls-16,.cls-17{stroke-linecap:round;stroke-linejoin:round;}.cls-15,.cls-16{stroke-width:2.08px;}.cls-16{stroke:#ff921e;}.cls-18{opacity:0.3;}.cls-19{fill:#f1f1f1;}.cls-20{clip-path:url(#clip-path);}.cls-21{clip-path:url(#clip-path-2);}.cls-22{clip-path:url(#clip-path-3);}.cls-23{clip-path:url(#clip-path-4);}.cls-24{clip-path:url(#clip-path-5);}.cls-25{clip-path:url(#clip-path-6);}.cls-26{clip-path:url(#clip-path-7);}.cls-27{clip-path:url(#clip-path-8);}</style><clipPath id="clip-path"><path class="cls-1" d="M141.76,79.11H7.21A7.21,7.21,0,0,0,0,86.32v86.5A7.2,7.2,0,0,0,7.21,180H141.76a7.2,7.2,0,0,0,7.21-7.2V86.32a7.21,7.21,0,0,0-7.21-7.21ZM4.81,160.8V98.33H144.16V160.8Zm137-76.88a2.4,2.4,0,0,1,2.4,2.4v7.21H124.94V83.92Zm-21.63,0v9.61H100.91V83.92Zm-24,0v9.61H76.89V83.92Zm-24,0v9.61H52.86V83.92Zm-24,0v9.61H28.83V83.92ZM4.81,86.32a2.39,2.39,0,0,1,2.4-2.4H24v9.61H4.81Zm2.4,88.9a2.4,2.4,0,0,1-2.4-2.4v-7.21H24v9.61Zm21.62,0v-9.61H48.05v9.61Zm24,0v-9.61H72.08v9.61Zm24,0v-9.61H96.11v9.61Zm24,0v-9.61h19.22v9.61Zm43.25-2.4a2.41,2.41,0,0,1-2.4,2.4H124.94v-9.61h19.22Z"/></clipPath><clipPath id="clip-path-2"><path class="cls-1" d="M90.79,127.55,68.58,113.13a2.41,2.41,0,0,0-3.71,2V144a2.41,2.41,0,0,0,3.71,2l22.21-14.42a2.4,2.4,0,0,0,0-4Zm-21.11,12v-20l15.39,10Z"/></clipPath><clipPath id="clip-path-3"><path class="cls-1" d="M33.64,153.59h-24a2.41,2.41,0,0,0,0,4.81h24a2.41,2.41,0,0,0,0-4.81Z"/></clipPath><clipPath id="clip-path-4"><path class="cls-1" d="M43.25,153.59h-2.4a2.41,2.41,0,1,0,0,4.81h2.4a2.41,2.41,0,0,0,0-4.81Z"/></clipPath><clipPath id="clip-path-5"><path class="cls-1" d="M664.56,165.78a15.24,15.24,0,1,0,15.24-15.23,15.23,15.23,0,0,0-15.24,15.23Zm24.37,0a9.14,9.14,0,1,1-9.13-9.14,9.14,9.14,0,0,1,9.13,9.14Z"/></clipPath><clipPath id="clip-path-6"><path class="cls-1" d="M679.8,184.06a3,3,0,0,0-3,3v3.05a3,3,0,1,0,6.09,0V187.1a3,3,0,0,0-3-3Z"/></clipPath><clipPath id="clip-path-7"><path class="cls-1" d="M682.57,85.32a3.05,3.05,0,0,0-5.55,0l-42.65,94.44a3,3,0,0,0,.28,3l24.1,34.82h-3.32a3,3,0,0,0-3,3.05v9.14h-6.09a3,3,0,0,0-3,3.05V245a3,3,0,0,0,3,3.05h67a3,3,0,0,0,3.05-3.05V232.8a3,3,0,0,0-3.05-3.05h-6.09v-9.14a3,3,0,0,0-3-3.05h-.64L725,182.61a3.06,3.06,0,0,0,.18-2.85Zm27.69,156.61H649.33v-6.09h60.93Zm-51.79-12.18v-6.09h42.65v6.09Zm37.9-12.19H682.84V199.29a3,3,0,1,0-6.09,0v18.27H666.16l-25.53-36.85L679.8,94,719,180.8Z"/></clipPath><clipPath id="clip-path-8"><path class="cls-1" d="M771.18,150.55h-3.12c-1.58-44.69-37.54-83.39-79.13-85.21V62.21a3,3,0,0,0-3-3.05H673.7a3,3,0,0,0-3,3.05v3.13c-41.59,1.82-77.55,40.52-79.13,85.21h-3.12a3,3,0,0,0-3,3v12.19a3.06,3.06,0,0,0,3,3.05h12.18a3,3,0,0,0,3-3.05V153.59a3,3,0,0,0-3-3h-3c1.56-41.43,34.69-77.3,73-79.12v3a3,3,0,0,0,3,3h12.19a3,3,0,0,0,3-3v-3c38.35,1.82,71.48,37.69,73,79.12h-3a3,3,0,0,0-3,3v12.19a3.06,3.06,0,0,0,3,3.05h12.18a3.06,3.06,0,0,0,3.05-3.05V153.59a3,3,0,0,0-3.05-3ZM597.55,162.73h-6.1v-6.09h6.1Zm85.29-91.38h-6.09v-6.1h6.09Zm85.3,91.38H762v-6.09h6.1Z"/></clipPath></defs><g class="cls-2"><g id="Layer_2" data-name="Layer 2"><g id="Layer_1-2" data-name="Layer 1"><path class="cls-3" d="M603.93,295.45H786.85a32.54,32.54,0,0,0,32.55-32.54V46.31a32.55,32.55,0,0,0-32.55-32.55H570.26a32.55,32.55,0,0,0-32.55,32.55V229.24a32.54,32.54,0,0,1-32.54,32.54H407.53A32.54,32.54,0,0,0,375,294.33v131.3a32.55,32.55,0,0,0,32.54,32.55h131.3a32.55,32.55,0,0,0,32.55-32.55V328A32.55,32.55,0,0,1,603.93,295.45Z"/><path class="cls-4" d="M608.52,285.66H779.05a30.34,30.34,0,0,0,30.34-30.34V53.4a30.34,30.34,0,0,0-30.34-30.34H577.13A30.34,30.34,0,0,0,546.79,53.4V223.93a30.34,30.34,0,0,1-30.34,30.34h-91a30.34,30.34,0,0,0-30.34,30.34V407a30.34,30.34,0,0,0,30.34,30.34h122.4A30.34,30.34,0,0,0,578.18,407V316A30.34,30.34,0,0,1,608.52,285.66Z"/><path class="cls-5" d="M566.92,203.34V32.81a30.59,30.59,0,0,1,1.2-8.39,30.36,30.36,0,0,0-21.33,29V223.93a30.22,30.22,0,0,1-1.2,8.39A30.35,30.35,0,0,0,566.92,203.34Z"/><path class="cls-5" d="M628.65,265.07A30.34,30.34,0,0,0,599.51,287a30.14,30.14,0,0,1,9-1.36H779.05a30.34,30.34,0,0,0,29.14-22,30.47,30.47,0,0,1-9,1.36Z"/><path class="cls-5" d="M577,415.41a30.47,30.47,0,0,1-9,1.36H445.56a30.35,30.35,0,0,1-30.34-30.34V264a30.22,30.22,0,0,1,1.21-8.39,30.35,30.35,0,0,0-21.33,29V407a30.34,30.34,0,0,0,30.34,30.34h122.4A30.34,30.34,0,0,0,577,415.41Z"/><path class="cls-3" d="M888.18,526V328.37A35.14,35.14,0,0,0,853,293.22H619.09a35.15,35.15,0,0,0-35.15,35.15V562.31a35.15,35.15,0,0,0,35.15,35.15H816.67a35.15,35.15,0,0,1,35.15,35.15V738.07A35.15,35.15,0,0,0,887,773.22h141.82a35.15,35.15,0,0,0,35.15-35.15V596.25a35.15,35.15,0,0,0-35.15-35.15H923.34A35.16,35.16,0,0,1,888.18,526Z"/><path class="cls-6" d="M883.45,519.2V335a32.77,32.77,0,0,0-32.77-32.77H632.59A32.77,32.77,0,0,0,599.82,335V553.1a32.77,32.77,0,0,0,32.77,32.77H816.78a32.77,32.77,0,0,1,32.77,32.77V717a32.77,32.77,0,0,0,32.77,32.77h132.21A32.77,32.77,0,0,0,1047.3,717V584.74A32.77,32.77,0,0,0,1014.53,552H916.22A32.77,32.77,0,0,1,883.45,519.2Z"/><path class="cls-7" d="M1014.53,552H916.22a32.77,32.77,0,0,1-32.77-32.77V335a32.77,32.77,0,0,0-32.77-32.77H632.59a32.66,32.66,0,0,0-22.68,9.15,33.17,33.17,0,0,1,6.8-.71H834.8a32.77,32.77,0,0,1,32.77,32.77V527.64a32.77,32.77,0,0,0,32.77,32.77h98.3a32.77,32.77,0,0,1,32.77,32.77v132.2A32.64,32.64,0,0,1,1021.32,749a32.77,32.77,0,0,0,26-32V584.74A32.77,32.77,0,0,0,1014.53,552Z"/><path class="cls-3" d="M1125.68,187.75H914.62a37.55,37.55,0,0,0-37.55,37.55V475.21a37.55,37.55,0,0,0,37.55,37.55h249.91a37.55,37.55,0,0,0,37.55-37.55V264.15a37.55,37.55,0,0,1,37.55-37.55h112.65a37.55,37.55,0,0,0,37.55-37.55V37.55A37.55,37.55,0,0,0,1352.28,0H1200.79a37.56,37.56,0,0,0-37.56,37.55V150.2A37.55,37.55,0,0,1,1125.68,187.75Z"/><path class="cls-8" d="M1137.23,202.5H940.48a35,35,0,0,0-35,35v233a35,35,0,0,0,35,35h233a35,35,0,0,0,35-35V273.72a35,35,0,0,1,35-35h105a35,35,0,0,0,35-35V62.48a35,35,0,0,0-35-35H1207.25a35,35,0,0,0-35,35v105A35,35,0,0,1,1137.23,202.5Z"/><g class="cls-9"><path class="cls-10" d="M940.48,505.49h3.06a34.89,34.89,0,0,1-11.62-26v-233a35,35,0,0,1,35-35h196.75a35,35,0,0,0,35-35v-105a35,35,0,0,1,35-35h138.16a34.79,34.79,0,0,0-23.38-9H1207.25a35,35,0,0,0-35,35v105a35,35,0,0,1-35,35H940.48a35,35,0,0,0-35,35v233A35,35,0,0,0,940.48,505.49Z"/></g><path class="cls-1" d="M1111.24,402.34l27.44,27.43a13.29,13.29,0,0,1,3.89,9.4h0a13.29,13.29,0,0,1-13.29,13.29h0a13.29,13.29,0,0,1-9.4-3.89l-27.43-27.44,18.79-18.79Z"/><polygon class="cls-11" points="1076.79 405.46 1095.58 386.67 1111.24 402.33 1092.45 421.13 1076.79 405.46 1076.79 405.46"/><path class="cls-12" d="M1036.06,283.29A62.66,62.66,0,1,1,973.4,346a62.65,62.65,0,0,1,62.66-62.66Z"/><polygon class="cls-11" points="1005.64 345.03 1010.08 340.6 1028.87 359.39 1024.44 363.82 1005.64 345.03 1005.64 345.03"/><polygon class="cls-11" points="1036.97 359.4 1062.04 334.33 1066.47 338.76 1041.4 363.83 1036.97 359.4 1036.97 359.4"/><polygon class="cls-11" points="1123.77 283.29 1208.4 283.29 1208.4 289.56 1123.77 289.56 1123.77 283.29 1123.77 283.29"/><polygon class="cls-11" points="973.4 333.42 992.2 333.42 992.2 339.68 973.4 339.68 973.4 333.42 973.4 333.42"/><polygon class="cls-11" points="1093.36 303.01 1105.89 290.48 1110.32 294.91 1097.79 307.44 1093.36 303.01 1093.36 303.01"/><path class="cls-1" d="M1001.6,330.28a6.27,6.27,0,1,0,6.26,6.27,6.27,6.27,0,0,0-6.26-6.27Zm0,18.8a12.53,12.53,0,1,1,12.53-12.53,12.53,12.53,0,0,1-12.53,12.53Z"/><path class="cls-1" d="M1032.92,361.61a6.27,6.27,0,1,0,6.27,6.27,6.27,6.27,0,0,0-6.27-6.27Zm0,18.8a12.53,12.53,0,1,1,12.53-12.53,12.53,12.53,0,0,1-12.53,12.53Z"/><path class="cls-1" d="M1114.37,280.16a6.27,6.27,0,1,0,6.27,6.26,6.26,6.26,0,0,0-6.27-6.26Zm0,18.8a12.54,12.54,0,1,1,12.54-12.54A12.53,12.53,0,0,1,1114.37,299Z"/><polygon class="cls-11" points="1074.56 321.82 1087.09 309.29 1091.52 313.71 1078.99 326.25 1074.56 321.82 1074.56 321.82"/><path class="cls-1" d="M1036.06,408.6A62.66,62.66,0,1,1,1098.71,346a62.65,62.65,0,0,1-62.65,62.65Zm0-137.84A75.19,75.19,0,1,0,1111.24,346a75.19,75.19,0,0,0-75.18-75.19Z"/><path class="cls-1" d="M1070.52,324a6.27,6.27,0,1,0,6.26,6.26,6.26,6.26,0,0,0-6.26-6.26Zm0,18.79a12.53,12.53,0,1,1,12.53-12.53,12.53,12.53,0,0,1-12.53,12.53Z"/><path class="cls-1" d="M927.6,605.56a2.37,2.37,0,0,0,2.37-2.37v-3a2.38,2.38,0,1,0-4.75,0v3a2.37,2.37,0,0,0,2.38,2.37Z"/><path class="cls-1" d="M953.8,608.64a2.39,2.39,0,0,0-3.36,0l-2.14,2.14a2.38,2.38,0,0,0,3.36,3.36L953.8,612a2.38,2.38,0,0,0,0-3.37Z"/><path class="cls-1" d="M962.27,637.22a2.38,2.38,0,1,0,0-4.75h-3a2.38,2.38,0,1,0,0,4.75Z"/><path class="cls-1" d="M951.66,655.55a2.38,2.38,0,0,0-3.36,3.36l2.14,2.14a2.37,2.37,0,0,0,1.68.69,2.4,2.4,0,0,0,1.68-.69,2.37,2.37,0,0,0,0-3.36Z"/><path class="cls-1" d="M930,666.5a2.38,2.38,0,0,0-4.75,0v3a2.38,2.38,0,1,0,4.75,0Z"/><path class="cls-1" d="M901.39,661.05a2.4,2.4,0,0,0,3.37,0l2.13-2.14a2.38,2.38,0,0,0-3.36-3.36l-2.14,2.14a2.39,2.39,0,0,0,0,3.36Z"/><path class="cls-1" d="M892.92,632.47a2.38,2.38,0,1,0,0,4.75h3a2.38,2.38,0,0,0,0-4.75Z"/><path class="cls-1" d="M906.89,614.14a2.37,2.37,0,0,0,0-3.36l-2.13-2.14a2.38,2.38,0,0,0-3.37,3.37l2.14,2.13a2.37,2.37,0,0,0,3.36,0Z"/><path class="cls-11" d="M1032.57,676.14l-4.39-1.91-2.21-5.36,1.74-4.46a2.38,2.38,0,0,0-.53-2.54l-5.25-5.25a2.37,2.37,0,0,0-2.55-.53l-4.45,1.74-5.36-2.22-1.92-4.38a2.37,2.37,0,0,0-2.18-1.43h-7.42a2.38,2.38,0,0,0-2.18,1.43L994,655.61l-5.36,2.22-4.46-1.74a2.37,2.37,0,0,0-2.55.53l-5.24,5.25a2.37,2.37,0,0,0-.54,2.54l1.75,4.46-2.22,5.36L971,676.14a2.39,2.39,0,0,0-1.42,2.18v7.42a2.38,2.38,0,0,0,1.42,2.18l4.39,1.92,2.22,5.36-1.75,4.45a2.39,2.39,0,0,0,.54,2.55l5.24,5.25a2.37,2.37,0,0,0,2.55.53l4.46-1.74,5.36,2.22,1.91,4.38a2.4,2.4,0,0,0,2.18,1.43h7.42a2.39,2.39,0,0,0,2.18-1.43l1.92-4.38,5.36-2.22,4.45,1.74a2.37,2.37,0,0,0,2.55-.53l5.25-5.25a2.4,2.4,0,0,0,.53-2.55L1026,695.2l2.21-5.36,4.39-1.92a2.38,2.38,0,0,0,1.42-2.18v-7.42a2.39,2.39,0,0,0-1.42-2.18Zm-3.33,8.05-3.84,1.68a2.34,2.34,0,0,0-1.24,1.27l-3,7.12a2.34,2.34,0,0,0,0,1.78l1.53,3.9-3.06,3-3.89-1.53a2.38,2.38,0,0,0-1.78,0l-7.13,2.95a2.39,2.39,0,0,0-1.26,1.24l-1.68,3.84H999.6l-1.67-3.84a2.41,2.41,0,0,0-1.27-1.24l-7.13-2.95a2.36,2.36,0,0,0-1.77,0l-3.9,1.53-3.05-3,1.52-3.9a2.38,2.38,0,0,0,0-1.78l-3-7.12a2.34,2.34,0,0,0-1.24-1.27l-3.84-1.68v-4.31l3.84-1.68a2.37,2.37,0,0,0,1.24-1.27l3-7.13a2.36,2.36,0,0,0,0-1.77l-1.52-3.9,3.05-3,3.9,1.53a2.41,2.41,0,0,0,1.77,0l7.13-3a2.39,2.39,0,0,0,1.27-1.25l1.67-3.83h4.32l1.68,3.83a2.34,2.34,0,0,0,1.26,1.25l7.13,3a2.43,2.43,0,0,0,1.78,0l3.89-1.53,3.06,3-1.53,3.9a2.31,2.31,0,0,0,0,1.77l3,7.13a2.37,2.37,0,0,0,1.24,1.27l3.84,1.68Z"/><path class="cls-11" d="M1001.76,671.83a10.18,10.18,0,0,1,9.45,6.35,2.38,2.38,0,0,0,4.4-1.8,15,15,0,1,0,0,11.3,2.38,2.38,0,0,0-4.4-1.79,10.2,10.2,0,1,1-9.45-14.06Z"/><path class="cls-1" d="M927.6,659.88a25,25,0,0,0,5.24-49.52,2.38,2.38,0,1,0-1,4.65,20.29,20.29,0,1,1-8.51,0,2.38,2.38,0,0,0-1-4.65,25,25,0,0,0,5.25,49.52Z"/><path class="cls-1" d="M972.57,667.28l-3.42-8.74,4.59-11.07,8.6-3.76a2.38,2.38,0,0,0,1.42-2.18V628.16a2.38,2.38,0,0,0-1.42-2.18l-8.6-3.76-4.59-11.07,3.42-8.74a2.37,2.37,0,0,0-.53-2.55l-9.46-9.46a2.35,2.35,0,0,0-2.54-.53l-8.75,3.42-11.07-4.58-3.76-8.61a2.38,2.38,0,0,0-2.18-1.42H920.91a2.38,2.38,0,0,0-2.18,1.42L915,588.71l-11.07,4.58-8.74-3.42a2.37,2.37,0,0,0-2.55.53l-9.46,9.46a2.37,2.37,0,0,0-.53,2.55l3.42,8.74-4.58,11.07-8.6,3.76a2.37,2.37,0,0,0-1.43,2.18v13.37a2.37,2.37,0,0,0,1.43,2.18l8.6,3.76L886,658.54l-3.42,8.74a2.37,2.37,0,0,0,.53,2.55l9.46,9.46a2.37,2.37,0,0,0,2.55.53l8.74-3.42L915,681l3.76,8.6a2.38,2.38,0,0,0,2.18,1.42h1.93a2.38,2.38,0,1,0,0-4.75h-.38l-3.52-8.06a2.37,2.37,0,0,0-1.27-1.24l-12.84-5.32a2.41,2.41,0,0,0-1.77,0l-8.19,3.21-7.26-7.26,3.21-8.18a2.38,2.38,0,0,0,0-1.78l-5.32-12.84a2.34,2.34,0,0,0-1.24-1.27L876.18,640V629.71l8.06-3.52a2.34,2.34,0,0,0,1.24-1.27l5.32-12.84a2.36,2.36,0,0,0,0-1.77l-3.21-8.19,7.26-7.26,8.19,3.21a2.36,2.36,0,0,0,1.77,0l12.84-5.32a2.34,2.34,0,0,0,1.27-1.24l3.52-8.06h10.27l3.52,8.06a2.34,2.34,0,0,0,1.27,1.24l12.84,5.32a2.38,2.38,0,0,0,1.78,0l8.18-3.21,7.26,7.26-3.21,8.19a2.41,2.41,0,0,0,0,1.77l5.32,12.84a2.37,2.37,0,0,0,1.24,1.27l8.06,3.52V640L971,643.5a2.37,2.37,0,0,0-1.24,1.27l-5.32,12.84a2.43,2.43,0,0,0,0,1.78l3.21,8.18-7.26,7.26-8.18-3.21a2.43,2.43,0,0,0-1.78,0L937.52,677a2.37,2.37,0,0,0-1.27,1.24l-3.52,8.06h-.38a2.38,2.38,0,1,0,0,4.75h1.93a2.38,2.38,0,0,0,2.18-1.42l3.76-8.6,11.07-4.59,8.75,3.42a2.35,2.35,0,0,0,2.54-.53l9.46-9.46a2.37,2.37,0,0,0,.53-2.55Z"/><rect class="cls-13" x="656.51" y="326.4" width="141.26" height="221.48" rx="12.01"/><polyline class="cls-14" points="689 425.28 704.05 410.24 716.03 422.21 741.05 397.18 769.15 425.28"/><circle class="cls-14" cx="706.66" cy="383.36" r="8.44"/><line class="cls-14" x1="777.34" y1="425.28" x2="734.38" y2="425.28"/><line class="cls-14" x1="710.08" y1="437.14" x2="724.4" y2="437.14"/><polygon class="cls-15" points="693.4 486.9 697.25 494.71 705.87 495.96 699.63 502.04 701.11 510.62 693.4 506.57 685.69 510.62 687.17 502.04 680.93 495.96 689.55 494.71 693.4 486.9"/><polygon class="cls-15" points="727.14 486.9 730.99 494.71 739.61 495.96 733.38 502.04 734.85 510.62 727.14 506.57 719.44 510.62 720.91 502.04 714.67 495.96 723.29 494.71 727.14 486.9"/><polygon class="cls-16" points="760.88 486.9 764.74 494.71 773.35 495.96 767.12 502.04 768.59 510.62 760.88 506.57 753.18 510.62 754.65 502.04 748.41 495.96 757.03 494.71 760.88 486.9"/><path class="cls-17" d="M746,386.59a13.77,13.77,0,0,1,8.87-3.23h.46a13.81,13.81,0,0,0,13.82-13.81v-3.84a13.82,13.82,0,0,0-13.82-13.82H677.64"/><line class="cls-17" x1="769.15" y1="369.55" x2="736.81" y2="369.55"/><line class="cls-13" x1="656.51" y1="461.52" x2="797.77" y2="461.52"/><g class="cls-18"><path class="cls-1" d="M526.73,366.84a33.28,33.28,0,0,0,0-13.77l8.73-7.19a1.81,1.81,0,0,0,.42-2.3L528.63,331a1.81,1.81,0,0,0-2.2-.79l-10.6,4a34.77,34.77,0,0,0-11.92-6.9l-1.85-11.13a1.82,1.82,0,0,0-1.79-1.52H485.78a1.81,1.81,0,0,0-1.79,1.52l-1.86,11.13a34.72,34.72,0,0,0-11.91,6.9l-10.6-4a1.79,1.79,0,0,0-2.2.79l-7.25,12.55a1.8,1.8,0,0,0,.42,2.3l8.73,7.19a32.94,32.94,0,0,0,0,13.77L450.59,374a1.81,1.81,0,0,0-.41,2.31l7.25,12.55a1.8,1.8,0,0,0,2.2.79l10.6-4a34.47,34.47,0,0,0,11.91,6.9L484,403.74a1.8,1.8,0,0,0,1.78,1.51h14.5a1.81,1.81,0,0,0,1.79-1.51l1.86-11.14a34.77,34.77,0,0,0,11.9-6.9l10.59,4a1.8,1.8,0,0,0,2.2-.79l7.25-12.55a1.81,1.81,0,0,0-.42-2.31ZM493,376.26A16.31,16.31,0,1,1,509.33,360,16.29,16.29,0,0,1,493,376.26Z"/></g><path class="cls-1" d="M538.5,292.91h-104A7.09,7.09,0,0,0,427.4,300v85.1a7.1,7.1,0,0,0,7.09,7.09h104a7.09,7.09,0,0,0,7.09-7.09V300a7.08,7.08,0,0,0-7.09-7.09Zm-104,4.73h104a2.36,2.36,0,0,1,2.37,2.36v11.82H432.13V300a2.36,2.36,0,0,1,2.36-2.36Zm104,89.82h-104a2.36,2.36,0,0,1-2.36-2.36V316.55H540.87V385.1a2.37,2.37,0,0,1-2.37,2.36Z"/><path class="cls-19" d="M439.22,307.09h2.36a2.37,2.37,0,1,0,0-4.73h-2.36a2.37,2.37,0,0,0,0,4.73Z"/><path class="cls-19" d="M451,307.09h2.36a2.37,2.37,0,1,0,0-4.73H451a2.37,2.37,0,0,0,0,4.73Z"/><path class="cls-19" d="M462.86,307.09h2.36a2.37,2.37,0,1,0,0-4.73h-2.36a2.37,2.37,0,1,0,0,4.73Z"/><path class="cls-19" d="M505.41,307.09h28.36a2.37,2.37,0,1,0,0-4.73H505.41a2.37,2.37,0,1,0,0,4.73Z"/><path class="cls-6" d="M449.37,349a2.36,2.36,0,0,0,3.34-3.34l-7.78-7.79,7.78-7.78a2.37,2.37,0,0,0-3.34-3.35l-9.46,9.46a2.37,2.37,0,0,0,0,3.34Z"/><path class="cls-6" d="M470.64,349a2.38,2.38,0,0,0,3.35,0l9.45-9.46a2.37,2.37,0,0,0,0-3.34L474,326.69a2.37,2.37,0,0,0-3.35,3.35l7.79,7.78-7.79,7.79a2.37,2.37,0,0,0,0,3.34Z"/><path class="cls-6" d="M457.3,349.49a2.37,2.37,0,0,0,3.05-1.38l7.09-18.91a2.37,2.37,0,0,0-4.43-1.66l-7.09,18.91a2.36,2.36,0,0,0,1.38,3Z"/><path class="cls-19" d="M531.41,344.91h-26a2.37,2.37,0,1,0,0,4.73h26a2.37,2.37,0,0,0,0-4.73Z"/><path class="cls-19" d="M531.41,359.1H477a2.36,2.36,0,1,0,0,4.72h54.37a2.36,2.36,0,1,0,0-4.72Z"/><path class="cls-19" d="M441.58,363.82h26a2.36,2.36,0,1,0,0-4.72h-26a2.36,2.36,0,1,0,0,4.72Z"/><path class="cls-19" d="M531.41,373.28h-26a2.37,2.37,0,1,0,0,4.73h26a2.37,2.37,0,0,0,0-4.73Z"/><path class="cls-19" d="M496,373.28H441.58a2.37,2.37,0,0,0,0,4.73H496a2.37,2.37,0,1,0,0-4.73Z"/><path class="cls-1" d="M141.76,79.11H7.21A7.21,7.21,0,0,0,0,86.32v86.5A7.2,7.2,0,0,0,7.21,180H141.76a7.2,7.2,0,0,0,7.21-7.2V86.32a7.21,7.21,0,0,0-7.21-7.21ZM4.81,160.8V98.33H144.16V160.8Zm137-76.88a2.4,2.4,0,0,1,2.4,2.4v7.21H124.94V83.92Zm-21.63,0v9.61H100.91V83.92Zm-24,0v9.61H76.89V83.92Zm-24,0v9.61H52.86V83.92Zm-24,0v9.61H28.83V83.92ZM4.81,86.32a2.39,2.39,0,0,1,2.4-2.4H24v9.61H4.81Zm2.4,88.9a2.4,2.4,0,0,1-2.4-2.4v-7.21H24v9.61Zm21.62,0v-9.61H48.05v9.61Zm24,0v-9.61H72.08v9.61Zm24,0v-9.61H96.11v9.61Zm24,0v-9.61h19.22v9.61Zm43.25-2.4a2.41,2.41,0,0,1-2.4,2.4H124.94v-9.61h19.22Z"/><g class="cls-20"><rect class="cls-1" y="79.11" width="148.97" height="100.91"/></g><path class="cls-1" d="M90.79,127.55,68.58,113.13a2.41,2.41,0,0,0-3.71,2V144a2.41,2.41,0,0,0,3.71,2l22.21-14.42a2.4,2.4,0,0,0,0-4Zm-21.11,12v-20l15.39,10Z"/><g class="cls-21"><rect class="cls-1" x="64.87" y="112.75" width="27.1" height="33.64"/></g><path class="cls-1" d="M33.64,153.59h-24a2.41,2.41,0,0,0,0,4.81h24a2.41,2.41,0,0,0,0-4.81Z"/><g class="cls-22"><rect class="cls-1" x="7.21" y="153.59" width="28.83" height="4.81"/></g><path class="cls-1" d="M43.25,153.59h-2.4a2.41,2.41,0,1,0,0,4.81h2.4a2.41,2.41,0,0,0,0-4.81Z"/><g class="cls-23"><rect class="cls-1" x="38.44" y="153.59" width="7.21" height="4.81"/></g><path class="cls-1" d="M664.56,165.78a15.24,15.24,0,1,0,15.24-15.23,15.23,15.23,0,0,0-15.24,15.23Zm24.37,0a9.14,9.14,0,1,1-9.13-9.14,9.14,9.14,0,0,1,9.13,9.14Z"/><g class="cls-24"><rect class="cls-1" x="664.5" y="150.52" width="30.52" height="30.52"/></g><path class="cls-1" d="M679.8,184.06a3,3,0,0,0-3,3v3.05a3,3,0,1,0,6.09,0V187.1a3,3,0,0,0-3-3Z"/><g class="cls-25"><rect class="cls-1" x="676.66" y="184.06" width="6.21" height="9.23"/></g><path class="cls-1" d="M682.57,85.32a3.05,3.05,0,0,0-5.55,0l-42.65,94.44a3,3,0,0,0,.28,3l24.1,34.82h-3.32a3,3,0,0,0-3,3.05v9.14h-6.09a3,3,0,0,0-3,3.05V245a3,3,0,0,0,3,3.05h67a3,3,0,0,0,3.05-3.05V232.8a3,3,0,0,0-3.05-3.05h-6.09v-9.14a3,3,0,0,0-3-3.05h-.64L725,182.61a3.06,3.06,0,0,0,.18-2.85Zm27.69,156.61H649.33v-6.09h60.93Zm-51.79-12.18v-6.09h42.65v6.09Zm37.9-12.19H682.84V199.29a3,3,0,1,0-6.09,0v18.27H666.16l-25.53-36.85L679.8,94,719,180.8Z"/><g class="cls-26"><rect class="cls-1" x="634.07" y="83.53" width="91.48" height="164.5"/></g><path class="cls-1" d="M771.18,150.55h-3.12c-1.58-44.69-37.54-83.39-79.13-85.21V62.21a3,3,0,0,0-3-3.05H673.7a3,3,0,0,0-3,3.05v3.13c-41.59,1.82-77.55,40.52-79.13,85.21h-3.12a3,3,0,0,0-3,3v12.19a3.06,3.06,0,0,0,3,3.05h12.18a3,3,0,0,0,3-3.05V153.59a3,3,0,0,0-3-3h-3c1.56-41.43,34.69-77.3,73-79.12v3a3,3,0,0,0,3,3h12.19a3,3,0,0,0,3-3v-3c38.35,1.82,71.48,37.69,73,79.12h-3a3,3,0,0,0-3,3v12.19a3.06,3.06,0,0,0,3,3.05h12.18a3.06,3.06,0,0,0,3.05-3.05V153.59a3,3,0,0,0-3.05-3ZM597.55,162.73h-6.1v-6.09h6.1Zm85.29-91.38h-6.09v-6.1h6.09Zm85.3,91.38H762v-6.09h6.1Z"/><g class="cls-27"><rect class="cls-1" x="585.36" y="59.13" width="188.9" height="109.76"/></g></g></g></g></svg>