<svg xmlns="http://www.w3.org/2000/svg" viewBox="0 0 118.19 112.34"><defs><style>.cls-1{opacity:0.3;}.cls-2{fill:#fff;}.cls-3{fill:#f1f1f1;}.cls-4{fill:#1b88c1;}</style></defs><g id="Layer_2" data-name="Layer 2"><g id="Layer_1-2" data-name="Layer 1"><g class="cls-1"><path class="cls-2" d="M99.33,73.93a33.28,33.28,0,0,0,0-13.77L108.06,53a1.81,1.81,0,0,0,.42-2.3l-7.25-12.56A1.83,1.83,0,0,0,99,37.32l-10.59,4A34.58,34.58,0,0,0,76.51,34.4L74.65,23.26a1.81,1.81,0,0,0-1.78-1.52H58.38a1.81,1.81,0,0,0-1.79,1.52L54.73,34.4a34.54,34.54,0,0,0-11.91,6.89l-10.6-4a1.8,1.8,0,0,0-2.2.79L22.77,50.67A1.81,1.81,0,0,0,23.18,53l8.74,7.18a32.94,32.94,0,0,0,0,13.77l-8.73,7.18a1.81,1.81,0,0,0-.41,2.31L30,96a1.8,1.8,0,0,0,2.2.79l10.6-4a34.31,34.31,0,0,0,11.91,6.9l1.86,11.14a1.8,1.8,0,0,0,1.78,1.51h14.5a1.81,1.81,0,0,0,1.79-1.51l1.85-11.14a34.56,34.56,0,0,0,11.91-6.9l10.59,4a1.8,1.8,0,0,0,2.2-.79l7.25-12.55a1.82,1.82,0,0,0-.42-2.31ZM65.62,83.35A16.3,16.3,0,1,1,81.93,67,16.29,16.29,0,0,1,65.62,83.35Z"/></g><path class="cls-2" d="M111.1,0H7.09A7.1,7.1,0,0,0,0,7.09v85.1a7.09,7.09,0,0,0,7.09,7.09h104a7.08,7.08,0,0,0,7.09-7.09V7.09A7.09,7.09,0,0,0,111.1,0ZM7.09,4.73h104a2.36,2.36,0,0,1,2.36,2.36V18.91H4.73V7.09A2.36,2.36,0,0,1,7.09,4.73Zm104,89.82H7.09a2.36,2.36,0,0,1-2.36-2.36V23.64H113.46V92.19a2.36,2.36,0,0,1-2.36,2.36Z"/><path class="cls-3" d="M11.82,14.18h2.36a2.36,2.36,0,1,0,0-4.72H11.82a2.36,2.36,0,0,0,0,4.72Z"/><path class="cls-3" d="M23.64,14.18H26a2.36,2.36,0,1,0,0-4.72H23.64a2.36,2.36,0,1,0,0,4.72Z"/><path class="cls-3" d="M35.46,14.18h2.36a2.36,2.36,0,1,0,0-4.72H35.46a2.36,2.36,0,1,0,0,4.72Z"/><path class="cls-3" d="M78,14.18h28.36a2.36,2.36,0,1,0,0-4.72H78a2.36,2.36,0,1,0,0,4.72Z"/><path class="cls-4" d="M22,56a2.36,2.36,0,0,0,3.34-3.34l-7.78-7.79,7.78-7.78A2.36,2.36,0,0,0,22,33.79l-9.46,9.45a2.37,2.37,0,0,0,0,3.34Z"/><path class="cls-4" d="M43.24,56a2.37,2.37,0,0,0,3.34,0L56,46.58a2.37,2.37,0,0,0,0-3.34l-9.46-9.45a2.36,2.36,0,0,0-3.34,3.34L51,44.91,43.24,52.7a2.37,2.37,0,0,0,0,3.34Z"/><path class="cls-4" d="M29.9,56.58a2.36,2.36,0,0,0,3-1.38L40,36.29a2.37,2.37,0,0,0-4.43-1.66L28.52,53.55a2.35,2.35,0,0,0,1.38,3Z"/><path class="cls-3" d="M104,52H78a2.37,2.37,0,1,0,0,4.73h26A2.37,2.37,0,0,0,104,52Z"/><path class="cls-3" d="M104,66.19H49.64a2.37,2.37,0,0,0,0,4.73H104a2.37,2.37,0,0,0,0-4.73Z"/><path class="cls-3" d="M14.18,70.92h26a2.37,2.37,0,0,0,0-4.73h-26a2.37,2.37,0,0,0,0,4.73Z"/><path class="cls-3" d="M104,80.37H78a2.37,2.37,0,1,0,0,4.73h26a2.37,2.37,0,0,0,0-4.73Z"/><path class="cls-3" d="M68.55,80.37H14.18a2.37,2.37,0,0,0,0,4.73H68.55a2.37,2.37,0,1,0,0-4.73Z"/></g></g></svg>