<svg xmlns="http://www.w3.org/2000/svg" viewBox="0 0 247.53 181.7"><defs><style>.cls-1{fill:#fff;}.cls-2{fill:#f6921e;}.cls-3{fill:#89d5ef;}</style></defs><g id="Layer_2" data-name="Layer 2"><g id="Layer_1-2" data-name="Layer 1"><path class="cls-1" d="M150.37,131.58,177.81,159a13.29,13.29,0,0,1,3.89,9.4h0a13.29,13.29,0,0,1-13.29,13.29h0a13.29,13.29,0,0,1-9.4-3.89l-27.43-27.44,18.79-18.79Z"/><polygon class="cls-2" points="115.92 134.7 134.71 115.91 150.37 131.57 131.58 150.36 115.92 134.7 115.92 134.7"/><path class="cls-3" d="M75.19,12.53A62.66,62.66,0,1,1,12.53,75.19,62.65,62.65,0,0,1,75.19,12.53Z"/><polygon class="cls-2" points="44.77 74.27 49.21 69.84 68 88.63 63.57 93.06 44.77 74.27 44.77 74.27"/><polygon class="cls-2" points="76.1 88.64 101.17 63.57 105.6 68 80.53 93.07 76.1 88.64 76.1 88.64"/><polygon class="cls-2" points="162.9 12.53 247.53 12.53 247.53 18.8 162.9 18.8 162.9 12.53 162.9 12.53"/><polygon class="cls-2" points="12.53 62.66 31.33 62.66 31.33 68.92 12.53 68.92 12.53 62.66 12.53 62.66"/><polygon class="cls-2" points="132.49 32.25 145.02 19.72 149.45 24.15 136.92 36.68 132.49 32.25 132.49 32.25"/><path class="cls-1" d="M40.73,59.52A6.27,6.27,0,1,0,47,65.79a6.27,6.27,0,0,0-6.26-6.27Zm0,18.8A12.53,12.53,0,1,1,53.26,65.79,12.54,12.54,0,0,1,40.73,78.32Z"/><path class="cls-1" d="M72.05,90.85a6.27,6.27,0,1,0,6.27,6.27,6.26,6.26,0,0,0-6.27-6.27Zm0,18.8A12.54,12.54,0,1,1,84.58,97.12a12.53,12.53,0,0,1-12.53,12.53Z"/><path class="cls-1" d="M153.51,9.4a6.27,6.27,0,1,0,6.26,6.26,6.26,6.26,0,0,0-6.26-6.26Zm0,18.79A12.53,12.53,0,1,1,166,15.66a12.54,12.54,0,0,1-12.53,12.53Z"/><polygon class="cls-2" points="113.69 51.05 126.22 38.52 130.66 42.95 118.12 55.48 113.69 51.05 113.69 51.05"/><path class="cls-1" d="M75.19,137.84a62.66,62.66,0,1,1,62.65-62.65,62.65,62.65,0,0,1-62.65,62.65ZM75.19,0a75.19,75.19,0,1,0,75.18,75.19A75.19,75.19,0,0,0,75.19,0Z"/><path class="cls-1" d="M109.65,53.26a6.27,6.27,0,1,0,6.26,6.26,6.27,6.27,0,0,0-6.26-6.26Zm0,18.79a12.53,12.53,0,1,1,12.53-12.53,12.53,12.53,0,0,1-12.53,12.53Z"/></g></g></svg>