<svg xmlns="http://www.w3.org/2000/svg" xmlns:xlink="http://www.w3.org/1999/xlink" viewBox="0 0 188.9 188.9"><defs><style>.cls-1{fill:#fff;}.cls-2{clip-path:url(#clip-path);}.cls-3{clip-path:url(#clip-path-2);}.cls-4{clip-path:url(#clip-path-3);}.cls-5{clip-path:url(#clip-path-4);}</style><clipPath id="clip-path" transform="translate(0 0.03)"><path class="cls-1" d="M79.2,106.62A15.23,15.23,0,1,0,94.43,91.39,15.23,15.23,0,0,0,79.2,106.62Zm24.37,0a9.14,9.14,0,1,1-9.14-9.14,9.14,9.14,0,0,1,9.14,9.14Z"/></clipPath><clipPath id="clip-path-2" transform="translate(0 0.03)"><path class="cls-1" d="M94.43,124.9a3,3,0,0,0-3,3V131a3,3,0,0,0,6.09,0v-3.05a3,3,0,0,0-3-3Z"/></clipPath><clipPath id="clip-path-3" transform="translate(0 0.03)"><path class="cls-1" d="M97.21,26.16a3,3,0,0,0-5.55,0L49,120.6a3,3,0,0,0,.27,3L73.39,158.4H70.06a3,3,0,0,0-3,3v9.14h-6.1a3,3,0,0,0-3,3v12.18a3,3,0,0,0,3,3.05h67a3.06,3.06,0,0,0,3.05-3.05V173.64a3,3,0,0,0-3.05-3h-6.09v-9.14a3,3,0,0,0-3-3h-.64l21.52-34.95a3.09,3.09,0,0,0,.18-2.85ZM124.9,182.77H64v-6.09H124.9ZM73.11,170.59V164.5h42.65v6.09ZM111,158.4H97.48V140.13a3,3,0,1,0-6.09,0V158.4H80.8L55.27,121.54,94.43,34.82l39.21,86.82Z"/></clipPath><clipPath id="clip-path-4" transform="translate(0 0.03)"><path class="cls-1" d="M185.82,91.39H182.7C181.12,46.7,145.16,8,103.57,6.18V3.05a3,3,0,0,0-3-3H88.34a3,3,0,0,0-3,3.05V6.18C43.7,8,7.75,46.7,6.17,91.39H3.05a3,3,0,0,0-3,3v12.19a3,3,0,0,0,3.05,3H15.23a3,3,0,0,0,3.05-3V94.43a3,3,0,0,0-3.05-3h-3C13.82,50,47,14.09,85.29,12.27v3a3.06,3.06,0,0,0,3,3.05h12.19a3,3,0,0,0,3-3.05v-3c38.35,1.82,71.48,37.69,73,79.12h-3a3,3,0,0,0-3,3v12.19a3,3,0,0,0,3,3h12.18a3,3,0,0,0,3.05-3V94.43a3,3,0,0,0-3.05-3ZM12.18,103.57H6.09V97.48h6.09Zm85.3-91.39H91.39V6.09h6.09Zm85.29,91.39h-6.09V97.48h6.09Z"/></clipPath></defs><g id="Layer_2" data-name="Layer 2"><g id="Layer_1-2" data-name="Layer 1"><path class="cls-1" d="M79.2,106.62A15.23,15.23,0,1,0,94.43,91.39,15.23,15.23,0,0,0,79.2,106.62Zm24.37,0a9.14,9.14,0,1,1-9.14-9.14,9.14,9.14,0,0,1,9.14,9.14Z" transform="translate(0 0.03)"/><g class="cls-2"><rect class="cls-1" x="79.14" y="91.39" width="30.52" height="30.52"/></g><path class="cls-1" d="M94.43,124.9a3,3,0,0,0-3,3V131a3,3,0,0,0,6.09,0v-3.05a3,3,0,0,0-3-3Z" transform="translate(0 0.03)"/><g class="cls-3"><rect class="cls-1" x="91.3" y="124.93" width="6.21" height="9.23"/></g><path class="cls-1" d="M97.21,26.16a3,3,0,0,0-5.55,0L49,120.6a3,3,0,0,0,.27,3L73.39,158.4H70.06a3,3,0,0,0-3,3v9.14h-6.1a3,3,0,0,0-3,3v12.18a3,3,0,0,0,3,3.05h67a3.06,3.06,0,0,0,3.05-3.05V173.64a3,3,0,0,0-3.05-3h-6.09v-9.14a3,3,0,0,0-3-3h-.64l21.52-34.95a3.09,3.09,0,0,0,.18-2.85ZM124.9,182.77H64v-6.09H124.9ZM73.11,170.59V164.5h42.65v6.09ZM111,158.4H97.48V140.13a3,3,0,1,0-6.09,0V158.4H80.8L55.27,121.54,94.43,34.82l39.21,86.82Z" transform="translate(0 0.03)"/><g class="cls-4"><rect class="cls-1" x="48.71" y="24.4" width="91.48" height="164.5"/></g><path class="cls-1" d="M185.82,91.39H182.7C181.12,46.7,145.16,8,103.57,6.18V3.05a3,3,0,0,0-3-3H88.34a3,3,0,0,0-3,3.05V6.18C43.7,8,7.75,46.7,6.17,91.39H3.05a3,3,0,0,0-3,3v12.19a3,3,0,0,0,3.05,3H15.23a3,3,0,0,0,3.05-3V94.43a3,3,0,0,0-3.05-3h-3C13.82,50,47,14.09,85.29,12.27v3a3.06,3.06,0,0,0,3,3.05h12.19a3,3,0,0,0,3-3.05v-3c38.35,1.82,71.48,37.69,73,79.12h-3a3,3,0,0,0-3,3v12.19a3,3,0,0,0,3,3h12.18a3,3,0,0,0,3.05-3V94.43a3,3,0,0,0-3.05-3ZM12.18,103.57H6.09V97.48h6.09Zm85.3-91.39H91.39V6.09h6.09Zm85.29,91.39h-6.09V97.48h6.09Z" transform="translate(0 0.03)"/><g class="cls-5"><rect class="cls-1" width="188.9" height="109.76"/></g></g></g></svg>