<svg xmlns="http://www.w3.org/2000/svg" viewBox="0 0 480 480"><defs><style>.cls-1{isolation:isolate;}.cls-2{fill:#858585;opacity:0.2;mix-blend-mode:multiply;}.cls-3{fill:#1b88c1;}.cls-4{fill:#1d91cd;}</style></defs><g class="cls-1"><g id="Layer_2" data-name="Layer 2"><g id="Layer_1-2" data-name="Layer 1"><path class="cls-2" d="M304.25,232.73V35.15A35.16,35.16,0,0,0,269.09,0H35.15A35.15,35.15,0,0,0,0,35.15V269.09a35.16,35.16,0,0,0,35.15,35.16H232.73a35.15,35.15,0,0,1,35.15,35.15V444.85A35.15,35.15,0,0,0,303,480H444.85A35.14,35.14,0,0,0,480,444.85V303a35.15,35.15,0,0,0-35.15-35.15H339.4A35.15,35.15,0,0,1,304.25,232.73Z"/><path class="cls-3" d="M299.51,226V41.8A32.77,32.77,0,0,0,266.74,9H48.65A32.77,32.77,0,0,0,15.88,41.8V259.88a32.77,32.77,0,0,0,32.77,32.77H232.84a32.77,32.77,0,0,1,32.77,32.77v98.31a32.77,32.77,0,0,0,32.77,32.77H430.59a32.77,32.77,0,0,0,32.77-32.77V291.52a32.77,32.77,0,0,0-32.77-32.77H332.28A32.77,32.77,0,0,1,299.51,226Z"/><path class="cls-4" d="M430.59,258.75H332.28A32.77,32.77,0,0,1,299.51,226V41.8A32.77,32.77,0,0,0,266.74,9H48.65A32.58,32.58,0,0,0,26,18.18a32.32,32.32,0,0,1,6.79-.72H250.86a32.77,32.77,0,0,1,32.77,32.77V234.42a32.77,32.77,0,0,0,32.77,32.77h98.31A32.77,32.77,0,0,1,447.47,300V432.17a32.65,32.65,0,0,1-10.09,23.62,32.78,32.78,0,0,0,26-32.06V291.52A32.77,32.77,0,0,0,430.59,258.75Z"/></g></g></g></svg>