<svg xmlns="http://www.w3.org/2000/svg" viewBox="0 0 29.06 29.06"><defs><style>.cls-1{fill:#475993;}</style></defs><g id="Layer_2" data-name="Layer 2"><g id="Layer_1-2" data-name="Layer 1"><path class="cls-1" d="M25.14,0H3.92A3.91,3.91,0,0,0,0,3.92V25.14a3.91,3.91,0,0,0,3.92,3.92H14.39V18.68H11.71a.64.64,0,0,1-.64-.64V14.69a.62.62,0,0,1,.63-.63h2.7V10.82C14.39,7.07,16.68,5,20,5h2.74a.64.64,0,0,1,.64.64V8.48a.64.64,0,0,1-.63.64H21.09c-1.82,0-2.18.87-2.18,2.14v2.8h4a.64.64,0,0,1,.63.71l-.4,3.34a.65.65,0,0,1-.63.57H18.93l0,10.38h6.23a3.91,3.91,0,0,0,3.92-3.91V3.92A3.91,3.91,0,0,0,25.14,0Z"/></g></g></svg>