<svg xmlns="http://www.w3.org/2000/svg" viewBox="0 0 289.47 364.49"><defs><style>.cls-1{isolation:isolate;}.cls-2{opacity:0.5;mix-blend-mode:overlay;}.cls-10,.cls-11,.cls-14,.cls-3{fill:#fff;}.cls-4{fill:#bababa;}.cls-5{fill:none;}.cls-10,.cls-11,.cls-5{stroke:#232323;stroke-linecap:round;stroke-miterlimit:10;}.cls-10,.cls-5{stroke-width:0.92px;}.cls-16,.cls-6{fill:#3c3c3c;}.cls-6,.cls-8{opacity:0.07;}.cls-13,.cls-6,.cls-8{mix-blend-mode:multiply;}.cls-7{fill:#a5a5a5;}.cls-13,.cls-8{fill:#6f6f6f;}.cls-9{fill:#232323;}.cls-11{stroke-width:0.88px;}.cls-12{fill:#ccc;}.cls-13{opacity:0.25;}.cls-14{opacity:0.3;}.cls-15{mix-blend-mode:soft-light;}</style></defs><g class="cls-1"><g id="Layer_2" data-name="Layer 2"><g id="Layer_1-2" data-name="Layer 1"><g class="cls-2"><path class="cls-3" d="M85.8,285.61c16.46,33.32,29.07,58.71,47.47,70.3a44.77,44.77,0,0,0,24.62,6.93c27.47,0,44.72-47.29,52.62-75.73,3.4-12.23,5.06-21,5.06-21L194.4,243.3,159,304.2l-17-25.38Z"/><path class="cls-4" d="M97.7,188.72c3.72,2.25,7.54,4.59,11,6.69a42.47,42.47,0,0,1,16.64,19.14l41,77.59s-54.22,34.93-54.22,36S97.7,188.72,97.7,188.72Z"/><line class="cls-5" x1="162.95" y1="296.85" x2="153.31" y2="312.19"/><path class="cls-6" d="M133.27,355.91a44.77,44.77,0,0,0,24.62,6.93c27.47,0,44.72-47.29,52.62-75.73C198.79,297.58,153.55,337.85,133.27,355.91Z"/><path class="cls-4" d="M8.8,363.6s22.91.06,48.94,0c34.22,0,73.82-.2,73.82-.84,0-.82-7.1-67.68-11-104.87-1.54-14.36-2.59-24.3-2.59-24.3L97.7,188.72l-51.55-7.84s-28.72,42.41-28.72,43.53S8.8,363.6,8.8,363.6Z"/><path class="cls-6" d="M57.74,363.64c34.22,0,73.82-.2,73.82-.84,0-.82-7.1-67.68-11-104.87Z"/><line class="cls-5" x1="131.56" y1="362.8" x2="124.32" y2="292.4"/><path class="cls-3" d="M186.89,203.77c-4.42-4.7-11.92-5.26-23.12-2.71s-36.7-2.84-36.7-2.84v8.36l58.66,7.09,8.36-.85Z"/><path class="cls-3" d="M186.89,203.77c1.58-13.32,11.73-6.06,28.06-17.32,2-1.41,1.75-2,2-3.8l3.15,1.68L189.58,207.1Z"/><polygon class="cls-7" points="127.36 295.09 179.78 294.25 179.78 203.44 120.93 203.94 127.36 295.09"/><polygon class="cls-8" points="127.36 295.09 179.78 294.25 179.78 203.44 128.5 275.84 127.36 295.09"/><polygon class="cls-7" points="193.16 291.56 216.02 272.78 221.39 183.26 193.16 200.75 193.16 291.56"/><polygon class="cls-8" points="221.39 183.26 216.02 272.78 193.48 291.23 193.02 252.39 221.39 183.26"/><path class="cls-7" d="M193.16,200.75s-1.6,8.38-13.38,2.69v90.81s11.26,6.6,13.38-2.69Z"/><line class="cls-5" x1="193.16" y1="200.75" x2="193.16" y2="291.56"/><path class="cls-5" d="M193.17,222.86c-.17.53-5.21,5-13,1.22"/><path class="cls-5" d="M193.12,266.73c-2.08,5.38-11.06,4.22-13,.57"/><line class="cls-5" x1="180.14" y1="204.04" x2="180.14" y2="294.85"/><path class="cls-3" d="M219.59,214.3c-5-6.73-11.74-10.85-12.67-7.16,0,0-4.66-4.29-5-1.38s3.09,7.15,3.09,7.15-2.76-.78-2.61,2.52S209,225.69,209,225.69s-2-.09-1.72,2.34,9.56,16,9.56,16Z"/><path class="cls-3" d="M219.59,214.3c3,4,6.3,24.1-2.61,42.16l-.49-44Z"/><path class="cls-5" d="M209,225.69c4.19,2.85,10.79,10.49,10.79,10.49"/><path class="cls-5" d="M205,212.91c9.59,5.64,15.5,15.24,15.5,15.24"/><path class="cls-5" d="M206.92,207.14c5.29,3.92,10.36,8,12.73,12.29"/><path class="cls-3" d="M135.75,278.45c12.71-7.66,27-19.06,23.33-23.09,0,0,10.84-8,6.69-12.28,0,0,3.51-3.16,1.76-5.65s-6.06,0-6.06,0,2.05-3.07.32-4.87c-3.83-4-37.8,17.38-37.8,16.74s-1.24-20-1.24-20l-13.33,24.79,25.21,25,1.12-.67"/><path class="cls-5" d="M165.77,243.08c-3.89,4.29-21.71,14.88-21.71,14.88"/><path class="cls-5" d="M161.47,237.43c-4.17,4.34-19.86,14-19.86,14"/><path class="cls-5" d="M159.08,255.36a97.2,97.2,0,0,1-11,7.08"/><path class="cls-3" d="M12.91,289.85c8.66,28.56,13.36,50.65,24.41,62.9q.13.17.3.33c.22.25.46.49.69.73.43.44.92.91,1.45,1.4,6,5.38,13.67,8.28,24.39,8.28a19,19,0,0,0,8.09-2.05c20.53-9.67,45.41-51.24,56.53-71.35,3.69-6.66,5.86-11,5.86-11l-25.21-25-38.56,50s-1.72-5.61-4.15-14.27Z"/><path class="cls-6" d="M12.91,289.85c8.66,28.56,13.36,50.65,24.41,62.9q.13.17.3.33c.22.25.46.49.69.73.43.44.92.91,1.45,1.4,6,5.38,13.67,8.28,24.39,8.28a19,19,0,0,0,8.09-2.05c-10-21.76-26.94-58.22-34.22-71.59Z"/><path class="cls-4" d="M46.16,180.88c-5.32,2.19-13.43,7.11-20.93,12A44.6,44.6,0,0,0,5.06,227.35L6.43,322,69.5,299.33,54.61,238.57Z"/><line class="cls-5" x1="69.5" y1="299.33" x2="53.39" y2="244.21"/><line class="cls-5" x1="56.62" y1="255.87" x2="61.34" y2="241.72"/><line class="cls-5" x1="6.43" y1="322.02" x2="45.2" y2="308.01"/><line class="cls-5" x1="78.02" y1="294.14" x2="64.3" y2="312.61"/><path class="cls-5" d="M103.35,192.14S99.1,211,85.8,211s-46.67-25.54-46.67-25.54"/><path class="cls-9" d="M73.61,147c-6,8.54-24,7.88-25.51-13.91S73.61,147,73.61,147Z"/><path class="cls-9" d="M57.54,96.22c-16.22-2.17-25.43,24.33-9.44,36.88C67.74,148.53,76.17,119.59,76,119.16S57.54,96.22,57.54,96.22Z"/><path class="cls-5" d="M53.21,98.05a14.23,14.23,0,0,0-16.55,16"/><path class="cls-9" d="M137.62,101.64c6.9,4.76,10.12,18.56,4,26.38S122,133.08,122,133.08Z"/><path class="cls-5" d="M139.36,103.92a13,13,0,0,1,4.36,4.15,16.59,16.59,0,0,1,2.86,6.87,11.44,11.44,0,0,1-1.21,7.27"/><path class="cls-3" d="M46.16,180.88s21.31,17.09,34,19.58S97.7,188.72,97.7,188.72l-4.62-3s.71-2.27,1.51-4.79c.94-3,2-6.33,2-6.6l-24.62-34L58.21,176Z"/><polygon class="cls-9" points="94.8 180.3 83.02 174.22 93.08 185.74 94.8 180.3"/><path class="cls-3" d="M97.14,181.22c16.8,4.43,24.07-27.27,29.61-48.89.21-.8.41-1.6.61-2.37,1.25-5.08,2.2-9.42,2.82-12.28L88.71,105.62,74.35,149.28S75.51,175.52,97.14,181.22Z"/><path class="cls-9" d="M70.68,80.08c-12.9-5-24.36,5.3-22.35,16.33S82.15,130.52,82.44,130s6.27-16.62,6.27-16.62Z"/><path class="cls-3" d="M62.53,131.77c-2.25,6.81.93,14,7.09,16s13-1.83,15.23-8.63-.93-14-7.09-16S64.78,125,62.53,131.77Z"/><path class="cls-5" d="M73.14,125.92a12.32,12.32,0,0,1,4.24,11.62"/><path class="cls-5" d="M77.4,134.3a5.47,5.47,0,0,0-7.58,5.11"/><path class="cls-9" d="M106.37,115.91c5.73,5.16,34.23,10.16,34.4-17.78.16-26.94-30.59-25.36-38.51-18.2S106.37,115.91,106.37,115.91Z"/><path class="cls-9" d="M106.8,78.79c-5.45-8.17-32-21.07-41.85,0s11.32,42,25.22,42,23.08-6.31,24.66-16.63S106.8,78.79,106.8,78.79Z"/><path class="cls-9" d="M92.78,117.6l-6.45,21A2.5,2.5,0,0,1,83,140.18h0a2.5,2.5,0,0,1-1.52-2.79l3.83-19.79Z"/><path class="cls-5" d="M107.37,80.09c-.51-4.26-3.16-8-6.53-10.71A37.23,37.23,0,0,0,89.38,63.7"/><path class="cls-5" d="M139.92,99.78a24.71,24.71,0,0,0,1.15-13.52,15.8,15.8,0,0,0-7.93-10.68c-4.75-2.38-10.68-1.62-15.23,1.12"/><path class="cls-5" d="M131.05,116.81a15.27,15.27,0,0,1-15.39,9.64"/><path class="cls-10" d="M109.74,141.46a9,9,0,0,1,.51,7.25,5.64,5.64,0,0,1-6,3.53"/><path class="cls-5" d="M102.72,157.28a4.26,4.26,0,0,1-2.3-.53,13.15,13.15,0,0,1-5.48-5"/><path class="cls-5" d="M107.55,126.12a11.76,11.76,0,0,0-6.09-4.47,18.76,18.76,0,0,0-7.6-.72"/><path class="cls-5" d="M118.48,130.25a10.9,10.9,0,0,1,10.43,1.82"/><path class="cls-10" d="M93,138.34a8.33,8.33,0,0,0,2.43,2.56,6.82,6.82,0,0,0,6.79.36,9.15,9.15,0,0,0,4.2-4,7.26,7.26,0,0,0,.56-5.57,6.82,6.82,0,0,0-4.58-4.71,9.17,9.17,0,0,0-10.08,3.7A10,10,0,0,0,93,138.34Z"/><path class="cls-11" d="M113.35,143.05a7.32,7.32,0,0,0,2.38,2.87,5.82,5.82,0,0,0,6.25.24,9.13,9.13,0,0,0,4.37-5,7.63,7.63,0,0,0,.2-4.55,6.28,6.28,0,0,0-4.13-4.61c-3.13-1-7.15.41-9.35,3.89A10.81,10.81,0,0,0,113.35,143.05Z"/><path class="cls-9" d="M113.35,143.05a7.32,7.32,0,0,0,2.38,2.87,5.82,5.82,0,0,0,6.25.24,9.13,9.13,0,0,0,4.37-5,7.93,7.93,0,0,0-13,1.92Z"/><path class="cls-9" d="M93,138.34a8.33,8.33,0,0,0,2.43,2.56,6.82,6.82,0,0,0,6.79.36,9.15,9.15,0,0,0,4.2-4,7.92,7.92,0,0,0-13.42,1Z"/><path class="cls-12" d="M229.37,313.26v28.11a24.08,24.08,0,0,0,14,21.66h19.55a23.69,23.69,0,0,0,7.84-5.72h0a23.72,23.72,0,0,0,6.14-15.94V310.64Z"/><path class="cls-12" d="M217.31,326.9l2,19.5a2.45,2.45,0,0,0,1.9,2.13L234,351.46l1.1-4.78-11-2.54-1.84-17.75a3.7,3.7,0,0,1,1.26-3.21,3.73,3.73,0,0,1,3.35-.83l4.93,1.18,1.15-4.78L228,317.57a8.68,8.68,0,0,0-10.64,9.33Z"/><rect class="cls-9" x="257.43" y="310.64" width="1.13" height="28.27"/><path class="cls-3" d="M258,343.22h0a4.4,4.4,0,0,0,4.4-4.4v-4.39h-8.79v4.39A4.39,4.39,0,0,0,258,343.22Z"/><path class="cls-13" d="M222.2,326.39a3.7,3.7,0,0,1,1.26-3.21,3.75,3.75,0,0,1,1.59-.83h-1.52a3.53,3.53,0,0,0-3.05,1.75h0a3.6,3.6,0,0,0-.4,2.57l4,17.47Z"/><path class="cls-13" d="M248.52,363h14.39a23.69,23.69,0,0,0,7.84-5.72h0a23.72,23.72,0,0,0,6.14-15.94V328.22C269,337.91,256,353.93,248.52,363Z"/><path class="cls-3" d="M227.31,364.49H280a1.76,1.76,0,0,0,1.76-1.76h0A1.76,1.76,0,0,0,280,361H227.31a1.75,1.75,0,0,0-1.75,1.76h0A1.75,1.75,0,0,0,227.31,364.49Z"/><path class="cls-14" d="M277.74,276.69a38.58,38.58,0,0,0-5.37-33.59c-4.6-6.43-11.09-11.27-15.39-17.93a22.29,22.29,0,0,1-4-12.72c.43-11.58,10.92-15,16.15-23.59,3.55-5.82,2.75-13.87.69-20.09s-6-10.71-11.47-14.45c3.38,2.32,4.65,9.26,4.76,13a20,20,0,0,1-4.89,14c-2.54,3-5.62,5.48-8.4,8.26a47.25,47.25,0,0,0-13.5,25.47,37,37,0,0,0,5.82,26.72c5.88,8.57,14.28,15.75,16.76,26.22,2.22,9.34.22,19.79-5.94,27.25-2,2.37-4.31,4.51-5.58,7.31-1,2.16-1.42,6,.79,7.48.9-3,2-5.43,4.56-7.42,3.36-2.64,7.7-3.57,11.15-6.12a37.73,37.73,0,0,0,8.93-9.46A39,39,0,0,0,277.74,276.69Z"/><g class="cls-15"><path class="cls-16" d="M201.69,108.28c3.7-1.92,9.14-7.35,11.06-11.06-1.92-3.71-7.36-9.14-11.06-11.06a32.69,32.69,0,0,0-11.06,11.06A32.69,32.69,0,0,0,201.69,108.28Z"/></g><g class="cls-15"><circle class="cls-16" cx="186.89" cy="2.29" r="2.29"/></g><g class="cls-15"><circle class="cls-16" cx="247.08" cy="217.16" r="2.29"/></g><path class="cls-3" d="M166.32,147.9a9.57,9.57,0,0,0,3.23-3.22,9.57,9.57,0,0,0-3.23-3.22,9.54,9.54,0,0,0-3.22,3.22A9.54,9.54,0,0,0,166.32,147.9Z"/><path class="cls-3" d="M3.22,153.86a9.6,9.6,0,0,0,3.23-3.23,9.57,9.57,0,0,0-3.23-3.22A9.54,9.54,0,0,0,0,150.63,9.57,9.57,0,0,0,3.22,153.86Z"/><g class="cls-15"><path class="cls-3" d="M252.4,37.09A22.67,22.67,0,0,0,260,29.47a22.64,22.64,0,0,0-7.62-7.61,22.64,22.64,0,0,0-7.62,7.61A22.67,22.67,0,0,0,252.4,37.09Z"/></g><g class="cls-15"><path class="cls-3" d="M284.17,161.33a15.71,15.71,0,0,0,5.3-5.3,15.71,15.71,0,0,0-5.3-5.3,15.65,15.65,0,0,0-5.31,5.3A15.65,15.65,0,0,0,284.17,161.33Z"/></g><g class="cls-15"><path class="cls-16" d="M28.72,31.52a17.72,17.72,0,0,0,6-6,17.81,17.81,0,0,0-6-6,17.75,17.75,0,0,0-6,6A17.67,17.67,0,0,0,28.72,31.52Z"/></g></g></g></g></g></svg>