<svg xmlns="http://www.w3.org/2000/svg" viewBox="0 0 297.28 320.26"><defs><style>.cls-1{isolation:isolate;}.cls-2{mix-blend-mode:soft-light;}.cls-14,.cls-3,.cls-9{fill:none;}.cls-3{stroke:#ccc;}.cls-12,.cls-14,.cls-3,.cls-9{stroke-miterlimit:10;}.cls-4{fill:#ccc;}.cls-5{fill:#bcbcbc;}.cls-12,.cls-6{fill:#a5a5a5;}.cls-7{fill:#fff;}.cls-13,.cls-8{fill:#6f6f6f;}.cls-8{opacity:0.25;mix-blend-mode:multiply;}.cls-12,.cls-14,.cls-9{stroke:#232323;}.cls-12,.cls-9{stroke-linecap:round;}.cls-10{fill:#bababa;}.cls-11{fill:#232323;}</style></defs><g class="cls-1"><g id="Layer_2" data-name="Layer 2"><g id="Layer_1-2" data-name="Layer 1"><g class="cls-2"><path class="cls-3" d="M208.87,7.29c10.49-.15,40.33,7.24,20,68.37"/><path class="cls-3" d="M227.49,81.78c5,9.23,14.61,15,24,19.66s19.42,8.86,26.76,16.4A39.18,39.18,0,0,1,289.24,143"/><path class="cls-3" d="M158.65,77.68a69,69,0,0,1-25,45.63"/><path class="cls-4" d="M280,157.88a35.85,35.85,0,0,1-3.27,7.13,30.11,30.11,0,0,1-8.21,9.33c-6.46,4.39-95-4.82-126.52-7.69-5.57-.51-9.36-.81-10.6-.81-8.2,0-5.16-22.16,6.39-34s18.82-23.08,17.29-36.43,5.47-79,5.47-79C171.22,6.11,199-1,216.28,11.15s12.64,38.39,12.64,64.51,38.83,39.79,48.29,55.82A31.18,31.18,0,0,1,280,157.88Z"/><path class="cls-5" d="M276.77,165a30.11,30.11,0,0,1-8.21,9.33c-6.46,4.39-95-4.82-126.52-7.69,10.48-30,23.13-68.53,22.35-77.32-1.34-14.89,48.15-10.24,48.15-10.24-.28,22.39,45.87,35.73,58.8,55C277.21,142.91,278.55,150.4,276.77,165Z"/><polygon class="cls-6" points="16.7 133.85 46.22 112 60.5 125.81 63.79 136.39 58.02 146.25 40.66 156.29 22.66 142.56 16.7 133.85"/><path class="cls-6" d="M149.4,185l-.26.57c-1.37,3.09-8.25,18.18-17.37,35-4.26,7.85-9,16.06-13.9,23.59l0,0C107.56,260,96.58,272.75,88,272.75c-27.71,0-34.16-32.54-36.58-48.41s-10.75-68-10.75-68,22.86-19.11,23.12-19.91S90.15,202,90.15,202s2.54-4.5,6.33-11.14h0a.19.19,0,0,1,0-.07,1.74,1.74,0,0,0,.11-.18l1.49-2.58c4.61-8.07,10.62-18.43,16.22-27.85l30.1,21.33Z"/><path class="cls-7" d="M153.25,188.62s-18.18,33.91-18.39,34.55l-3.09-2.6-4.75-4L96.5,190.88a.19.19,0,0,1,0-.07,1.74,1.74,0,0,0,.11-.18l1.49-2.58c3.65-6.28,12.39-21.35,16.22-27.85l25.3,18.48h0l9.48,6.92Z"/><path class="cls-8" d="M153.25,188.62s-18.18,33.91-18.39,34.55l-3.09-2.6c-4.26,7.85-9,16.06-13.9,23.59l0,0L127,216.59l12.62-37.91h0l4.78,2.84,5,3.51-.26.57Z"/><line class="cls-9" x1="88.41" y1="196.06" x2="100.53" y2="230.65"/><path class="cls-6" d="M21.2,144.52c-6.58-7.16-18.23-23.36-16-25.8s16,12.9,16,12.9Z"/><path class="cls-7" d="M281.88,270.65h-107L158,217.55c-16.95-8.48-13-33.42-13-33.42L114.34,160.2l6.28-10a73,73,0,0,1,26-24.88l2.73-1.53c10.58-6,23.21,7.36,30.62,3.21l27.34-18.62,19.19,8.5,10.5,4.66A48.71,48.71,0,0,1,261.19,145L221.8,166.69,259,231.08Z"/><path class="cls-6" d="M226.55,116.84a390.08,390.08,0,0,1-22,33c-1.78,2.36-3.59,4.64-5.39,6.8-1.59,1.92-3.19,3.73-4.76,5.38-.69.73-1.38,1.43-2.06,2.1-4.07,4-7.84,6.65-10.87,7s-6-1.46-9-4.56c-.52-.52-1-1.07-1.53-1.65-.37-.43-.73-.88-1.1-1.35a62.93,62.93,0,0,1-4.21-6c-8.87-14-16.06-33.86-16.22-33.86,4.66-2.62,9.69-5.44,14.48-8.16l3.73-2.08.19-.11c.44-.25.88-.51,1.32-.75l10.79-6.05,27.36,1.74h.09l1.15.51.81.36,3.54,1.57Z"/><path class="cls-10" d="M208.51,108.85c-1.2,5.33-5.12,22.33-9.89,39.21-1.5,5.31-2.89,9.94-4.19,14-8.81,27.58-13,28-14.5,28.11h-.27a3.1,3.1,0,0,1-2.1-.9c-3.06-2.75-5.18-12.57-6.63-24.32-2.43-19.75-3-45-3.13-51.55.44-.25.88-.51,1.32-.75.1,5.06.68,33.28,3.34,53.95,1.37,10.63,3.3,19.26,6,21.69a1.73,1.73,0,0,0,1.34.54c3.34-.31,7.91-10.54,12.58-24.68,5.43-16.49,11-38.28,14.9-55.81h.09Z"/><path class="cls-10" d="M212.86,110.78c-1.28,6.34-4.42,21.82-8.28,39.09-1,4.48-2.05,9.09-3.12,13.69-13.38,57.21-17.77,57.58-20.12,57.79H181a5,5,0,0,1-3.4-1.41c-6.59-5.92-10.09-33.62-11.94-62.34-.94-14.66-1.46-29.59-1.74-42l3.73-2.08c.41,19.83,1.19,36.41,2.22,50.09,2.55,34.21,6.62,50.27,10.26,53.55a1.52,1.52,0,0,0,.79.44c3.5-2.33,10.81-28.32,18.31-60.92,3.46-15,6.95-31.35,10.13-47.46Z"/><line class="cls-9" x1="145.01" y1="184.13" x2="140.52" y2="168.14"/><path class="cls-9" d="M132.75,174.57,145,184.13s-4.29,23.57,13,33.42"/><path class="cls-9" d="M182.07,195c5.43,12.22,17.38,17.92,34.21,20.36"/><polygon class="cls-8" points="36.46 288.64 51.4 288.64 51.4 302.57 36.46 306.56 36.46 288.64"/><polygon class="cls-8" points="147.49 288.64 162.43 288.64 162.43 302.57 147.49 306.56 147.49 288.64"/><path class="cls-11" d="M182.47,1.64c-5.49,0-8.56,7.42-8.56,7.42h26.15l-5.52-7.42Z"/><path class="cls-6" d="M207.36,108.34,176.43,124.8s-3.93-7.16-8.68-16.3c-1.09-2.09-2.22-4.27-3.36-6.5-.66-1.28-1.31-2.57-2-3.88,0,0,26.21-32.9,28.21-25.68S207.36,108.34,207.36,108.34Z"/><path class="cls-11" d="M164.39,102a28.57,28.57,0,0,0,15.47-6.82L167.75,108.5C166.66,106.41,165.53,104.23,164.39,102Z"/><path class="cls-6" d="M151.35,25.38c-2.95,8.18-27.14,58.73-5.43,71.42,21.14,12.36,36.55-3.67,36.55-3.67l21.82-24L192.93,22.39l-18.7-8.63Z"/><path class="cls-9" d="M164.09,45.88s2,6.38,7.65,6.38a14.73,14.73,0,0,0,9.43-3.64"/><line class="cls-9" x1="175.91" y1="51.59" x2="177.56" y2="55.17"/><line class="cls-9" x1="179.12" y1="50.13" x2="181.17" y2="53.38"/><path class="cls-9" d="M145.22,37.76c.67,3.11,3,7.2,10.4,6.16"/><line class="cls-9" x1="145.88" y1="39.77" x2="142.7" y2="40.92"/><line class="cls-9" x1="147.54" y1="42.09" x2="144.29" y2="44.61"/><path class="cls-12" d="M156.28,46.54c-2.45-2.82-5.64-4.53-6.91-2.3s2,11.94,2,11.94"/><path class="cls-9" d="M149.08,64.77s10,4.67,15-4.19"/><path class="cls-4" d="M176.05,43.21a38.17,38.17,0,0,1-8.38-2.37C152.28,34.48,146.52,19.46,151,11c5.07-9.5,21.92-8.93,26.13-2.26a5,5,0,0,1,.42.79C164.19,23.81,176.05,43.21,176.05,43.21Z"/><path class="cls-5" d="M176.05,43.21a38.17,38.17,0,0,1-8.38-2.37c-4.36-8-5.28-17.06-2.61-23.28,2.33-5.43,12.41-8.32,12.52-8C164.19,23.81,176.05,43.21,176.05,43.21Z"/><path class="cls-3" d="M177.58,9.51C170.91-.55,159-1.76,151.27,3.77"/><path class="cls-4" d="M203.54,42.66a28.44,28.44,0,0,1-1.83,10.06l-2,5.22c-33.74-11.19-25.48-43.88-25-44.84,3.22,0,7,1.55,10.18,2.75A28.62,28.62,0,0,1,203.54,42.66Z"/><path class="cls-4" d="M193.27,55.3v90.25A10.7,10.7,0,0,0,204,156.25h0a10.69,10.69,0,0,0,10.39-13.4c-4-15.35-10.22-40.26-12.46-55.22-3.42-22.77-2.13-29.69-2.13-29.69Z"/><path class="cls-3" d="M193.8,80.76a363.81,363.81,0,0,1-4.71,61c-.5,3.07-1,6.22-.49,9.29s2.4,6.1,5.35,7.13"/><circle class="cls-11" cx="207.36" cy="63.22" r="19.13" transform="translate(14.39 162) rotate(-44.06)"/><path class="cls-11" d="M208.87,89.33h0a1.46,1.46,0,0,1-1.46-1.46V80.43h2.91v7.44A1.45,1.45,0,0,1,208.87,89.33Z"/><rect class="cls-11" x="207.36" y="44.09" width="5.91" height="38.27"/><circle class="cls-13" cx="213.28" cy="63.22" r="19.13" transform="translate(17.76 169.33) rotate(-45)"/><path class="cls-13" d="M182.47,1.64h12.07s22,2.92,22,42.72h-12S204.68,1.64,182.47,1.64Z"/><path class="cls-14" d="M208.87,84.88C205.11,127,250.72,269,160.87,269c-60.86,0-49.2,50.32-64.37,50.09C83.62,318.86,82.06,270.9,71,270.3c-22.1-1.2-8.09-104.13-20-123.94"/><rect class="cls-11" x="49.32" y="142.37" width="2.05" height="5.34" transform="translate(-65.77 44.6) rotate(-30)"/><rect class="cls-11" x="14.34" y="92.3" width="31.36" height="58.02" rx="2.43" transform="translate(-73.21 50.88) rotate(-41.8)"/><rect class="cls-13" x="14.95" y="91.76" width="31.36" height="58.02" rx="2.43" transform="matrix(0.75, -0.67, 0.67, 0.75, -72.7, 51.14)"/><rect class="cls-7" x="15.39" y="93.43" width="28.7" height="52.7" rx="2.43" transform="translate(-72.26 50.3) rotate(-41.8)"/><path class="cls-13" d="M16.26,100.16l-4.52,4A2.72,2.72,0,0,1,7.89,104h0l8.58-7.68h0A2.74,2.74,0,0,1,16.26,100.16Z"/><path class="cls-6" d="M37.35,113.18a9.9,9.9,0,1,0-.79,14A9.9,9.9,0,0,0,37.35,113.18Z"/><path class="cls-6" d="M40.66,156.29c-14.31-2.76-19.45-8.37-20.83-16.38s-2.52-16,0-14.76,6.33,14.19,6.33,14.19l8.14,10.12Z"/><path class="cls-9" d="M21.2,146a33.88,33.88,0,0,1-1.37-6.1c-.56-3.27-1.08-6.54-1.33-9.18"/><path class="cls-6" d="M63.79,136.39c-.32-9-4.91-16.81-8.06-21.12A15.71,15.71,0,0,0,48.94,110c-3.65-1.48-8.69-4.19-9.72-1.86s2.46,5.77,7.65,7.3l13.92,13.42Z"/><path class="cls-6" d="M153.24,240.79c-8.78,2.64-22.12,12.51-26.42,24.59s-12,43.46-10,46.1,6.81-7.91,6.81-6.37-2,15.15,1.32,15.15,9.93-20.42,9.93-20.42-.28,8.56,3,6.59S144,284.69,144,284.69s8-6.87,8-14S153.24,240.79,153.24,240.79Z"/><line class="cls-9" x1="123.43" y1="307.22" x2="125.72" y2="283.69"/><line class="cls-9" x1="134.86" y1="299.84" x2="134.86" y2="282.22"/><path class="cls-6" d="M295.6,253.91c-3.42,8.6-12.78,16.74-34.57,16.74H151.27l2-29.86,91.3-16.9L230.08,185l48.72,4.83c7.91,17.56,14.27,38.63,17.34,47.63A24.87,24.87,0,0,1,295.6,253.91Z"/><path class="cls-7" d="M261.19,145c7.08,13,25.3,49,25.3,49l-49.92,9.77-16.47-39Z"/><polygon class="cls-10" points="191.05 270.65 181.98 270.65 168.99 236.42 178.06 235.09 191.05 270.65"/><polygon class="cls-10" points="205.15 270.65 200.07 270.65 185.9 233.48 191.12 232.55 205.15 270.65"/><line class="cls-9" x1="228.21" y1="182.8" x2="214.38" y2="174.57"/><line class="cls-9" x1="221.8" y1="166.69" x2="244.56" y2="223.89"/><path class="cls-8" d="M295.6,253.91c-3.42,8.6-12.78,16.74-34.57,16.74H185.4Z"/></g><g class="cls-2"><path class="cls-3" d="M208.87,7.29c10.49-.15,40.33,7.24,20,68.37"/><path class="cls-3" d="M227.49,81.78c5,9.23,14.61,15,24,19.66s19.42,8.86,26.76,16.4A39.18,39.18,0,0,1,289.24,143"/><path class="cls-3" d="M158.65,77.68a69,69,0,0,1-25,45.63"/><path class="cls-4" d="M280,157.88a35.85,35.85,0,0,1-3.27,7.13,30.11,30.11,0,0,1-8.21,9.33c-6.46,4.39-95-4.82-126.52-7.69-5.57-.51-9.36-.81-10.6-.81-8.2,0-5.16-22.16,6.39-34s18.82-23.08,17.29-36.43,5.47-79,5.47-79C171.22,6.11,199-1,216.28,11.15s12.64,38.39,12.64,64.51,38.83,39.79,48.29,55.82A31.18,31.18,0,0,1,280,157.88Z"/><path class="cls-5" d="M276.77,165a30.11,30.11,0,0,1-8.21,9.33c-6.46,4.39-95-4.82-126.52-7.69,10.48-30,23.13-68.53,22.35-77.32-1.34-14.89,48.15-10.24,48.15-10.24-.28,22.39,45.87,35.73,58.8,55C277.21,142.91,278.55,150.4,276.77,165Z"/><polygon class="cls-6" points="16.7 133.85 46.22 112 60.5 125.81 63.79 136.39 58.02 146.25 40.66 156.29 22.66 142.56 16.7 133.85"/><path class="cls-6" d="M149.4,185l-.26.57c-1.37,3.09-8.25,18.18-17.37,35-4.26,7.85-9,16.06-13.9,23.59l0,0C107.56,260,96.58,272.75,88,272.75c-27.71,0-34.16-32.54-36.58-48.41s-10.75-68-10.75-68,22.86-19.11,23.12-19.91S90.15,202,90.15,202s2.54-4.5,6.33-11.14h0a.19.19,0,0,1,0-.07,1.74,1.74,0,0,0,.11-.18l1.49-2.58c4.61-8.07,10.62-18.43,16.22-27.85l30.1,21.33Z"/><path class="cls-7" d="M153.25,188.62s-18.18,33.91-18.39,34.55l-3.09-2.6-4.75-4L96.5,190.88a.19.19,0,0,1,0-.07,1.74,1.74,0,0,0,.11-.18l1.49-2.58c3.65-6.28,12.39-21.35,16.22-27.85l25.3,18.48h0l9.48,6.92Z"/><path class="cls-8" d="M153.25,188.62s-18.18,33.91-18.39,34.55l-3.09-2.6c-4.26,7.85-9,16.06-13.9,23.59l0,0L127,216.59l12.62-37.91h0l4.78,2.84,5,3.51-.26.57Z"/><line class="cls-9" x1="88.41" y1="196.06" x2="100.53" y2="230.65"/><path class="cls-6" d="M21.2,144.52c-6.58-7.16-18.23-23.36-16-25.8s16,12.9,16,12.9Z"/><line class="cls-13" x1="174.92" y1="270.65" x2="281.88" y2="270.65"/><path class="cls-7" d="M281.88,270.65h-107L158,217.55c-16.95-8.48-13-33.42-13-33.42L114.34,160.2l6.28-10a73,73,0,0,1,26-24.88l2.73-1.53c10.58-6,23.21,7.36,30.62,3.21l27.34-18.62,19.19,8.5,10.5,4.66A48.71,48.71,0,0,1,261.19,145L221.8,166.69,259,231.08Z"/><path class="cls-6" d="M226.55,116.84a390.08,390.08,0,0,1-22,33c-1.78,2.36-3.59,4.64-5.39,6.8-1.59,1.92-3.19,3.73-4.76,5.38-.69.73-1.38,1.43-2.06,2.1-4.07,4-7.84,6.65-10.87,7s-6-1.46-9-4.56c-.52-.52-1-1.07-1.53-1.65-.37-.43-.73-.88-1.1-1.35a62.93,62.93,0,0,1-4.21-6c-8.87-14-16.06-33.86-16.22-33.86,4.66-2.62,9.69-5.44,14.48-8.16l3.73-2.08.19-.11c.44-.25.88-.51,1.32-.75l10.79-6.05,27.36,1.74h.09l1.15.51.81.36,3.54,1.57Z"/><path class="cls-10" d="M208.51,108.85c-1.2,5.33-5.12,22.33-9.89,39.21-1.5,5.31-2.89,9.94-4.19,14-8.81,27.58-13,28-14.5,28.11h-.27a3.1,3.1,0,0,1-2.1-.9c-3.06-2.75-5.18-12.57-6.63-24.32-2.43-19.75-3-45-3.13-51.55.44-.25.88-.51,1.32-.75.1,5.06.68,33.28,3.34,53.95,1.37,10.63,3.3,19.26,6,21.69a1.73,1.73,0,0,0,1.34.54c3.34-.31,7.91-10.54,12.58-24.68,5.43-16.49,11-38.28,14.9-55.81h.09Z"/><path class="cls-10" d="M212.86,110.78c-1.28,6.34-4.42,21.82-8.28,39.09-1,4.48-2.05,9.09-3.12,13.69-13.38,57.21-17.77,57.58-20.12,57.79H181a5,5,0,0,1-3.4-1.41c-6.59-5.92-10.09-33.62-11.94-62.34-.94-14.66-1.46-29.59-1.74-42l3.73-2.08c.41,19.83,1.19,36.41,2.22,50.09,2.55,34.21,6.62,50.27,10.26,53.55a1.52,1.52,0,0,0,.79.44c3.5-2.33,10.81-28.32,18.31-60.92,3.46-15,6.95-31.35,10.13-47.46Z"/><line class="cls-9" x1="145.01" y1="184.13" x2="140.52" y2="168.14"/><path class="cls-9" d="M132.75,174.57,145,184.13s-4.29,23.57,13,33.42"/><polyline class="cls-8" points="264 270.64 258.86 231.01 259 231.08 281.88 270.65"/><path class="cls-9" d="M182.07,195c5.43,12.22,17.38,17.92,34.21,20.36"/><polygon class="cls-8" points="147.49 288.64 162.43 288.64 162.43 302.57 147.49 306.56 147.49 288.64"/><path class="cls-11" d="M182.47,1.64c-5.49,0-8.56,7.42-8.56,7.42h26.15l-5.52-7.42Z"/><path class="cls-6" d="M207.36,108.34,176.43,124.8s-3.93-7.16-8.68-16.3c-1.09-2.09-2.22-4.27-3.36-6.5-.66-1.28-1.31-2.57-2-3.88,0,0,26.21-32.9,28.21-25.68S207.36,108.34,207.36,108.34Z"/><path class="cls-11" d="M164.39,102a28.57,28.57,0,0,0,15.47-6.82L167.75,108.5C166.66,106.41,165.53,104.23,164.39,102Z"/><path class="cls-6" d="M151.35,25.38c-2.95,8.18-27.14,58.73-5.43,71.42,21.14,12.36,36.55-3.67,36.55-3.67l21.82-24L192.93,22.39l-18.7-8.63Z"/><path class="cls-9" d="M164.09,45.88s2,6.38,7.65,6.38a14.73,14.73,0,0,0,9.43-3.64"/><line class="cls-9" x1="175.91" y1="51.59" x2="177.56" y2="55.17"/><line class="cls-9" x1="179.12" y1="50.13" x2="181.17" y2="53.38"/><path class="cls-9" d="M145.22,37.76c.67,3.11,3,7.2,10.4,6.16"/><line class="cls-9" x1="145.88" y1="39.77" x2="142.7" y2="40.92"/><line class="cls-9" x1="147.54" y1="42.09" x2="144.29" y2="44.61"/><path class="cls-12" d="M156.28,46.54c-2.45-2.82-5.64-4.53-6.91-2.3s2,11.94,2,11.94"/><path class="cls-9" d="M149.08,64.77s10,4.67,15-4.19"/><path class="cls-4" d="M176.05,43.21a38.17,38.17,0,0,1-8.38-2.37C152.28,34.48,146.52,19.46,151,11c5.07-9.5,21.92-8.93,26.13-2.26a5,5,0,0,1,.42.79C164.19,23.81,176.05,43.21,176.05,43.21Z"/><path class="cls-5" d="M176.05,43.21a38.17,38.17,0,0,1-8.38-2.37c-4.36-8-5.28-17.06-2.61-23.28,2.33-5.43,12.41-8.32,12.52-8C164.19,23.81,176.05,43.21,176.05,43.21Z"/><path class="cls-3" d="M177.58,9.51C170.91-.55,159-1.76,151.27,3.77"/><path class="cls-4" d="M203.54,42.66a28.44,28.44,0,0,1-1.83,10.06l-2,5.22c-33.74-11.19-25.48-43.88-25-44.84,3.22,0,7,1.55,10.18,2.75A28.62,28.62,0,0,1,203.54,42.66Z"/><path class="cls-4" d="M193.27,55.3v90.25A10.7,10.7,0,0,0,204,156.25h0a10.69,10.69,0,0,0,10.39-13.4c-4-15.35-10.22-40.26-12.46-55.22-3.42-22.77-2.13-29.69-2.13-29.69Z"/><path class="cls-3" d="M193.8,80.76a363.81,363.81,0,0,1-4.71,61c-.5,3.07-1,6.22-.49,9.29s2.4,6.1,5.35,7.13"/><circle class="cls-11" cx="207.36" cy="63.22" r="19.13" transform="translate(14.39 162) rotate(-44.06)"/><path class="cls-11" d="M208.87,89.33h0a1.46,1.46,0,0,1-1.46-1.46V80.43h2.91v7.44A1.45,1.45,0,0,1,208.87,89.33Z"/><rect class="cls-11" x="207.36" y="44.09" width="5.91" height="38.27"/><circle class="cls-13" cx="213.28" cy="63.22" r="19.13" transform="translate(17.76 169.33) rotate(-45)"/><path class="cls-13" d="M182.47,1.64h12.07s22,2.92,22,42.72h-12S204.68,1.64,182.47,1.64Z"/><path class="cls-14" d="M208.87,84.88C205.11,127,250.72,269,160.87,269c-60.86,0-49.2,50.32-64.37,50.09C83.62,318.86,82.06,270.9,71,270.3c-22.1-1.2-8.09-104.13-20-123.94"/><rect class="cls-11" x="49.32" y="142.37" width="2.05" height="5.34" transform="translate(-65.77 44.6) rotate(-30)"/><rect class="cls-11" x="14.34" y="92.3" width="31.36" height="58.02" rx="2.43" transform="translate(-73.21 50.88) rotate(-41.8)"/><rect class="cls-13" x="14.95" y="91.76" width="31.36" height="58.02" rx="2.43" transform="matrix(0.75, -0.67, 0.67, 0.75, -72.7, 51.14)"/><rect class="cls-7" x="15.39" y="93.43" width="28.7" height="52.7" rx="2.43" transform="translate(-72.26 50.3) rotate(-41.8)"/><path class="cls-13" d="M16.26,100.16l-4.52,4A2.72,2.72,0,0,1,7.89,104h0l8.58-7.68h0A2.74,2.74,0,0,1,16.26,100.16Z"/><path class="cls-6" d="M37.35,113.18a9.9,9.9,0,1,0-.79,14A9.9,9.9,0,0,0,37.35,113.18Z"/><path class="cls-6" d="M40.66,156.29c-14.31-2.76-19.45-8.37-20.83-16.38s-2.52-16,0-14.76,6.33,14.19,6.33,14.19l8.14,10.12Z"/><path class="cls-9" d="M21.2,146a33.88,33.88,0,0,1-1.37-6.1c-.56-3.27-1.08-6.54-1.33-9.18"/><path class="cls-6" d="M63.79,136.39c-.32-9-4.91-16.81-8.06-21.12A15.71,15.71,0,0,0,48.94,110c-3.65-1.48-8.69-4.19-9.72-1.86s2.46,5.77,7.65,7.3l13.92,13.42Z"/><path class="cls-6" d="M153.24,240.79c-8.78,2.64-22.12,12.51-26.42,24.59s-12,43.46-10,46.1,6.81-7.91,6.81-6.37-2,15.15,1.32,15.15,9.93-20.42,9.93-20.42-.28,8.56,3,6.59S144,284.69,144,284.69s8-6.87,8-14S153.24,240.79,153.24,240.79Z"/><line class="cls-9" x1="123.43" y1="307.22" x2="125.72" y2="283.69"/><line class="cls-9" x1="134.86" y1="299.84" x2="134.86" y2="282.22"/><path class="cls-6" d="M295.6,253.91c-3.42,8.6-12.78,16.74-34.57,16.74H151.27l2-29.86,91.3-16.9L230.08,185l48.72,4.83c7.91,17.56,14.27,38.63,17.34,47.63A24.87,24.87,0,0,1,295.6,253.91Z"/><path class="cls-7" d="M261.19,145c7.08,13,25.3,49,25.3,49l-49.92,9.77-16.47-39Z"/><polygon class="cls-10" points="191.05 270.65 181.98 270.65 168.99 236.42 178.06 235.09 191.05 270.65"/><polygon class="cls-10" points="205.15 270.65 200.07 270.65 185.9 233.48 191.12 232.55 205.15 270.65"/><line class="cls-9" x1="228.21" y1="182.8" x2="214.38" y2="174.57"/><line class="cls-9" x1="221.8" y1="166.69" x2="244.56" y2="223.89"/><path class="cls-8" d="M295.6,253.91c-3.42,8.6-12.78,16.74-34.57,16.74H185.4Z"/></g></g></g></g></svg>