<svg xmlns="http://www.w3.org/2000/svg" viewBox="0 0 80.76 97.32"><defs><style>.cls-1{fill:#ffd7e5;}.cls-2{fill:#fff;}.cls-3{fill:#6dc9f7;}.cls-4{fill:#fa759e;}.cls-5{fill:#3a2c60;}</style></defs><g id="Layer_2" data-name="Layer 2"><g id="Layer_1-2" data-name="Layer 1"><path class="cls-1" d="M51,51.92l-.46-2.79a32.74,32.74,0,0,1,.48-13l2.79-11.5a19.26,19.26,0,1,0-38-4.53v2.28l-3.56,10.9a2.09,2.09,0,0,0,2,2.75h1.44a1,1,0,0,1,1,1v6.05a3.15,3.15,0,0,0,3.15,3.15h7a3.15,3.15,0,0,1,3.15,3.15v2.45L11.61,55.69A13.59,13.59,0,0,0,.8,69V94.91a1.61,1.61,0,0,0,1.61,1.61H78.35A1.61,1.61,0,0,0,80,94.91V69A13.59,13.59,0,0,0,69.14,55.7Z"/><path class="cls-2" d="M35,3.22A19.47,19.47,0,0,1,54.37,19.5,19.25,19.25,0,0,0,16,18.26,19.49,19.49,0,0,1,35,3.22Z"/><path class="cls-3" d="M45.75,83.13a62.87,62.87,0,0,1,0-21.81c.53-2.83,5.09-8.65,10.6-2.5C65.87,69.45,70.51,88.17,66,91.74c-5.81,4.6-19.14-2.51-20.25-8.61Z"/><path class="cls-3" d="M34.87,83.13a62.87,62.87,0,0,0,0-21.81c-.52-2.83-5.09-8.65-10.6-2.5-9.52,10.63-14.16,29.35-9.65,32.92,5.81,4.6,19.14-2.51,20.25-8.61Z"/><path class="cls-4" d="M13.56,29.4l-1.25,3.84a2.1,2.1,0,0,0,2,2.76h1.44a1,1,0,0,1,1,1v1.84H34.6a3.22,3.22,0,0,1,3.22,3.21V63.87a4.68,4.68,0,0,1-2.62,4.2A26.44,26.44,0,0,0,30.48,71,19.77,19.77,0,0,0,26,75.85a10.78,10.78,0,0,1-3.81-.24,26,26,0,0,1-3.67-1.74,8.66,8.66,0,0,0,3.15,2.89,9.79,9.79,0,0,0,3.9.92s-1.62,9.24-.84,9.59c.37.17,1.67-8.27,5.36-12.51s9.14-5.08,10.34-5.24c1.2.16,6.71,1.07,10.34,5.24s5,12.68,5.37,12.51c.77-.35-.85-9.59-.85-9.59a9.79,9.79,0,0,0,3.9-.92,8.65,8.65,0,0,0,3.15-2.89,26,26,0,0,1-3.67,1.74,10.73,10.73,0,0,1-3.8.24A20,20,0,0,0,50.32,71a26.18,26.18,0,0,0-4.88-3,4.69,4.69,0,0,1-2.64-4.21V35.83a6.43,6.43,0,0,0-6.43-6.43Z"/><path class="cls-5" d="M69.31,54.91,51.73,51.25,51.36,49a31.88,31.88,0,0,1,.47-12.72l2.79-11.5a20.06,20.06,0,1,0-39.55-4.72v2.15L11.54,33A2.91,2.91,0,0,0,14.3,36.8h1.44a.25.25,0,0,1,.25.25v6a4,4,0,0,0,4,3.95h7a2.36,2.36,0,0,1,2.35,2.35v1.79l-17.8,3.73A14.45,14.45,0,0,0,0,69V94.91a2.41,2.41,0,0,0,2.41,2.41H39a.8.8,0,1,0,0-1.6H2.41a.8.8,0,0,1-.8-.81V69A12.85,12.85,0,0,1,11.78,56.48l18.44-3.85a.81.81,0,0,0,.64-.79V49.39a4,4,0,0,0-4-4h-7a2.35,2.35,0,0,1-2.35-2.34v-3.4h17A2.43,2.43,0,0,1,37,42.11V63.87a3.77,3.77,0,0,1-.7,2.2c-.21-2.28-.49-4-.66-4.89A7.88,7.88,0,0,0,30.6,55.5c-1.61-.46-4.13-.34-6.92,2.78C16,66.85,11.51,80.37,12.13,87.63c.2,2.25.86,3.85,2,4.74A8.45,8.45,0,0,0,19.45,94a16.63,16.63,0,0,0,5.8-1.17c4.62-1.74,9.69-5.59,10.42-9.58a61.69,61.69,0,0,0,.94-11.94,17.72,17.72,0,0,1,3.79-1,18.46,18.46,0,0,1,3.61.92,62.5,62.5,0,0,0,.94,12c.74,4,5.8,7.84,10.42,9.58A16.63,16.63,0,0,0,61.17,94a8.45,8.45,0,0,0,5.33-1.65c1.13-.89,1.79-2.49,2-4.74.62-7.26-3.87-20.78-11.54-29.35C54.15,55.16,51.63,55,50,55.5A7.9,7.9,0,0,0,45,61.18c-.17.88-.44,2.57-.66,4.81a3.89,3.89,0,0,1-.7-2.21V35.83a7.24,7.24,0,0,0-7.23-7.24H14.67l2-6a.73.73,0,0,0,0-.25V20.06A18.45,18.45,0,1,1,53.05,24.4L50.27,35.9a33.23,33.23,0,0,0-.49,13.36l.46,2.79a.8.8,0,0,0,.63.66L69,56.49A12.83,12.83,0,0,1,79.16,69V94.91a.81.81,0,0,1-.81.8H52.43a.81.81,0,0,0,0,1.61H78.35a2.41,2.41,0,0,0,2.41-2.41V69A14.45,14.45,0,0,0,69.31,54.91ZM34.08,83c-.54,3-4.58,6.55-9.4,8.36-4,1.51-7.48,1.42-9.56-.23-.76-.6-1.23-1.85-1.38-3.62-.58-6.78,3.85-20,11.13-28.14,1.46-1.63,2.91-2.44,4.31-2.44a3.74,3.74,0,0,1,1,.13,6.37,6.37,0,0,1,3.92,4.43,59,59,0,0,1,.73,5.89c-.8.39-1.55.81-2.26,1.23a10.75,10.75,0,0,1-1.9-1.33A5.79,5.79,0,0,0,33,61.6.8.8,0,0,0,32,61a.82.82,0,0,0-.61,1,3.35,3.35,0,0,1,.07.53l-.83-.57a.81.81,0,0,0-.91,1.33l1.4,1a5.47,5.47,0,0,1-1.58,1.91,3.78,3.78,0,0,1-.85-2.22.8.8,0,0,0-1.6,0c0,2.77,2.61,4.82,3.95,5.69-.38.26-.73.52-1.07.79a23.19,23.19,0,0,0-2.18,2,6.18,6.18,0,0,1-2.46-4.69.81.81,0,0,0-1.61,0,6.89,6.89,0,0,0,.5,2.58l-1.58.13a.81.81,0,0,0,.07,1.61h.07l2.28-.19a9.15,9.15,0,0,0,1.64,1.75c-.57.68-1,1.25-1.21,1.58a9.53,9.53,0,0,1-3.12-.24,12.48,12.48,0,0,1-2.92-1.39c-.57-.34-.91-.54-1.36-.29a.82.82,0,0,0-.41.71c0,.59,1.15,1.89,2.39,2.84a3.36,3.36,0,0,0-1.68,2.64.81.81,0,1,0,1.61,0c0-.69,1-1.37,1.64-1.7a10.24,10.24,0,0,0,3,.77c-.19,1.09-.34,2-.46,2.9A8.37,8.37,0,0,1,17,82.51a.79.79,0,0,0-1,.56.8.8,0,0,0,.56,1,11.28,11.28,0,0,0,1.54.3,5.19,5.19,0,0,0,0,2.2.81.81,0,0,0,.79.62.55.55,0,0,0,.18,0,.8.8,0,0,0,.6-1,3.64,3.64,0,0,1,.1-1.78,10.08,10.08,0,0,0,4.09-1.07c-.48,4.21.06,4.46.49,4.66a.94.94,0,0,0,.34.07.82.82,0,0,0,.35-.08c.45-.21.54-.55,1-2.21.05-.19.11-.4.17-.61A6,6,0,0,0,27.91,87a.79.79,0,0,0,.46.15.81.81,0,0,0,.66-.33.8.8,0,0,0-.19-1.12,5.25,5.25,0,0,1-1.88-3,25.11,25.11,0,0,1,2.94-6.44,15.76,15.76,0,0,0,.43,2.53c-.23,1-.81,2.68-1.57,3.2a.8.8,0,0,0,.45,1.47.85.85,0,0,0,.45-.14,5,5,0,0,0,1.59-2.16,4.52,4.52,0,0,0,1.17,1.35.86.86,0,0,0,.48.16.81.81,0,0,0,.48-1.46c-1.57-1.15-2-5-2-6.72A14.22,14.22,0,0,1,35,72a59.23,59.23,0,0,1-.93,11ZM50.45,57c1.71-.48,3.5.3,5.3,2.31C63,67.49,67.46,80.71,66.88,87.49c-.15,1.77-.62,3-1.38,3.62-2.08,1.65-5.57,1.74-9.56.24-4.82-1.82-8.86-5.41-9.4-8.37a59.36,59.36,0,0,1-.93-11,14.29,14.29,0,0,1,3.79,2.59c0,1.75-.4,5.57-2,6.72a.81.81,0,0,0,.48,1.46.83.83,0,0,0,.47-.16,4.52,4.52,0,0,0,1.17-1.35,5,5,0,0,0,1.6,2.16.8.8,0,0,0,.9-1.33c-.77-.52-1.35-2.17-1.57-3.2a18.35,18.35,0,0,0,.43-2.53,25.11,25.11,0,0,1,2.94,6.44,5.2,5.2,0,0,1-1.89,3,.8.8,0,0,0,.47,1.45A.82.82,0,0,0,52.9,87a6,6,0,0,0,1.67-1.85c.06.21.12.42.17.61.46,1.66.56,2,1,2.21a.9.9,0,0,0,.7,0c.42-.2,1-.45.49-4.66A10,10,0,0,0,61,84.42a3.66,3.66,0,0,1,.09,1.78.8.8,0,0,0,.61,1,.55.55,0,0,0,.18,0,.81.81,0,0,0,.78-.62,5,5,0,0,0,0-2.2,11.45,11.45,0,0,0,1.53-.3.82.82,0,0,0,.57-1,.8.8,0,0,0-1-.56,8.38,8.38,0,0,1-7.1-1.19c-.13-.85-.28-1.81-.47-2.9a9.9,9.9,0,0,0,2.95-.78c.68.34,1.65,1,1.65,1.71a.8.8,0,1,0,1.6,0,3.36,3.36,0,0,0-1.68-2.64c1.25-.95,2.4-2.26,2.4-2.84a.81.81,0,0,0-.42-.71c-.44-.25-.78,0-1.35.29a12.58,12.58,0,0,1-2.93,1.39,9.53,9.53,0,0,1-3.12.24,17.46,17.46,0,0,0-1.21-1.58,8.56,8.56,0,0,0,1.64-1.75l2.29.19h.07a.81.81,0,0,0,.06-1.61l-1.58-.13a6.89,6.89,0,0,0,.5-2.58.81.81,0,0,0-1.61,0A6.18,6.18,0,0,1,53,72.31a23.19,23.19,0,0,0-2.18-2c-.34-.27-.69-.53-1.06-.79,1.34-.87,4-2.92,4-5.69a.81.81,0,0,0-1.61,0,3.72,3.72,0,0,1-.85,2.22,5.77,5.77,0,0,1-1.57-1.91l1.39-1a.8.8,0,1,0-.9-1.33l-.84.57a3.35,3.35,0,0,1,.07-.53.8.8,0,0,0-.61-1,.82.82,0,0,0-1,.61,5.82,5.82,0,0,0,2.32,5.67,10.75,10.75,0,0,1-1.9,1.33c-.77-.45-1.58-.9-2.45-1.32a56.93,56.93,0,0,1,.74-5.8A6.33,6.33,0,0,1,50.45,57ZM36.37,30.2A5.64,5.64,0,0,1,42,35.83v28a5.45,5.45,0,0,0,3.09,4.93,25.23,25.23,0,0,1,4.73,2.9,19.23,19.23,0,0,1,4.32,4.64.8.8,0,0,0,.59.39,12.6,12.6,0,0,0,2.06.07,10,10,0,0,1-1.53.17.8.8,0,0,0-.62.28.83.83,0,0,0-.17.66c.18,1.06.36,2.19.52,3.27a21.63,21.63,0,0,0-3.64-6.86c-3.84-4.41-9.71-5.36-10.85-5.5a.67.67,0,0,0-.2,0c-1.14.14-7,1.09-10.85,5.5a21.69,21.69,0,0,0-3.64,6.85c.16-1.08.34-2.2.53-3.26a.83.83,0,0,0-.18-.66.8.8,0,0,0-.61-.28A10.25,10.25,0,0,1,24,76.71a12.68,12.68,0,0,0,2.07-.07.77.77,0,0,0,.59-.39A19.39,19.39,0,0,1,31,71.61a25.4,25.4,0,0,1,4.57-2.82,5.45,5.45,0,0,0,3.08-4.92V42.1a4,4,0,0,0-4-4h-17v-1a1.85,1.85,0,0,0-1.85-1.86H14.3a1.27,1.27,0,0,1-1.05-.54,1.29,1.29,0,0,1-.18-1.16l1.07-3.29Z"/><path class="cls-5" d="M49.05,95.72H42.16a.8.8,0,1,0,0,1.6h6.89a.8.8,0,1,0,0-1.6Z"/></g></g></svg>