<svg xmlns="http://www.w3.org/2000/svg" viewBox="0 0 127.16 127.16"><defs><style>.cls-1{fill:#fff;}.cls-2{fill:#ffd7e5;}.cls-3{fill:#6dc9f7;}.cls-4{fill:#fa759e;}.cls-5{fill:#3a2c60;}</style></defs><g id="Layer_2" data-name="Layer 2"><g id="Layer_1-2" data-name="Layer 1"><rect class="cls-1" width="127.16" height="127.16" rx="22.61"/><path class="cls-2" d="M73.62,65.23l-.46-2.79a32.74,32.74,0,0,1,.48-13l2.78-11.5a19.25,19.25,0,1,0-38-4.53v2.28l-3.57,10.9a2.1,2.1,0,0,0,2,2.75h1.44a1,1,0,0,1,1.05,1.05v6a3.16,3.16,0,0,0,3.15,3.16h7a3.15,3.15,0,0,1,3.15,3.15v2.45L34.2,69A13.59,13.59,0,0,0,23.39,82.3v25.92A1.61,1.61,0,0,0,25,109.83h75.94a1.61,1.61,0,0,0,1.61-1.61V82.31A13.59,13.59,0,0,0,91.73,69Z"/><path class="cls-1" d="M57.63,16.52A19.48,19.48,0,0,1,77,32.81a19.25,19.25,0,0,0-38.41-1.24,19.49,19.49,0,0,1,19.08-15Z"/><path class="cls-3" d="M68.34,96.44a62.87,62.87,0,0,1,0-21.81c.52-2.84,5.09-8.65,10.6-2.5C88.46,82.76,93.1,101.47,88.59,105c-5.81,4.61-19.14-2.5-20.25-8.6Z"/><path class="cls-3" d="M57.46,96.44a62.87,62.87,0,0,0,0-21.81c-.52-2.84-5.09-8.65-10.6-2.5C37.34,82.76,32.7,101.47,37.21,105c5.81,4.61,19.14-2.5,20.25-8.6Z"/><path class="cls-4" d="M36.15,42.71,34.9,46.55a2.09,2.09,0,0,0,2,2.75h1.44a1,1,0,0,1,1.05,1.05V52.2H57.19a3.22,3.22,0,0,1,3.22,3.21V77.18a4.68,4.68,0,0,1-2.62,4.2,26.44,26.44,0,0,0-4.72,2.91,19.84,19.84,0,0,0-4.51,4.86,10.93,10.93,0,0,1-3.81-.23,27.39,27.39,0,0,1-3.67-1.74,8.75,8.75,0,0,0,3.15,2.89,9.79,9.79,0,0,0,3.9.92s-1.62,9.24-.84,9.59c.37.17,1.67-8.27,5.36-12.51S61.79,83,63,82.83c1.2.16,6.71,1.07,10.34,5.24s5,12.68,5.36,12.51c.78-.35-.84-9.59-.84-9.59a9.79,9.79,0,0,0,3.9-.92,8.65,8.65,0,0,0,3.15-2.89,27.39,27.39,0,0,1-3.67,1.74,10.93,10.93,0,0,1-3.81.23,19.84,19.84,0,0,0-4.51-4.86,26.18,26.18,0,0,0-4.88-3,4.69,4.69,0,0,1-2.64-4.21V49.14A6.43,6.43,0,0,0,59,42.71Z"/><path class="cls-5" d="M91.9,68.22,74.32,64.56,74,62.31a31.88,31.88,0,0,1,.47-12.72l2.79-11.5a20.06,20.06,0,1,0-39.56-4.72v2.15L34.13,46.3a2.91,2.91,0,0,0,2.76,3.81h1.44a.24.24,0,0,1,.24.24v6a4,4,0,0,0,4,4h7a2.35,2.35,0,0,1,2.35,2.35v1.79L34,68.22A14.44,14.44,0,0,0,22.59,82.3v25.92A2.41,2.41,0,0,0,25,110.63H61.56a.8.8,0,1,0,0-1.6H25a.81.81,0,0,1-.8-.81V82.3A12.84,12.84,0,0,1,34.36,69.79l18.45-3.86a.79.79,0,0,0,.64-.78V62.7a4,4,0,0,0-4-4h-7a2.35,2.35,0,0,1-2.35-2.34V53h17a2.42,2.42,0,0,1,2.42,2.41V77.18a3.86,3.86,0,0,1-.7,2.2c-.21-2.28-.49-4-.66-4.9a7.91,7.91,0,0,0-5.06-5.68c-1.61-.45-4.13-.33-6.92,2.79-7.68,8.57-12.17,22.09-11.55,29.35.2,2.25.86,3.85,2,4.74A8.45,8.45,0,0,0,42,107.32a16.6,16.6,0,0,0,5.8-1.16c4.62-1.74,9.68-5.59,10.42-9.58a61.79,61.79,0,0,0,.94-12,19.07,19.07,0,0,1,3.79-1,18,18,0,0,1,3.61.93,61.71,61.71,0,0,0,.94,12c.74,4,5.8,7.84,10.42,9.58a16.6,16.6,0,0,0,5.8,1.16,8.45,8.45,0,0,0,5.33-1.64c1.13-.89,1.79-2.49,2-4.74.62-7.26-3.87-20.78-11.54-29.35-2.8-3.12-5.32-3.24-6.93-2.79a7.93,7.93,0,0,0-5.06,5.68c-.17.89-.44,2.58-.66,4.82a3.89,3.89,0,0,1-.7-2.21V49.14A7.24,7.24,0,0,0,59,41.9H37.26l2-6a.73.73,0,0,0,0-.25V33.37a18.45,18.45,0,1,1,36.38,4.34l-2.78,11.5a33.41,33.41,0,0,0-.5,13.36l.47,2.79a.8.8,0,0,0,.62.66L91.57,69.8a12.83,12.83,0,0,1,10.18,12.51v25.91a.81.81,0,0,1-.81.8H75a.81.81,0,0,0,0,1.61h25.92a2.41,2.41,0,0,0,2.41-2.41V82.31A14.45,14.45,0,0,0,91.9,68.22ZM56.67,96.29c-.54,3-4.58,6.55-9.4,8.36-4,1.51-7.48,1.42-9.56-.24-.76-.59-1.23-1.84-1.38-3.61-.58-6.78,3.85-20,11.13-28.14,1.46-1.63,2.91-2.45,4.31-2.45a3.76,3.76,0,0,1,1,.14,6.33,6.33,0,0,1,3.91,4.43,55.28,55.28,0,0,1,.74,5.89c-.8.39-1.55.81-2.26,1.23a10.75,10.75,0,0,1-1.9-1.33,5.8,5.8,0,0,0,2.31-5.67.8.8,0,0,0-1-.61.81.81,0,0,0-.61,1,3.21,3.21,0,0,1,.07.53l-.83-.57a.81.81,0,0,0-.91,1.33l1.4.95a5.47,5.47,0,0,1-1.58,1.91,3.78,3.78,0,0,1-.85-2.22.81.81,0,0,0-1.61,0c0,2.77,2.62,4.82,4,5.69-.38.26-.73.52-1.07.79a23.19,23.19,0,0,0-2.18,2,6.18,6.18,0,0,1-2.46-4.69.81.81,0,0,0-1.61,0,6.89,6.89,0,0,0,.5,2.58l-1.58.13a.81.81,0,0,0,.07,1.61h.07l2.28-.2a8.94,8.94,0,0,0,1.64,1.76,18,18,0,0,0-1.21,1.58A9.53,9.53,0,0,1,45,88.15a12.89,12.89,0,0,1-2.92-1.39c-.57-.34-.92-.54-1.36-.29a.82.82,0,0,0-.41.71c0,.58,1.15,1.89,2.39,2.84A3.36,3.36,0,0,0,41,92.66a.81.81,0,1,0,1.61,0c0-.69,1-1.37,1.64-1.71a10,10,0,0,0,2.95.78c-.19,1.09-.34,2-.46,2.9a8.4,8.4,0,0,1-7.11,1.19.79.79,0,0,0-1,.56.8.8,0,0,0,.56,1,11.45,11.45,0,0,0,1.53.3,5.37,5.37,0,0,0,0,2.2.81.81,0,0,0,.79.62l.18,0a.81.81,0,0,0,.6-1,3.61,3.61,0,0,1,.1-1.77,10.24,10.24,0,0,0,4.09-1.07c-.48,4.21.06,4.46.49,4.65a.77.77,0,0,0,.34.08.85.85,0,0,0,.35-.08c.45-.21.54-.55,1-2.21.05-.19.11-.4.17-.61a6,6,0,0,0,1.68,1.85.79.79,0,0,0,.46.15.84.84,0,0,0,.66-.33A.81.81,0,0,0,51.43,99a5.18,5.18,0,0,1-1.88-3,25.11,25.11,0,0,1,2.94-6.44,16,16,0,0,0,.43,2.53c-.23,1-.81,2.68-1.57,3.2a.8.8,0,0,0-.22,1.11.82.82,0,0,0,.67.36.85.85,0,0,0,.45-.14,5.08,5.08,0,0,0,1.59-2.17A4.56,4.56,0,0,0,55,95.85a.85.85,0,0,0,.48.15.79.79,0,0,0,.65-.33A.8.8,0,0,0,56,94.55c-1.56-1.15-1.94-5-2-6.72a14.53,14.53,0,0,1,3.61-2.51,59.26,59.26,0,0,1-.93,11ZM73,70.35c1.71-.48,3.49.3,5.3,2.31C85.62,80.8,90.05,94,89.47,100.8c-.15,1.77-.62,3-1.38,3.62-2.08,1.65-5.57,1.74-9.56.23-4.82-1.81-8.86-5.4-9.4-8.36a59.36,59.36,0,0,1-.93-11.05A14.29,14.29,0,0,1,72,87.83c0,1.75-.4,5.57-2,6.72a.79.79,0,0,0-.17,1.12.77.77,0,0,0,.64.33.83.83,0,0,0,.48-.15,4.56,4.56,0,0,0,1.17-1.36,5,5,0,0,0,1.6,2.17.8.8,0,0,0,.9-1.33c-.77-.52-1.35-2.17-1.57-3.2a18.35,18.35,0,0,0,.43-2.53A25.45,25.45,0,0,1,76.44,96a5.16,5.16,0,0,1-1.89,3,.81.81,0,0,0,.94,1.31,6.11,6.11,0,0,0,1.67-1.85c.06.21.12.42.17.61.46,1.66.56,2,1,2.21a.85.85,0,0,0,.7,0c.42-.19,1-.44.49-4.65a10.15,10.15,0,0,0,4.09,1.07,3.62,3.62,0,0,1,.09,1.77.81.81,0,0,0,.61,1l.18,0a.81.81,0,0,0,.78-.62,5,5,0,0,0,0-2.2,11.45,11.45,0,0,0,1.53-.3.81.81,0,0,0-.42-1.56,8.35,8.35,0,0,1-7.1-1.18c-.13-.85-.28-1.81-.47-2.9A10.21,10.21,0,0,0,81.74,91c.67.34,1.65,1,1.65,1.71a.8.8,0,0,0,1.6,0A3.36,3.36,0,0,0,83.31,90c1.24-1,2.4-2.26,2.4-2.84a.81.81,0,0,0-.42-.71c-.44-.25-.78,0-1.35.29A13,13,0,0,1,81,88.15a9.53,9.53,0,0,1-3.12.24,16.14,16.14,0,0,0-1.21-1.58,8.65,8.65,0,0,0,1.64-1.76l2.29.2h.07a.81.81,0,0,0,.06-1.61l-1.58-.13a6.89,6.89,0,0,0,.5-2.58.81.81,0,0,0-1.61,0,6.18,6.18,0,0,1-2.46,4.69,23.19,23.19,0,0,0-2.18-2c-.34-.27-.69-.53-1.06-.79,1.34-.87,4-2.92,4-5.69a.81.81,0,0,0-1.61,0,3.72,3.72,0,0,1-.85,2.22,5.77,5.77,0,0,1-1.57-1.91l1.39-1a.8.8,0,1,0-.9-1.32l-.84.56a3.24,3.24,0,0,1,.07-.52.8.8,0,0,0-1.57-.35,5.82,5.82,0,0,0,2.32,5.67,10.75,10.75,0,0,1-1.9,1.33c-.77-.46-1.58-.9-2.45-1.32a56.93,56.93,0,0,1,.74-5.8A6.33,6.33,0,0,1,73,70.35ZM59,43.51a5.63,5.63,0,0,1,5.62,5.63v28A5.46,5.46,0,0,0,67.68,82a25.56,25.56,0,0,1,4.73,2.9,19.23,19.23,0,0,1,4.32,4.64.8.8,0,0,0,.59.39,12.6,12.6,0,0,0,2.06.07,9.2,9.2,0,0,1-1.53.16.85.85,0,0,0-.62.29.82.82,0,0,0-.17.66c.18,1.06.36,2.18.52,3.26a21.69,21.69,0,0,0-3.64-6.85C70.1,83.13,64.23,82.18,63.09,82h-.2c-1.14.15-7,1.1-10.85,5.51a21.69,21.69,0,0,0-3.64,6.85c.16-1.08.34-2.2.53-3.26a.82.82,0,0,0-.18-.66.84.84,0,0,0-.61-.29A8.81,8.81,0,0,1,46.59,90,12.07,12.07,0,0,0,48.66,90a.77.77,0,0,0,.59-.39,19.13,19.13,0,0,1,4.32-4.64,25.4,25.4,0,0,1,4.57-2.82,5.45,5.45,0,0,0,3.08-4.92V55.41a4,4,0,0,0-4-4h-17v-1a1.85,1.85,0,0,0-1.85-1.85H36.89a1.3,1.3,0,0,1-1.23-1.7l1.07-3.29Z"/><path class="cls-5" d="M71.64,109H64.75a.8.8,0,1,0,0,1.6h6.89a.8.8,0,1,0,0-1.6Z"/></g></g></svg>