<svg xmlns="http://www.w3.org/2000/svg" viewBox="0 0 29.2 29.2"><defs><style>.cls-1{fill:#0077b7;}</style></defs><g id="Layer_2" data-name="Layer 2"><g id="Layer_1-2" data-name="Layer 1"><path class="cls-1" d="M26.56,0H2.64A2.64,2.64,0,0,0,0,2.64V26.56A2.64,2.64,0,0,0,2.64,29.2H26.56a2.64,2.64,0,0,0,2.64-2.64V2.64A2.64,2.64,0,0,0,26.56,0ZM9,25.21a.77.77,0,0,1-.77.77H5a.76.76,0,0,1-.76-.77V11.5A.76.76,0,0,1,5,10.73H8.27A.77.77,0,0,1,9,11.5ZM6.63,9.43a3.11,3.11,0,1,1,3.11-3.1,3.1,3.1,0,0,1-3.11,3.1Zm19.5,15.84a.7.7,0,0,1-.7.71H21.92a.71.71,0,0,1-.71-.71V18.84c0-1,.28-4.21-2.51-4.21-2.16,0-2.6,2.23-2.69,3.22v7.42a.71.71,0,0,1-.71.71H11.91a.71.71,0,0,1-.71-.71V11.43a.7.7,0,0,1,.71-.7H15.3a.7.7,0,0,1,.71.7v1.2c.8-1.2,2-2.13,4.53-2.13,5.63,0,5.59,5.25,5.59,8.14Z"/></g></g></svg>