<svg xmlns="http://www.w3.org/2000/svg" xmlns:xlink="http://www.w3.org/1999/xlink" viewBox="0 0 158.66 161.28"><defs><style>.cls-1{fill:url(#linear-gradient);}.cls-2{fill:url(#linear-gradient-2);}.cls-3{fill:#efedef;}.cls-4{fill:#99e6fc;}.cls-5{fill:#f47c7c;}.cls-6{fill:#ee6161;}.cls-7{fill:#f79595;}.cls-8{fill:#01c0fa;}</style><linearGradient id="linear-gradient" x1="-563.83" y1="-3139.69" x2="-429.42" y2="-3062.09" gradientTransform="matrix(1, 0, 0, -1, 571.89, -3041.67)" gradientUnits="userSpaceOnUse"><stop offset="0" stop-color="#fff" stop-opacity="0"/><stop offset="0.63" stop-color="#fff"/></linearGradient><linearGradient id="linear-gradient-2" x1="-2723.8" y1="-3185.27" x2="-2589.39" y2="-3107.67" gradientTransform="matrix(-0.84, -0.54, -0.54, 0.84, -3855.91, 1304.1)" xlink:href="#linear-gradient"/></defs><g id="Layer_2" data-name="Layer 2"><g id="Layer_1-2" data-name="Layer 1"><path class="cls-1" d="M5.67,85.56c5.78,19.74,22.43,60,50.57,56.4s17.2-40,43-45c11.38-2.19,19.09,17.49,30.48,16.88C144.43,113,151.91,98.51,156,86.29c8.7-25.9-4.33-69.82-34.82-77.43C94.59,2.22,91.48,34.73,68.34,25.29,55.34,20,56.64,4.13,40.81.93-7.1-8.74-2,59.28,5.67,85.56Z"/><path class="cls-2" d="M149.84,98.77C155.6,79,163.26,36.11,137.6,24s-36,24.45-60.5,14.74c-10.76-4.27-6.66-25-16.59-30.63C47.72.88,33.59,9.1,23.56,17.18c-21.28,17.15-34,61.17-12.37,84,18.85,19.92,39-5.79,53.38,14.62,8.1,11.47-1.53,24.13,10.09,35.35,35.16,33.95,67.51-26.11,75.18-52.38Z"/><path class="cls-3" d="M133.4,102.51a1.62,1.62,0,0,1-.81-.22l-30.83-18a1.61,1.61,0,0,1,1.61-2.78l30.84,18a1.61,1.61,0,0,1-.81,3Z"/><path class="cls-3" d="M36.21,102.55a1.61,1.61,0,0,1-.82-3L62.15,83.92a1.6,1.6,0,1,1,1.62,2.77L37,102.33a1.56,1.56,0,0,1-.8.22Z"/><path class="cls-4" d="M52.46,98.09a1.58,1.58,0,0,1-.83-.23L47.05,95.1a1.59,1.59,0,0,1-.78-1.37V88.38a1.61,1.61,0,1,1,3.21,0v4.45l3.81,2.29a1.61,1.61,0,0,1,.54,2.21,1.59,1.59,0,0,1-1.37.77Z"/><path class="cls-4" d="M47.86,78.92a1.61,1.61,0,0,1-1.61-1.61V66.25a1.61,1.61,0,1,1,3.21,0V77.31a1.62,1.62,0,0,1-1.6,1.61Z"/><path class="cls-4" d="M47.83,56.78a1.6,1.6,0,0,1-1.6-1.6V49.83A1.59,1.59,0,0,1,47,48.45l4.57-2.77a1.61,1.61,0,0,1,1.67,2.75l-3.81,2.3v4.45a1.61,1.61,0,0,1-1.61,1.6Z"/><path class="cls-4" d="M61.67,43.06a1.63,1.63,0,0,1-1.38-.78,1.6,1.6,0,0,1,.55-2.2l9.26-5.61a1.61,1.61,0,0,1,1.66,2.75l-9.26,5.6a1.59,1.59,0,0,1-.83.24Z"/><path class="cls-4" d="M89.35,31.85a1.59,1.59,0,0,1-.84-.23l-3.74-2.27L81,31.62a1.61,1.61,0,0,1-1.66-2.75l4.58-2.77a1.6,1.6,0,0,1,1.66,0l4.58,2.77a1.61,1.61,0,0,1,.54,2.21,1.59,1.59,0,0,1-1.37.77Z"/><path class="cls-4" d="M107.74,43a1.55,1.55,0,0,1-.83-.23l-9.2-5.58a1.6,1.6,0,0,1,1.66-2.74l9.2,5.58a1.6,1.6,0,0,1-.83,3Z"/><path class="cls-4" d="M121.52,56.72a1.6,1.6,0,0,1-1.61-1.6V50.67l-3.81-2.31a1.6,1.6,0,1,1,1.67-2.74l4.57,2.77a1.61,1.61,0,0,1,.78,1.37v5.36a1.6,1.6,0,0,1-1.6,1.6Z"/><path class="cls-4" d="M121.54,78.83a1.62,1.62,0,0,1-1.61-1.61v-11a1.61,1.61,0,1,1,3.21,0l0,11a1.61,1.61,0,0,1-1.61,1.61Z"/><path class="cls-4" d="M117,98a1.59,1.59,0,0,1-1.37-.77,1.61,1.61,0,0,1,.53-2.21l3.8-2.31V88.28a1.61,1.61,0,0,1,3.21,0v5.36a1.6,1.6,0,0,1-.77,1.37l-4.57,2.79A1.65,1.65,0,0,1,117,98Z"/><path class="cls-4" d="M98.62,109.22a1.59,1.59,0,0,1-1.37-.77,1.62,1.62,0,0,1,.53-2.21l9.19-5.6a1.61,1.61,0,0,1,1.67,2.75L99.46,109a1.61,1.61,0,0,1-.84.23Z"/><path class="cls-4" d="M84.87,117.61a1.62,1.62,0,0,1-.83-.23l-4.59-2.76a1.61,1.61,0,1,1,1.66-2.75l3.75,2.25,3.74-2.28a1.61,1.61,0,0,1,1.67,2.75l-4.57,2.78a1.54,1.54,0,0,1-.83.24Z"/><path class="cls-4" d="M71,109.26a1.55,1.55,0,0,1-.83-.23l-9.28-5.58a1.61,1.61,0,0,1,1.66-2.75l9.27,5.58a1.6,1.6,0,0,1-.82,3Z"/><path class="cls-5" d="M112.34,55,107,54.62,86.18,63.26,84.8,71.74v33.48a1.64,1.64,0,0,0,.82-.23l26.16-15.92a1.57,1.57,0,0,0,.76-1.35v-32a1.62,1.62,0,0,0-.2-.78Z"/><path class="cls-6" d="M83.48,65.65,60.29,53.79,57,55.16a1.45,1.45,0,0,0-.12.59v32a1.58,1.58,0,0,0,.76,1.35L84,105a1.61,1.61,0,0,0,.82.23V71.74Z"/><path class="cls-7" d="M112.34,55l-.23.16L84.8,71.74,57.35,55.17H57a1.64,1.64,0,0,1,.64-.76L84,38.48a1.58,1.58,0,0,1,1.64,0L111.78,54.4a1.53,1.53,0,0,1,.56.57Z"/><path class="cls-3" d="M84.8,72.72a1.61,1.61,0,0,1-1.61-1.61V67a1.61,1.61,0,1,1,3.21,0v4.11a1.6,1.6,0,0,1-1.6,1.61Z"/><path class="cls-3" d="M84.8,52.2a1.61,1.61,0,0,1-1.61-1.61V49.36a1.61,1.61,0,1,1,3.21,0v1.23a1.6,1.6,0,0,1-1.6,1.61Z"/><path class="cls-3" d="M84.8,61.4a1.61,1.61,0,0,1-1.61-1.6V58.56a1.61,1.61,0,0,1,3.21,0V59.8a1.6,1.6,0,0,1-1.6,1.6Z"/><path class="cls-3" d="M84.8,44.13a1.61,1.61,0,0,1-1.61-1.61V15.71a1.61,1.61,0,0,1,3.21,0V42.52a1.6,1.6,0,0,1-1.6,1.61Z"/><path class="cls-8" d="M137.77,100.87a5.11,5.11,0,1,1-5.11-5.11,5.11,5.11,0,0,1,5.11,5.11Z"/><path class="cls-8" d="M42.05,100.87a5.11,5.11,0,1,1-5.11-5.11,5.11,5.11,0,0,1,5.11,5.11Z"/><path class="cls-8" d="M89.91,16.72a5.12,5.12,0,1,1-5.11-5.11,5.11,5.11,0,0,1,5.11,5.11Z"/></g></g></svg>