<svg xmlns="http://www.w3.org/2000/svg" viewBox="0 0 16.15 21.87"><defs><style>.cls-1{fill:#3aac4a;}</style></defs><g id="Layer_2" data-name="Layer 2"><g id="Layer_1-2" data-name="Layer 1"><path class="cls-1" d="M8.08,1A7.13,7.13,0,0,1,15.2,8.08a8.41,8.41,0,0,1-.61,2.74,12.14,12.14,0,0,1-.85,1.59L8.2,20.8c-.11.17-.14.17-.25,0L2.41,12.41a12.14,12.14,0,0,1-.85-1.59A8.41,8.41,0,0,1,1,8.08,7.14,7.14,0,0,1,8.08,1Zm-6.46,12,5.54,8.39a1.1,1.1,0,0,0,.92.55A1.11,1.11,0,0,0,9,21.32l5.54-8.39a13.23,13.23,0,0,0,.93-1.74,9.38,9.38,0,0,0,.68-3.11A8.08,8.08,0,1,0,0,8.08a9.28,9.28,0,0,0,.69,3.11,13.23,13.23,0,0,0,.93,1.74Z"/><path class="cls-1" d="M8.08,4.75A3.33,3.33,0,1,1,4.75,8.08,3.33,3.33,0,0,1,8.08,4.75Zm0,7.6A4.28,4.28,0,1,0,3.8,8.08a4.27,4.27,0,0,0,4.28,4.27Z"/></g></g></svg>