<svg xmlns="http://www.w3.org/2000/svg" viewBox="0 0 25.49 17"><defs><style>.cls-1{fill:#3aac4a;}</style></defs><g id="Layer_2" data-name="Layer 2"><g id="Layer_1-2" data-name="Layer 1"><path class="cls-1" d="M1.8,1H23.7L13.5,8.63a1.21,1.21,0,0,1-.75.22A1.24,1.24,0,0,1,12,8.63L1.8,1ZM24.51,15.31,19,8.52a.49.49,0,1,0-.76.61L23.81,16v0H1.67l0,0L7.24,9.13a.48.48,0,0,0-.07-.69.49.49,0,0,0-.69.08L1,15.31V1.59L11.41,9.41a2.24,2.24,0,0,0,1.34.42,2.2,2.2,0,0,0,1.34-.42L24.51,1.59V15.31ZM24.19,0H1.31A1.31,1.31,0,0,0,0,1.31V15.69A1.31,1.31,0,0,0,1.31,17H24.19a1.31,1.31,0,0,0,1.3-1.31V1.31A1.31,1.31,0,0,0,24.19,0Z"/></g></g></svg>