<svg xmlns="http://www.w3.org/2000/svg" xmlns:xlink="http://www.w3.org/1999/xlink" viewBox="0 0 157.94 165.17"><defs><style>.cls-1{fill:url(#linear-gradient);}.cls-2{fill:url(#linear-gradient-2);}.cls-3{fill:#2626bc;opacity:0.1;isolation:isolate;}.cls-4{fill:#3fa8f4;}.cls-5{fill:#c3ddff;}.cls-6{fill:#fff;}.cls-7{fill:#ff7eb8;}.cls-8{fill:#02ffb3;}.cls-9{fill:#9fb0fe;}.cls-10{fill:#b7c5ff;}.cls-11{fill:#00d890;}.cls-12{fill:#cbcbcb;}.cls-13{fill:#46ffc8;}.cls-14{fill:#ffc2dd;}.cls-15{fill:#e2e7fe;}</style><linearGradient id="linear-gradient" x1="7.35" y1="-2334.81" x2="141.76" y2="-2257.21" gradientTransform="matrix(1, 0, 0, -1, 0, -2234.86)" gradientUnits="userSpaceOnUse"><stop offset="0" stop-color="#fff" stop-opacity="0"/><stop offset="0.63" stop-color="#fff"/></linearGradient><linearGradient id="linear-gradient-2" x1="-3576.64" y1="-4231.45" x2="-3442.23" y2="-4153.85" gradientTransform="matrix(-0.63, -0.77, -0.77, 0.63, -5394.7, 27.1)" xlink:href="#linear-gradient"/></defs><g id="Layer_2" data-name="Layer 2"><g id="Layer_1-2" data-name="Layer 1"><path class="cls-1" d="M5,87.49c5.78,19.74,22.43,60,50.57,56.4s17.2-40,43-45c11.37-2.2,19.08,17.48,30.48,16.87,14.68-.79,22.15-15.32,26.26-27.53C164,62.32,151,18.4,120.48,10.79,93.88,4.16,90.76,36.66,67.63,27.22c-13-5.31-11.7-21.15-27.54-24.35C-7.81-6.81-2.73,61.22,5,87.49Z"/><path class="cls-2" d="M137.07,121.11c11.61-17,32.21-55.39,11.57-74.87S106.79,58.3,86.56,41.48C77.65,34.08,88,15.64,80.29,7.21,70.37-3.64,54.4-.21,42.35,4.36,16.8,14.05-8.91,52,4.53,80.37c11.72,24.78,38.84,6.59,46.2,30.46,4.14,13.42-8.94,22.46-1.38,36.74,22.88,43.18,72.27-3.87,87.72-26.46Z"/><path class="cls-3" d="M108,148.4H49.9a9.25,9.25,0,0,1-9.25-9.25V21.71a9.25,9.25,0,0,1,9.25-9.25H108a9.25,9.25,0,0,1,9.25,9.25V139.15A9.25,9.25,0,0,1,108,148.4Z"/><path class="cls-4" d="M108,141H49.9a9.26,9.26,0,0,1-9.25-9.26V14.31A9.25,9.25,0,0,1,49.9,5.06H108a9.25,9.25,0,0,1,9.25,9.25V131.74A9.26,9.26,0,0,1,108,141Z"/><path class="cls-5" d="M40.65,18.29h76.64V127.76H40.65Z"/><path class="cls-6" d="M95.58,24.9H62.36a1.55,1.55,0,0,0,0,3.09H95.58a1.55,1.55,0,0,0,0-3.09Z"/><path class="cls-7" d="M73.8,55.24H58.08A3.08,3.08,0,0,1,55,52.16V37.65a3.08,3.08,0,0,1,3.08-3.08H73.8a3.08,3.08,0,0,1,3.08,3.08V52.16A3.08,3.08,0,0,1,73.8,55.24Z"/><path class="cls-6" d="M70.52,48.79H64.14a1.55,1.55,0,1,0,0,3.09h6.38a1.55,1.55,0,0,0,0-3.09Z"/><path class="cls-6" d="M70.52,43.76H68.76a1.54,1.54,0,0,0,0,3.08h1.76a1.54,1.54,0,1,0,0-3.08Z"/><path class="cls-8" d="M100,55.15H84.28a3.08,3.08,0,0,1-3.09-3.08V37.57a3.09,3.09,0,0,1,3.09-3.09H100a3.09,3.09,0,0,1,3.09,3.09v14.5A3.08,3.08,0,0,1,100,55.15Z"/><path class="cls-6" d="M96.71,48.71H90.33a1.54,1.54,0,1,0,0,3.08h6.38a1.54,1.54,0,1,0,0-3.08Z"/><path class="cls-6" d="M96.71,43.67H95a1.54,1.54,0,1,0,0,3.08h1.75a1.54,1.54,0,1,0,0-3.08Z"/><path class="cls-9" d="M117.21,34.48V55.15h-6.65a3.09,3.09,0,0,1-3.09-3.08V37.57a3.09,3.09,0,0,1,3.09-3.09Z"/><path class="cls-6" d="M40.65,127.76v-57a7.71,7.71,0,0,1,7.71-7.71h61.22a7.71,7.71,0,0,1,7.71,7.71v57Z"/><path class="cls-10" d="M84.36,13.5H73.58a1.55,1.55,0,0,1,0-3.09H84.36a1.55,1.55,0,1,1,0,3.09Z"/><circle class="cls-10" cx="91.56" cy="11.96" r="1.54"/><path class="cls-11" d="M72.37,73H66a1.54,1.54,0,1,0,0,3.08h6.38a1.54,1.54,0,0,0,0-3.08Z"/><path class="cls-12" d="M103.83,79.28H66a1.55,1.55,0,0,0,0,3.09h37.84a1.55,1.55,0,1,0,0-3.09Z"/><path class="cls-13" d="M57.05,82.37H50.79a1.55,1.55,0,0,1-1.54-1.55V74.57A1.54,1.54,0,0,1,50.79,73h6.26a1.54,1.54,0,0,1,1.54,1.54v6.25A1.55,1.55,0,0,1,57.05,82.37Z"/><path class="cls-12" d="M103.83,98.39H66a1.54,1.54,0,1,0,0,3.08h37.84a1.54,1.54,0,1,0,0-3.08Z"/><path class="cls-14" d="M57.05,101.47H50.79a1.54,1.54,0,0,1-1.54-1.54V93.68a1.54,1.54,0,0,1,1.54-1.54h6.26a1.54,1.54,0,0,1,1.54,1.54v6.25A1.54,1.54,0,0,1,57.05,101.47Z"/><path class="cls-12" d="M103.83,117.5H66a1.54,1.54,0,1,0,0,3.08h37.84a1.54,1.54,0,1,0,0-3.08Z"/><path class="cls-15" d="M57.05,120.58H50.79A1.54,1.54,0,0,1,49.25,119v-6.25a1.54,1.54,0,0,1,1.54-1.55h6.26a1.54,1.54,0,0,1,1.54,1.55V119A1.54,1.54,0,0,1,57.05,120.58Z"/></g></g></svg>