<svg xmlns="http://www.w3.org/2000/svg" xmlns:xlink="http://www.w3.org/1999/xlink" viewBox="0 0 168.88 119.28"><defs><style>.cls-1{fill:url(#linear-gradient);}.cls-2{opacity:0.2;}.cls-3{fill:url(#linear-gradient-2);}.cls-4{fill:#4997d4;}.cls-5{fill:#2c67a1;}.cls-6{fill:#731b2b;}.cls-7{fill:gray;}.cls-8{fill:#c61f65;}</style><linearGradient id="linear-gradient" x1="-4036.46" y1="-2520.92" x2="-3914.93" y2="-2450.76" gradientTransform="matrix(-0.98, 0.22, 0.22, 0.98, -3251.59, 3358.22)" gradientUnits="userSpaceOnUse"><stop offset="0" stop-color="#fff" stop-opacity="0"/><stop offset="0.63" stop-color="#fff"/></linearGradient><linearGradient id="linear-gradient-2" x1="-948.43" y1="-3805.91" x2="-826.9" y2="-3735.74" gradientTransform="matrix(0.98, -0.22, -0.22, -0.98, 127.17, -3823.11)" xlink:href="#linear-gradient"/></defs><g id="Layer_2" data-name="Layer 2"><g id="Layer_1-2" data-name="Layer 1"><path class="cls-1" d="M153.55,35.92C143.63,21.76,118.63-6.3,92,1.27S83.84,34.91,59.71,43.14C49.08,46.77,37.28,33,26.29,35.4,12.13,38.5,8,50.93,6.64,61,3.77,82.36,26,113.83,57.43,114.47c27.41.55,23.39-24.92,48-21.62,13.85,1.85,16,14.23,32.17,14,48.87-.75,29.14-52.07,15.93-70.92Z"/><g class="cls-2"><path class="cls-3" d="M15.33,83.36C25.26,97.52,50.25,125.58,76.94,118S85,84.37,109.18,76.14c10.62-3.62,22.42,10.16,33.41,7.75,14.16-3.11,18.3-15.53,19.66-25.61,2.87-21.35-19.38-52.83-50.79-53.46-27.42-.56-23.4,24.91-48,21.61-13.84-1.85-16-14.23-32.17-14C-17.6,13.2,2.13,64.52,15.33,83.36Z"/></g><g id="g10"><g id="g30"><g id="g32"><g id="g38"><g id="g40"><g id="g46"><path id="path48" class="cls-4" d="M139.59,32.24,139.52,24l-20.65.17.07,8.29,4.69,0-8.28,10.39-8.46-10.25,4.71,0-.07-8.29-15.43.13.08,9.28,13.47,16.32L96.45,66.48v1.65l6.36,0,.07,8.49L112,76.5l-.07-8.5-5.25,0L115.47,57h0l9,10.93-5.26,0,.07,8.5L140,76.27l-.07-8.5-3.88,0-14.84-18,14-17.54,4.44,0"/></g><g id="g50"><path id="path52" class="cls-5" d="M90.78,24.35l.07,8.29,4.51,0,.82,1-.08-9.28-5.32,0"/></g><g id="g54"><path id="path56" class="cls-5" d="M96.46,68.13V66.48l-1.33,1.66-4,0,.07,8.49,11.68-.1-.07-8.49-6.36,0"/></g><g id="g58"><path id="path60" class="cls-6" d="M58,64.56l7.34-.06a20.45,20.45,0,0,1-3.55,5.84A20.51,20.51,0,0,1,58,64.56"/></g><g id="g62"><path id="path64" class="cls-6" d="M57.87,53.2h-1.3a19.94,19.94,0,0,0-.27,3.48A20.94,20.94,0,0,0,56.59,60L58,60a12.19,12.19,0,0,0,.42-3.28A12,12,0,0,0,57.87,53.2Zm0,0a12,12,0,0,1,.53,3.47A12.19,12.19,0,0,1,58,60l7.15-.05a11.89,11.89,0,0,1,0-6.76ZM61.51,43A20.23,20.23,0,0,0,57,51.11a11.59,11.59,0,0,1,.85,2.09l7.26-.06A11.62,11.62,0,0,1,66,51.07,20.1,20.1,0,0,0,61.51,43"/></g><g id="g66"><path id="path68" class="cls-7" d="M57,51.11a18.67,18.67,0,0,0-.45,2.1h1.3A11.59,11.59,0,0,0,57,51.11ZM88.16,73l0,3.67,3,0,0-6.35A18.8,18.8,0,0,1,88.16,73Zm7.2-40.42-4.51,0-.07-8.29-8.53.08.07,8.28,5.51,0,.06,7.14A19.47,19.47,0,0,0,76.4,36.25,20.22,20.22,0,0,0,61.51,43,20.1,20.1,0,0,1,66,51.07a11.84,11.84,0,0,1,10.41-6.38A11.6,11.6,0,0,1,88,56.42v.07A11.59,11.59,0,0,1,76.57,68.35a11.81,11.81,0,0,1-10.51-6.21h0a11.26,11.26,0,0,1-.93-2.24L56.59,60a19.83,19.83,0,0,0,.53,2.28A20.46,20.46,0,0,0,58,64.56l7.34-.07a20.36,20.36,0,0,1-3.55,5.85,20.21,20.21,0,0,0,15,6.45A19.46,19.46,0,0,0,88.16,73a18.8,18.8,0,0,0,3-2.71l0-2.14,4,0,1.33-1.66-.27-32.89-.82-1"/></g><g id="g70"><path id="path72" class="cls-8" d="M46.77,36.5a20.26,20.26,0,0,0-19.83,17l8.56-.08a11.82,11.82,0,0,1,11.24-8.44A11.4,11.4,0,0,1,57,51.11,20.23,20.23,0,0,1,61.51,43,19.45,19.45,0,0,0,46.77,36.5Zm8.81,28.08a11.35,11.35,0,0,1-8.64,4A11.81,11.81,0,0,1,35.5,60.14L56.59,60a20.94,20.94,0,0,1-.29-3.28,19.94,19.94,0,0,1,.27-3.48l-29.63.25a19.9,19.9,0,0,0-.27,3.47A20.83,20.83,0,0,0,27,60.21h0A20.27,20.27,0,0,0,47.11,77a19.46,19.46,0,0,0,14.63-6.69A20.51,20.51,0,0,1,58,64.56ZM66.43,53.13A19.88,19.88,0,0,0,66,51.07a11.62,11.62,0,0,0-.83,2.07,11.89,11.89,0,0,0,0,6.76l1.38,0a20.85,20.85,0,0,0,.23-3.28,22.05,22.05,0,0,0-.31-3.47"/></g></g></g></g></g></g></g></g></svg>