<svg xmlns="http://www.w3.org/2000/svg" viewBox="0 0 19.59 19.59"><defs><style>.cls-1{fill:#3aac4a;}</style></defs><g id="Layer_2" data-name="Layer 2"><g id="Layer_1-2" data-name="Layer 1"><path class="cls-1" d="M18,12.86a11.15,11.15,0,0,1-3.5-.56,1.62,1.62,0,0,0-1.55.33l-2.2,1.66A12.07,12.07,0,0,1,5.3,8.82L6.91,6.67a1.57,1.57,0,0,0,.39-1.6,11.15,11.15,0,0,1-.56-3.5A1.57,1.57,0,0,0,5.17,0H1.57A1.58,1.58,0,0,0,0,1.57a18,18,0,0,0,18,18A1.58,1.58,0,0,0,19.59,18V14.43A1.57,1.57,0,0,0,18,12.86Z"/></g></g></svg>