<svg xmlns="http://www.w3.org/2000/svg" viewBox="0 0 127.16 127.16"><defs><style>.cls-1{fill:#fff;}.cls-2{fill:#ecf4ff;}.cls-3{fill:#d6ebff;}.cls-4{fill:#ff8086;}.cls-4,.cls-5,.cls-6,.cls-7,.cls-8,.cls-9{fill-rule:evenodd;}.cls-5{fill:#e5646e;}.cls-6{fill:#ddeafb;}.cls-7{fill:#bed8fb;}.cls-8{fill:#9dc6fb;}.cls-9{fill:#80b4fb;}.cls-10{fill:#3a2c60;}</style></defs><g id="Layer_2" data-name="Layer 2"><g id="Layer_1-2" data-name="Layer 1"><rect class="cls-1" width="127.16" height="127.16" rx="22.61"/><path class="cls-2" d="M73,50.9v20L89,96.42a4.66,4.66,0,0,1,0,4.63l-4.53,7.84a4.67,4.67,0,0,1-4,2.33H46.67a4.66,4.66,0,0,1-4.18-2.62l-4.35-7.55a4.63,4.63,0,0,1,.15-4.9L54.17,70.88v-20Z"/><path class="cls-3" d="M73,50.9v20L89,96.42a4.66,4.66,0,0,1,0,4.63l-4.53,7.84a4.67,4.67,0,0,1-4,2.33H74.9a4.64,4.64,0,0,0,4-2.33l4.53-7.84a4.62,4.62,0,0,0,0-4.63l-16-25.54v-20Z"/><path class="cls-4" d="M53.91,82.19,44.09,97.81a1.79,1.79,0,0,0,0,1.91l2.74,4.74a1.82,1.82,0,0,0,1.67,1H79.81a1.81,1.81,0,0,0,1.67-1l2.74-4.74a1.79,1.79,0,0,0,0-1.91L74.37,82.19a2,2,0,0,0-1.72-.94h-17a1.92,1.92,0,0,0-1.7.94Z"/><path class="cls-5" d="M74.22,105.43h5.59a1.81,1.81,0,0,0,1.67-1l2.74-4.74a1.79,1.79,0,0,0,0-1.91L74.37,82.19a1.94,1.94,0,0,0-1.72-.94H67.07a2,2,0,0,1,1.72.94L78.6,97.81a1.79,1.79,0,0,1,0,1.91l-2.74,4.74a1.82,1.82,0,0,1-1.68,1Z"/><path class="cls-6" d="M54.17,51.83H73a3,3,0,1,0,0-6.08H54.17a3,3,0,0,0,0,6.08Z"/><path class="cls-7" d="M67.41,51.83H73a3,3,0,1,0,0-6.08H67.41a3,3,0,1,1,0,6.08Z"/><path class="cls-8" d="M88.94,30.58a6.61,6.61,0,1,1-6.6,6.61,6.6,6.6,0,0,1,6.6-6.61ZM63.58,15.94A6.61,6.61,0,1,1,57,22.55a6.6,6.6,0,0,1,6.6-6.61ZM38.22,30.58a6.61,6.61,0,1,1-6.6,6.61,6.61,6.61,0,0,1,6.6-6.61Zm0,29.29a6.61,6.61,0,1,1-6.6,6.61,6.61,6.61,0,0,1,6.6-6.61Zm50.72,0a6.61,6.61,0,1,1-6.6,6.61,6.6,6.6,0,0,1,6.6-6.61Z"/><path class="cls-9" d="M88.94,30.58a6.61,6.61,0,1,1-2.79,12.59,6.61,6.61,0,0,0,0-12,6.7,6.7,0,0,1,2.79-.62ZM63.58,15.94a6.61,6.61,0,0,1,0,13.21,6.48,6.48,0,0,1-2.79-.62,6.61,6.61,0,0,0,0-12,6.48,6.48,0,0,1,2.79-.62ZM38.22,30.58a6.61,6.61,0,0,1,0,13.21,6.48,6.48,0,0,1-2.79-.62,6.61,6.61,0,0,0,0-12,6.63,6.63,0,0,1,2.79-.62Zm0,29.29a6.61,6.61,0,0,1,0,13.21,6.48,6.48,0,0,1-2.79-.62,6.61,6.61,0,0,0,0-12,6.48,6.48,0,0,1,2.79-.62Zm50.72,0a6.61,6.61,0,1,1-2.79,12.59,6.61,6.61,0,0,0,0-12,6.55,6.55,0,0,1,2.79-.62Z"/><path class="cls-10" d="M44.35,32,56,25.26a8.08,8.08,0,0,1-.47-2.71,8,8,0,0,1,16.08,0,8.08,8.08,0,0,1-.47,2.71L82.81,32A8,8,0,1,1,90.38,45.1V58.56a8.12,8.12,0,0,1,4.25,2.23A8,8,0,1,1,82.81,71.67l-5.6,3.23,13,20.76a6.17,6.17,0,0,1,.84,3.08,6.09,6.09,0,0,1-.81,3l-4.53,7.84a6.09,6.09,0,0,1-5.26,3H46.67a6,6,0,0,1-3.22-.93,6.13,6.13,0,0,1-2.23-2.45l-4.33-7.5a6.07,6.07,0,0,1-.81-3.23,6.21,6.21,0,0,1,1-3.2l6.18-9.83A1.44,1.44,0,1,1,45.71,87l-6.18,9.83a3.31,3.31,0,0,0-.59,1.76,3.09,3.09,0,0,0,.44,1.7l4.35,7.55A3.4,3.4,0,0,0,45,109.3a3.15,3.15,0,0,0,1.7.48H80.48a3.22,3.22,0,0,0,2.78-1.61l4.52-7.83a3.25,3.25,0,0,0,.43-1.6,3.18,3.18,0,0,0-.4-1.56l-16-25.44a1.43,1.43,0,0,1-.28-.86V53.27H66.83a1.44,1.44,0,0,1,0-2.88H73a1.61,1.61,0,0,0,1.13-.47,1.59,1.59,0,0,0,0-2.26A1.61,1.61,0,0,0,73,47.19H54.17a1.6,1.6,0,0,0,0,3.2h6.15a1.44,1.44,0,1,1,0,2.88H55.61V70.88a1.41,1.41,0,0,1-.23.76l-6.21,9.88A1.43,1.43,0,1,1,46.75,80L50,74.9l-5.6-3.23A8,8,0,1,1,32.53,60.79a8.08,8.08,0,0,1,4.25-2.23V45.1A8,8,0,1,1,44.35,32Zm12.57,57.2a1.44,1.44,0,1,1,0-2.87H70.23a1.44,1.44,0,1,1,0,2.87ZM50.1,100.36a1.44,1.44,0,0,1,0-2.88h27a1.44,1.44,0,0,1,0,2.88Zm3.31-5.59a1.44,1.44,0,0,1,0-2.87H73.74a1.44,1.44,0,1,1,0,2.87Zm4-67L45.79,34.47a8.18,8.18,0,0,1,.47,2.72,8,8,0,0,1-6.61,7.91V58.56a8,8,0,0,1,6.14,10.63l5.69,3.29,1.25-2V53A4.58,4.58,0,0,1,51,52a4.48,4.48,0,0,1,3.16-7.64H73A4.48,4.48,0,0,1,76.15,52,4.58,4.58,0,0,1,74.43,53V70.48l1.25,2,5.69-3.29a8.12,8.12,0,0,1-.47-2.71,8.06,8.06,0,0,1,6.61-7.92V45.1a8,8,0,0,1-6.61-7.91,8.18,8.18,0,0,1,.47-2.72L69.71,27.74a8,8,0,0,1-12.27,0ZM92.59,62.82a5.17,5.17,0,0,0-7.3,7.31,5.17,5.17,0,1,0,7.3-7.31Zm-50.72,0a5.17,5.17,0,1,0,0,7.31,5.18,5.18,0,0,0,0-7.31Zm0-29.29a5.17,5.17,0,1,0-7.3,7.31,5.16,5.16,0,0,0,8.81-3.65,5.19,5.19,0,0,0-1.51-3.66ZM67.23,18.9a5.14,5.14,0,1,0,1.52,3.65,5.11,5.11,0,0,0-1.52-3.65ZM92.59,33.53a5.15,5.15,0,1,0,1.52,3.66,5.15,5.15,0,0,0-1.52-3.66ZM66.83,106.87a1.44,1.44,0,0,1,0-2.88H79l3-5.2L71.87,82.68H55.29L45.16,98.79l3,5.2H60.32a1.44,1.44,0,0,1,0,2.88h-13a1.46,1.46,0,0,1-1.25-.73l-3.81-6.6a1.45,1.45,0,0,1,0-1.55L53.23,80.58a1.42,1.42,0,0,1,1.27-.77H72.65a1.42,1.42,0,0,1,1.22.67L84.84,98a1.39,1.39,0,0,1,.06,1.52l-3.8,6.58a1.43,1.43,0,0,1-1.29.81Z"/></g></g></svg>