<svg xmlns="http://www.w3.org/2000/svg" viewBox="0 0 66.81 98.15"><defs><style>.cls-1{fill:#ecf4ff;}.cls-2{fill:#d6ebff;}.cls-3{fill:#ff8086;}.cls-3,.cls-4,.cls-5,.cls-6,.cls-7,.cls-8{fill-rule:evenodd;}.cls-4{fill:#e5646e;}.cls-5{fill:#ddeafb;}.cls-6{fill:#bed8fb;}.cls-7{fill:#9dc6fb;}.cls-8{fill:#80b4fb;}.cls-9{fill:#3a2c60;}</style></defs><g id="Layer_2" data-name="Layer 2"><g id="Layer_1-2" data-name="Layer 1"><path class="cls-1" d="M42.82,36.4v20l16,25.53a4.66,4.66,0,0,1,0,4.64l-4.52,7.84a4.69,4.69,0,0,1-4,2.33H16.5a4.67,4.67,0,0,1-4.19-2.62L8,86.55a4.63,4.63,0,0,1,.15-4.9L24,56.38v-20Z"/><path class="cls-2" d="M42.82,36.4v20l16,25.53a4.66,4.66,0,0,1,0,4.64l-4.52,7.84a4.69,4.69,0,0,1-4,2.33H44.72a4.68,4.68,0,0,0,4-2.33l4.53-7.84a4.66,4.66,0,0,0,0-4.64l-16-25.53v-20Z"/><path class="cls-3" d="M23.73,67.69,13.91,83.3a1.81,1.81,0,0,0,0,1.92L16.61,90a1.85,1.85,0,0,0,1.68,1H49.64a1.83,1.83,0,0,0,1.67-1L54,85.22a1.79,1.79,0,0,0,0-1.92L44.19,67.69a2,2,0,0,0-1.71-1h-17a2,2,0,0,0-1.71,1Z"/><path class="cls-4" d="M44.05,90.92h5.59a1.83,1.83,0,0,0,1.67-1L54,85.22a1.79,1.79,0,0,0,0-1.92L44.19,67.69a2,2,0,0,0-1.71-1H36.9a2,2,0,0,1,1.71,1L48.43,83.3a1.79,1.79,0,0,1,0,1.92L45.73,90a1.85,1.85,0,0,1-1.68,1Z"/><path class="cls-5" d="M24,37.33H42.82a3,3,0,0,0,0-6.08H24a3,3,0,1,0,0,6.08Z"/><path class="cls-6" d="M37.23,37.33h5.59a3,3,0,0,0,0-6.08H37.23a3,3,0,1,1,0,6.08Z"/><path class="cls-7" d="M58.77,16.08a6.61,6.61,0,1,1-6.61,6.6,6.61,6.61,0,0,1,6.61-6.6ZM33.4,1.44A6.61,6.61,0,1,1,26.8,8a6.61,6.61,0,0,1,6.6-6.6ZM8,16.08a6.61,6.61,0,1,1-6.6,6.6A6.61,6.61,0,0,1,8,16.08ZM8,45.36A6.61,6.61,0,1,1,1.44,52,6.62,6.62,0,0,1,8,45.36Zm50.73,0A6.61,6.61,0,1,1,52.16,52a6.62,6.62,0,0,1,6.61-6.61Z"/><path class="cls-8" d="M58.77,16.08a6.61,6.61,0,0,1,0,13.21A6.51,6.51,0,0,1,56,28.67a6.61,6.61,0,0,0,0-12,6.51,6.51,0,0,1,2.79-.62ZM33.4,1.44a6.61,6.61,0,1,1,0,13.21A6.52,6.52,0,0,1,30.61,14a6.6,6.6,0,0,0,0-12,6.66,6.66,0,0,1,2.79-.61ZM8,16.08A6.61,6.61,0,1,1,8,29.29a6.51,6.51,0,0,1-2.79-.62,6.61,6.61,0,0,0,0-12A6.51,6.51,0,0,1,8,16.08ZM8,45.36A6.61,6.61,0,1,1,8,58.57,6.51,6.51,0,0,1,5.25,58a6.57,6.57,0,0,0,3.81-6,6.62,6.62,0,0,0-3.81-6A6.66,6.66,0,0,1,8,45.36Zm50.73,0a6.61,6.61,0,0,1,0,13.21A6.51,6.51,0,0,1,56,58a6.61,6.61,0,0,0,0-12,6.66,6.66,0,0,1,2.79-.62Z"/><path class="cls-9" d="M14.18,17.49l11.65-6.73A8.18,8.18,0,0,1,25.36,8,8,8,0,1,1,41,10.76l11.66,6.73A8,8,0,1,1,60.2,30.6V44.05a8,8,0,1,1-7.57,13.12L47,60.4l13,20.75a6,6,0,0,1,0,6.12l-4.53,7.84a6.06,6.06,0,0,1-5.25,3H16.5a6.12,6.12,0,0,1-5.45-3.38l-4.33-7.5a6.06,6.06,0,0,1,.21-6.43L13.11,71a1.42,1.42,0,0,1,2-.45,1.44,1.44,0,0,1,.45,2L9.36,82.36a3.26,3.26,0,0,0-.59,1.77,3.19,3.19,0,0,0,.43,1.7l4.35,7.54a3.42,3.42,0,0,0,1.24,1.43,3.28,3.28,0,0,0,1.71.48H50.31a3.18,3.18,0,0,0,2.77-1.61l4.53-7.84a3.21,3.21,0,0,0,.42-1.6,3.27,3.27,0,0,0-.39-1.55l-16-25.45a1.4,1.4,0,0,1-.28-.85V38.77H36.66a1.44,1.44,0,1,1,0-2.88h6.15a1.6,1.6,0,1,0,0-3.2H24a1.6,1.6,0,0,0,0,3.2h6.15a1.44,1.44,0,0,1,0,2.88H25.43V56.38a1.4,1.4,0,0,1-.22.76L19,67a1.44,1.44,0,0,1-2.43-1.53l3.21-5.09-5.6-3.23A8,8,0,1,1,6.6,44.05V30.6A8.06,8.06,0,0,1,0,22.68a8,8,0,0,1,8-8,8,8,0,0,1,6.14,2.84Zm12.57,57.2a1.44,1.44,0,0,1,0-2.88H40.06a1.44,1.44,0,0,1,0,2.88ZM19.92,85.85a1.44,1.44,0,0,1,0-2.87h27a1.44,1.44,0,1,1,0,2.87Zm3.32-5.58a1.44,1.44,0,1,1,0-2.88H43.56a1.44,1.44,0,0,1,0,2.88Zm4-67L15.61,20a8,8,0,0,1-1.88,8.41A8.08,8.08,0,0,1,9.48,30.6V44.05A8.06,8.06,0,0,1,16.09,52a7.84,7.84,0,0,1-.48,2.71L21.3,58l1.26-2V38.53a4.57,4.57,0,0,1-1.73-1.08A4.48,4.48,0,0,1,24,29.81H42.81A4.48,4.48,0,0,1,46,37.45a4.65,4.65,0,0,1-1.73,1.08V56l1.26,2,5.68-3.29a8.06,8.06,0,0,1,6.14-10.63V30.6a8.06,8.06,0,0,1-6.61-7.92A8.23,8.23,0,0,1,51.19,20L39.54,13.24a8,8,0,0,1-12.27,0ZM62.42,48.31A5.18,5.18,0,1,0,63.93,52a5.18,5.18,0,0,0-1.51-3.66Zm-50.73,0A5.15,5.15,0,1,0,13.21,52a5.15,5.15,0,0,0-1.52-3.66Zm0-29.28a5.15,5.15,0,1,0,1.52,3.65A5.15,5.15,0,0,0,11.69,19ZM37.06,4.39A5.17,5.17,0,1,0,38.57,8a5.2,5.2,0,0,0-1.51-3.65ZM62.42,19a5.18,5.18,0,1,0,1.51,3.65A5.18,5.18,0,0,0,62.42,19ZM36.66,92.36a1.44,1.44,0,0,1,0-2.88H48.81l3-5.19L41.69,68.18H25.11L15,84.28l3,5.2H30.15a1.44,1.44,0,0,1,0,2.88h-13a1.42,1.42,0,0,1-1.24-.73L12.12,85a1.45,1.45,0,0,1,0-1.55l11-17.41a1.43,1.43,0,0,1,1.27-.77H42.48A1.44,1.44,0,0,1,43.7,66l11,17.47A1.45,1.45,0,0,1,54.73,85l-3.8,6.57a1.44,1.44,0,0,1-1.29.81Z"/></g></g></svg>