<svg xmlns="http://www.w3.org/2000/svg" xmlns:xlink="http://www.w3.org/1999/xlink" viewBox="0 0 841.49 484.4"><defs><style>.cls-1{fill:none;}.cls-2{opacity:0.8;}.cls-3{opacity:0.5;}.cls-4{fill:#ccd3e6;}.cls-5{fill:#fff;}.cls-6{fill:#575759;}.cls-7{fill:#363638;}.cls-8{fill:#fd615b;}.cls-9{fill:#0592f5;}.cls-10{fill:#cedcec;}.cls-11{clip-path:url(#clip-path);}.cls-12{fill:#ff9b79;}.cls-13{fill:#f56c63;}.cls-14{fill:#ffb028;}.cls-15{fill:#dc7f21;}.cls-16{fill:#0076fa;}.cls-17{fill:#004ecb;}.cls-18{fill:#00b570;}.cls-19{fill:#007d55;}.cls-20{fill:#ce101d;}</style><clipPath id="clip-path"><path id="SVGID" class="cls-1" d="M458.38,279.89c-1.32,4-1.32,4.74-1.32,4l0-115.11c0-.71,0-.6,0-83.95H715.93l0,195Z"/></clipPath></defs><g id="Layer_2" data-name="Layer 2"><g id="Layer_1-2" data-name="Layer 1"><g class="cls-2"><g class="cls-3"><path class="cls-4" d="M406,168.86a199.37,199.37,0,0,1-90.9-38.52C275,100,191,48.46,110.8,74.15.24,109.58-.25,212.08,28.55,267.75s233,218.72,497.75,192.78C763.2,437.31,809.37,171.59,683,123.5,573.43,81.8,536.05,188.06,406,168.86Z"/></g><g class="cls-3"><ellipse class="cls-4" cx="747.09" cy="129.53" rx="10.27" ry="11.06"/></g><path class="cls-4" d="M76.42,56.7a6.65,6.65,0,0,1,7.45,4.17c1.9,5.13-3.06,10.88-9.73,8.3h0C68.38,64.91,70.89,57.72,76.42,56.7Z"/><circle class="cls-4" cx="719.04" cy="30.71" r="13.38" transform="translate(573.21 735.47) rotate(-80.75)"/><g class="cls-2"><path class="cls-4" d="M117,46.15a13.52,13.52,0,1,1-16.67-9.37A13.51,13.51,0,0,1,117,46.15Z"/></g><path class="cls-4" d="M651.83,448.88a6.66,6.66,0,0,1,8.1,2.71c2.81,4.69-1,11.26-8,10h0C645.46,458.44,646.58,450.91,651.83,448.88Z"/><path class="cls-4" d="M689.73,431a13.52,13.52,0,1,1-18.12-6.11A13.52,13.52,0,0,1,689.73,431Z"/><circle class="cls-4" cx="693.83" cy="10.23" r="8.23"/></g><g class="cls-2"><path class="cls-4" d="M724,159.36C724,85.82,662.75,5.23,586.54.37c-1.34-.09-2.69-.16-4.06-.23C473.23-4.95,464.91,128.3,366.06,143.33S191.73,82.49,73.45,132c-106.22,44.45-135,294.26,177.12,304.28C500.29,444.29,724,378.77,724,159.36Z"/></g><ellipse class="cls-4" cx="590.16" cy="436.88" rx="175.71" ry="9.06"/><path class="cls-4" d="M709.17,411.51H684.82v25.32h28.47v-21.2A4.12,4.12,0,0,0,709.17,411.51Z"/><rect class="cls-4" x="554.57" y="357.25" width="84.52" height="54.26"/><path class="cls-5" d="M486.47,411.51H687.79a15.92,15.92,0,0,1,15.92,15.92v9.4a0,0,0,0,1,0,0H470.54a0,0,0,0,1,0,0v-9.4A15.92,15.92,0,0,1,486.47,411.51Z"/><rect class="cls-5" x="544.21" y="357.25" width="84.52" height="54.26"/><polygon class="cls-4" points="544.21 373.91 628.73 367.14 628.74 357.25 544.32 357.25 544.21 373.91"/><rect class="cls-4" x="395.28" y="121.89" width="383.46" height="235.37" rx="11.29"/><path class="cls-6" d="M778.74,133.18V330.23H743.83V121.89h23.62A11.29,11.29,0,0,1,778.74,133.18Z"/><path class="cls-5" d="M764.38,133.18V346a11.28,11.28,0,0,1-11.29,11.29H406.57A11.29,11.29,0,0,1,395.28,346V133.18a11.3,11.3,0,0,1,11.29-11.29h347l.37,0h0l.26,0,.44,0,.29,0,.13,0,.28.05A11.3,11.3,0,0,1,764.38,133.18Z"/><path class="cls-7" d="M755.37,122.12l-.28-.05-.13,0-.29,0-.44,0-.26,0h0l-.37,0h-347a11.3,11.3,0,0,0-11.29,11.29V330.23h369.1v-197A11.3,11.3,0,0,0,755.37,122.12Zm-5.63,188.43a3.06,3.06,0,0,1-3.07,3.07H413a3.06,3.06,0,0,1-3.07-3.07v-171a3.07,3.07,0,0,1,3.07-3.07H746.67a3.07,3.07,0,0,1,3.07,3.07Z"/><rect class="cls-4" x="409.92" y="136.53" width="339.82" height="177.09" rx="3.07"/><path class="cls-5" d="M749.74,139.6v16.14H409.92V139.6a3.07,3.07,0,0,1,3.07-3.07H746.67A3.07,3.07,0,0,1,749.74,139.6Z"/><path class="cls-8" d="M723.42,145.88a2.61,2.61,0,1,1-2.61-2.61A2.61,2.61,0,0,1,723.42,145.88Z"/><circle class="cls-9" cx="729.27" cy="145.88" r="2.61"/><rect class="cls-10" x="439.59" y="143.11" width="270.34" height="5.52" rx="2.43"/><path d="M422.19,145.88v2.55a.47.47,0,0,1-.7.41l-2.22-1.28-2.21-1.28a.47.47,0,0,1,0-.81l2.21-1.28,2.22-1.28a.47.47,0,0,1,.7.41Z"/><path d="M426.08,145.88v2.55a.47.47,0,0,0,.7.41l2.21-1.28,2.22-1.28a.47.47,0,0,0,0-.81L429,144.19l-2.21-1.28a.47.47,0,0,0-.7.41Z"/><rect class="cls-7" x="734.42" y="145.04" width="6.27" height="1.47" rx="0.65" transform="translate(112.94 564.23) rotate(-45)"/><rect class="cls-7" x="736.82" y="142.65" width="1.47" height="6.27" rx="0.65" transform="translate(112.94 564.23) rotate(-45)"/><rect class="cls-5" x="448.33" y="159.63" width="262.09" height="147.12" rx="6.42"/><path class="cls-4" d="M524.19,234.9H466.73a1.6,1.6,0,0,1-1.6-1.59h0a1.6,1.6,0,0,1,1.6-1.6h57.46a1.6,1.6,0,0,1,1.6,1.6h0A1.6,1.6,0,0,1,524.19,234.9Z"/><path class="cls-4" d="M524.19,221.4H466.73a1.6,1.6,0,0,1-1.6-1.6h0a1.6,1.6,0,0,1,1.6-1.6h57.46a1.6,1.6,0,0,1,1.6,1.6h0A1.6,1.6,0,0,1,524.19,221.4Z"/><path class="cls-4" d="M524.19,248.41H466.73a1.6,1.6,0,0,1-1.6-1.6h0a1.6,1.6,0,0,1,1.6-1.59h57.46a1.6,1.6,0,0,1,1.6,1.59h0A1.6,1.6,0,0,1,524.19,248.41Z"/><path class="cls-4" d="M700.76,234.9H643.29a1.59,1.59,0,0,1-1.59-1.59h0a1.59,1.59,0,0,1,1.59-1.6h57.47a1.59,1.59,0,0,1,1.59,1.6h0A1.59,1.59,0,0,1,700.76,234.9Z"/><path class="cls-4" d="M700.76,221.4H643.29a1.6,1.6,0,0,1-1.59-1.6h0a1.6,1.6,0,0,1,1.59-1.6h57.47a1.6,1.6,0,0,1,1.59,1.6h0A1.6,1.6,0,0,1,700.76,221.4Z"/><path class="cls-4" d="M700.76,248.41H643.29a1.6,1.6,0,0,1-1.59-1.6h0a1.59,1.59,0,0,1,1.59-1.59h57.47a1.59,1.59,0,0,1,1.59,1.59h0A1.6,1.6,0,0,1,700.76,248.41Z"/><path class="cls-7" d="M448.33,283.9H710.42v21.49a1.36,1.36,0,0,1-1.36,1.35H449.69a1.36,1.36,0,0,1-1.36-1.35Z"/><path class="cls-5" d="M684.68,292.37v-1.94h2.42v-1.72h-3.29a.86.86,0,0,0-.86.86v2.8Z"/><path class="cls-5" d="M684.68,295.81H683v2.95a.86.86,0,0,0,.86.86h3.29V297.9h-2.42Z"/><path class="cls-5" d="M692.14,292.37h1.73v-2.8a.86.86,0,0,0-.86-.86h-3.16v1.72h2.29Z"/><path class="cls-5" d="M692.14,295.81v2.09h-2.29v1.72H693a.86.86,0,0,0,.86-.86v-2.95Z"/><polygon class="cls-5" points="463.6 294.54 463.6 289.09 468.31 291.81 473.03 294.54 468.31 297.26 463.6 299.98 463.6 294.54"/><rect class="cls-5" x="487.65" y="289.64" width="2.92" height="9.91" rx="0.84"/><rect class="cls-5" x="493.76" y="289.64" width="2.92" height="9.91" rx="0.84"/><rect class="cls-4" x="448.33" y="279.6" width="262.09" height="4.3"/><rect class="cls-8" x="448.33" y="279.6" width="134.48" height="4.3"/><path class="cls-7" d="M668.51,262.89h3v6.47h4v2.3h-6.92Z"/><path class="cls-7" d="M676.24,262.89h3v8.77h-3Z"/><path class="cls-7" d="M690,262.89l-3.71,8.77h-2.91l-3.71-8.77h3.19L685,268l2.14-5.12Z"/><path class="cls-7" d="M697.58,269.43v2.23h-7.3v-8.77h7.13v2.23h-4.22v1h3.71v2.13h-3.71v1.16Z"/><path class="cls-8" d="M663.64,267.2a3.61,3.61,0,1,1-3.6-3.61A3.61,3.61,0,0,1,663.64,267.2Z"/><path class="cls-7" d="M480.34,269.64c0,2-1.89,3.3-4.62,3.3s-4.62-1.3-4.62-3.3a2.71,2.71,0,0,1,1.38-2.37,2.51,2.51,0,0,1-1-2c0-1.87,1.75-3.08,4.25-3.08s4.26,1.21,4.26,3.08a2.52,2.52,0,0,1-1,2A2.69,2.69,0,0,1,480.34,269.64Zm-3.48-.12a1.14,1.14,0,1,0-1.14,1.08A1,1,0,0,0,476.86,269.52Zm-2-4.13a.83.83,0,1,0,1.65,0,.83.83,0,1,0-1.65,0Z"/><path class="cls-7" d="M481,267.55c0-3.41,1.94-5.39,4.67-5.39s4.66,2,4.66,5.39-1.94,5.39-4.66,5.39S481,271,481,267.55Zm5.84,0c0-2-.5-2.6-1.17-2.6s-1.18.61-1.18,2.6.5,2.61,1.18,2.61S486.83,269.54,486.83,267.55Z"/><path class="cls-8" d="M465.06,264.66a3.17,3.17,0,1,1-3.17-3.17A3.16,3.16,0,0,1,465.06,264.66Z"/><path class="cls-8" d="M467.81,272.67H456a6.13,6.13,0,0,1,5.83-3.76H462A6.12,6.12,0,0,1,467.81,272.67Z"/><g class="cls-11"><path class="cls-12" d="M498.28,193.15s-1.58,9.66-8.69,11.39c-5.75,1.39-11.17-4.13-13-6.3-.45-.52-.69-.85-.69-.85a9,9,0,0,1-1.07,0c-1.49,0-4.16-.33-5.2-2.17-1.49-2.63,3.92-4.42,3.92-4.42s-2.77-2.47-2.08-4.28,4.41-2.14,4.41-2.14-4-2.6-2.67-4.86c2-3.41,6.16.34,6.49.54-.26-.3-5.45-5.67-2.61-6.63,2.48-.84,6.56,1.95,9.24,4.71l.66.69.44-.31c1.35-.9,5.46-3.3,8.08-1.11C498.64,180.1,498.28,193.15,498.28,193.15Z"/><path class="cls-13" d="M490.86,199.08a.59.59,0,0,1-.56,0,.58.58,0,0,1-.16-.79A5,5,0,0,0,491,194c-.94-3.62-5.77-6.13-5.82-6.15a.57.57,0,0,1,.51-1c.22.11,5.34,2.77,6.41,6.87a6.14,6.14,0,0,1-1,5.14A.59.59,0,0,1,490.86,199.08Z"/><path class="cls-13" d="M485.92,185.15a1.75,1.75,0,0,1-.8,1.54,2.42,2.42,0,0,1-.36.19,4.65,4.65,0,0,1-1,.23,3.85,3.85,0,0,1,.72.59,1.86,1.86,0,0,1,.44.66,1.47,1.47,0,0,1-.25,1.42c-.91,1.2-3,1.7-4.7,1.9a6,6,0,0,1,2.63,2.67,1.77,1.77,0,0,1-.22,1.72,3.43,3.43,0,0,1-1.22.9,18.24,18.24,0,0,1-4.59,1.27c-.45-.52-.69-.85-.69-.85a9,9,0,0,1-1.07,0,.5.5,0,0,1,.29-.12c2.09-.24,5.67-1,6.38-1.91a.65.65,0,0,0,.05-.67c-.38-1.08-2.41-2.51-4.17-2.94a.55.55,0,0,1-.42-.62.55.55,0,0,1,.56-.49c1.4,0,5.24-.21,6.26-1.58.15-.19.11-.3.09-.36A1.92,1.92,0,0,0,483,188a14.09,14.09,0,0,0-3.35-1.26.56.56,0,0,1-.29-.17.58.58,0,0,1-.13-.51.58.58,0,0,1,.69-.42c.19.05.6.15,1.1.31a12.67,12.67,0,0,0,2.55.09,2.17,2.17,0,0,0,1-.26.62.62,0,0,0,.28-.6,3.52,3.52,0,0,0-.61-1.71.54.54,0,0,1,.05-.63s0,0,0,0a.55.55,0,0,1,.91.06A4.76,4.76,0,0,1,485.92,185.15Z"/><path class="cls-7" d="M481.78,174.58a15.82,15.82,0,0,1,2.65,1.94c.8.77,1.31,1.15,1.86,1.66,0-.07,0,.06,0,0l-10.86-46.06a.56.56,0,0,0-1.09.22l7.44,42.24Z"/><path class="cls-7" d="M491.22,200.16c-3.77,2.43-4.82.63-4.82.63L484.49,190a1.66,1.66,0,0,0,.41-1.61,1.86,1.86,0,0,0-.44-.66,2.78,2.78,0,0,0-.44-.39l0-.24a4.05,4.05,0,0,0,.78-.19,2.42,2.42,0,0,0,.36-.19,1.66,1.66,0,0,0,.7-.91,2.84,2.84,0,0,0,1.69.76,3.35,3.35,0,0,0,.55,0Z"/><path class="cls-13" d="M494.49,183.27a19.39,19.39,0,0,1-3.71,2.49,6.45,6.45,0,0,1-3.27.78,2.81,2.81,0,0,1-2-1.16c-1.79-2.4-.26-5.54.82-7.2l.66.69.44-.31c-.92,1.37-2.47,4.2-1,6.15a1.67,1.67,0,0,0,1.25.7c2,.21,5.09-2.09,6.11-3a.56.56,0,0,1,.8.05A.58.58,0,0,1,494.49,183.27Z"/><path class="cls-14" d="M552.61,172.09v0h0v.06l0,.14-.07.33-.15.73c-.05.25-.11.51-.16.77l-.18.78c-.24,1.05-.5,2.12-.79,3.19-.59,2.14-1.21,4.29-1.93,6.41s-1.48,4.21-2.34,6.27c-.43,1-.86,2.05-1.33,3.05s-.93,2-1.4,3c-1,2-2,3.9-3.15,5.77-.26.48-.56.93-.84,1.4s-.56.93-.87,1.38c-.6.89-1.18,1.81-1.81,2.68-1.22,1.77-2.57,3.43-3.91,5.09s-2.81,3.19-4.32,4.66l-1.13,1.11L527,220l-.58.53-.15.13.08-.07.1-.08a3.11,3.11,0,0,1,.43-.31,7.11,7.11,0,0,1,2.11-1c.18,0,.33-.09.5-.12l.25,0,.21,0a3.13,3.13,0,0,1,.42,0h.6l.22,0h.14l.06,0h0c.17.06-.16,0-.65-.21a17.55,17.55,0,0,1-1.88-1c-.73-.43-1.51-.95-2.31-1.52-1.61-1.13-3.3-2.5-5-4s-3.39-3-5.08-4.63-3.38-3.29-5-5-3.34-3.46-5-5.23c-.82-.89-1.65-1.77-2.45-2.66l-2.36-2.59-18.22,13.67.6.92.58.85,1.15,1.67c.78,1.1,1.56,2.19,2.35,3.27,1.61,2.15,3.24,4.28,4.95,6.38s3.47,4.17,5.31,6.21c.93,1,1.87,2,2.84,3s2,2,3,3a84,84,0,0,0,6.71,5.86c1.23.95,2.54,1.9,4,2.83a40.86,40.86,0,0,0,4.8,2.7,29.28,29.28,0,0,0,6.56,2.24l.49.1.54.09,1.08.15c.38,0,.78.07,1.17.09l.6,0h.63l1.28,0c.45,0,.91-.08,1.37-.13l.68-.1.72-.14c.48-.1.95-.2,1.43-.34a19.65,19.65,0,0,0,5.55-2.59c.41-.28.8-.58,1.19-.88l.29-.24.26-.21.21-.19.84-.74,1.67-1.49c.54-.51,1.07-1,1.61-1.56,2.15-2.06,4.13-4.28,6.06-6.53s3.69-4.62,5.33-7.05,3.19-4.92,4.63-7.45l1-1.91c.35-.64.66-1.29,1-1.94s.66-1.29,1-2l.92-2a106.92,106.92,0,0,0,5.79-16.18c.73-2.76,1.38-5.54,1.89-8.37.25-1.42.49-2.84.68-4.3,0-.37.09-.73.14-1.1l.12-1.12c0-.38.08-.77.11-1.16l.11-1.39Z"/><path class="cls-15" d="M495.39,203.13a1.57,1.57,0,1,0,1.43-1.7A1.57,1.57,0,0,0,495.39,203.13Z"/><path class="cls-15" d="M528.06,230.14a.68.68,0,0,0,.65-.51A50.38,50.38,0,0,0,529.8,218a.67.67,0,1,0-1.34,0,50.5,50.5,0,0,1-1.05,11.27.67.67,0,0,0,.48.82Z"/><path class="cls-15" d="M532.35,225.27a.63.63,0,0,0,.3-.07.66.66,0,0,0,.3-.9,54.78,54.78,0,0,0-3.28-5.81.68.68,0,0,0-.95-.11.67.67,0,0,0-.11.94,55.85,55.85,0,0,1,3.14,5.58A.67.67,0,0,0,532.35,225.27Z"/><path class="cls-15" d="M490.56,216.18A.66.66,0,0,0,491,216c5.62-5.8,18.31-14.95,18.44-15.05a.66.66,0,0,0,.15-.93.68.68,0,0,0-.94-.16c-.13.1-12.91,9.33-18.61,15.21a.68.68,0,0,0,0,1A.7.7,0,0,0,490.56,216.18Z"/><path class="cls-15" d="M496,211.22a.66.66,0,0,0,.43-.16.68.68,0,0,0,.09-.94L489.72,202a.66.66,0,0,0-.94-.09.67.67,0,0,0-.09,1l6.78,8.14A.69.69,0,0,0,496,211.22Z"/><path class="cls-7" d="M569.19,369.64l9.1-53.68.75-4.39-26.19-9.24-1.49-.53-6.24-2.2s-.5,2.3-1.27,6.24c-.1.48-.19,1-.29,1.5-2.46,12.7-7.07,38.87-8.32,62.3Z"/><path class="cls-6" d="M564.55,369.64c3.94-21.41,9-52.69,9.29-54.51a.71.71,0,0,0-1.4-.22c-.07.44-5.32,32.92-9.33,54.73Z"/><path class="cls-7" d="M622.17,282.46s2,18.7-2.28,29.11-59.31,5.05-73.35-4.32c-5.75-3.84,6.5-39.3,6.5-39.3Z"/><path class="cls-6" d="M543.56,307.35a16.75,16.75,0,0,0,6.06-2.38,19.36,19.36,0,0,0,3.23-2.64c6.07-6.13,7.86-15.38,7.94-15.83a.71.71,0,1,0-1.39-.26c0,.11-1.88,9.73-8,15.56a16.78,16.78,0,0,1-2.52,2,15.18,15.18,0,0,1-3.45,1.65c-.51.16-1,.3-1.54.41C543.75,306.32,543.66,306.82,543.56,307.35Z"/><path class="cls-6" d="M577.53,312.57a.69.69,0,0,0,.67.72h0a.7.7,0,0,0,.74-.65c.13-2.55.28-5.17.44-7.78l.09-1.39c.56-8.54,1.26-16.93,1.8-22.85,0-.48.08-.94.12-1.39.12-1.3.23-2.45.32-3.43l-1.4-.22c-.09,1-.2,2.13-.32,3.45,0,.44-.08.91-.13,1.39-.52,5.87-1.22,14.18-1.78,22.68l-.09,1.4C577.82,307.21,577.66,309.93,577.53,312.57Z"/><path class="cls-6" d="M575.52,303.56a19.55,19.55,0,0,0,2.47.94,14.1,14.1,0,0,0,1.39.36,12.27,12.27,0,0,0,1.34.17,4.84,4.84,0,0,0,2.37-.37,2.88,2.88,0,0,0,1.61-2.16c.51-2.64,1.59-13.52,2.32-21.22.05-.47.09-.93.13-1.38.12-1.23.22-2.35.31-3.31l-1.41-.17c-.09,1-.19,2.09-.31,3.34,0,.44-.08.9-.13,1.38-.73,7.68-1.8,18.55-2.3,21.1a1.53,1.53,0,0,1-.85,1.2,5,5,0,0,1-3,0c-.47-.1-1-.23-1.39-.37a19.35,19.35,0,0,1-1.94-.76.73.73,0,0,0-.95.3A.68.68,0,0,0,575.52,303.56Z"/><path class="cls-7" d="M615.33,369.64c2.18-19.93,4.7-46.59,6.12-62,0-.49.09-1,.13-1.42.63-6.81,1-11.11,1-11.11-3.38-1.4-9.51-.44-16,1.42-.47.13-.94.26-1.42.41a195.43,195.43,0,0,0-23.86,9.32v63.41Z"/><path class="cls-6" d="M612,369.64c1.88-22.15,4.11-54.15,4.14-54.57a.71.71,0,0,0-.65-.76.72.72,0,0,0-.76.66c0,.42-2.26,32.54-4.15,54.67Z"/><path class="cls-6" d="M601.25,286.5a37.19,37.19,0,0,0,3.9,10.41,22.9,22.9,0,0,0,7.27,8.06,16.58,16.58,0,0,0,9,2.64c0-.49.09-1,.13-1.42a15.11,15.11,0,0,1-8.39-2.41,21.24,21.24,0,0,1-6.62-7.28,36.14,36.14,0,0,1-3.93-10.26.71.71,0,1,0-1.39.26Z"/><path class="cls-14" d="M544.61,281.28c15.25,14.23,51.29,21.8,79.07,8.27,3.05-8.33,6.4-38.06,7.3-46.94.18-1.77.33-3.54.44-5.31a233.93,233.93,0,0,0,0-26.09c0-.49-.05-1-.07-1.47-.36-7.39-.91-15.05-1.42-23.19-1-16.1-6.39-26-15.73-27.51a38.24,38.24,0,0,1-10.3-3.11c-.31-.15-.61-.29-.89-.44a28.92,28.92,0,0,1-4.72-2.92H577.49A15.81,15.81,0,0,1,571,158l-.82.37c-7.39,3.2-16,2.56-17.79,11.48-1.12,5.6,3.17,17.11,2.72,40.46,0,1.72-.09,3.49-.18,5.33s-.19,3.51-.33,5.36-.28,3.48-.46,5.3c-.16,1.6-.33,3.23-.54,4.91s-.44,3.48-.7,5.28C551.53,246.19,547.81,268.8,544.61,281.28Z"/><path class="cls-15" d="M616,286.15a.45.45,0,0,1-.16,0,.61.61,0,0,1-.44-.76c11.57-42.42,9.23-85.54,9.21-86a.62.62,0,1,1,1.24-.07c0,.43,2.38,43.75-9.25,86.36A.62.62,0,0,1,616,286.15Z"/><path class="cls-15" d="M553.23,231.05a.67.67,0,0,0,.66-.59c1.39-12.27,1.4-36.68,1.4-36.92a.67.67,0,1,0-1.34,0c0,.24,0,24.57-1.39,36.77a.67.67,0,0,0,.59.74Z"/><path class="cls-15" d="M581.76,277.26a1.58,1.58,0,0,0,1.7,1.43,1.57,1.57,0,1,0-1.7-1.43Z"/><path class="cls-15" d="M581.51,284.86a1.57,1.57,0,1,0,3.13-.27,1.57,1.57,0,1,0-3.13.27Z"/><path class="cls-15" d="M563.17,201.28c-4.09-4.75-2.55-15.32-2.49-15.77a.68.68,0,0,1,.67-.57h13.87a.67.67,0,0,1,.66.57c.07.45,1.6,11-2.49,15.77a6.87,6.87,0,0,1-10.22,0Zm-1.23-15c-.26,2.24-.94,10.42,2.25,14.13a5.56,5.56,0,0,0,8.19,0c3.18-3.7,2.5-11.89,2.25-14.13Z"/><path class="cls-7" d="M600.2,101.22c-3.88-2.52-16.1-3.78-16.1-3.78s-2-5.28-4.28-6.79c-5.15-3.44-5.79,3.52-5.79,3.52s-5-7-9.56-5,1.26,8.55,1.26,8.55-6.8-1.25-6,4.53,7.29,8.31,7.29,8.31a12.68,12.68,0,0,0-1,8.55c1,5.29,3.27,5.54,3.27,5.54l28.19,2.52s5.78,0,7.29-7.3-3.52-10.32-3.52-10.32S604.48,104,600.2,101.22Z"/><path class="cls-12" d="M577.18,149v5.3a17.69,17.69,0,0,0,1.87,1.31c9.2,5.52,19.12-1.31,19.12-1.31V136l-18.49,11.5Z"/><path class="cls-7" d="M577.18,148.88v5.45a17.69,17.69,0,0,0,1.87,1.31c7.83-3.1,13.53-11.31,13.53-11.31l-12.9,3.14Z"/><path class="cls-14" d="M598.12,149a10.46,10.46,0,0,1,7.88,8.11c-6,6.31-11.35,11.78-20,13.38V157.77A22.32,22.32,0,0,0,598.12,149Z"/><path class="cls-14" d="M577,150.78s-5.53,1.18-7.68,8.25c5.57,6.78,8.55,9.33,16.71,11.41V157.77S581.47,157.7,577,150.78Z"/><polygon class="cls-7" points="573.87 249.23 577.45 257.88 577.45 257.88 579.06 261.76 583.61 272.74 585.8 268.5 586.58 267 588.34 263.6 589.12 262.1 590.88 258.7 591.65 257.2 593.41 253.8 593.41 253.8 594.19 252.3 595.85 249.11 595.81 248.76 595.55 246.23 594.97 240.48 594.71 237.94 594.13 232.2 593.87 229.66 593.28 223.92 593.03 221.38 592.44 215.64 592.18 213.1 591.6 207.36 591.34 204.82 590.75 199.08 590.5 196.54 589.91 190.8 589.65 188.26 589.07 182.51 588.81 179.98 588.21 174.04 583.82 173.87 583.69 174.86 583.42 176.87 582.82 181.43 582.55 183.44 581.95 188 581.69 190.01 581.09 194.57 580.82 196.58 580.22 201.14 579.95 203.15 579.35 207.71 579.09 209.72 578.49 214.28 578.22 216.29 577.62 220.85 577.35 222.87 576.75 227.42 576.49 229.43 575.88 233.99 575.62 236.01 575.02 240.56 574.75 242.58 574.15 247.13 573.88 249.15 573.87 249.23"/><polygon class="cls-6" points="583.42 176.87 589.07 182.51 588.81 179.98 583.69 174.86 583.42 176.87"/><polygon class="cls-6" points="582.55 183.44 589.91 190.8 589.65 188.26 582.82 181.43 582.55 183.44"/><polygon class="cls-6" points="581.69 190.01 590.75 199.08 590.5 196.54 581.95 188 581.69 190.01"/><polygon class="cls-6" points="580.82 196.58 591.6 207.36 591.34 204.82 581.09 194.57 580.82 196.58"/><polygon class="cls-6" points="579.95 203.15 592.44 215.64 592.18 213.1 580.22 201.14 579.95 203.15"/><polygon class="cls-6" points="579.09 209.72 593.28 223.92 593.03 221.38 579.35 207.71 579.09 209.72"/><polygon class="cls-6" points="578.22 216.29 594.13 232.2 593.87 229.66 578.49 214.28 578.22 216.29"/><polygon class="cls-6" points="577.35 222.87 594.97 240.48 594.71 237.94 577.62 220.85 577.35 222.87"/><polygon class="cls-6" points="576.49 229.43 595.81 248.76 595.55 246.23 576.75 227.42 576.49 229.43"/><polygon class="cls-6" points="575.62 236.01 593.41 253.8 594.19 252.3 575.88 233.99 575.62 236.01"/><polygon class="cls-6" points="574.75 242.58 590.88 258.7 591.65 257.2 575.02 240.56 574.75 242.58"/><polygon class="cls-6" points="573.88 249.15 588.34 263.6 589.12 262.1 574.15 247.13 573.88 249.15"/><polygon class="cls-6" points="577.45 257.88 579.06 261.76 585.8 268.5 586.58 267 577.45 257.88"/><polygon class="cls-6" points="588.21 174.04 586.02 177.29 583.82 173.87 583.43 176.79 585.99 179.39 588.44 176.3 588.21 174.04"/><polygon class="cls-7" points="591.88 168.59 586.02 177.29 580.41 168.59 586.02 161.32 591.88 168.59"/><path class="cls-15" d="M595.28,174.54a.66.66,0,0,0,.42-.15c5.8-4.62,10.73-16.56,10.94-17.07a.67.67,0,1,0-1.24-.51c0,.12-4.7,11.37-10,16.08l-8.82-12a.66.66,0,0,0-1.09,0l-8.23,11.68c-1.25-2.27-4.56-8.29-7.33-13.87a.67.67,0,1,0-1.2.59c3.5,7,7.84,14.79,7.88,14.87a.66.66,0,0,0,.55.34.68.68,0,0,0,.58-.28l8.31-11.8,8.69,11.81a.73.73,0,0,0,.45.27Z"/><path class="cls-15" d="M586,162a.67.67,0,0,0,.67-.67v-3a.67.67,0,1,0-1.34,0v3A.67.67,0,0,0,586,162Z"/><path class="cls-13" d="M570.56,125.57s-3-3.56-4.7,0-.4,10.74,4.18,9.56Z"/><path class="cls-12" d="M567.36,138s0,10.94,11.37,10.92,19-8.91,19.42-9.32h0l.12-2.3.64-11.94.35-6.39s1.44-11.49-9.48-13.58c-8-1.54-15.46-.21-19.24,4-.12.14-.24.27-.35.41a9.89,9.89,0,0,0-2.15,5.36l-.35,11.46-.09,2.81Z"/><path class="cls-7" d="M580.43,118.37s4.78,3.56,7.62,1.29-3.78-4.74-6-4.55S579,117.56,580.43,118.37Z"/><path class="cls-7" d="M575.23,118.37s-4.78,3.56-7.62,1.29,3.78-4.74,6-4.55S576.65,117.56,575.23,118.37Z"/><path class="cls-13" d="M579,139.46a4.75,4.75,0,0,0,3.26-1.05.5.5,0,1,0-.66-.76,3.49,3.49,0,0,1-3.5.54.5.5,0,0,0-.4.92A4.21,4.21,0,0,0,579,139.46Z"/><path class="cls-5" d="M583.93,131.64s-6.95,1.4-10.46,1.08c0,0,1.31,5.18,6.48,3.87A5.19,5.19,0,0,0,583.93,131.64Z"/><path class="cls-7" d="M570.21,109.77c1.79-.63,3.08,0,5.86,1.18,4,1.77,8.52.18,12.5-1.85s6.36.79,5,2.65-1.2,3.36.3,5.72-2.84,3.47-.44,5.32a2.46,2.46,0,0,1,.54,3,1.64,1.64,0,0,0,1.84,2.17h0c1.3-.33,3.12-2.62,3.12-2.62l.35-6.39s1.44-11.49-9.48-13.58c-8-1.54-15.46-.21-19.24,4C570.44,109.5,570.32,109.63,570.21,109.77Z"/><path class="cls-13" d="M582.56,128c0,.8,1.64,1.44,3.67,1.44s3.66-.64,3.66-1.44-1.64-1.44-3.66-1.44S582.56,127.2,582.56,128Z"/><path class="cls-13" d="M567.62,129.4a8.45,8.45,0,0,0,.89,0c2,0,3.66-.64,3.66-1.44s-1.64-1.44-3.66-1.44c-.28,0-.55,0-.8,0Z"/><path class="cls-7" d="M581,123.61c0,1.1.5,2,1.11,2s1.11-.89,1.11-2-.5-2-1.11-2S581,122.52,581,123.61Z"/><path class="cls-7" d="M570,123.61c0,1.1.5,2,1.11,2s1.11-.89,1.11-2-.5-2-1.11-2S570,122.52,570,123.61Z"/><path class="cls-7" d="M594.59,135.19c0,.12,1.49,3.46,3.57,4.44h0l.12-2.3A7.89,7.89,0,0,1,594.59,135.19Z"/><path class="cls-12" d="M596.6,127.58s4.37-5.87,7.58-1.25c2.64,3.8-2.35,13.72-7.58,10.32Z"/><path class="cls-7" d="M597.19,134.88a.45.45,0,0,0,.45-.4,7.52,7.52,0,0,1,4.37-6.06.45.45,0,0,0-.33-.84,8.4,8.4,0,0,0-4.93,6.8.45.45,0,0,0,.39.5Z"/><path class="cls-7" d="M601.4,132.15a.44.44,0,0,0,.35-.16.47.47,0,0,0-.07-.64c-.18-.14-1.79-1.41-3.15-1.07a.45.45,0,0,0-.32.55.44.44,0,0,0,.55.32c.78-.19,2,.59,2.35.9A.46.46,0,0,0,601.4,132.15Z"/><path class="cls-7" d="M577.42,129.12a.45.45,0,1,0,0-.9,3.09,3.09,0,0,1-2.69-1.25c1.8-3.7,3.58-7.44,3.6-7.47a.45.45,0,0,0-.21-.6.44.44,0,0,0-.6.21s-1.88,3.91-3.71,7.68a.44.44,0,0,0,0,.39A3.86,3.86,0,0,0,577.42,129.12Z"/><path class="cls-12" d="M686.37,169.71s6.06,6.12,12,3.74c4.83-1.93,5.9-8.65,6.14-11.17.05-.6.06-1,.06-1a7,7,0,0,0,.78-.52c1.07-.77,2.82-2.35,2.63-4.21-.27-2.64-5.07-1.16-5.07-1.16s.73-3.2-.69-4.13S698,152,698,152s1.55-3.91-.57-4.85c-3.18-1.42-4.24,3.38-4.37,3.7,0-.35,1.55-15.08-1-14.32-2.21.66-4.24,13-4.76,16.32-.08.53-.12.83-.12.83h-.48c-1.42,0-5.59.41-6.36,3.32C679.46,160.53,686.37,169.71,686.37,169.71Z"/><path class="cls-13" d="M698.77,159.3a5.31,5.31,0,0,0-.52,3.27,1.54,1.54,0,0,0,1,1.12,2.93,2.93,0,0,0,1.33,0,16.15,16.15,0,0,0,3.94-1.43c.05-.6.06-1,.06-1a7,7,0,0,0,.78-.52.54.54,0,0,0-.27.07c-1.62.89-4.56,2.19-5.54,1.87a.56.56,0,0,1-.38-.44c-.28-1,.45-3,1.49-4.24a.5.5,0,0,0-.67-.73c-1,.73-3.86,2.52-5.29,2.07-.21-.07-.24-.17-.25-.22a1.68,1.68,0,0,1,.21-1,12.53,12.53,0,0,1,1.76-2.6.5.5,0,0,0,.12-.28.49.49,0,0,0-.16-.42.51.51,0,0,0-.71,0,14.12,14.12,0,0,0-1.79,2.59,4.66,4.66,0,0,0-.42,1.24,1.8,1.8,0,0,0,0,.7,1.29,1.29,0,0,0,.91.89C695.7,160.74,697.45,160,698.77,159.3Z"/><path class="cls-13" d="M691.17,155.12a.5.5,0,0,1,.36.43,3.21,3.21,0,0,0,.43,1.54.6.6,0,0,0,.51.29,1.92,1.92,0,0,0,.82-.3,14.31,14.31,0,0,0,2.66-2.21.47.47,0,0,1-.12.27,12.33,12.33,0,0,0-1.76,2.61l-.29.18a4.29,4.29,0,0,1-.91.39,2.27,2.27,0,0,1-.35.05,1.54,1.54,0,0,1-1.36-.7,4.21,4.21,0,0,1-.63-2,.49.49,0,0,1,.63-.5Z"/><path class="cls-13" d="M684.05,160.69a16.35,16.35,0,0,0,3.93-.11,5.54,5.54,0,0,0,2.74-1.1,2.49,2.49,0,0,0,.88-1.87c.06-2.64-2.64-4.11-4.26-4.75-.08.53-.12.83-.12.83h-.48c1.36.5,3.92,1.75,3.87,3.88a1.52,1.52,0,0,1-.54,1.15c-1.32,1.17-4.72,1.1-5.91,1a.5.5,0,0,0-.55.44A.5.5,0,0,0,684.05,160.69Z"/><path class="cls-13" d="M694.72,170.18a.48.48,0,0,0,.38-.32.5.5,0,0,0-.29-.64,4.47,4.47,0,0,1-2.77-2.59c-1.17-3.08,1-7.34,1.05-7.38a.5.5,0,0,0-.89-.46c-.1.19-2.42,4.71-1.09,8.19a5.39,5.39,0,0,0,3.35,3.17A.48.48,0,0,0,694.72,170.18Z"/><path class="cls-14" d="M620.94,162.56l10.37,9c1.66,1.54,3.32,3.08,5,4.6s3.32,3.05,5,4.55,3.34,3,5,4.46,3.33,2.89,5,4.26,3.29,2.71,4.83,3.85c.76.57,1.5,1.09,2.1,1.48l.4.26.17.1.06.05.13.14c0,.07,0,.12.11.18a.79.79,0,0,0,.51.08,8,8,0,0,0,2.91-1.13,25.07,25.07,0,0,0,4-3,53,53,0,0,0,4.09-4.11,101.68,101.68,0,0,0,7.73-10c2.46-3.55,4.2-6.29,6.42-10.07a16.65,16.65,0,0,0,15.1,5.77A132.17,132.17,0,0,1,694,186.59a103.76,103.76,0,0,1-7.68,13.06,67.6,67.6,0,0,1-5,6.35,47,47,0,0,1-6.49,6.06,34.68,34.68,0,0,1-4.23,2.75,27.58,27.58,0,0,1-5.25,2.18,23.7,23.7,0,0,1-6.34,1,22.73,22.73,0,0,1-6.71-.85,25.21,25.21,0,0,1-3.1-1.1l-.72-.33-.61-.29-.57-.29-.54-.29c-1.4-.76-2.61-1.49-3.75-2.22-2.29-1.45-4.34-2.89-6.35-4.35s-3.92-2.94-5.81-4.42-3.76-3-5.59-4.49-3.65-3-5.44-4.57-3.56-3.09-5.33-4.65-3.5-3.14-5.23-4.73l-2.59-2.4-1.28-1.22-1.31-1.25Z"/><path class="cls-15" d="M630.83,205.08a.59.59,0,0,1-.35-.12c-6.84-4.79-19-14.88-19.13-15a.61.61,0,0,1-.08-.88.63.63,0,0,1,.88-.08c.12.1,12.24,10.16,19,14.92a.63.63,0,0,1,.16.87A.64.64,0,0,1,630.83,205.08Z"/><path class="cls-15" d="M616.68,194.16h-.09l-4.82-.7a.63.63,0,1,1,.18-1.24l4.82.7a.62.62,0,0,1-.09,1.24Z"/><path class="cls-15" d="M696.44,180.89a.64.64,0,0,0,.33-.7.65.65,0,0,0-.76-.49c-9.08,2-13.6-6.68-13.64-6.76a.63.63,0,0,0-.86-.28h0a.63.63,0,0,0-.28.85c0,.1,5,9.62,15,7.44A.44.44,0,0,0,696.44,180.89Z"/><path class="cls-15" d="M691.77,181.06a.65.65,0,0,0,.29-.32l3-7a.64.64,0,1,0-1.17-.5l-3,7a.65.65,0,0,0,.34.84A.64.64,0,0,0,691.77,181.06Z"/><path class="cls-15" d="M686.42,174.35a1.1,1.1,0,1,0,.47-1.49A1.11,1.11,0,0,0,686.42,174.35Z"/><path class="cls-15" d="M657.62,203.34a.63.63,0,0,0,.33-.46,27.9,27.9,0,0,1,1.86-6.34.64.64,0,1,0-1.13-.58,28,28,0,0,0-2,6.71.63.63,0,0,0,.52.73A.68.68,0,0,0,657.62,203.34Z"/><path class="cls-15" d="M661.75,201.91l.12-.08a.65.65,0,0,0,.08-.9,11.52,11.52,0,0,1-2.21-4.24.64.64,0,0,0-.76-.49.63.63,0,0,0-.49.75,12.88,12.88,0,0,0,2.48,4.8A.65.65,0,0,0,661.75,201.91Z"/></g><ellipse class="cls-4" cx="153.34" cy="475.59" rx="144.84" ry="8.81"/><path class="cls-12" d="M144.31,230.25l14.63,53.5-5.22-6a27.11,27.11,0,0,0,6.65,2.37,48,48,0,0,0,8,1c2.82.15,5.76.12,8.77,0s6.08-.35,9.19-.62h0a8.36,8.36,0,0,1,2,16.59c-3.22.51-6.49,1-9.85,1.38s-6.79.68-10.36.76a65.5,65.5,0,0,1-11.06-.61,45.61,45.61,0,0,1-11.62-3.21,9.09,9.09,0,0,1-5-5.45l-.18-.56L122.71,236.8a11.29,11.29,0,0,1,21.42-7.14C144.19,229.84,144.26,230.07,144.31,230.25Z"/><path class="cls-15" d="M149.94,424.19a1.82,1.82,0,0,1-.65-.12L72.64,396.44A1.93,1.93,0,0,1,74,392.8l76.65,27.64a1.93,1.93,0,0,1-.66,3.75Z"/><path class="cls-15" d="M70.11,424.19a1.93,1.93,0,0,1-.65-3.75L147,392.35a1.93,1.93,0,1,1,1.32,3.63L70.77,424.07A1.92,1.92,0,0,1,70.11,424.19Z"/><path class="cls-14" d="M156.76,473.57a3.32,3.32,0,0,1-3.28-2.87L139.64,367.34H81.71L68.08,470.7a3.31,3.31,0,0,1-6.56-.87l14-106.23a3.31,3.31,0,0,1,3.28-2.88h63.73a3.31,3.31,0,0,1,3.27,2.87L160,469.82a3.31,3.31,0,0,1-2.84,3.72A3.25,3.25,0,0,1,156.76,473.57Z"/><path class="cls-14" d="M124.08,364H82.69c-13.11,0-27.15-7.18-29.17-20.13a246.12,246.12,0,0,1-2.6-49.51A60.28,60.28,0,0,1,73.77,250h0s8.27,36-2.13,85.76C75.61,354.63,124.08,364,124.08,364Z"/><path class="cls-7" d="M115.45,152.72s-4.92-11.86-17.94-9.63c-9.11,1.56-13,12.91-12.45,30.42.78,25.49-7.84,40.85-7.84,40.85L88.66,217S117.79,173.26,115.45,152.72Z"/><path class="cls-7" d="M219.83,429.28H201.34s-4.27-20.52-5.71-32-2.18-38.79-2.18-38.79-14.73,4.79-45.57,3c-68.33-4-42.42-54.19-42.42-54.19,2.31,3.19,16.45,1,26.11,2.5,29.67,2.85,55.4,14.49,70.84,21.15a77.48,77.48,0,0,1,9.92,5.09c3.72,2.29,6,9.26,7.45,18.41C224,381.93,219.83,429.28,219.83,429.28Z"/><path class="cls-6" d="M203.64,419.39a.65.65,0,0,1-.65-.53c-2.67-13.2-3.56-29.63-4.28-42.83-.6-10.94-1.16-21.28-2.57-22.53-1.14-1-5.87-.22-11.85.78-11.91,2-29.91,5-49.76.34-10.81-2.51-18.75-7.76-23.62-15.6-8.39-13.53-4.56-30.29-4.52-30.46a.65.65,0,0,1,.79-.49.66.66,0,0,1,.5.79c0,.17-3.74,16.42,4.36,29.47,4.67,7.52,12.34,12.57,22.79,15,19.59,4.56,37.43,1.6,49.24-.36,7.07-1.17,11.34-1.88,13-.46s2.23,9.1,3,23.45c.72,13.16,1.61,29.53,4.26,42.64a.66.66,0,0,1-.52.78Z"/><path class="cls-6" d="M220.18,419.74h0l-20.56-.44a.67.67,0,0,1-.65-.68.65.65,0,0,1,.68-.64l20.56.44a.66.66,0,0,1,0,1.32Z"/><polygon class="cls-12" points="219.32 452.96 206.27 452.96 203.76 437.66 202.38 429.28 218.59 429.28 218.85 437.66 219.32 452.96"/><polygon class="cls-14" points="219.32 452.96 206.27 452.96 204.4 441.57 203.76 437.66 218.85 437.66 218.98 441.71 219.32 452.96"/><polygon class="cls-15" points="218.98 441.71 204.4 441.57 203.76 437.66 218.85 437.66 218.98 441.71"/><path class="cls-16" d="M251.52,473.57H202.17a6.77,6.77,0,0,1-.65-2.74c-.31-4.17,1-10.84,1.67-15,.08-.49.15-.94.2-1.36a14.8,14.8,0,0,0,.15-1.72c0-3.42,3-2.84,3-2.84,5,4.9,10.64-2.44,13.95,0l.43.33,1.29,1.05c.84.7,2,1.72,3.62,3.16,3.91,3.53,10.58,5.85,16.25,8.23.72.3,1.39.6,2,.9.47.23.92.46,1.34.69,4.63,2.5,6.11,4.89,6.45,6.63A3.84,3.84,0,0,1,251.52,473.57Z"/><path class="cls-17" d="M245.48,464.2c-1.27,1-4.1,3-6.37,3h-.3c-1.6-.13-7.48-3-12.26-5.65-2.75-1.51-5.25-3-7.05-4.18-3-1.95-3.47-2.69-3.58-3.21-.44-1.95,2.78-3.31,5-4l1.29,1.05c-2.81.76-5.11,2-5,2.65.28.57,3.2,2.8,10.18,6.62,5.33,2.92,10.39,5.28,11.51,5.37,1.52.12,3.75-1.26,5.21-2.35C244.61,463.74,245.06,464,245.48,464.2Z"/><path class="cls-17" d="M251.52,473.57H202.17a6.77,6.77,0,0,1-.65-2.74h50.41A3.84,3.84,0,0,1,251.52,473.57Z"/><path class="cls-17" d="M207.2,473.57h-1.46a10.83,10.83,0,0,0,2.65-7.9,13.92,13.92,0,0,0-5.2-9.88c.08-.49.15-.94.2-1.36a15.15,15.15,0,0,1,6.18,11.18A12,12,0,0,1,207.2,473.57Z"/><path class="cls-5" d="M225,457.29a.8.8,0,0,1-.79-.61.82.82,0,0,1,.59-1l3.09-.77a.82.82,0,0,1,1,.6.81.81,0,0,1-.59,1l-3.08.77Z"/><path class="cls-5" d="M222,454.73a.82.82,0,0,1-.2-1.61l3.08-.76a.81.81,0,1,1,.39,1.58l-3.08.76A.63.63,0,0,1,222,454.73Z"/><path class="cls-5" d="M228.11,459.08a.81.81,0,0,1-.19-1.6l3.08-.76a.8.8,0,0,1,1,.59.81.81,0,0,1-.59,1l-3.08.76A.68.68,0,0,1,228.11,459.08Z"/><path class="cls-5" d="M231.19,460.81a.82.82,0,0,1-.19-1.61l3.08-.76a.81.81,0,1,1,.39,1.58l-3.08.76A.64.64,0,0,1,231.19,460.81Z"/><path class="cls-5" d="M234.56,462.4a.81.81,0,0,1-.2-1.6l3.08-.77a.81.81,0,0,1,.4,1.58l-3.09.77Z"/><path class="cls-5" d="M238.2,463.76a.82.82,0,0,1-.79-.62.81.81,0,0,1,.6-1l3.08-.77a.81.81,0,0,1,.39,1.58l-3.08.76A.69.69,0,0,1,238.2,463.76Z"/><path class="cls-17" d="M71.24,291.35s-.59,4,4.76,5.1l55.67,1.86a6.29,6.29,0,0,0,3.09-6.55S111.25,278.55,71.24,291.35Z"/><path class="cls-12" d="M132.44,309.76c-28.91,15.9-60.46,3.1-60.46,3.1a88.19,88.19,0,0,0,3.52-13.28c1-5,1.5-9.47,1.75-11.8,12.29-.68,42.42-2,54.23.84l.09,4.73Z"/><path class="cls-13" d="M111.09,302.14c-.22,1.49-.89,2.62-1.5,2.53s-1-1.36-.73-2.85.88-2.63,1.5-2.54S111.3,300.65,111.09,302.14Z"/><path class="cls-13" d="M131.57,293.35c-12.3-.75-36.52-1-56.07,6.23,1-5,1.5-9.47,1.75-11.8,12.29-.68,42.42-2,54.23.84Z"/><path class="cls-16" d="M145.3,270.49a6.35,6.35,0,0,1-.41,1l-.18.35a27.51,27.51,0,0,1-6,7.13c-.42.37-.82.7-1.19,1-.75.61-1.37,1.07-1.81,1.38a7.62,7.62,0,0,1-.63.43v.09c0,.21,0,.44-.06.68-.07.91-.13,2-.18,3.23,0,1-.06,2.08-.09,3.25,0,.87,0,1.78,0,2.73-16.34-7.3-50-2.69-63.52-.41.25-1.18.47-2.32.68-3.44a106.09,106.09,0,0,0,1.71-14,147.85,147.85,0,0,0-1.53-25.16l-.27-1.87-.18-1.22c-.47-3-1-6.05-1.62-9-2.67-12.82-.79-26.27,12.2-27.86.94-.12,1.87-.22,2.77-.32,6.13-.65,11.17-.87,12.57-.93H98l25.12,7.29,2.38.7c1.38.44,2.65.87,3.82,1.28l1.45.54c1.22.45,2.33.9,3.33,1.34a28.29,28.29,0,0,1,4.86,2.65c5.52,3.92,4.66,8.34,4.52,17.07v.11c0,.11,0,.22,0,.34v1.22c0,1.13,0,2.25.12,3.37.09,1.65.24,3.29.42,4.89.07.65.14,1.29.22,1.92s.15,1.19.23,1.78C145.42,259.71,146.67,266.41,145.3,270.49Z"/><path class="cls-17" d="M143.44,238.55c0,.11,0,.22,0,.34v1.22l-5.28,3.31a.74.74,0,0,1-1-.23.74.74,0,0,1,.23-1l5.6-3.51A.78.78,0,0,1,143.44,238.55Z"/><path class="cls-17" d="M108.64,266.83a.73.73,0,0,1-.55-.25.74.74,0,0,1,0-1l4.91-4.42a.74.74,0,1,1,1,1.1l-4.91,4.42A.77.77,0,0,1,108.64,266.83Z"/><path class="cls-17" d="M144.42,252.07l-3.37,3a.74.74,0,0,1-.49.18A.75.75,0,0,1,140,255a.73.73,0,0,1,.06-1l4.12-3.71C144.26,250.89,144.34,251.48,144.42,252.07Z"/><path class="cls-17" d="M98.68,249.05a.71.71,0,0,1-.12-.59.74.74,0,0,1,.89-.54l6.43,1.51a.74.74,0,0,1,.55.89.75.75,0,0,1-.89.55l-6.43-1.52A.7.7,0,0,1,98.68,249.05Z"/><path class="cls-17" d="M75.73,261.67a.75.75,0,0,1-.55-.24.73.73,0,0,1,.06-1L80.15,256a.74.74,0,0,1,1,.06.73.73,0,0,1-.06,1l-4.91,4.42A.7.7,0,0,1,75.73,261.67Z"/><path class="cls-17" d="M132.89,260.62a.79.79,0,0,1,.41-.45.74.74,0,0,1,1,.39l2.64,6.05a.74.74,0,0,1-.38,1,.72.72,0,0,1-1-.38l-2.64-6.06A.72.72,0,0,1,132.89,260.62Z"/><path class="cls-17" d="M145.3,270.49a6.35,6.35,0,0,1-.41,1l-.18.35-3.59-1.13a.78.78,0,0,1-.42-.33.71.71,0,0,1-.06-.59.74.74,0,0,1,.92-.49Z"/><path class="cls-17" d="M125,271a.75.75,0,0,1,.57.19.72.72,0,0,1,0,1l-4.44,4.89a.73.73,0,0,1-1,.06.75.75,0,0,1,0-1.05l4.44-4.89A.77.77,0,0,1,125,271Z"/><path class="cls-17" d="M122.41,259.73a.74.74,0,0,1-.5-.33.75.75,0,0,1,.23-1l5.6-3.51a.74.74,0,1,1,.78,1.25l-5.59,3.51A.75.75,0,0,1,122.41,259.73Z"/><path class="cls-17" d="M126,238.45a.77.77,0,0,1,.18.57.74.74,0,0,1-.81.66l-6.57-.72a.73.73,0,1,1,.16-1.46l6.57.71A.76.76,0,0,1,126,238.45Z"/><path class="cls-17" d="M116.43,224.2a.7.7,0,0,1,.36-.47.74.74,0,0,1,1,.3l3.13,5.82a.75.75,0,0,1-.3,1,.74.74,0,0,1-1-.3l-3.13-5.82A.71.71,0,0,1,116.43,224.2Z"/><path class="cls-17" d="M138.76,279c-.42.37-.82.7-1.19,1l-.87-2.2a.72.72,0,0,1,0-.52.73.73,0,0,1,1.37,0Z"/><path class="cls-17" d="M78.36,267.78a.74.74,0,0,1,0-.6.75.75,0,0,1,1-.45L85.47,269a.74.74,0,1,1-.5,1.39l-6.21-2.24A.71.71,0,0,1,78.36,267.78Z"/><path class="cls-17" d="M81.4,276.18a.74.74,0,0,1,.48,1.29l-4.94,4.38a.74.74,0,0,1-1-.07.73.73,0,0,1,.06-1l5-4.38A.76.76,0,0,1,81.4,276.18Z"/><path class="cls-17" d="M90.37,283.13a.79.79,0,0,1,.15.58.74.74,0,0,1-.85.6l-6.52-1.1a.74.74,0,0,1,.25-1.46l6.52,1.11A.73.73,0,0,1,90.37,283.13Z"/><path class="cls-17" d="M95.82,221.27a.7.7,0,0,1,.09-.59.74.74,0,0,1,1-.22l5.55,3.58a.74.74,0,0,1-.8,1.24l-5.55-3.58A.73.73,0,0,1,95.82,221.27Z"/><path class="cls-17" d="M133.7,225.49a.74.74,0,0,1,1.05.9l-2.21,6.22a.74.74,0,0,1-1.39-.49l2.21-6.23A.79.79,0,0,1,133.7,225.49Z"/><path class="cls-17" d="M130.73,217.38l-3.41,4.37a.73.73,0,0,1-1.16-.9l3.12-4Z"/><path class="cls-17" d="M97.36,277.81a.62.62,0,0,0,.46.4.51.51,0,0,0,.3,0,34.81,34.81,0,0,1,22,1.17,37.73,37.73,0,0,0,14.9,3.19c0-.24,0-.47.06-.68v-.09a7.62,7.62,0,0,0,.63-.43,35.69,35.69,0,0,1-15.13-3.11,35.32,35.32,0,0,0-22.88-1.19A.61.61,0,0,0,97.36,277.81Z"/><path class="cls-17" d="M123.07,214.86c-1.4,2.19-4.31,4.66-10.19,4.23-8.11-.59-13.45-8.33-15.31-11.51H98Z"/><path class="cls-5" d="M114.45,229.22a5.81,5.81,0,0,0,.71.11,6.24,6.24,0,0,0,5.4-1.94c3.9-4.26,2.3-14,2.23-14.39a.6.6,0,1,0-1.18.21c0,.09,1.57,9.54-1.93,13.37a5.08,5.08,0,0,1-4.42,1.55c-7.86-.64-16.67-20.6-16.75-20.8a.6.6,0,0,0-1.11.48C97.76,208.64,106.12,227.53,114.45,229.22Z"/><path class="cls-12" d="M138.93,221.37a43.81,43.81,0,0,0,4.62,22.11c-.09-1.47-.13-3-.12-4.44v-.15c0-.15,0-.3,0-.45C143.58,229.71,144.43,225.28,138.93,221.37Z"/><path class="cls-12" d="M92.72,231.51c-2.88,11.12-13.42,20.05-20.62,17.26l-.27-1.87-.18-1.22c-.47-3-1-6.05-1.62-9-2.67-12.82-.79-26.27,12.2-27.86l2.77-.32C91.51,211.29,96,218.71,92.72,231.51Z"/><path class="cls-12" d="M94.2,223l16.89,61.74-6-6.93a30.78,30.78,0,0,0,7.67,2.73,55.76,55.76,0,0,0,9.22,1.18c3.26.17,6.65.14,10.12,0s7-.41,10.61-.71h0a9.65,9.65,0,0,1,2.34,19.14c-3.71.59-7.48,1.15-11.36,1.6s-7.84.78-12,.88A76.78,76.78,0,0,1,109,302a52.68,52.68,0,0,1-13.4-3.7,10.48,10.48,0,0,1-5.81-6.3l-.21-.64L69.28,230.59A13,13,0,0,1,94,222.35C94.07,222.56,94.14,222.82,94.2,223Z"/><path class="cls-13" d="M101.76,282.8a.49.49,0,0,1-.43-.26.5.5,0,0,1,.18-.68,21.14,21.14,0,0,1,7.71-2.47.5.5,0,0,1,.08,1,20.41,20.41,0,0,0-7.29,2.34A.47.47,0,0,1,101.76,282.8Z"/><path class="cls-13" d="M107.9,280.57a.59.59,0,0,1-.26-.07,13,13,0,0,0-5.18-1.63.5.5,0,0,1-.46-.54.49.49,0,0,1,.53-.46,14,14,0,0,1,5.63,1.77.5.5,0,0,1-.26.93Z"/><path class="cls-17" d="M123,248c7.47,1.51,10.74-6.22,10.78-6.29a.61.61,0,0,0-.33-.79.6.6,0,0,0-.79.33c-.12.29-2.93,6.88-9.42,5.57-6.81-1.38-19.5-14.78-19.63-14.91a.6.6,0,0,0-.88.82C103.21,233.33,115.78,246.57,123,248Z"/><path class="cls-7" d="M111.21,199.4s-12-2.26-15.38-14.36c-3.22-11.52-.74-17.5,2.61-23.72,2.52-4.69,10.52-11,21.73-8.75s19.79,8.11,21,17.42C143.55,187.41,129.5,208.66,111.21,199.4Z"/><path class="cls-14" d="M96.4,186.91a.64.64,0,0,1-.54-.32,27.13,27.13,0,0,1-1.07-21.39,19.55,19.55,0,0,1,11.63-12.28,21,21,0,0,1,7.85-1.45.63.63,0,0,1-.07,1.25h0a20.26,20.26,0,0,0-7.37,1.38A18.16,18.16,0,0,0,96,165.61,26.35,26.35,0,0,0,97,186a.64.64,0,0,1-.24.86A.68.68,0,0,1,96.4,186.91Z"/><path class="cls-13" d="M134.46,187.11s3.9-3.09,4.93,1-1.87,11.34-6.41,9.13Z"/><path class="cls-14" d="M130.65,194.6a6.2,6.2,0,0,0-4.08,4.5,5.87,5.87,0,1,0,9.08-3.68,5.73,5.73,0,0,0-2.16-.92h-.06a1,1,0,0,0,.17,1,4.76,4.76,0,0,1,1.72.84,5,5,0,1,1-7.86,3,4.81,4.81,0,0,1,3.65-3.77Z"/><path class="cls-12" d="M122.64,204.59,121,214.8s-7.65,7.81-21.62-6.2c3.75-2.79,5.18-9.26,4.74-13.45a20.25,20.25,0,0,1,2.8,2.2,12.57,12.57,0,0,0,1.17.82C111.79,200.68,117.45,204,122.64,204.59Z"/><path class="cls-7" d="M122.64,204.59l-.77,4.84c-4.2-1.87-11.6-5.86-14.94-12.08l1.17.82C111.79,200.68,117.45,204,122.64,204.59Z"/><path class="cls-12" d="M138.24,184.64c-.22,1.08-.42,2.11-.63,3.09s-.43,2.06-.63,3c-1.55,7.07-2.83,10.86-4.89,12.28-10.43,7.17-27.4-7.35-27.95-7.82h0c0-.84,0-1.66,0-2.47a63.84,63.84,0,0,1,3.16-18.77,14.43,14.43,0,0,1,12-12.19c6.46-1,11.32,2.77,14.36,4.43C138.24,168.68,140,175.63,138.24,184.64Z"/><path class="cls-7" d="M107.65,167.52s7.3-14,21.86-10.12,15.33,10.68,15.59,14.06-7.54-2.61-7.54-2.61-.27,6.77-2.87,4.68c-3.19-2.55-6.75-8.07-6.75-8.07S119.27,174,111,171.69C106.34,170.38,107.65,167.52,107.65,167.52Z"/><path class="cls-13" d="M125.54,198.41a5,5,0,0,1-3.26-1.37.53.53,0,0,1,0-.74.52.52,0,0,1,.74,0,3.59,3.59,0,0,0,3.55.88.52.52,0,1,1,.33,1A4.32,4.32,0,0,1,125.54,198.41Z"/><path class="cls-5" d="M121.18,189.91s7,2.08,10.66,2.08c0,0-1.82,5.2-7,3.38A5.34,5.34,0,0,1,121.18,189.91Z"/><path class="cls-7" d="M134.21,175.29s-1.83-.18-1.53,1.59,4.25.68,6.21,4.22C138.89,181.1,140.78,177.39,134.21,175.29Z"/><path class="cls-7" d="M126.1,173.65s1.76.54.8,2-4.19-1-7.37,1.48C119.53,177.18,119.24,173,126.1,173.65Z"/><path class="cls-13" d="M122.94,186.32c-.17.84-2,1.17-4.15.74s-3.7-1.46-3.53-2.29,2-1.17,4.14-.74S123.11,185.49,122.94,186.32Z"/><path class="cls-5" d="M143.66,186.87l-5.67-1c0,.24-.09.47-.14.71,0,0,0,.08,0,.11l5.71,1a.43.43,0,0,0,.49-.35A.42.42,0,0,0,143.66,186.87Z"/><path class="cls-5" d="M128.52,182a4.91,4.91,0,0,0-.05-.86A7.16,7.16,0,0,0,122.9,175l-.07,0a7.18,7.18,0,0,0-8,4,7.54,7.54,0,0,0-.3.79c-.08.24-.14.49-.2.74a7.1,7.1,0,0,0,2.05,6.59,7,7,0,0,0,3.5,1.85,7.16,7.16,0,0,0,8.45-5.55v0A7.49,7.49,0,0,0,128.52,182Zm-8.41,6.15-.11,0a6.3,6.3,0,0,1-4.79-7.42,7.11,7.11,0,0,1,.27-.93.14.14,0,0,0,0-.06,6.33,6.33,0,0,1,5.5-4,6.16,6.16,0,0,1,1.65.12,6.24,6.24,0,0,1,3.07,1.61,6.29,6.29,0,0,1-5.61,10.72Z"/><path class="cls-5" d="M141.23,179.11a7.33,7.33,0,0,0-1.34-.54l-.54-.13a7.07,7.07,0,0,0-1-.14,8,8,0,0,0-1.2,0,7.16,7.16,0,0,0-5.46,3.59,5.82,5.82,0,0,0-.41.83l0,.05a6.55,6.55,0,0,0-.35,1.19,7.14,7.14,0,0,0,5,8.29l.4.1.2.05a7,7,0,0,0,2,.12l.32,0a7.88,7.88,0,0,0,.87-.17,7.24,7.24,0,0,0,1.53-.59,7.14,7.14,0,0,0,0-12.65Zm2.84,7.6c0,.13-.06.27-.1.4a5.05,5.05,0,0,1-.18.55,6.28,6.28,0,0,1-2.58,3.13,6.64,6.64,0,0,1-1.35.63,5.86,5.86,0,0,1-.92.22l-.27,0a6.38,6.38,0,0,1-2-.08l-.19,0-.12,0a6.23,6.23,0,0,1-2.64-1.43c-.1-.09-.21-.19-.31-.3a6.27,6.27,0,0,1-1.63-5.64,5.48,5.48,0,0,1,.44-1.35,6.28,6.28,0,0,1,3.06-3.08,6.36,6.36,0,0,1,2.67-.6l.46,0a6.1,6.1,0,0,1,.81.12,5.27,5.27,0,0,1,.57.14,5.7,5.7,0,0,1,.76.29,5.12,5.12,0,0,1,.57.3A6.29,6.29,0,0,1,144.07,186.71Z"/><path class="cls-5" d="M105.85,180.33a.35.35,0,0,1-.14-.06.41.41,0,0,1-.13-.58c2.84-4.44,9.67-.46,9.73-.42a.42.42,0,0,1-.43.73c-.06,0-6.19-3.61-8.59.14A.43.43,0,0,1,105.85,180.33Z"/><path class="cls-5" d="M131.59,183a.45.45,0,0,1-.27-.19c-.9-1.4-2.85-.77-2.87-.76a.43.43,0,0,1-.26-.81,3.36,3.36,0,0,1,3.84,1.11.42.42,0,0,1-.12.59A.45.45,0,0,1,131.59,183Z"/><g class="cls-2"><path class="cls-13" d="M137.61,187.73c-.21,1.06-.43,2.06-.63,3-1.93-.46-3.32-1.42-3.16-2.2S135.64,187.4,137.61,187.73Z"/></g><path class="cls-7" d="M124.43,182.13c-.23,1.15-.94,2-1.58,1.84s-1-1.16-.74-2.31.94-2,1.58-1.84S124.66,181,124.43,182.13Z"/><path class="cls-7" d="M135.77,184.43c-.23,1.15-.94,2-1.58,1.84s-1-1.17-.74-2.31.94-2,1.58-1.84S136,183.28,135.77,184.43Z"/><path class="cls-7" d="M129.91,187.51a4.35,4.35,0,0,0,1,.09.49.49,0,0,0,.34-.17.48.48,0,0,0,.11-.38l-.73-5.35a.48.48,0,0,0-1,.13l.65,4.77a3.83,3.83,0,0,1-1.84-.81.48.48,0,1,0-.62.74A4.71,4.71,0,0,0,129.91,187.51Z"/><path class="cls-7" d="M108.82,191.3c-.08.11-2.3,3.3-4.67,3.89h0c0-.84,0-1.66,0-2.47A9.07,9.07,0,0,0,108.82,191.3Z"/><path class="cls-12" d="M108.33,182.91s-3.34-7.08-7.67-2.93c-3.58,3.43-.45,14.88,5.75,12.43Z"/><path class="cls-14" d="M100.12,189A6.18,6.18,0,0,0,96,193.51a5.88,5.88,0,1,0,9.08-3.68,5.83,5.83,0,0,0-2.15-.91h-.06a1,1,0,0,0,.16,1,5,5,0,1,1-6.13,3.81,4.81,4.81,0,0,1,3.65-3.77Z"/><path class="cls-7" d="M106.15,190.43h.06a.47.47,0,0,0,.52-.43,9,9,0,0,0-3.72-8.17.48.48,0,1,0-.53.8h0a8,8,0,0,1,3.29,7.28A.49.49,0,0,0,106.15,190.43Z"/><path class="cls-7" d="M102.33,186.68a.51.51,0,0,0,.32-.05c.48-.25,1.89-.81,2.66-.44A.48.48,0,0,0,106,186a.48.48,0,0,0-.22-.65c-1.35-.65-3.31.34-3.53.46a.49.49,0,0,0-.2.65A.51.51,0,0,0,102.33,186.68Z"/><path class="cls-7" d="M112.63,170.9s-4.49,12.19-4.73,14.64c-.34,3.35-4.76-8.12-.31-17.93Z"/><path class="cls-7" d="M187.65,429.34H169.16s-4.28-20.52-5.71-32-2.18-38.79-2.18-38.79-14.74,4.79-45.57,3c-68.33-4-42.42-54.2-42.42-54.2,2.3,3.19,19.62,7.59,29.29,9.11,29.66,2.85,52.21,7.89,67.66,14.55a77.33,77.33,0,0,1,9.91,5.08c3.73,2.3,6.06,9.26,7.46,18.42C191.82,382,187.65,429.34,187.65,429.34Z"/><path class="cls-6" d="M171.45,419.46a.66.66,0,0,1-.64-.53c-2.67-13.2-3.57-29.63-4.29-42.83-.59-11-1.16-21.29-2.56-22.53-1.14-1-5.87-.22-11.86.77-11.91,2-29.9,5-49.75.35-10.81-2.52-18.76-7.77-23.62-15.61-8.39-13.52-4.56-30.29-4.53-30.46a.68.68,0,0,1,.8-.49.66.66,0,0,1,.49.8c0,.16-3.73,16.41,4.37,29.46,4.67,7.53,12.34,12.58,22.79,15,19.59,4.56,37.43,1.59,49.24-.37,7.07-1.17,11.33-1.88,12.94-.45s2.23,9.09,3,23.44c.71,13.16,1.61,29.54,4.25,42.64a.66.66,0,0,1-.51.78Z"/><path class="cls-6" d="M188,419.8h0l-20.56-.44a.66.66,0,1,1,0-1.32l20.55.44a.66.66,0,0,1,0,1.32Z"/><polygon class="cls-12" points="187.14 453.03 174.09 453.03 171.58 437.72 170.2 429.34 186.41 429.34 186.67 437.72 187.14 453.03"/><polygon class="cls-14" points="187.14 453.03 174.09 453.03 172.22 441.63 171.58 437.72 186.67 437.72 186.79 441.77 187.14 453.03"/><polygon class="cls-15" points="186.79 441.77 172.22 441.63 171.58 437.72 186.67 437.72 186.79 441.77"/><path class="cls-16" d="M219.34,473.64H170a7,7,0,0,1-.64-2.74c-.31-4.18,1-10.84,1.67-15,.08-.49.15-.95.2-1.36a15,15,0,0,0,.15-1.72c0-3.43,3-2.84,3-2.84,5,4.9,10.65-2.45,14,0l.44.34c.28.21.7.55,1.28,1,.84.71,2,1.73,3.62,3.17,3.92,3.52,10.58,5.85,16.26,8.22q1.08.45,2,.9c.48.23.92.46,1.34.69,4.64,2.5,6.12,4.9,6.45,6.64A3.87,3.87,0,0,1,219.34,473.64Z"/><path class="cls-17" d="M213.29,464.26c-1.27,1-4.09,3-6.36,3l-.3,0c-1.6-.13-7.48-3-12.27-5.65-2.74-1.51-5.24-3-7.05-4.18-2.95-1.95-3.46-2.69-3.58-3.21-.43-1.94,2.79-3.3,5.05-4,.28.21.7.55,1.28,1-2.8.77-5.11,2-5,2.65.28.58,3.2,2.8,10.18,6.63,5.33,2.91,10.38,5.27,11.5,5.36,1.52.13,3.76-1.26,5.21-2.35C212.43,463.8,212.87,464,213.29,464.26Z"/><path class="cls-17" d="M219.34,473.64H170a6.85,6.85,0,0,1-.65-2.74h50.4A3.89,3.89,0,0,1,219.34,473.64Z"/><path class="cls-17" d="M175,473.64h-1.47a10.83,10.83,0,0,0,2.66-7.91,13.93,13.93,0,0,0-5.2-9.87c.08-.49.15-.95.2-1.37a15.16,15.16,0,0,1,6.17,11.19A12,12,0,0,1,175,473.64Z"/><path class="cls-5" d="M192.85,457.36a.82.82,0,0,1-.2-1.61l3.08-.76a.81.81,0,1,1,.4,1.58l-3.09.76A.63.63,0,0,1,192.85,457.36Z"/><path class="cls-5" d="M189.78,454.79a.83.83,0,0,1-.79-.62.82.82,0,0,1,.6-1l3.08-.77a.81.81,0,0,1,.39,1.58l-3.08.77Z"/><path class="cls-5" d="M195.93,459.15a.81.81,0,0,1-.2-1.6l3.09-.77a.81.81,0,0,1,.39,1.58l-3.08.76Z"/><path class="cls-5" d="M199,460.87a.82.82,0,0,1-.79-.62.81.81,0,0,1,.6-1l3.08-.77a.81.81,0,0,1,.39,1.58l-3.08.77Z"/><path class="cls-5" d="M202.37,462.46a.81.81,0,0,1-.19-1.6l3.08-.76a.81.81,0,1,1,.39,1.57l-3.08.77A.68.68,0,0,1,202.37,462.46Z"/><path class="cls-5" d="M206,463.82a.8.8,0,0,1-.79-.61.82.82,0,0,1,.59-1l3.09-.77a.82.82,0,0,1,1,.6.81.81,0,0,1-.59,1l-3.09.77Z"/><path class="cls-18" d="M255.75,306.59v4.1c0,2.35-1.43,4.26-3.19,4.26H31.1c-1.76,0-3.18-1.91-3.18-4.26v-4.1c0-2.36,1.42-4.27,3.18-4.27H252.56C254.32,302.32,255.75,304.23,255.75,306.59Z"/><rect class="cls-19" x="27.92" y="307.89" width="227.83" height="1.88"/><path class="cls-19" d="M249.09,325.49H40.92a1.69,1.69,0,0,1-1.69-1.69v-8.89H250.78v8.89A1.69,1.69,0,0,1,249.09,325.49Z"/><rect class="cls-19" x="53.57" y="377.73" width="186.17" height="7.26"/><polygon class="cls-18" points="40.15 474.93 76.19 325.49 63.53 325.49 27.49 474.93 40.15 474.93"/><polygon class="cls-18" points="252.92 474.93 216.87 325.49 229.53 325.49 265.57 474.93 252.92 474.93"/><rect class="cls-14" x="46.47" y="268.09" width="3.95" height="29.81" transform="translate(-42.3 10.6) rotate(-8.71)"/><polygon class="cls-12" points="48.14 267.96 44.24 268.56 45.1 265.58 45.54 264.03 46.43 265.37 48.14 267.96"/><rect class="cls-7" x="48.56" y="295.57" width="3.95" height="2.17" transform="translate(-44.34 11.08) rotate(-8.71)"/><path class="cls-8" d="M52.66,299.17l-3.39.52a.27.27,0,0,1-.3-.22L48.75,298l3.91-.6.22,1.44A.26.26,0,0,1,52.66,299.17Z"/><polygon class="cls-7" points="46.43 265.37 45.1 265.58 45.54 264.03 46.43 265.37"/><rect class="cls-15" x="48.28" y="294.04" width="3.95" height="1.55" transform="matrix(0.99, -0.15, 0.15, 0.99, -44.06, 11.01)"/><path class="cls-15" d="M45.43,269.86l3.34,21.82a.31.31,0,0,0,.35.26h0a.31.31,0,0,0,.25-.35L46,269.77a.31.31,0,0,0-.35-.25h0A.3.3,0,0,0,45.43,269.86Z"/><path class="cls-15" d="M47,269.63l3.34,21.82a.31.31,0,0,0,.35.25h0a.3.3,0,0,0,.25-.34l-3.34-21.82a.31.31,0,0,0-.35-.26h0A.31.31,0,0,0,47,269.63Z"/><rect class="cls-18" x="51.31" y="268.1" width="3.95" height="29.81" transform="translate(-0.93 0.18) rotate(-0.19)"/><polygon class="cls-12" points="55.21 268.1 51.26 268.11 52.55 265.29 53.22 263.82 53.9 265.28 55.21 268.1"/><rect class="cls-7" x="51.35" y="295.75" width="3.95" height="2.17" transform="translate(-0.98 0.18) rotate(-0.19)"/><path class="cls-8" d="M55.05,299.63H51.62a.26.26,0,0,1-.26-.26v-1.46h4v1.46A.26.26,0,0,1,55.05,299.63Z"/><polygon class="cls-7" points="53.9 265.28 52.55 265.29 53.22 263.82 53.9 265.28"/><rect class="cls-19" x="51.34" y="294.19" width="3.95" height="1.55" transform="translate(-0.97 0.18) rotate(-0.19)"/><path class="cls-19" d="M52.24,269.58l.08,22.07a.29.29,0,0,0,.3.3h0a.29.29,0,0,0,.3-.3l-.07-22.08a.31.31,0,0,0-.3-.3h0A.31.31,0,0,0,52.24,269.58Z"/><path class="cls-19" d="M53.79,269.57l.07,22.07a.3.3,0,0,0,.31.3h0a.3.3,0,0,0,.3-.3l-.07-22.07a.31.31,0,0,0-.31-.3h0A.3.3,0,0,0,53.79,269.57Z"/><rect class="cls-16" x="43.07" y="281.02" width="29.81" height="3.95" transform="translate(-230.36 300.6) rotate(-81.91)"/><polygon class="cls-12" points="62.03 268.52 58.12 267.96 59.8 265.35 60.68 264 61.14 265.54 62.03 268.52"/><rect class="cls-7" x="54.06" y="295.6" width="3.95" height="2.17" transform="translate(42.28 -4.93) rotate(8.09)"/><path class="cls-8" d="M57.34,299.7l-3.4-.48a.26.26,0,0,1-.22-.3l.21-1.45,3.91.56-.21,1.45A.26.26,0,0,1,57.34,299.7Z"/><polygon class="cls-7" points="61.14 265.54 59.8 265.35 60.68 264 61.14 265.54"/><rect class="cls-17" x="55.52" y="292.86" width="1.55" height="3.95" transform="translate(-243.53 309.09) rotate(-81.91)"/><path class="cls-17" d="M58.88,269.55l-3.1,21.86a.3.3,0,0,0,.26.34h0a.31.31,0,0,0,.34-.26l3.1-21.85a.29.29,0,0,0-.25-.34h0A.31.31,0,0,0,58.88,269.55Z"/><path class="cls-17" d="M60.42,269.77l-3.11,21.85a.31.31,0,0,0,.26.35h0a.31.31,0,0,0,.34-.26L61,269.85a.3.3,0,0,0-.25-.34h0A.3.3,0,0,0,60.42,269.77Z"/><polygon class="cls-8" points="63.32 279.89 63.11 281.49 62.92 282.94 62.64 285.14 62.45 286.58 62.17 288.8 61.98 290.22 61.69 292.46 61.51 293.86 61.22 296.12 61.04 297.5 60.75 299.78 60.57 301.14 60.42 302.32 44.88 302.32 44.73 301.14 44.55 299.78 44.26 297.5 44.08 296.12 43.79 293.86 43.61 292.46 43.32 290.22 43.14 288.8 42.85 286.58 42.66 285.14 42.38 282.94 42.19 281.49 41.99 279.89 63.32 279.89"/><polygon class="cls-20" points="63.11 281.49 62.92 282.94 42.38 282.94 42.19 281.49 63.11 281.49"/><polygon class="cls-20" points="62.64 285.14 62.45 286.58 42.85 286.58 42.66 285.14 62.64 285.14"/><polygon class="cls-20" points="62.17 288.8 61.98 290.22 43.32 290.22 43.14 288.8 62.17 288.8"/><polygon class="cls-20" points="61.69 292.46 61.51 293.86 43.79 293.86 43.61 292.46 61.69 292.46"/><polygon class="cls-20" points="61.22 296.12 61.04 297.5 44.26 297.5 44.08 296.12 61.22 296.12"/><polygon class="cls-20" points="60.75 299.78 60.57 301.14 44.73 301.14 44.55 299.78 60.75 299.78"/><path class="cls-7" d="M254.46,223.07l-13.26,56-.34,1.48-.9,3.77a3.61,3.61,0,0,1-3.52,2.79H147.18a3.62,3.62,0,0,1-3.52-4.45l14.49-61.29a3.61,3.61,0,0,1,3.52-2.78h89.26A3.63,3.63,0,0,1,254.46,223.07Z"/><polygon class="cls-6" points="241.2 279.11 240.85 280.58 148.17 280.58 148.17 279.11 241.2 279.11"/><path class="cls-6" d="M211.08,255.27a8,8,0,0,1-7.75,7,6.14,6.14,0,0,1-6.22-7,8,8,0,0,1,7.76-7A6.13,6.13,0,0,1,211.08,255.27Z"/><path class="cls-6" d="M165.21,218.62l-15.43,68.52h-2.6a3.61,3.61,0,0,1-3.52-4.45l14.49-61.29a3.61,3.61,0,0,1,3.52-2.78Z"/><polygon class="cls-5" points="191.06 287.14 188.35 302.37 197.3 302.37 200 287.14 191.06 287.14"/><path class="cls-5" d="M175,299.75l1.83-2.58a3.47,3.47,0,0,1,2.84-1.46h24.52a3.48,3.48,0,0,1,3.09,1.87l1.23,2.36a1.66,1.66,0,0,1-1.47,2.43H176.32A1.66,1.66,0,0,1,175,299.75Z"/><path class="cls-5" d="M123.88,302.36h73.66l.8-2.78a2.74,2.74,0,0,0-2.63-3.49h-68a2.74,2.74,0,0,0-2.63,2Z"/><ellipse class="cls-4" cx="801.04" cy="477.48" rx="40.45" ry="4"/><rect class="cls-7" x="772.97" y="444.25" width="54.59" height="4.32" rx="2.16"/><rect class="cls-6" x="773.87" y="396.34" width="52.9" height="9.13" rx="1.5"/><path class="cls-18" d="M787.16,357.48s-21-4.16-26.92-18.84,15.6-25.69,26.92-17.8C799.26,329.27,787.16,357.48,787.16,357.48Z"/><path class="cls-7" d="M799.67,396.05a.39.39,0,0,1-.38-.33c-2-13.63-10.14-33.25-16.6-47.31-7-15.24-13.62-27.4-13.68-27.52a.38.38,0,1,1,.66-.37c.07.12,6.7,12.31,13.71,27.58,6.48,14.1,14.64,33.79,16.66,47.51a.38.38,0,0,1-.32.43Z"/><path class="cls-7" d="M786.37,356.06a.38.38,0,0,1-.34-.2c-9.15-17.05-24-29.41-24.16-29.53a.38.38,0,0,1,0-.54.37.37,0,0,1,.53-.05c.15.12,15.13,12.58,24.35,29.76a.39.39,0,0,1-.15.52A.39.39,0,0,1,786.37,356.06Z"/><path class="cls-7" d="M786.78,357.28a.37.37,0,0,1-.29-.13,73.08,73.08,0,0,0-18.07-15.46,46.07,46.07,0,0,0-8.38-4.05.38.38,0,0,1-.25-.47.39.39,0,0,1,.48-.25,44.41,44.41,0,0,1,8.52,4.1,74.17,74.17,0,0,1,18.28,15.63.38.38,0,0,1-.29.63Z"/><path class="cls-7" d="M784.93,352.81a.38.38,0,0,1-.36-.25c-5.13-15.06-3.24-33.36-3.22-33.54a.38.38,0,0,1,.42-.34.37.37,0,0,1,.33.42c0,.18-1.88,18.32,3.19,33.21a.38.38,0,0,1-.24.48A.25.25,0,0,1,784.93,352.81Z"/><path class="cls-7" d="M786.22,355.79a.38.38,0,0,1-.37-.32,52.94,52.94,0,0,1,.92-22.14A35.47,35.47,0,0,1,790,325a.38.38,0,0,1,.52-.13.39.39,0,0,1,.14.52,35.11,35.11,0,0,0-3.15,8.18,52.09,52.09,0,0,0-.9,21.8.39.39,0,0,1-.32.44Z"/><path class="cls-18" d="M809.35,361.32s21.25-2.91,28-17.22-14.05-26.56-25.81-19.36C798.94,332.44,809.35,361.32,809.35,361.32Z"/><path class="cls-7" d="M801.29,394.8h0a.39.39,0,0,1-.38-.39c.08-7,1.61-15,4.55-23.77a157.35,157.35,0,0,1,9.64-22.26A203.92,203.92,0,0,1,829,325.44a.38.38,0,0,1,.62.44,205.25,205.25,0,0,0-13.85,22.87c-6.33,12.15-13.91,29.94-14.1,45.67A.38.38,0,0,1,801.29,394.8Z"/><path class="cls-7" d="M810.25,360a.36.36,0,0,1-.2-.06.38.38,0,0,1-.13-.52c10.23-16.61,25.91-28.16,26.07-28.27a.37.37,0,0,1,.53.08.38.38,0,0,1-.08.53c-.16.12-15.73,11.58-25.87,28.05A.38.38,0,0,1,810.25,360Z"/><path class="cls-7" d="M809.76,361.14a.36.36,0,0,1-.26-.11.37.37,0,0,1,0-.53A73.52,73.52,0,0,1,828.66,346a45.71,45.71,0,0,1,8.74-3.6.38.38,0,1,1,.19.74,45.68,45.68,0,0,0-8.61,3.54A73.12,73.12,0,0,0,810,361,.36.36,0,0,1,809.76,361.14Z"/><path class="cls-7" d="M811.87,356.79a.32.32,0,0,1-.14,0,.38.38,0,0,1-.21-.5c6-14.56,5.15-32.78,5.15-33a.38.38,0,1,1,.76,0c0,.19.81,18.57-5.21,33.29A.38.38,0,0,1,811.87,356.79Z"/><path class="cls-7" d="M810.41,359.69h-.09a.38.38,0,0,1-.28-.46,52.37,52.37,0,0,0,.39-21.81,35.79,35.79,0,0,0-2.66-8.35.38.38,0,1,1,.67-.36,35.08,35.08,0,0,1,2.73,8.53,53.17,53.17,0,0,1-.39,22.16A.38.38,0,0,1,810.41,359.69Z"/><path class="cls-18" d="M801.17,333.63s-18-11.65-18-27.46,24-18.09,31.59-6.58C822.86,311.91,801.17,333.63,801.17,333.63Z"/><path class="cls-7" d="M798.65,374.12h-.09a.39.39,0,0,1-.28-.46c3.18-13.41,2.89-34.64,2.1-50.09-.87-16.76-2.5-30.5-2.52-30.64a.37.37,0,0,1,.33-.42.38.38,0,0,1,.43.33c0,.14,1.65,13.91,2.52,30.69.8,15.5,1.08,36.81-2.12,50.3A.38.38,0,0,1,798.65,374.12Z"/><path class="cls-7" d="M801.1,332.05a.39.39,0,0,1-.38-.34c-2.19-19.22-11.41-36.21-11.5-36.38a.37.37,0,0,1,.15-.52.38.38,0,0,1,.51.15c.1.17,9.39,17.29,11.6,36.67a.39.39,0,0,1-.34.42Z"/><path class="cls-7" d="M801,333.34a.38.38,0,0,1-.36-.26A73.32,73.32,0,0,0,789.61,312a45.11,45.11,0,0,0-6.28-6.86.38.38,0,1,1,.48-.59,45,45,0,0,1,6.39,7,73.93,73.93,0,0,1,11.2,21.29.4.4,0,0,1-.24.49Z"/><path class="cls-7" d="M801,328.5h0a.38.38,0,0,1-.36-.4c.81-15.89,9.34-32.18,9.43-32.35a.38.38,0,1,1,.67.36c-.09.16-8.54,16.31-9.34,32A.38.38,0,0,1,801,328.5Z"/><path class="cls-7" d="M801.07,331.75H801a.4.4,0,0,1-.29-.46A53.8,53.8,0,0,1,809.78,311a36.53,36.53,0,0,1,6.1-6.66.39.39,0,0,1,.54.06.38.38,0,0,1-.07.54,36.06,36.06,0,0,0-6,6.53,53.06,53.06,0,0,0-8.93,20A.38.38,0,0,1,801.07,331.75Z"/><path class="cls-16" d="M823.17,372.07l-.63,1.67-.4,1.05-1.14,3-.39,1.06-1.17,3.1L819,383l-5,13.32h-27.4l-5-13.32-.4-1.06-1.17-3.1-.4-1.06-1.14-3-.39-1.05-.63-1.67a1.74,1.74,0,0,1,1.63-2.36h42.42A1.75,1.75,0,0,1,823.17,372.07Z"/><polygon class="cls-17" points="822.54 373.74 822.14 374.79 778.5 374.79 778.11 373.74 822.54 373.74"/><polygon class="cls-17" points="821 377.81 820.61 378.87 780.04 378.87 779.64 377.81 821 377.81"/><polygon class="cls-17" points="819.44 381.97 819.04 383.03 781.61 383.03 781.21 381.97 819.44 381.97"/><polygon class="cls-7" points="792.98 405.48 791.46 410.38 770.31 478.56 766.18 478.56 779.59 411.77 780.86 405.48 792.98 405.48"/><polygon class="cls-7" points="834.59 478.56 830.46 478.56 808.68 408.36 807.79 405.48 819.91 405.48 820.22 407.01 820.22 407.01 834.59 478.56"/><rect class="cls-6" x="772.97" y="434.85" width="54.59" height="4.32" rx="2.16"/><ellipse class="cls-4" cx="306.01" cy="110.21" rx="27.12" ry="26.78"/><ellipse class="cls-16" cx="306.01" cy="106.73" rx="27.12" ry="26.78"/><ellipse class="cls-5" cx="306.01" cy="106.73" rx="22.04" ry="21.77"/><path class="cls-4" d="M328.05,106.73c0,.58,0,1.15-.07,1.72a22.07,22.07,0,0,0-44,0c0-.57-.06-1.14-.06-1.72a22,22,0,0,1,44.08,0Z"/><path class="cls-7" d="M306,109a.54.54,0,0,1-.44-.22L294.75,94.39a.54.54,0,0,1,.12-.76.55.55,0,0,1,.77.11l10.55,14,12-5.19a.54.54,0,1,1,.45,1L306.23,109A.57.57,0,0,1,306,109Z"/></g></g></svg>