<svg xmlns="http://www.w3.org/2000/svg" viewBox="0 0 1769 308.56"><defs><style>.cls-1{fill:#f6921e;}.cls-2{fill:#fcecdb;}.cls-3{fill:#efcbab;}.cls-4{fill:#f99746;}.cls-5{fill:#faaf3b;}.cls-6{opacity:0.5;}.cls-7{fill:#cde0fb;}.cls-8{fill:#b1cff2;}.cls-9{fill:#afcdfb;}.cls-10{fill:#fff;}</style></defs><g id="Layer_2" data-name="Layer 2"><g id="Layer_1-2" data-name="Layer 1"><path class="cls-1" d="M0,111.38,138.75,28.31a24.19,24.19,0,0,1,24.85,0l138.75,83.07V246.76L0,231.6Z"/><rect class="cls-2" x="24.01" y="21.53" width="250.3" height="216.31" transform="translate(-21.65 30.23) rotate(-10.8)"/><circle class="cls-3" cx="17.76" cy="54.24" r="2.57" transform="translate(-26.86 18.65) rotate(-33.3)"/><path class="cls-3" d="M240.89,11.69a2.57,2.57,0,1,1,3,2.05A2.58,2.58,0,0,1,240.89,11.69Z"/><rect class="cls-3" x="15.73" y="32.45" width="229.72" height="0.56" transform="translate(-3.82 25.04) rotate(-10.8)"/><rect class="cls-3" x="38.81" y="51.2" width="0.56" height="229.72" transform="translate(-30.41 10.26) rotate(-10.8)"/><rect class="cls-3" x="264.54" y="8.16" width="0.56" height="229.72" transform="translate(-18.36 51.78) rotate(-10.8)"/><path class="cls-3" d="M179.84,44.23,90.2,61.33a2.42,2.42,0,0,1-2.82-1.92h0a2.42,2.42,0,0,1,1.92-2.82L178.94,39.5a2.42,2.42,0,0,1,2.82,1.92h0A2.4,2.4,0,0,1,179.84,44.23Z"/><path class="cls-3" d="M204.75,49.33,68.92,75.23a2.43,2.43,0,0,1-2.82-1.92h0A2.42,2.42,0,0,1,68,70.49l135.82-25.9a2.42,2.42,0,0,1,2.82,1.92h0A2.42,2.42,0,0,1,204.75,49.33Z"/><path class="cls-3" d="M192.75,82.14,94.47,100.88a1.75,1.75,0,0,1-2-1.39h0a1.75,1.75,0,0,1,1.39-2l98.27-18.74a1.75,1.75,0,0,1,2,1.39h0A1.75,1.75,0,0,1,192.75,82.14Z"/><path class="cls-3" d="M106.05,107.94l-27.71,5.28a1.75,1.75,0,0,1-2-1.38h0a1.74,1.74,0,0,1,1.38-2l27.71-5.29a1.75,1.75,0,0,1,2,1.39h0A1.75,1.75,0,0,1,106.05,107.94Z"/><path class="cls-3" d="M147.84,100l-33.48,6.38a1.75,1.75,0,0,1-2-1.38h0a1.75,1.75,0,0,1,1.39-2l33.47-6.38a1.74,1.74,0,0,1,2,1.38h0A1.75,1.75,0,0,1,147.84,100Z"/><path class="cls-3" d="M212.29,87.68l-57.87,11a1.75,1.75,0,0,1-2-1.38h0a1.75,1.75,0,0,1,1.39-2l57.87-11a1.75,1.75,0,0,1,2,1.39h0A1.75,1.75,0,0,1,212.29,87.68Z"/><path class="cls-3" d="M150,110.33,96.21,120.59a1.75,1.75,0,0,1-2-1.39h0a1.74,1.74,0,0,1,1.39-2l53.83-10.27a1.75,1.75,0,0,1,2,1.39h0A1.75,1.75,0,0,1,150,110.33Z"/><path class="cls-3" d="M198.38,101.11,156,109.19a1.75,1.75,0,0,1-2-1.38h0a1.74,1.74,0,0,1,1.39-2l42.39-8.09a1.75,1.75,0,0,1,2,1.39h0A1.75,1.75,0,0,1,198.38,101.11Z"/><path class="cls-4" d="M169.19,128.58a68.71,68.71,0,0,1-9,8.95,8.37,8.37,0,0,0,0-3c-.3-1.22-1.38-1.58-2.47-1.9l-.77-.26a1.27,1.27,0,0,0,0-1.52,1.08,1.08,0,0,0-2,.45,1.77,1.77,0,0,0-.05.5,1.32,1.32,0,0,1-.44-.23c.39-1.24.74-2.49,1-3.75a.64.64,0,0,0-.39-.68,2,2,0,0,0-2.66.9c-.64,1.12-.15,2.56.45,3.59l.14.22c-.5,1.52-1.08,3-1.72,4.49l-.3-.2a4.85,4.85,0,0,1-.85-.7,12.34,12.34,0,0,0,.12-3.49.64.64,0,0,0-1-.44,2.73,2.73,0,0,0-1.13,3.24,3.67,3.67,0,0,0,.62,1.15,12.15,12.15,0,0,1-.64,1.87.6.6,0,0,0,.38.83,8.89,8.89,0,0,1-1.14,3.94c-.59.91-1.85,1.75-2.93,1a3.84,3.84,0,0,1-1.15-2.17,41.3,41.3,0,0,1-1.36-5.69,8.68,8.68,0,0,1-.07-2.74c.08-.56.2-1.41.63-.55a5,5,0,0,1,.21,1.6.64.64,0,0,0,1.27-.14c-.08-1,0-3-1.22-3.43-1-.32-1.67.54-1.94,1.36-1,2.95.31,6.49,1.08,9.35.62,2.27,2,4.94,4.84,3.65,2.64-1.22,3-4.92,3.17-7.45a.72.72,0,0,0-.09-.4.14.14,0,0,1,0-.06l.41.28a6.65,6.65,0,0,1,.56.36c-.21.46-.44.92-.66,1.37a.65.65,0,0,0,.19.76,1.5,1.5,0,0,0,2.37-1.58,2,2,0,0,0-.37-.82q1-2.14,1.71-4.37a2,2,0,0,0,1.63.32l.13,0a4.7,4.7,0,0,0,1.25.62,8.11,8.11,0,0,1,1.21.38c.69.38.62,1,.62,1.69a27.3,27.3,0,0,1-.21,2.86,5.84,5.84,0,0,0-2.36,3.68,3.24,3.24,0,0,0,1.78,3.35.65.65,0,0,0,.89-.49c.38-1.9.69-3.81.89-5.74l0-.18c1-.85,2.06-1.64,3-2.5a66.72,66.72,0,0,0,7.24-7.51C170.73,128.74,169.72,128,169.19,128.58Zm-15.64,1.25c-.1-.51,0-1.48.57-1.58-.15.62-.32,1.23-.49,1.84A2.58,2.58,0,0,1,153.55,129.83Zm4.38,14.26c-.72-.89-.19-2.27.52-3.24C158.31,141.93,158.13,143,157.93,144.09Z"/><polygon class="cls-5" points="302.35 111 302.35 292.01 0 292.01 0 111 151.17 201.51 302.35 111"/><path class="cls-1" d="M0,292l138.48-99.28a21.77,21.77,0,0,1,25.38,0L302.35,292Z"/><g class="cls-6"><polygon class="cls-7" points="391.84 266.09 401.6 292.26 357.89 308.56 348.13 282.39 374.87 287.33 391.84 266.09"/><path class="cls-8" d="M348.13,282.39l43.71-16.3L377.7,286.58a4.71,4.71,0,0,1-5,1.9Z"/></g><g class="cls-6"><polygon class="cls-7" points="1371.63 44.93 1359.58 90.09 1284.14 69.96 1296.19 24.8 1327.88 57.45 1371.63 44.93"/><path class="cls-8" d="M1296.19,24.8l75.44,20.13-39.16,14.25a7.9,7.9,0,0,1-8.69-2.28Z"/></g><path class="cls-9" d="M1347.57,301.35h0c-2.75,0-5.43-.05-8-.11a.53.53,0,0,1-.51-.55.52.52,0,0,1,.54-.51c2.51.07,5.18.1,7.93.11a.53.53,0,0,1,0,1.06Zm8-.06a.53.53,0,0,1-.53-.52.54.54,0,0,1,.52-.54c2.55,0,5.22-.11,7.94-.2a.52.52,0,0,1,.55.51.53.53,0,0,1-.51.55c-2.73.09-5.41.16-8,.2Zm-23.81-.4h0c-2.79-.17-5.46-.39-7.93-.65a.53.53,0,1,1,.11-1.05c2.45.26,5.11.48,7.89.65a.53.53,0,0,1,0,1.05Zm39.7-.12a.53.53,0,0,1,0-1c2.55-.12,5.21-.26,7.93-.42a.55.55,0,0,1,.56.5.53.53,0,0,1-.5.56c-2.72.16-5.39.3-7.94.41Zm15.87-.91a.53.53,0,0,1,0-1.05c2.6-.18,5.25-.37,7.92-.58a.53.53,0,1,1,.08,1.06l-7.93.57Zm-71.34-.71h-.1a62,62,0,0,1-7.78-1.87.52.52,0,0,1,.32-1,63.58,63.58,0,0,0,7.65,1.83.52.52,0,0,1,.43.61A.53.53,0,0,1,1315.94,299.15Zm87.19-.49a.53.53,0,0,1,0-1.06l7.91-.69a.53.53,0,1,1,.1,1l-7.92.69Zm15.83-1.44a.53.53,0,0,1,0-1.06c2.62-.25,5.25-.51,7.91-.79a.54.54,0,0,1,.58.48.54.54,0,0,1-.48.58l-7.91.79Zm15.81-1.62a.52.52,0,0,1-.52-.48.51.51,0,0,1,.47-.58l7.89-.87a.54.54,0,0,1,.59.47.53.53,0,0,1-.47.58l-7.9.87Zm15.79-1.78a.53.53,0,0,1-.52-.47.54.54,0,0,1,.46-.59c2.62-.3,5.25-.62,7.89-.94a.54.54,0,0,1,.59.46.53.53,0,0,1-.46.59c-2.64.32-5.27.64-7.89.94Zm15.78-1.92a.52.52,0,0,1-.52-.46.53.53,0,0,1,.46-.59l7.85-1a.54.54,0,0,1,.59.46.53.53,0,0,1-.46.59l-7.85,1Zm15.72-2a.53.53,0,0,1-.06-1.05l7.87-1.06a.54.54,0,0,1,.6.46.53.53,0,0,1-.46.59l-7.88,1.06Zm15.77-2.13a.53.53,0,0,1-.07-1.06l7.87-1.1a.54.54,0,0,1,.6.45.53.53,0,0,1-.45.6l-7.87,1.1Zm15.74-2.23a.53.53,0,0,1-.08-1l7.87-1.14a.53.53,0,1,1,.15,1.05l-7.86,1.14Zm15.72-2.3a.53.53,0,0,1-.07-1.05l7.85-1.18a.53.53,0,1,1,.16,1l-7.86,1.19Zm15.72-2.38a.53.53,0,0,1-.53-.45.54.54,0,0,1,.45-.6l7.85-1.22a.53.53,0,0,1,.6.45.52.52,0,0,1-.44.6l-7.85,1.22Zm15.7-2.45a.52.52,0,0,1-.52-.44.53.53,0,0,1,.44-.61l7.84-1.25a.54.54,0,0,1,.61.44.53.53,0,0,1-.44.61l-7.85,1.25Zm15.69-2.51a.53.53,0,0,1-.52-.44.54.54,0,0,1,.44-.61l7.84-1.28a.53.53,0,0,1,.61.44.52.52,0,0,1-.44.6c-2.58.43-5.2.86-7.84,1.28Zm15.69-2.57a.53.53,0,0,1-.52-.45.51.51,0,0,1,.43-.6l7.84-1.31a.53.53,0,0,1,.18,1l-7.84,1.31Zm15.68-2.64a.52.52,0,0,1-.52-.44.53.53,0,0,1,.43-.61l7.83-1.33a.53.53,0,1,1,.18,1l-7.83,1.34Zm15.67-2.68a.53.53,0,0,1-.52-.44.52.52,0,0,1,.43-.61l7.83-1.37a.53.53,0,0,1,.18,1l-7.83,1.37Zm15.66-2.75a.53.53,0,0,1-.09-1.05l7.83-1.39a.53.53,0,1,1,.19,1l-7.83,1.39Zm15.67-2.8a.53.53,0,0,1-.1-1.05l7.83-1.42a.52.52,0,0,1,.62.42.53.53,0,0,1-.43.62l-7.83,1.42Zm15.66-2.86a.53.53,0,0,1-.09-1.05l7.83-1.46a.53.53,0,0,1,.2,1l-7.84,1.46Zm15.69-2.95a.52.52,0,0,1-.52-.43.53.53,0,0,1,.42-.61l.91-.18a.55.55,0,0,1,.65.52c0,.44,0,.45-1.36.7Z"/><polygon class="cls-9" points="1703.81 284.51 1769 247.56 1709.53 251.08 1714.12 261.12 1701.84 274.73 1703.81 284.51"/><polygon class="cls-10" points="1769 247.56 1700.69 260.08 1650.93 294.64 1769 247.56"/><polygon class="cls-10" points="1709.53 251.08 1769 247.56 1706.79 229.34 1709.53 251.08"/><rect class="cls-2" x="14.64" y="256.58" width="62.63" height="24.74" rx="12.37"/><path class="cls-3" d="M61.41,262.73H22.17a.79.79,0,0,1-.8-.79h0a.8.8,0,0,1,.8-.8H61.41a.8.8,0,0,1,.79.8h0A.79.79,0,0,1,61.41,262.73Z"/><path class="cls-3" d="M29.12,266.17H22.17a.8.8,0,0,1-.8-.8h0a.8.8,0,0,1,.8-.79h7a.8.8,0,0,1,.8.79h0A.8.8,0,0,1,29.12,266.17Z"/><path class="cls-3" d="M51.05,266.17H31.88a.8.8,0,0,1-.8-.8h0a.8.8,0,0,1,.8-.79H51.05a.79.79,0,0,1,.79.79h0A.79.79,0,0,1,51.05,266.17Z"/><path class="cls-3" d="M61.41,272.53H22.17a.79.79,0,0,1-.8-.79h0a.8.8,0,0,1,.8-.8H61.41a.8.8,0,0,1,.79.8h0A.79.79,0,0,1,61.41,272.53Z"/><path class="cls-3" d="M36.41,276H22.17a.8.8,0,0,1-.8-.8h0a.79.79,0,0,1,.8-.79H36.41a.79.79,0,0,1,.79.79h0A.79.79,0,0,1,36.41,276Z"/><path class="cls-3" d="M53.74,276H39.49a.8.8,0,0,1-.79-.8h0a.79.79,0,0,1,.79-.79H53.74a.79.79,0,0,1,.79.79h0A.79.79,0,0,1,53.74,276Z"/></g></g></svg>