<svg xmlns="http://www.w3.org/2000/svg" xmlns:xlink="http://www.w3.org/1999/xlink" viewBox="0 0 214.38 178.14"><defs><style>.cls-1{fill:url(#linear-gradient);}.cls-2{fill:url(#linear-gradient-2);}.cls-3{fill:#590bb2;opacity:0.1;isolation:isolate;}.cls-4{fill:#e5e5e5;}.cls-5{fill:#cbcbcb;}.cls-6{fill:#fff;}.cls-7{fill:#ffd5b8;}.cls-8{fill:#e8916f;}.cls-9{fill:#99e6fc;}.cls-10{fill:#4d4d4d;}.cls-11{fill:#333;}.cls-12{fill:#ffc136;}.cls-13{fill:#ffe783;}.cls-14{fill:#1a1a1a;}</style><linearGradient id="linear-gradient" x1="-3498.05" y1="-1417.48" x2="-3692.99" y2="-872.48" gradientTransform="matrix(0, -1, -1, 0, -1047.91, -3505.8)" gradientUnits="userSpaceOnUse"><stop offset="0.12" stop-color="#fff" stop-opacity="0"/><stop offset="1" stop-color="#fff"/></linearGradient><linearGradient id="linear-gradient-2" x1="-3101.3" y1="2462.82" x2="-3296.24" y2="3007.82" gradientTransform="matrix(0.29, 0.96, 0.96, -0.29, -1560.01, 3950.78)" xlink:href="#linear-gradient"/></defs><g id="Layer_2" data-name="Layer 2"><g id="Layer_1-2" data-name="Layer 1"><path class="cls-1" d="M76,1.7C43.81,16.48,31.31,48.05,13.57,79s-25.69,82,25.07,88.75c8.2,1.09,12.39,1.83,21.33.69,15.91-2,36.86-2.25,52.81-1.19,6.54.43,16.87.11,20.68.05,30.6-.48,79.49-17.86,73.5-54.4-4.51-27.44-28.42-34.06-50.2-36.77-12-1.48-27.55-10.72-30.12-16.85-8.38-20-25.78-69-50.65-57.56Z"/><path class="cls-2" d="M174.32,173.66c26.5-23.48,29.29-57.32,37.29-92.07S212.39-4.32,161.85,4c-8.17,1.34-12.39,1.84-20.61,5.53C126.6,16.05,106.62,22.33,91.05,26c-6.39,1.49-16.18,4.8-19.81,6C42.11,41.25.36,72.08,16.71,105.31c12.28,24.95,37.08,24.34,58.71,20.6,11.88-2,29.48,2.27,33.72,7.39,13.81,16.67,44.7,58.51,65.18,40.36Z"/><path class="cls-3" d="M101.86,20.55,57.05,38.84a1.77,1.77,0,0,0,0,3.28L101.86,60.4a1.73,1.73,0,0,0,1.34,0L148,42.12a1.77,1.77,0,0,0,0-3.28L103.2,20.55a1.82,1.82,0,0,0-1.34,0Z"/><path class="cls-4" d="M172.1,138.29H33V49.67a6.11,6.11,0,0,1,6.1-6.11H166a6.11,6.11,0,0,1,6.11,6.11v88.62Z"/><path class="cls-5" d="M182.73,133.43v8.95a3.55,3.55,0,0,1-3.55,3.55H25.89a3.55,3.55,0,0,1-3.55-3.55v-8.95a3.55,3.55,0,0,1,3.55-3.54H74.15a1.75,1.75,0,0,1,1.34.61l4.57,5.28h45l4.57-5.28a1.75,1.75,0,0,1,1.34-.61h48.26A3.55,3.55,0,0,1,182.73,133.43Z"/><path class="cls-6" d="M162.09,121.38H43a1.78,1.78,0,0,1-1.77-1.78V54.16A1.78,1.78,0,0,1,43,52.38H162.09a1.78,1.78,0,0,1,1.77,1.78V119.6A1.78,1.78,0,0,1,162.09,121.38Z"/><path class="cls-7" d="M163.86,75.5V54.16a1.78,1.78,0,0,0-1.77-1.78H43a1.78,1.78,0,0,0-1.77,1.78V75.5Z"/><path class="cls-8" d="M153.83,92.15H91.54a1.78,1.78,0,0,1,0-3.55h62.29a1.78,1.78,0,0,1,0,3.55Z"/><path class="cls-8" d="M153.83,98.36H91.54a1.78,1.78,0,0,1,0-3.55h62.29a1.78,1.78,0,0,1,0,3.55Z"/><path class="cls-8" d="M153.83,104.57H91.54a1.78,1.78,0,0,1,0-3.55h62.29a1.78,1.78,0,0,1,0,3.55Z"/><path class="cls-8" d="M153.83,107.23a1.78,1.78,0,0,1,0,3.55H91.54a1.78,1.78,0,0,1,0-3.55Z"/><path class="cls-9" d="M68.82,92.15H51.24a1.78,1.78,0,0,1,0-3.55H68.82a1.78,1.78,0,0,1,0,3.55Z"/><path class="cls-9" d="M78.4,98.36H51.24a1.78,1.78,0,0,1,0-3.55H78.4a1.78,1.78,0,0,1,0,3.55Z"/><path class="cls-9" d="M78.4,104.57H51.24a1.78,1.78,0,0,1,0-3.55H78.4a1.78,1.78,0,0,1,0,3.55Z"/><path class="cls-9" d="M78.4,110.78H51.24a1.78,1.78,0,0,1,0-3.55H78.4a1.78,1.78,0,0,1,0,3.55Z"/><path class="cls-10" d="M134.23,34.26V68.07a1.76,1.76,0,0,1-1.1,1.64L103.2,81.92a1.73,1.73,0,0,1-1.34,0L71.94,69.71a1.76,1.76,0,0,1-1.1-1.64V34.26Z"/><path class="cls-11" d="M134.23,34.26v9.65l-29,11.84a7.07,7.07,0,0,1-5.37,0l-29-11.84V34.26Z"/><path class="cls-10" d="M101.86,11,57.05,29.25a1.78,1.78,0,0,0,0,3.29l44.81,18.28a1.73,1.73,0,0,0,1.34,0L148,32.54a1.77,1.77,0,0,0,0-3.29L103.2,11a1.82,1.82,0,0,0-1.34,0Z"/><path class="cls-12" d="M128.64,113.12h-8.92a1.78,1.78,0,0,1-1.77-1.78V101a6.23,6.23,0,1,1,12.46,0v10.3a1.78,1.78,0,0,1-1.77,1.78Z"/><circle class="cls-13" cx="124.18" cy="90.93" r="6.84"/><polygon class="cls-14" points="125.95 84.5 125.95 41.64 122.41 43.06 122.41 84.5 125.95 84.5"/></g></g></svg>