<svg xmlns="http://www.w3.org/2000/svg" viewBox="0 0 29.24 29.24"><defs><style>.cls-1{fill:#ededee;}.cls-2{fill:#7ad06d;}</style></defs><g id="Layer_2" data-name="Layer 2"><g id="Layer_1-2" data-name="Layer 1"><rect class="cls-1" width="29.24" height="29.24" rx="2.08"/><path class="cls-2" d="M14.06,3.28A11.23,11.23,0,0,0,4.6,19.61L3.4,25.4a.44.44,0,0,0,.53.52l5.68-1.35A11.24,11.24,0,1,0,14.06,3.28Zm6.77,17.45A8.78,8.78,0,0,1,10.7,22.39L9.91,22l-3.48.82.73-3.55-.39-.77a8.6,8.6,0,0,1-1-4,8.8,8.8,0,0,1,15-6.22,8.7,8.7,0,0,1,2.58,6.22,8.8,8.8,0,0,1-2.58,6.22Z"/><path class="cls-2" d="M20.07,17l-2.18-.63a.81.81,0,0,0-.8.21l-.54.54a.79.79,0,0,1-.86.19A11.78,11.78,0,0,1,11.94,14a.79.79,0,0,1,.07-.88l.46-.6a.81.81,0,0,0,.1-.82l-.92-2.07a.8.8,0,0,0-1.26-.29A3.65,3.65,0,0,0,9,11.44c-.15,1.53.5,3.45,3,5.76,2.86,2.67,5.15,3,6.64,2.66a3.74,3.74,0,0,0,2-1.7A.81.81,0,0,0,20.07,17Z"/></g></g></svg>