<?xml version="1.0" encoding="utf-8"?>
<!-- Generator: Adobe Illustrator 23.0.0, SVG Export Plug-In . SVG Version: 6.00 Build 0)  -->
<svg version="1.1" id="Layer_1" xmlns="http://www.w3.org/2000/svg" xmlns:xlink="http://www.w3.org/1999/xlink" x="0px" y="0px"
	 viewBox="0 0 1920 4528.9" style="enable-background:new 0 0 1920 4528.9;" xml:space="preserve">
<style type="text/css">
	.st0{opacity:0.6;}
	.st1{clip-path:url(#SVGID_2_);}
	.st2{opacity:0.3;fill:url(#SVGID_3_);enable-background:new    ;}
	.st3{opacity:0.3;fill:none;stroke:url(#SVGID_4_);stroke-width:3;stroke-miterlimit:10;enable-background:new    ;}
	.st4{opacity:0.3;fill:url(#SVGID_5_);enable-background:new    ;}
	.st5{opacity:0.3;fill:none;stroke:url(#SVGID_6_);stroke-width:3;stroke-miterlimit:10;enable-background:new    ;}
	.st6{opacity:0.3;fill:url(#SVGID_7_);enable-background:new    ;}
	.st7{opacity:0.3;fill:none;stroke:url(#SVGID_8_);stroke-width:3.22;stroke-miterlimit:10;enable-background:new    ;}
	.st8{opacity:0.3;fill:url(#SVGID_9_);enable-background:new    ;}
	.st9{opacity:0.3;fill:none;stroke:url(#SVGID_10_);stroke-width:3;stroke-miterlimit:10;enable-background:new    ;}
	.st10{opacity:0.3;fill:url(#SVGID_11_);enable-background:new    ;}
	.st11{opacity:0.3;fill:none;stroke:url(#SVGID_12_);stroke-width:3;stroke-miterlimit:10;enable-background:new    ;}
	.st12{opacity:0.3;fill:url(#SVGID_13_);enable-background:new    ;}
	.st13{opacity:0.3;fill:none;stroke:url(#SVGID_14_);stroke-width:3;stroke-miterlimit:10;enable-background:new    ;}
</style>
<g>
	<g>
		<g id="Layer_1-2">
			<g class="st0">
				<g>
					<defs>
						<rect id="SVGID_1_" x="-3.3" y="7.9" width="1923.3" height="4446.6"/>
					</defs>
					<clipPath id="SVGID_2_">
						<use xlink:href="#SVGID_1_"  style="overflow:visible;"/>
					</clipPath>
					<g class="st1">
						
							<linearGradient id="SVGID_3_" gradientUnits="userSpaceOnUse" x1="364.731" y1="3400.6204" x2="364.731" y2="4394.4478" gradientTransform="matrix(1 0 0 -1 80.6535 4536.1611)">
							<stop  offset="0" style="stop-color:#757B80"/>
							<stop  offset="1" style="stop-color:#FFFFFF"/>
						</linearGradient>
						<path class="st2" d="M4.7,502.8L309.6,198c75-75,196.6-75,271.6,0L886,502.8c75,75,75,196.6,0,271.6l-304.8,304.8
							c-75,75-196.6,75-271.6,0L4.7,774.4C-70.3,699.4-70.3,577.8,4.7,502.8z"/>
						
							<linearGradient id="SVGID_4_" gradientUnits="userSpaceOnUse" x1="364.738" y1="3368.2471" x2="364.738" y2="4426.8213" gradientTransform="matrix(1 0 0 -1 80.6535 4536.1611)">
							<stop  offset="0" style="stop-color:#757B80"/>
							<stop  offset="1" style="stop-color:#FFFFFF"/>
						</linearGradient>
						<path class="st3" d="M-22.6,494.4l323.8-323.8c79.7-79.7,208.8-79.7,288.5,0l323.8,323.8c79.7,79.7,79.7,208.8,0,288.5
							l-323.8,323.8c-79.7,79.7-208.8,79.7-288.5,0L-22.6,782.9C-102.3,703.2-102.3,574-22.6,494.4z"/>
						
							<linearGradient id="SVGID_5_" gradientUnits="userSpaceOnUse" x1="364.7308" y1="1186.0045" x2="364.7308" y2="2179.8318" gradientTransform="matrix(1 0 0 -1 80.6564 4536.168)">
							<stop  offset="0" style="stop-color:#757B80"/>
							<stop  offset="1" style="stop-color:#FFFFFF"/>
						</linearGradient>
						<path class="st4" d="M4.7,2717.4l304.8-304.8c75-75,196.6-75,271.6,0L886,2717.4c75,75,75,196.6,0,271.6l-304.8,304.8
							c-75,75-196.6,75-271.6,0L4.7,2989.1C-70.3,2914.1-70.3,2792.4,4.7,2717.4z"/>
						
							<linearGradient id="SVGID_6_" gradientUnits="userSpaceOnUse" x1="364.7379" y1="1155.9253" x2="364.7379" y2="2209.9253" gradientTransform="matrix(1 0 0 -1 80.6564 4536.168)">
							<stop  offset="0" style="stop-color:#757B80"/>
							<stop  offset="1" style="stop-color:#FFFFFF"/>
						</linearGradient>
						<path class="st5" d="M-20.6,2709.6l322.4-322.4c79.3-79.3,207.9-79.3,287.3,0l322.4,322.4c79.3,79.3,79.3,207.9,0,287.3
							L589,3319.2c-79.3,79.3-207.9,79.3-287.3,0l-322.4-322.4C-99.9,2917.6-99.9,2788.9-20.6,2709.6z"/>
						
							<linearGradient id="SVGID_7_" gradientUnits="userSpaceOnUse" x1="807.1394" y1="39.593" x2="807.1394" y2="1107.908" gradientTransform="matrix(1 0 0 -1 80.6505 4536.1606)">
							<stop  offset="0" style="stop-color:#757B80"/>
							<stop  offset="1" style="stop-color:#FFFFFF"/>
						</linearGradient>
						<path class="st6" d="M414.1,3816.4l327.7-327.7c80.6-80.6,211.4-80.6,292,0l327.7,327.7c80.6,80.6,80.6,211.4,0,292
							l-327.7,327.7c-80.6,80.6-211.4,80.6-292,0l-327.7-327.7C333.5,4027.8,333.5,3897,414.1,3816.4z"/>
						
							<linearGradient id="SVGID_8_" gradientUnits="userSpaceOnUse" x1="807.1325" y1="7.2585" x2="807.1325" y2="1140.2423" gradientTransform="matrix(1 0 0 -1 80.6505 4536.1606)">
							<stop  offset="0" style="stop-color:#757B80"/>
							<stop  offset="1" style="stop-color:#FFFFFF"/>
						</linearGradient>
						<path class="st7" d="M386.9,3808l346.5-346.5c85.3-85.3,223.5-85.3,308.8,0l346.5,346.5c85.3,85.3,85.3,223.5,0,308.8
							l-346.5,346.5c-85.3,85.3-223.5,85.3-308.8,0l-346.5-346.5C301.6,4031.5,301.6,3893.3,386.9,3808z"/>
						
							<linearGradient id="SVGID_9_" gradientUnits="userSpaceOnUse" x1="1257.366" y1="849.6674" x2="1257.366" y2="2677.5168" gradientTransform="matrix(1 0 0 -1 80.6511 4536.1636)">
							<stop  offset="0" style="stop-color:#757B80"/>
							<stop  offset="1" style="stop-color:#FFFFFF"/>
						</linearGradient>
						<path class="st8" d="M1937.3,2058.9l-140.6-140.6c-79.5-79.5-208.5-79.5-288,0l-710.3,710.3c-79.5,79.5-79.5,208.5,0,288
							l710.3,710.3c79.5,79.5,208.5,79.5,288,0l140.6-140.6V2058.9z"/>
						<linearGradient id="SVGID_10_" gradientUnits="userSpaceOnUse" x1="1325.431" y1="1830.3385" x2="1325.431" y2="3714.8188">
							<stop  offset="0" style="stop-color:#757B80"/>
							<stop  offset="1" style="stop-color:#FFFFFF"/>
						</linearGradient>
						<path class="st9" d="M1938.9,2031.3l-138.1-138.1c-81.9-81.9-214.6-81.9-296.4,0l-731.1,731.1c-81.9,81.9-81.9,214.6,0,296.4
							l731.1,731.1c81.9,81.9,214.6,81.9,296.4,0l138.1-138.1V2031.3z"/>
						
							<linearGradient id="SVGID_11_" gradientUnits="userSpaceOnUse" x1="1475.4517" y1="-661.2193" x2="1475.4517" y2="1109.4639" gradientTransform="matrix(-1 0 0 1 2704.6011 1654.9766)">
							<stop  offset="0" style="stop-color:#757B80"/>
							<stop  offset="1" style="stop-color:#FFFFFF"/>
						</linearGradient>
						<path class="st10" d="M1937.3,1445.2L1542.2,1050c-75-75-196.6-75-271.6,0l-693.3,693.3c-75,75-75,196.6,0,271.6l693.3,693.3
							c75,75,196.6,75,271.6,0l395.1-395.1V1445.2z"/>
						<linearGradient id="SVGID_12_" gradientUnits="userSpaceOnUse" x1="1211.0558" y1="2803.7781" x2="1211.0558" y2="954.4195">
							<stop  offset="0" style="stop-color:#757B80"/>
							<stop  offset="1" style="stop-color:#FFFFFF"/>
						</linearGradient>
						<path class="st11" d="M1938.9,1405.6l-391-391c-78.2-78.2-205-78.2-283.3,0l-722.9,722.9c-78.2,78.2-78.2,205,0,283.3
							l722.9,722.9c78.2,78.2,205,78.2,283.3,0l391-391V1405.6z"/>
						
							<linearGradient id="SVGID_13_" gradientUnits="userSpaceOnUse" x1="1384.9037" y1="-2079.3757" x2="1384.9037" y2="-296.7623" gradientTransform="matrix(-1 0 0 1 2704.5979 1654.9812)">
							<stop  offset="0" style="stop-color:#757B80"/>
							<stop  offset="1" style="stop-color:#FFFFFF"/>
						</linearGradient>
						<path class="st12" d="M1937.3,0h-864.9l-302,302c-91.1,91.1-91.1,238.7,0,329.7l658.1,658.1c91.1,91.1,238.7,91.1,329.7,0
							l179-179V0z"/>
						<linearGradient id="SVGID_14_" gradientUnits="userSpaceOnUse" x1="1302.5853" y1="1395.5872" x2="1302.5853" y2="-7.8296">
							<stop  offset="0" style="stop-color:#757B80"/>
							<stop  offset="1" style="stop-color:#FFFFFF"/>
						</linearGradient>
						<path class="st13" d="M1039-6.3L737.3,295.4c-94.7,94.7-94.7,248.3,0,343l684.6,684.6c94.7,94.7,248.3,94.7,343,0l174-174
							V-6.3H1039z"/>
					</g>
				</g>
			</g>
		</g>
	</g>
</g>
</svg>
