<svg xmlns="http://www.w3.org/2000/svg" viewBox="0 0 1996.16 243.22"><defs><style>.cls-1,.cls-2{fill:none;stroke:#000;opacity:0.1;}.cls-1{stroke-linecap:square;stroke-linejoin:round;stroke-width:28.52px;}.cls-2{stroke-linecap:round;stroke-miterlimit:10;stroke-width:30.09px;}.cls-3{fill:#ff931e;}</style></defs><g id="Layer_2" data-name="Layer 2"><g id="Layer_1-2" data-name="Layer 1"><polyline class="cls-1" points="1729.62 30.8 998.08 190.43 266.54 30.8"/><polyline class="cls-2" points="1981.11 15.05 998.08 227.82 15.05 15.05"/><path class="cls-3" d="M1981.11,5.55c-20.31,4.91-40.66,9.59-61,14.39L1859.05,34Q1798,48,1736.79,61.47q-122.34,27.12-244.9,53.06l-61.29,13-61.31,12.8c-40.87,8.58-81.78,16.93-122.68,25.35l-61.38,12.5-61.39,12.44L1001,215.14a15.3,15.3,0,0,1-5.84,0L872.31,190.61,749.55,165.67c-40.9-8.43-81.82-16.76-122.69-25.34l-61.31-12.8-61.29-13q-122.53-26-244.89-53.06Q198.21,47.91,137.11,34L76,20l-30.5-7.17L30.29,9.2,15.05,5.55,30.53,8,46,10.48l30.94,5,61.81,10.3Q200.54,36.17,262.24,47,385.67,68.59,508.86,91.36l61.6,11.39L632,114.31c41.05,7.65,82.05,15.56,123.08,23.36l123,23.78L1001,185.63h-5.84l122.91-24.16,61.5-11.91,61.5-11.85c41-7.82,82-15.7,123.08-23.36l61.56-11.55,61.59-11.4Q1610.53,68.74,1733.92,47q61.72-10.76,123.5-21.23l61.81-10.3C1939.86,12.19,1960.46,8.75,1981.11,5.55Z"/></g></g></svg>