<svg xmlns="http://www.w3.org/2000/svg" viewBox="0 0 1929.04 683.31"><defs><style>.cls-1{fill:#e1e1e1;}.cls-2{fill:#f0f0f0;}.cls-3{fill:#407bff;}.cls-4{fill:#2a4e96;}.cls-5{fill:#015ba0;}.cls-6{fill:#315cb0;}.cls-7{fill:#1b88c1;}.cls-8{opacity:0.3;}.cls-16,.cls-9{fill:#fff;}.cls-9{opacity:0.5;}.cls-10{fill:#e4897b;}.cls-11{fill:#1a2e35;}.cls-12{fill:#de5753;}.cls-13{opacity:0.6;}.cls-14{fill:#ce6f64;}.cls-15{opacity:0.1;}.cls-16{opacity:0.4;}.cls-17{fill:#263252;}</style></defs><g id="Layer_2" data-name="Layer 2"><g id="Layer_1-2" data-name="Layer 1"><rect class="cls-1" x="987.67" y="616.5" width="941.38" height="0.47"/><rect class="cls-1" x="1633.95" y="636.44" width="64.77" height="0.47"/><rect class="cls-1" x="1160.28" y="636.68" width="36.45" height="0.47"/><rect class="cls-1" x="1386.36" y="635.57" width="73.88" height="0.47"/><rect class="cls-1" x="1351.45" y="628.88" width="33.03" height="0.47"/><rect class="cls-1" x="1687.24" y="629.11" width="99.76" height="0.47"/><path class="cls-1" d="M1433.9,532.53H1070.35a10.76,10.76,0,0,1-10.75-10.74v-511A10.76,10.76,0,0,1,1070.35,0H1433.9a10.76,10.76,0,0,1,10.75,10.75v511A10.76,10.76,0,0,1,1433.9,532.53ZM1070.35.47a10.29,10.29,0,0,0-10.28,10.28v511a10.29,10.29,0,0,0,10.28,10.27H1433.9a10.29,10.29,0,0,0,10.28-10.27v-511A10.29,10.29,0,0,0,1433.9.47Z"/><path class="cls-1" d="M1841.14,532.53H1477.58a10.75,10.75,0,0,1-10.74-10.74v-511A10.76,10.76,0,0,1,1477.58,0h363.56a10.77,10.77,0,0,1,10.75,10.75v511A10.76,10.76,0,0,1,1841.14,532.53ZM1477.58.47a10.29,10.29,0,0,0-10.27,10.28v511a10.29,10.29,0,0,0,10.27,10.27h363.56a10.29,10.29,0,0,0,10.28-10.27v-511A10.29,10.29,0,0,0,1841.14.47Z"/><path class="cls-1" d="M1814.79,380.83c-23.17-35.25-2-73.16-5.55-112.39s-40.79-47.78-33.74-81c8.17-38.55-13.6-75.56-38.28-75.56s-46.46,37-38.28,75.56c7,33.24-30.23,41.8-33.75,81s17.63,77.14-5.54,112.39-17.09,82-4,105.14a90.6,90.6,0,0,0,12.45,17c37,40.13,101.24,40.13,138.29,0a90.16,90.16,0,0,0,12.45-17C1831.87,462.8,1838,416.09,1814.79,380.83Z"/><path class="cls-2" d="M1737.22,407.6h0a11.71,11.71,0,0,1,11.71,11.71V616.5a0,0,0,0,1,0,0h-23.42a0,0,0,0,1,0,0V419.31a11.71,11.71,0,0,1,11.71-11.71Z"/><path class="cls-1" d="M1590,616.5h-31.89V419.33A16,16,0,0,1,1574,403.38h0a16,16,0,0,1,16,15.95Z"/><circle class="cls-2" cx="1574.03" cy="465.09" r="98.22"/><circle class="cls-2" cx="1651.88" cy="426.3" r="38.71" transform="translate(839.91 1926.68) rotate(-76.05)"/><circle class="cls-2" cx="1494.6" cy="403.38" r="22.92" transform="translate(856.15 1813.68) rotate(-80.75)"/><circle class="cls-2" cx="1519.51" cy="391.52" r="16.09"/><path class="cls-1" d="M1371.69,498.82a106.33,106.33,0,0,0-42.77,16.32c-.11-14.91-2.84-29.06-9.85-40.49-10.66,10.39-19.29,23.83-26.27,38.28-2.61-27.17-9.75-53.5-25.55-70.14-23.66,14.89-35.87,39.71-41.67,66-9.43-16.84-22.44-32.39-40.41-43.69-14.48,15.25-19.1,36.35-18.72,57.95-16.45-19.16-34.72-34.11-52.53-35.87-4.39,30.34,4.95,58.95,16.82,81.5,15.56,29.58,46.53,47.83,80,47.83h77.35c33,0,63.88-17.59,79.35-46.7C1377.2,551.36,1381.86,527.61,1371.69,498.82Z"/><path class="cls-2" d="M1349.64,107.67c9.56-28,2-47.93-21.4-47.93-14.65,0-32.82,7.84-50.52,20.61-2-7.28-7.63-11.64-16.68-11.64-15.94,0-37.91,13.48-55.15,32.51-4.17-4.24-10.21-6.84-18-7.26-15.26-.86-33.73,6.89-49.8,19.49-1.39-2.11-3.77-3.43-7.07-3.63-8.79-.49-20.69,7.34-26.6,17.46-.37.64-.69,1.25-1,1.86h250.84C1355,120.32,1353.47,112.94,1349.64,107.67Z"/><path class="cls-2" d="M1350.41,277.67c4.67-13.68,1-23.42-10.45-23.42-7.16,0-16,3.84-24.68,10.08-1-3.56-3.72-5.69-8.15-5.69-7.78,0-18.51,6.58-26.93,15.88a12.94,12.94,0,0,0-8.78-3.55c-7.45-.42-16.47,3.37-24.32,9.52a4.23,4.23,0,0,0-3.45-1.77c-4.3-.24-10.11,3.58-13,8.53-.18.31-.34.61-.5.91h122.53C1353.05,283.85,1352.28,280.24,1350.41,277.67Z"/><path class="cls-2" d="M1633,174.23a19.9,19.9,0,0,0-2.9-.21c.9-13.66-4.33-22.38-15.48-22.38-8.05,0-17.92,4.55-28,12.26,2.88-26.52-6.35-43.75-27.23-43.75-16.85,0-38.18,11.21-59.24,29.49-1.85-10.4-8.06-16.64-18.49-16.64-18.32,0-44.35,19.27-65.23,46.45,0,0,0,0,0,0-4.51-6.06-11.28-9.81-20.19-10.4-17.45-1.23-39.11,9.84-58.32,27.88a8.89,8.89,0,0,0-7.92-5.18c-9.54-.67-22.69,9.28-30.33,22.59h348.71C1656.55,194.16,1650,176.51,1633,174.23Z"/><polygon class="cls-3" points="1079.65 180.01 1508.86 241.79 1566.47 299.92 1079.65 180.01"/><polygon class="cls-4" points="1079.65 180.01 1508.86 241.79 1566.47 299.92 1079.65 180.01"/><polygon class="cls-3" points="1079.65 180.01 1508.86 241.79 1488.95 325.85 1079.65 180.01"/><polygon class="cls-5" points="1079.65 180.01 1508.86 241.79 1488.95 325.85 1079.65 180.01"/><path class="cls-3" d="M1480.13,82.7l24.92,116.78a11.79,11.79,0,0,1-9,14l-222.32,47.44a11.79,11.79,0,0,1-14-9l-24.92-116.78a11.77,11.77,0,0,1,9-14l222.32-47.44a11.78,11.78,0,0,1,14,9Z"/><path class="cls-4" d="M1480.13,82.7l24.92,116.78a11.79,11.79,0,0,1-9,14l-222.32,47.44a11.79,11.79,0,0,1-14-9l-24.92-116.78a11.77,11.77,0,0,1,9-14l222.32-47.44a11.78,11.78,0,0,1,14,9Z"/><path class="cls-6" d="M1474.67,75.07l-74.29,91.18a47.88,47.88,0,0,1-58.65,12.52l-105-52.92a11.82,11.82,0,0,1,7.17-4.76l222.32-47.44A11.78,11.78,0,0,1,1474.67,75.07Z"/><polygon class="cls-3" points="1079.65 180.01 1433.67 264.14 1488.95 325.85 1079.65 180.01"/><polygon class="cls-4" points="1079.65 180.01 1433.67 264.14 1488.95 325.85 1079.65 180.01"/><rect class="cls-5" x="1227.07" y="250.64" width="1.88" height="45.65" transform="translate(371.34 1194.82) rotate(-59.64)"/><rect class="cls-5" x="1271.25" y="291.14" width="1.88" height="16.42" transform="translate(370.83 1245.72) rotate(-59.64)"/><polygon class="cls-7" points="1079.65 180.01 1433.67 264.14 1364.86 347.09 1079.65 180.01"/><path class="cls-3" d="M1553.17,377.13a3.8,3.8,0,0,1-1.39-.26L1494.11,354a3.76,3.76,0,1,1,2.77-7l57.68,22.83a3.77,3.77,0,0,1-1.39,7.27Z"/><path class="cls-8" d="M1553.17,377.13a3.8,3.8,0,0,1-1.39-.26L1494.11,354a3.76,3.76,0,1,1,2.77-7l57.68,22.83a3.77,3.77,0,0,1-1.39,7.27Z"/><path class="cls-3" d="M1549.77,344.06a3.72,3.72,0,0,1-1.38-.27l-31-12.26a3.76,3.76,0,0,1,2.77-7l31,12.26a3.77,3.77,0,0,1-1.39,7.27Z"/><path class="cls-9" d="M1549.77,344.06a3.72,3.72,0,0,1-1.38-.27l-31-12.26a3.76,3.76,0,0,1,2.77-7l31,12.26a3.77,3.77,0,0,1-1.39,7.27Z"/><path class="cls-3" d="M1485,376.56a3.8,3.8,0,0,1-1.39-.26L1427.4,354a3.76,3.76,0,1,1,2.77-7l56.23,22.26a3.77,3.77,0,0,1-1.38,7.27Z"/><path class="cls-8" d="M1485,376.56a3.8,3.8,0,0,1-1.39-.26L1427.4,354a3.76,3.76,0,1,1,2.77-7l56.23,22.26a3.77,3.77,0,0,1-1.38,7.27Z"/><path class="cls-10" d="M1688.62,206.86c5,9.74,9.56,19.48,13.91,29.47s8.41,20.08,11.93,30.67l1.29,4c.21.71.55,1.88.72,2.71s.37,1.77.47,2.57a66.33,66.33,0,0,1,.64,9.16,160.08,160.08,0,0,1-.78,16.85,269.35,269.35,0,0,1-5.13,32.42l-10.32-1.14c-.13-10.61-.23-21.32-.6-31.76-.19-5.22-.48-10.42-1-15.32a61.65,61.65,0,0,0-1.12-6.83c-.11-.53-.25-.93-.37-1.37s-.21-.57-.42-1.13l-1.42-3.56c-3.93-9.53-8.36-19.14-12.87-28.7l-13.67-28.68Z"/><path class="cls-10" d="M1701.5,330.36l-4.82,9,15.39,4.29s2.94-7.25-.56-13Z"/><polygon class="cls-10" points="1690.78 352.37 1704.93 353.49 1712.07 343.67 1696.68 339.38 1690.78 352.37"/><path class="cls-11" d="M1623.8,141.79c-.22,1.1-1,1.87-1.7,1.72s-1.11-1.15-.89-2.24,1-1.86,1.7-1.72S1624,140.7,1623.8,141.79Z"/><path class="cls-12" d="M1622.92,143.68s-3.77,5.8-7.13,8.28c1.57,2.2,5,2,5,2Z"/><path class="cls-11" d="M1629,136.54a.66.66,0,0,1-.48-.21,5.19,5.19,0,0,0-4.39-1.77.65.65,0,0,1-.22-1.29,6.5,6.5,0,0,1,5.58,2.17.66.66,0,0,1-.49,1.1Z"/><path class="cls-10" d="M1654.94,157.17c-2,10.12-4,28.66,3.12,35.41,0,0-2.77,10.27-21.57,10.27-20.67,0-9.88-10.27-9.88-10.27,11.28-2.69,11-11.06,9-18.93Z"/><path class="cls-11" d="M1660.9,199c1.49-5,3.13-10.63-.27-12.41-3.74-1.95-24.21-3.95-31.27-.28S1624.3,200,1624.3,200Z"/><path class="cls-3" d="M1704.32,668.51c-1.41,0-2.78-.22-3.32-.92a1.34,1.34,0,0,1,0-1.55,1.54,1.54,0,0,1,1-.77c2-.46,5.84,2.15,6,2.26a.33.33,0,0,1,.14.33.34.34,0,0,1-.25.25A16.73,16.73,0,0,1,1704.32,668.51Zm-1.73-2.64a1.75,1.75,0,0,0-.4,0,.87.87,0,0,0-.6.44c-.3.54-.12.77-.07.84.59.78,3.42.79,5.49.44C1705.81,666.9,1703.85,665.87,1702.59,665.87Z"/><path class="cls-3" d="M1707.86,668.12a.29.29,0,0,1-.16,0c-1.43-.77-4.2-3.8-3.91-5.34a1.07,1.07,0,0,1,1-.86,1.78,1.78,0,0,1,1.39.42c1.61,1.31,1.94,5.3,2,5.47a.32.32,0,0,1-.14.3A.31.31,0,0,1,1707.86,668.12Zm-2.8-5.6h-.14c-.43.05-.47.24-.48.33-.17.91,1.59,3.2,3,4.28-.16-1.17-.6-3.49-1.63-4.34A1.19,1.19,0,0,0,1705.06,662.52Z"/><path class="cls-3" d="M1621.27,668.51c-1.78,0-3.49-.25-4.06-1a1.23,1.23,0,0,1,0-1.44,1.61,1.61,0,0,1,1-.76c2.29-.62,7.14,2.13,7.34,2.24a.33.33,0,0,1-.1.61A24.81,24.81,0,0,1,1621.27,668.51Zm-2.19-2.69a2.55,2.55,0,0,0-.64.08,1,1,0,0,0-.64.46c-.23.4-.15.61-.06.72.62.87,4.11.91,6.71.55C1623.16,667,1620.69,665.82,1619.08,665.82Z"/><path class="cls-3" d="M1625.45,668.12l-.14,0c-1.66-.75-5-3.74-4.72-5.31.06-.37.32-.82,1.22-.91a2.4,2.4,0,0,1,1.82.56c1.76,1.44,2.13,5.17,2.14,5.32a.34.34,0,0,1-.13.3A.33.33,0,0,1,1625.45,668.12Zm-3.38-5.6h-.19c-.59.06-.63.29-.64.37-.15.94,2.09,3.29,3.8,4.31-.18-1.09-.68-3.32-1.83-4.27A1.77,1.77,0,0,0,1622.07,662.52Z"/><polygon class="cls-10" points="1640.66 667.8 1626.83 667.8 1625.45 635.77 1639.28 635.77 1640.66 667.8"/><polygon class="cls-10" points="1723.7 667.8 1709.87 667.8 1702.92 635.77 1716.75 635.77 1723.7 667.8"/><path class="cls-11" d="M1708.89,666.2h15.54a1.2,1.2,0,0,1,1.17.94l2.74,12.29a2,2,0,0,1-2,2.46c-5.42-.09-8.06-.41-14.89-.41-4.21,0-12.87.44-18.67.44s-6.57-5.74-4.19-6.26c10.66-2.33,14.67-5.55,18.08-8.61A3.34,3.34,0,0,1,1708.89,666.2Z"/><path class="cls-11" d="M1626.92,666.2H1642a1.2,1.2,0,0,1,1.18.94l2.73,12.29a2,2,0,0,1-2,2.46c-5.45-.09-13.32-.41-20.17-.41-8,0-14.92.44-24.31.44-5.68,0-7.26-5.74-4.88-6.26,10.82-2.37,19.65-2.62,29-8.39A6.47,6.47,0,0,1,1626.92,666.2Z"/><path class="cls-10" d="M1620.24,216.88a321.79,321.79,0,0,1-34.47-4.59c-5.71-1.09-11.43-2.32-17.14-3.86a133.71,133.71,0,0,1-17.25-5.69c-1.45-.59-2.91-1.26-4.37-2a39.09,39.09,0,0,1-4.7-2.74c-2.72-1.79-5-3.64-7.37-5.49-4.6-3.69-8.89-7.52-13.12-11.4-8.42-7.78-16.4-15.84-24.1-24.32l6.93-7.74L1532,168.72c4.51,3.25,9.06,6.43,13.53,9.42,2.23,1.48,4.52,2.89,6.59,4.06a22.62,22.62,0,0,0,2.71,1.33c1.12.44,2.25.87,3.44,1.27,9.57,3.19,20.38,5.24,31.12,7s21.86,3.1,32.59,4.21Z"/><path class="cls-3" d="M1682.82,195.71c13,3,26.07,40.87,26.07,40.87l-26.68,19.14s-7.46-17.65-14.79-33.09C1659.74,206.46,1669.57,192.67,1682.82,195.71Z"/><path class="cls-4" d="M1682.82,195.71c13,3,26.07,40.87,26.07,40.87l-26.68,19.14s-7.46-17.65-14.79-33.09C1659.74,206.46,1669.57,192.67,1682.82,195.71Z"/><path class="cls-3" d="M1675.34,216.42l-5.29,11.84c5.48,11.82,10.49,23.53,11.83,26.66C1681.69,240.93,1679,223.57,1675.34,216.42Z"/><path class="cls-13" d="M1675.34,216.42l-5.29,11.84c5.48,11.82,10.49,23.53,11.83,26.66C1681.69,240.93,1679,223.57,1675.34,216.42Z"/><path class="cls-3" d="M1605.34,196.42s-14.73,16.63-.82,119.55h74c.51-11.35-6.63-66.75,4.32-120.26a192.18,192.18,0,0,0-24.76-3.13c-9.45-.45-23.14-.76-31.45,0A138.53,138.53,0,0,0,1605.34,196.42Z"/><path class="cls-4" d="M1605.34,196.42s-14.73,16.63-.82,119.55h74c.51-11.35-6.63-66.75,4.32-120.26a192.18,192.18,0,0,0-24.76-3.13c-9.45-.45-23.14-.76-31.45,0A138.53,138.53,0,0,0,1605.34,196.42Z"/><path class="cls-3" d="M1599.86,216.42c-.49,3.9-.86,8.51-1.11,14a77.14,77.14,0,0,0,20.6-9.68Z"/><path class="cls-13" d="M1599.86,216.42c-.49,3.9-.86,8.51-1.11,14a77.14,77.14,0,0,0,20.6-9.68Z"/><path class="cls-3" d="M1631.51,218.44c-9.9,8.77-47.71,7.89-47.71,7.89l-1.25-36.55s21.44,3.14,38.54,2.79C1642.22,192.14,1642.37,208.81,1631.51,218.44Z"/><path class="cls-4" d="M1631.51,218.44c-9.9,8.77-47.71,7.89-47.71,7.89l-1.25-36.55s21.44,3.14,38.54,2.79C1642.22,192.14,1642.37,208.81,1631.51,218.44Z"/><path class="cls-10" d="M1505,149.28l-9.5-11.09-10.13,11.23s6.24,10.49,16.18,8.84Z"/><polygon class="cls-10" points="1482.09 125.26 1478.44 139.73 1485.36 149.42 1495.49 138.19 1482.09 125.26"/><polygon class="cls-14" points="1625.45 635.77 1626.16 652.29 1640 652.29 1639.29 635.77 1625.45 635.77"/><polygon class="cls-14" points="1716.76 635.77 1702.92 635.77 1706.51 652.29 1720.35 652.29 1716.76 635.77"/><path class="cls-11" d="M1633.78,128.05c-12.41-5.74-16.33-30.76,19.36-24.57,0,0-5.38,6,5.55,9.73S1660.47,140.38,1633.78,128.05Z"/><path class="cls-10" d="M1660.73,146.89c-3.55,13.26-5,21.2-13.14,26.71-12.3,8.29-27.63-1.22-28.11-15.28-.43-12.65,5.45-32.2,19.68-34.88A18.72,18.72,0,0,1,1660.73,146.89Z"/><path class="cls-11" d="M1652.66,110.22c8.44,4.73,19.89,7.54,18.74,14.24-1.41,8.19,6.93,3.06,5,15.26-1.26,8-16,32.1-26.29,30.92-15.55-1.77-13.58-25.51-13.63-38C1636.43,125.29,1636.09,101,1652.66,110.22Z"/><path class="cls-11" d="M1634.6,120.79c-3.77.89-8.76,22.6,5.83,24.59C1657.22,147.66,1634.6,120.79,1634.6,120.79Z"/><path class="cls-11" d="M1635,128.5c-4.61.41-15-5.15-13.78-13.5C1621.2,115,1627.83,124.77,1635,128.5Z"/><path class="cls-10" d="M1641.82,147.11a15.54,15.54,0,0,1-6.82,7.26c-4,2.07-6.22-1-5.32-4.94.81-3.58,3.86-9,8-9.42S1643.47,143.34,1641.82,147.11Z"/><path class="cls-11" d="M1662.53,131.79c2.8-1.43,9.16-4.65,10.89-13.79C1673.42,118,1679.64,135.35,1662.53,131.79Z"/><path class="cls-11" d="M1678.25,131.6a9.54,9.54,0,0,0-9-.88S1675,123.19,1678.25,131.6Z"/><path class="cls-3" d="M1630.76,316s15.7,105.7,24.31,145.3c9.44,43.37,45,187.82,45,187.82h25.33s-23.44-141-28.82-183.89C1690.72,418.61,1678.5,316,1678.5,316Z"/><path class="cls-9" d="M1630.76,316s15.7,105.7,24.31,145.3c9.44,43.37,45,187.82,45,187.82h25.33s-23.44-141-28.82-183.89C1690.72,418.61,1678.5,316,1678.5,316Z"/><path class="cls-3" d="M1696,639.76c-.11,0,2.61,9.72,2.61,9.72h28.5l-.52-8.68Z"/><path class="cls-15" d="M1696,639.76c-.11,0,2.61,9.72,2.61,9.72h28.5l-.52-8.68Z"/><path class="cls-3" d="M1640.68,353.63c18.15,3.56,16.23,71.25,14,106.06-5.23-24.61-12.89-72-18.13-105.57A6.24,6.24,0,0,1,1640.68,353.63Z"/><path class="cls-16" d="M1640.68,353.63c18.15,3.56,16.23,71.25,14,106.06-5.23-24.61-12.89-72-18.13-105.57A6.24,6.24,0,0,1,1640.68,353.63Z"/><path class="cls-3" d="M1604.52,316s-1.91,103.42-.4,145.59c1.56,43.88,16.88,187.53,16.88,187.53h23.44s.86-141.09,1.9-184.18c1.13-47,6.81-148.94,6.81-148.94Z"/><path class="cls-9" d="M1604.52,316s-1.91,103.42-.4,145.59c1.56,43.88,16.88,187.53,16.88,187.53h23.44s.86-141.09,1.9-184.18c1.13-47,6.81-148.94,6.81-148.94Z"/><path class="cls-3" d="M1625.89,632.26a.24.24,0,0,1-.24-.21c-4.13-39.76-13.87-136-15.1-170.48-1.25-35.22-.11-114.26.27-137.65a.23.23,0,0,1,.23-.23h0a.24.24,0,0,1,.24.24c-.38,23.38-1.52,102.41-.27,137.63,1.23,34.5,11,130.68,15.1,170.44a.24.24,0,0,1-.21.26Z"/><path class="cls-16" d="M1625.89,632.26a.24.24,0,0,1-.24-.21c-4.13-39.76-13.87-136-15.1-170.48-1.25-35.22-.11-114.26.27-137.65a.23.23,0,0,1,.23-.23h0a.24.24,0,0,1,.24.24c-.38,23.38-1.52,102.41-.27,137.63,1.23,34.5,11,130.68,15.1,170.44a.24.24,0,0,1-.21.26Z"/><path class="cls-3" d="M1616.5,639.76c-.11,0,1.32,9.72,1.32,9.72h28.5l.77-8.68Z"/><path class="cls-15" d="M1616.5,639.76c-.11,0,1.32,9.72,1.32,9.72h28.5l.77-8.68Z"/><path class="cls-17" d="M1831.87,683.31H1a1,1,0,0,1-1-1v-.82a1,1,0,0,1,1-1H1831.87c.54,0,0,.44,0,1v.82C1831.87,682.87,1832.41,683.31,1831.87,683.31Z"/></g></g></svg>