<svg xmlns="http://www.w3.org/2000/svg" xmlns:xlink="http://www.w3.org/1999/xlink" viewBox="0 0 1656.57 597.19"><defs><style>.cls-1{isolation:isolate;}.cls-2{fill:url(#Безымянный_градиент_13);}.cls-3,.cls-4{opacity:0.25;mix-blend-mode:hard-light;}.cls-3{fill:url(#Безымянный_градиент_13-2);}.cls-4{fill:url(#Безымянный_градиент_13-3);}.cls-5{fill:#a8d29f;}.cls-6{fill:#afcdfb;}.cls-7{fill:#599dad;}.cls-8{fill:#6bb7bf;}.cls-9{fill:#86d1cd;}.cls-10{fill:#efcbab;}.cls-11{fill:#ffebdc;}.cls-12{fill:#efcdaf;}.cls-13{fill:#9abcef;}.cls-14{fill:#e9f3fe;}.cls-15{fill:#d8e8fd;}.cls-16{fill:#bbd5fc;}.cls-17{fill:#d2e4fd;}.cls-18{fill:#c65447;}.cls-19{fill:#ffb27d;}.cls-20{fill:#e58638;}.cls-21{fill:#233862;}.cls-22{fill:#2b478b;}.cls-23{fill:#ee9849;}.cls-24{fill:#ed985f;}.cls-25{fill:#2c3a64;}.cls-26{fill:#1c468a;}</style><linearGradient id="Безымянный_градиент_13" x1="1103.83" y1="87.46" x2="1526.11" y2="509.74" gradientUnits="userSpaceOnUse"><stop offset="0" stop-color="#636284"/><stop offset="1" stop-color="#100f2e"/></linearGradient><linearGradient id="Безымянный_градиент_13-2" x1="1024.55" y1="180.33" x2="1533.18" y2="180.33" xlink:href="#Безымянный_градиент_13"/><linearGradient id="Безымянный_градиент_13-3" x1="1611.12" y1="344.74" x2="1076.89" y2="344.74" xlink:href="#Безымянный_градиент_13"/></defs><g class="cls-1"><g id="Layer_2" data-name="Layer 2"><g id="Layer_1-2" data-name="Layer 1"><circle class="cls-2" cx="1314.97" cy="298.6" r="298.6"/><path class="cls-3" d="M1533.18,94.79A185.92,185.92,0,0,1,1508.06,124C1459,170.34,1396.68,188,1355.54,208.84c-48.2,24.48-67,41.11-103.3,95-46.54,69.1-104.58,62.55-143.58,45.41-31.23-13.72-58.75-51.58-84.11-120.36C1055.93,97.62,1174.05,0,1315,0A297.76,297.76,0,0,1,1533.18,94.79Z"/><path class="cls-4" d="M1611.12,337C1592.28,483.75,1466.87,597.19,1315,597.19a298.12,298.12,0,0,1-238.08-118.38c11.09-2.71,21.89-5,32.13-7.09,67.4-13.59,128.19-44.37,126.34-190.72s127.2-208.12,207.89-183.42c101.84,31.19,82.51,126,112.31,176A224.79,224.79,0,0,0,1611.12,337Z"/><path class="cls-5" d="M1103,493.66s2.08-13.67,28.71-17.35,51.39-33.18,95.3-28.9,80.35,31.15,130.34,22.92,81.28,2.26,92.49,10.53,57.62-1.94,61,13.22Z"/><path class="cls-6" d="M1212.43,167.83s-30-1.47-14.11,90.12c0,0,10.73,31.1-2.81,51.14h199.31V167.83Z"/><path class="cls-7" d="M1232.9,406s-13.92-16.25-.85-26.57c0,0,9.54-5.77,17.32-5.31,0,0-11,18.49-7.46,20.33s10.8-21.49,10.8-21.49,21.72-2.1,28.71,1.26c0,0-18.57,15.19-14.66,16.1s24-14,24-14,20.22,3.44,19.14,15.77-8,16.14-11.1,15.81-21-7.17-21.36-4.66,10.39,10.71,17.94,11.09c0,0-14.26,15.72-23.73,11.18s-10.28-11.72-16.18-14.42-10.94-2.69-8.51.06,13.13,5.42,16.5,11.4,6.41,10-3.39,8.52-25.73-8.64-26.43-16.85Z"/><path class="cls-7" d="M1299.93,392.38s-54.9-2.12-67,13.59A39.68,39.68,0,0,1,1222,421.31l-1.28,3.5s9.51-10,12.91-10.63C1233.6,414.18,1228.28,394.72,1299.93,392.38Z"/><path class="cls-7" d="M1222,421.31s-11.78,8.71-12.6,24.29l2.14.19s3.76-16.1,10.56-22.4S1222,421.31,1222,421.31Z"/><path class="cls-8" d="M1184.22,385.54s22.15-12.41,11.81-29.24c0,0-8.27-10.34-17.13-13,0,0,4.73,25.11,0,25.7s-3.24-28.35-3.24-28.35-23.33-11.23-32.49-10.34c0,0,14.47,24.51,9.75,23.92s-21-25.4-21-25.4-23.92-4.43-27.76,9.75,2.36,21.26,5.9,22.15,26.29.59,25.7,3.54-16,7.68-24.52,5c0,0,9.46,23.33,21.86,22.15s16.24-8.86,23.92-9.45,13.29,1.48,9.45,3.55-16.83.67-23,5.95-11.23,8.52.29,10.88,32.19.89,36.33-8Z"/><path class="cls-8" d="M1115.11,343s62,20.08,69.11,42.53c0,0-.29,10,5.91,21.56v4.43s-6.5-15.07-10-17.13C1180.09,394.4,1194,374.9,1115.11,343Z"/><path class="cls-8" d="M1190.13,407.1s9.56,14.52,4.11,32.2l-2.46-.66s2.39-19.47-2.62-29.27S1190.13,407.1,1190.13,407.1Z"/><path class="cls-9" d="M1219.46,368.43s-29.2-16.35-15.57-38.54c0,0,10.9-13.63,22.58-17.13,0,0-6.23,33.09,0,33.87s4.28-37.37,4.28-37.37,30.75-14.8,42.82-13.63c0,0-19.07,32.31-12.85,31.53s27.64-33.47,27.64-33.47,31.54-5.84,36.6,12.84-3.12,28-7.79,29.2-34.64.78-33.87,4.67,21,10.12,32.32,6.62c0,0-12.46,30.75-28.81,29.2s-21.41-11.68-31.54-12.46-17.51,1.95-12.45,4.67,22.19.89,30.36,7.84,14.8,11.24-.39,14.35-42.43,1.17-47.88-10.51Z"/><path class="cls-8" d="M1310.55,312.37s-81.75,26.47-91.09,56.06c0,0,.39,13.24-7.79,28.42v5.84s8.57-19.86,13.24-22.58C1224.91,380.11,1206.61,354.42,1310.55,312.37Z"/><path class="cls-8" d="M1211.67,396.85s-12.6,19.14-5.42,42.45l3.25-.87s-3.15-25.67,3.44-38.58S1211.67,396.85,1211.67,396.85Z"/><path class="cls-10" d="M1218.47,489.84a57.2,57.2,0,0,0,57.2-57.2H1161.28A57.2,57.2,0,0,0,1218.47,489.84Z"/><path class="cls-11" d="M1232.55,489.4a57.22,57.22,0,0,1-64.3-56.76h14.21A57.2,57.2,0,0,0,1232.55,489.4Z"/><path class="cls-10" d="M1276.46,492.75h-116a7.06,7.06,0,0,1,7.06-7.06H1269.4a7.06,7.06,0,0,1,7.06,7.06Z"/><rect class="cls-12" x="1159.4" y="432.64" width="117.57" height="1.75"/><path class="cls-7" d="M1425.43,215.18s-10-18.9,5-26.1c0,0,10.58-3.54,18.07-1.38,0,0-14.81,15.62-11.74,18.2S1452,187.31,1452,187.31s21.65,2.71,27.73,7.52c0,0-21.45,10.75-17.84,12.49s26.46-8.41,26.46-8.41,19,7.79,15.21,19.59-11.39,14-14.31,13-18.88-11.59-19.81-9.23,7.78,12.73,15.06,14.76c0,0-17.35,12.2-25.59,5.7s-7.46-13.7-12.63-17.62-10.08-5-8.31-1.81,11.61,8.17,13.6,14.74,4.05,11.16-5.19,7.57-23.2-14.08-22.08-22.24Z"/><path class="cls-7" d="M1493.8,216.64s-53.09-14.11-68.37-1.46a39.69,39.69,0,0,1-14,12.57l-2,3.14s11.49-7.7,14.94-7.54C1424.31,223.35,1423.39,203.2,1493.8,216.64Z"/><path class="cls-7" d="M1411.4,227.75s-13.41,5.92-17.63,20.93l2,.66s7.2-14.89,15.22-19.54S1411.4,227.75,1411.4,227.75Z"/><path class="cls-9" d="M1359.46,181.09s-29.67-15.48-16.71-38.06c0,0,10.49-13.95,22.06-17.8,0,0-5.24,33.26,1,33.86S1369,121.6,1369,121.6s30.3-15.7,42.39-14.89c0,0-18.1,32.86-11.9,31.9s26.63-34.29,26.63-34.29,31.35-6.77,37,11.75-2.28,28.11-6.91,29.42-34.61,1.81-33.72,5.68,21.32,9.49,32.5,5.65c0,0-11.54,31.11-27.93,30s-21.75-11-31.89-11.51-17.45,2.47-12.31,5,22.21.23,30.59,6.94,15.12,10.78,0,14.35-42.38,2.43-48.17-9.08Z"/><path class="cls-8" d="M1448.85,122.34s-80.93,28.89-89.39,58.75c0,0,.79,13.21-6.93,28.63l.17,5.84s8-20.1,12.56-23C1365.26,192.6,1346.2,167.46,1448.85,122.34Z"/><path class="cls-8" d="M1352.53,209.72s-12,19.52-4.16,42.6l3.22-1s-3.91-25.57,2.3-38.67S1352.53,209.72,1352.53,209.72Z"/><rect class="cls-13" x="1225.07" y="222.04" width="208.08" height="271.37"/><rect class="cls-14" x="1231.87" y="222.04" width="204.59" height="271.37"/><path class="cls-5" d="M1580.72,492.75h-41.23c-2.21-1.87,1.53-6.13,5.44-6.42a24.39,24.39,0,0,1,6.29.75c.57-7.54,3.81-41.41,16-40.05,13.72,1.52,0,14.92-3.89,22.85a190,190,0,0,0-7.29,18.27c1.12.24,2.27.48,3.45.69,1.82-5.58,8.59-24.38,17.2-23.28,10.11,1.28,6,8.82-1.12,13.29-5.26,3.29-11.71,8-14.78,10.22a43.64,43.64,0,0,0,8.06.65C1575.93,489.55,1579.38,491.63,1580.72,492.75Z"/><path class="cls-14" d="M1436.46,222H1231.87c1.14-15.47-.57-26.7-3.3-34.78-5.25-15.53-14.29-19.43-14.29-19.43h192.94c16.47,0,29.24,9.92,32.72,23.09.13.49.25,1,.35,1.48C1443.59,207.47,1436.6,221.77,1436.46,222Z"/><path class="cls-15" d="M1436.46,222H1231.87c1.14-15.47-.57-26.7-3.3-34.78,20.91,3.83,72.69,12,128.12,10.61,35.85-.89,64.19-3.29,83.6-5.47C1443.59,207.47,1436.6,221.77,1436.46,222Z"/><path class="cls-16" d="M1381.9,284.62H1274.44a2.55,2.55,0,0,1-2.54-2.55h0a2.54,2.54,0,0,1,2.54-2.54H1381.9a2.54,2.54,0,0,1,2.54,2.54h0A2.55,2.55,0,0,1,1381.9,284.62Z"/><rect class="cls-16" x="1271.9" y="288.09" width="70.13" height="5.09" rx="2.06"/><path class="cls-16" d="M1261.45,292.36V282h-1.37c-.84,0-1.25-.34-1.25-1,0-.5.32-.85,1-1.06a7.51,7.51,0,0,1,1.59-.25c.72-.05,1.31-.08,1.75-.08s.7.09.81.26a3.07,3.07,0,0,1,.17,1.32v11.25h1.41c.92,0,1.38.39,1.38,1.18s-.46,1.25-1.38,1.25h-5.69a1.58,1.58,0,0,1-1-.32,1.11,1.11,0,0,1-.41-.91c0-.8.47-1.2,1.4-1.2Z"/><path class="cls-17" d="M1381.9,338.21H1274.44a2.54,2.54,0,0,1-2.54-2.54h0a2.54,2.54,0,0,1,2.54-2.54H1381.9a2.54,2.54,0,0,1,2.54,2.54h0A2.54,2.54,0,0,1,1381.9,338.21Z"/><rect class="cls-17" x="1271.9" y="341.69" width="70.13" height="5.09" rx="2.06"/><path class="cls-17" d="M1267.13,345.74c0,.69-.48,1-1.45,1h-6c-.87,0-1.3-.35-1.3-1a1.27,1.27,0,0,1,.35-.77q.51-.58,1.5-1.77,1.52-1.89,2.52-3.27c.23-.3.56-.77,1-1.39a3.36,3.36,0,0,0,.54-1.58,1.65,1.65,0,0,0-.46-1.19,1.6,1.6,0,0,0-1.18-.47,1.8,1.8,0,0,0-1.21.44,2,2,0,0,0-.55,1.11c-.18.69-.29,1.1-.33,1.21a1,1,0,0,1-.9.59,1,1,0,0,1-.87-.41,1.41,1.41,0,0,1-.29-.92,4.28,4.28,0,0,1,.2-1.3,3.89,3.89,0,0,1,1.56-2.17,4.5,4.5,0,0,1,2.59-.71,4,4,0,0,1,2.79,1,3.51,3.51,0,0,1,1.16,2.72,4.75,4.75,0,0,1-.82,2.54c-.31.48-.94,1.33-1.9,2.54-.49.63-1.26,1.53-2.31,2.72h4C1266.65,344.66,1267.13,345,1267.13,345.74Z"/><path class="cls-17" d="M1381.9,382.92H1274.44a2.54,2.54,0,0,1-2.54-2.54h0a2.55,2.55,0,0,1,2.54-2.55H1381.9a2.55,2.55,0,0,1,2.54,2.55h0A2.54,2.54,0,0,1,1381.9,382.92Z"/><rect class="cls-17" x="1271.9" y="386.4" width="70.13" height="5.09" rx="2.06"/><path class="cls-17" d="M1267.13,387.22a4,4,0,0,1-1.37,3.14,4.84,4.84,0,0,1-3.29,1.12,4.61,4.61,0,0,1-2.63-.73,3.35,3.35,0,0,1-1.73-2.8,1.16,1.16,0,0,1,.31-.8,1,1,0,0,1,.77-.34,1.19,1.19,0,0,1,.92.66c.46.72.73,1.12.8,1.2a2.1,2.1,0,0,0,1.6.65,2,2,0,0,0,1.88-1,2.68,2.68,0,0,0,.26-1.24c0-1.23-.72-1.91-2.16-2.05-.81-.07-1.22-.42-1.22-1a1,1,0,0,1,.71-1c.88-.32,1.33-.49,1.34-.51a1.8,1.8,0,0,0,.71-1.63,1.49,1.49,0,0,0-.41-1.1,1.51,1.51,0,0,0-1.11-.4,2,2,0,0,0-1.34.41,2.72,2.72,0,0,0-.7,1.22.85.85,0,0,1-.86.66.88.88,0,0,1-.74-.4,1.44,1.44,0,0,1-.29-.86,2.39,2.39,0,0,1,.32-1.16,3.59,3.59,0,0,1,1.62-1.53,4.82,4.82,0,0,1,2.18-.5,3.83,3.83,0,0,1,2.66,1,3.33,3.33,0,0,1,1.06,2.55,3.48,3.48,0,0,1-1.58,3A3.41,3.41,0,0,1,1267.13,387.22Z"/><rect class="cls-16" x="1300.09" y="234.16" width="71.79" height="5.91" rx="2.71"/><path class="cls-16" d="M1387,249.18H1284.94a3,3,0,0,1-3-3h0a3,3,0,0,1,3-3H1387a3,3,0,0,1,3,3h0A3,3,0,0,1,1387,249.18Z"/><path class="cls-18" d="M1328.06,312.06c-22.29,0-43.44-2.8-59.2-6.79-15.93-4-24.51-10.64-24.51-16.5,0-5.3,7-10.18,20.22-14.11h0c-12.68,3.76-19.46,9.29-19.46,14.11,0,5.36,8.79,10.65,24.11,14.54,15.71,4,36.61,6.18,58.84,6.18s43.12-2.2,58.83-6.18c15.33-3.89,24.12-9.18,24.12-14.54,0-5.67-9.26-12.71-24.15-18.38-16.94-6.45-37.82-8.85-58.8-8.85-39.38,0-55.59,4.6-69.66,10.36h0c14.13-5.79,30.14-12.34,69.66-12.34,21.06,0,42,3.57,59,10.05,15.21,5.79,24.66,13.13,24.66,19.16,0,5.86-8.77,11.31-24.7,15.34C1371.3,308.11,1350.35,312.06,1328.06,312.06Z"/><path class="cls-19" d="M1463.4,364.31s-.74,7.13-1.54,8.48-4.23,5.66-5.69,6.51.89-5.68.59-6.95-1.2,2.32-1.85,2.4-.47-3.15-.5-4.32,3.13-4.08,4.25-6.58S1463.4,364.31,1463.4,364.31Z"/><path class="cls-19" d="M1375.74,298.5l-1.64-3.09s.82-5.51-6.09-9c0,0-2.53-1-4,1-1.32,1.9,2.5,1.55,2.29,4.8a6,6,0,0,0,3.48,6.2l1.78,2.06Z"/><path class="cls-20" d="M1441,291.11s-5.94,29.11-38.58,38.63c-10.19,3-33.35-30.58-33.35-30.58s.82-3.1,5.92-2.39c0,0,22.54,14.93,25.38,16.55,2.52,1.44,19.08-18.49,26.63-21.71A19.28,19.28,0,0,1,1441,291.11Z"/><rect class="cls-18" x="1365.8" y="275.39" width="6.1" height="30.67" transform="translate(873.7 1599.58) rotate(-81.27)"/><polygon class="cls-19" points="1346.64 287.31 1353.23 291.41 1354.16 285.38 1346.64 287.31"/><path class="cls-19" d="M1387.69,292.58l-.29,1.9a2.15,2.15,0,0,1-2.45,1.8l-1.4-.22.92-6,1.53.23A2,2,0,0,1,1387.69,292.58Z"/><path class="cls-21" d="M1480,474.14s4,3.7,3.26,6.33-4.44,4.37-4.94,7.58-2.47,5-4.25,5h-8.47s-1.31-2.26,1.85-2.94,4.35-4.45,4.15-7.95a62.89,62.89,0,0,1,.3-8.17l6.72-1.56Z"/><path class="cls-21" d="M1430.31,483.7s.73,8.41-1,9.29l-22.75-.05s0-2.62,3.65-3.21,10.08-2.72,11.17-7.49S1430.31,483.7,1430.31,483.7Z"/><path class="cls-22" d="M1411.1,364.89s1.2,14.74,2.61,32.46c1.92,24.08,4.23,53.65,4.46,59.25.39,9.73,2,25.29,2,25.29s3.75,3.7,11.26,2.14a251.54,251.54,0,0,0,8.61-45.71c0-.39,0-.78.08-1.17,1.78-23.92,4.55-74.31,4.55-74.31Z"/><path class="cls-21" d="M1411.1,364.89s1.2,14.74,2.61,32.46l26.3,41c0-.39,0-.78.08-1.17,1.78-23.92,4.55-74.31,4.55-74.31Z"/><path class="cls-22" d="M1416.58,366.64s21.64,53.39,35.86,78.49,18.67,32.1,18.67,32.1,8.15-3.21,8.89-5.4c0,0-5.44-48.45-15-60.26-5.39-6.67-11.71-26.7-12-33.7s-1.92-20.86-1.92-20.86Z"/><path class="cls-19" d="M1445.05,284.35s-14.64,7.06-23.08,4.44a20,20,0,0,1,5.71-4.57c-.29-1.69-.52-3.16-.65-4.41a41.63,41.63,0,0,1-.35-4.51l5.64-4.44,5.36-4.25C1437.26,278.56,1445.05,284.35,1445.05,284.35Z"/><path class="cls-23" d="M1452.76,359.74c0,.9-1.88,1.92-2.73,2.3a59.7,59.7,0,0,1-18.72,5.31c-7.82.8-17.07-1-20.25-.9a1.29,1.29,0,0,1-.88-.35c-.23-.16-.39-9.58-.23-21.44,0-.48,0-1,0-1.44v-.16c.06-4.63.22-9.49.45-14.35.45-10.67,1.3-21,2.73-26.65a28.89,28.89,0,0,1,9.15-14.38l2.92-2.55a14.1,14.1,0,0,0,9.09-1.09c3.37-1.63,7-3.39,7.59-2.94,4.41,3.23,7.4,10.48,9,19.75a102.85,102.85,0,0,1,1.33,17.57c0,2.31-.06,4.67-.19,7a221.41,221.41,0,0,0,.45,30C1452.63,357.28,1452.73,358.72,1452.76,359.74Z"/><path class="cls-20" d="M1452.5,359.16c-51.25-.1-9.45-55.61-9.45-55.61l8.3-2.7a159.16,159.16,0,0,1,1,18.78c0,2.45,0,5-.14,7.47C1451.61,340.62,1452.17,352.37,1452.5,359.16Z"/><path class="cls-24" d="M1437.78,271.18s-3.7,6.75-10.75,8.63a41.63,41.63,0,0,1-.35-4.51l5.64-4.44Z"/><path class="cls-19" d="M1424.1,275.11s14,2.28,15.28-6.3,4-14.07-4.87-15.89-11.09,1.2-12.24,4S1420.5,274.29,1424.1,275.11Z"/><path class="cls-25" d="M1444.45,251.89c.13-.14.42-.26,1.07-.3a2.69,2.69,0,0,0-1.21-.34,3.27,3.27,0,0,0-2.18-2.89,1.93,1.93,0,0,1,.95,1.4c-1.81-1.85-5.67-3.2-16.37-2.35-14.1,1.11-9.46,10.14-7.63,11.22s6.42-1.88,9.82-1.61,4,5.19,5.2,5.86.71-.52,2.27-1.22,1.71,1.88,1.26,3.56,1.69,3.9,1.69,3.9l2.17-2.33c2.17-2.34,4.21-12.23,3.22-14.33C1444.63,252.27,1444.54,252.08,1444.45,251.89Z"/><path class="cls-23" d="M1441.91,281s8.84,4.18,13.07,10.61c6.57,10,14.19,46.34,14.33,49.7s-5.56,27.14-5.56,27.14-5.78-.38-7.27-3.3c0,0,1.16-24.42.42-26s-24.09-32.76-21.47-39.42S1441.91,281,1441.91,281Z"/><path class="cls-19" d="M1374.07,295.26s.48-1.9-.83-2.75-2.53-3.17-3.09-2.86c-1.15.65.63,2.68.31,5.2C1370.34,295.74,1372.4,298.05,1374.07,295.26Z"/><path class="cls-5" d="M1159.4,475s-20.75-53.14-35.3-44.68S1159.4,475,1159.4,475Z"/><path class="cls-5" d="M1149.14,475s-27.41-23.69-39.94-19.29S1149.14,475,1149.14,475Z"/><path class="cls-5" d="M1439.42,482.63s6.32-22,13.73-19.37S1439.42,482.63,1439.42,482.63Z"/><path class="cls-5" d="M1445.19,481.43s16.13-10.58,19.67-7.31S1445.19,481.43,1445.19,481.43Z"/><path class="cls-17" d="M1390.07,434.4h-125.8a1.54,1.54,0,0,1-1.53-1.53h0a1.54,1.54,0,0,1,1.53-1.53h125.8a1.54,1.54,0,0,1,1.53,1.53h0A1.54,1.54,0,0,1,1390.07,434.4Z"/><path class="cls-17" d="M1390.07,440.53h-125.8a1.54,1.54,0,0,1-1.53-1.53h0a1.54,1.54,0,0,1,1.53-1.54h125.8a1.54,1.54,0,0,1,1.53,1.54h0A1.54,1.54,0,0,1,1390.07,440.53Z"/><path class="cls-17" d="M1390.07,447.32h-125.8a1.54,1.54,0,0,1-1.53-1.53h0a1.53,1.53,0,0,1,1.53-1.53h125.8a1.53,1.53,0,0,1,1.53,1.53h0A1.54,1.54,0,0,1,1390.07,447.32Z"/><path class="cls-17" d="M1373.46,454.11H1264.27a1.54,1.54,0,0,1-1.53-1.53h0a1.54,1.54,0,0,1,1.53-1.53h109.19a1.54,1.54,0,0,1,1.53,1.53h0A1.54,1.54,0,0,1,1373.46,454.11Z"/><path class="cls-26" d="M1655.9,494.08H.16c-.36,0,0-.3,0-.67h0c0-.36-.36-.66,0-.66H1655.9a.67.67,0,0,1,.67.66h0A.67.67,0,0,1,1655.9,494.08Z"/></g></g></g></svg>