<?xml version="1.0" encoding="utf-8"?>
<!-- Generator: Adobe Illustrator 23.0.0, SVG Export Plug-In . SVG Version: 6.00 Build 0)  -->
<svg version="1.1" id="Layer_1" xmlns="http://www.w3.org/2000/svg" xmlns:xlink="http://www.w3.org/1999/xlink" x="0px" y="0px"
	 viewBox="0 0 1950 213" style="enable-background:new 0 0 1950 213;" xml:space="preserve">
<style type="text/css">
	.st0{fill:#003369;}
	.st1{opacity:3.000000e-02;}
	.st2{clip-path:url(#SVGID_2_);}
	.st3{fill:none;stroke:#407BFF;stroke-width:9;stroke-miterlimit:10;}
</style>
<g>
	<g>
		<g id="Layer_1-2">
			<rect x="-0.2" class="st0" width="1950.3" height="213.1"/>
			<g class="st1">
				<g>
					<defs>
						<rect id="SVGID_1_" x="-0.2" width="1950.3" height="213.1"/>
					</defs>
					<clipPath id="SVGID_2_">
						<use xlink:href="#SVGID_1_"  style="overflow:visible;"/>
					</clipPath>
					<g class="st2">
						<line class="st3" x1="36.3" y1="-54.3" x2="-154.7" y2="319.6"/>
						<line class="st3" x1="56.4" y1="-54.3" x2="-134.6" y2="319.6"/>
						<line class="st3" x1="76.5" y1="-54.3" x2="-114.5" y2="319.6"/>
						<line class="st3" x1="96.6" y1="-54.3" x2="-94.4" y2="319.6"/>
						<line class="st3" x1="116.7" y1="-54.3" x2="-74.3" y2="319.6"/>
						<line class="st3" x1="136.8" y1="-54.3" x2="-54.2" y2="319.6"/>
						<line class="st3" x1="156.9" y1="-54.3" x2="-34.1" y2="319.6"/>
						<line class="st3" x1="177" y1="-54.3" x2="-14" y2="319.6"/>
						<line class="st3" x1="197.1" y1="-54.3" x2="6.1" y2="319.6"/>
						<line class="st3" x1="217.2" y1="-54.3" x2="26.2" y2="319.6"/>
						<line class="st3" x1="237.3" y1="-54.3" x2="46.3" y2="319.6"/>
						<line class="st3" x1="257.4" y1="-54.3" x2="66.4" y2="319.6"/>
						<line class="st3" x1="277.5" y1="-54.3" x2="86.5" y2="319.6"/>
						<line class="st3" x1="297.6" y1="-54.3" x2="106.6" y2="319.6"/>
						<line class="st3" x1="317.7" y1="-54.3" x2="126.7" y2="319.6"/>
						<line class="st3" x1="337.8" y1="-54.3" x2="146.8" y2="319.6"/>
						<line class="st3" x1="357.9" y1="-54.3" x2="166.9" y2="319.6"/>
						<line class="st3" x1="378" y1="-54.3" x2="187" y2="319.6"/>
						<line class="st3" x1="398.1" y1="-54.3" x2="207.1" y2="319.6"/>
						<line class="st3" x1="418.2" y1="-54.3" x2="227.2" y2="319.6"/>
						<line class="st3" x1="438.3" y1="-54.3" x2="247.3" y2="319.6"/>
						<line class="st3" x1="458.4" y1="-54.3" x2="267.4" y2="319.6"/>
						<line class="st3" x1="478.5" y1="-54.3" x2="287.5" y2="319.6"/>
						<line class="st3" x1="498.6" y1="-54.3" x2="307.6" y2="319.6"/>
						<line class="st3" x1="518.7" y1="-54.3" x2="327.7" y2="319.6"/>
						<line class="st3" x1="538.8" y1="-54.3" x2="347.8" y2="319.6"/>
						<line class="st3" x1="558.9" y1="-54.3" x2="367.9" y2="319.6"/>
						<line class="st3" x1="579" y1="-54.3" x2="388" y2="319.6"/>
						<line class="st3" x1="599.1" y1="-54.3" x2="408.1" y2="319.6"/>
						<line class="st3" x1="619.2" y1="-54.3" x2="428.1" y2="319.6"/>
						<line class="st3" x1="639.3" y1="-54.3" x2="448.2" y2="319.6"/>
						<line class="st3" x1="659.4" y1="-54.3" x2="468.3" y2="319.6"/>
						<line class="st3" x1="679.5" y1="-54.3" x2="488.4" y2="319.6"/>
						<line class="st3" x1="699.5" y1="-54.3" x2="508.5" y2="319.6"/>
						<line class="st3" x1="719.6" y1="-54.3" x2="528.6" y2="319.6"/>
						<line class="st3" x1="739.7" y1="-54.3" x2="548.7" y2="319.6"/>
						<line class="st3" x1="759.8" y1="-54.3" x2="568.8" y2="319.6"/>
						<line class="st3" x1="779.9" y1="-54.3" x2="588.9" y2="319.6"/>
						<line class="st3" x1="800" y1="-54.3" x2="609" y2="319.6"/>
						<line class="st3" x1="820.1" y1="-54.3" x2="629.1" y2="319.6"/>
						<line class="st3" x1="840.2" y1="-54.3" x2="649.2" y2="319.6"/>
						<line class="st3" x1="860.3" y1="-54.3" x2="669.3" y2="319.6"/>
						<line class="st3" x1="880.4" y1="-54.3" x2="689.4" y2="319.6"/>
						<line class="st3" x1="900.5" y1="-54.3" x2="709.5" y2="319.6"/>
						<line class="st3" x1="920.6" y1="-54.3" x2="729.6" y2="319.6"/>
						<line class="st3" x1="940.7" y1="-54.3" x2="749.7" y2="319.6"/>
						<line class="st3" x1="960.8" y1="-54.3" x2="769.8" y2="319.6"/>
						<line class="st3" x1="980.9" y1="-54.3" x2="789.9" y2="319.6"/>
						<line class="st3" x1="1001" y1="-54.3" x2="810" y2="319.6"/>
						<line class="st3" x1="1021.1" y1="-54.3" x2="830.1" y2="319.6"/>
						<line class="st3" x1="1041.2" y1="-54.3" x2="850.2" y2="319.6"/>
						<line class="st3" x1="1061.3" y1="-54.3" x2="870.3" y2="319.6"/>
						<line class="st3" x1="1081.4" y1="-54.3" x2="890.4" y2="319.6"/>
						<line class="st3" x1="1101.5" y1="-54.3" x2="910.5" y2="319.6"/>
						<line class="st3" x1="1121.6" y1="-54.3" x2="930.6" y2="319.6"/>
						<line class="st3" x1="1141.7" y1="-54.3" x2="950.7" y2="319.6"/>
						<line class="st3" x1="1161.8" y1="-54.3" x2="970.8" y2="319.6"/>
						<line class="st3" x1="1181.9" y1="-54.3" x2="990.9" y2="319.6"/>
						<line class="st3" x1="1202" y1="-54.3" x2="1011" y2="319.6"/>
						<line class="st3" x1="1222.1" y1="-54.3" x2="1031.1" y2="319.6"/>
						<line class="st3" x1="1242.2" y1="-54.3" x2="1051.2" y2="319.6"/>
						<line class="st3" x1="1262.3" y1="-54.3" x2="1071.3" y2="319.6"/>
						<line class="st3" x1="1282.4" y1="-54.3" x2="1091.4" y2="319.6"/>
						<line class="st3" x1="1302.5" y1="-54.3" x2="1111.5" y2="319.6"/>
						<line class="st3" x1="1322.6" y1="-54.3" x2="1131.6" y2="319.6"/>
						<line class="st3" x1="1342.7" y1="-54.3" x2="1151.7" y2="319.6"/>
						<line class="st3" x1="1362.8" y1="-54.3" x2="1171.8" y2="319.6"/>
						<line class="st3" x1="1382.9" y1="-54.3" x2="1191.9" y2="319.6"/>
						<line class="st3" x1="1403" y1="-54.3" x2="1211.9" y2="319.6"/>
						<line class="st3" x1="1423.1" y1="-54.3" x2="1232" y2="319.6"/>
						<line class="st3" x1="1443.2" y1="-54.3" x2="1252.1" y2="319.6"/>
						<line class="st3" x1="1463.3" y1="-54.3" x2="1272.2" y2="319.6"/>
						<line class="st3" x1="1483.4" y1="-54.3" x2="1292.3" y2="319.6"/>
						<line class="st3" x1="1503.4" y1="-54.3" x2="1312.4" y2="319.6"/>
						<line class="st3" x1="1523.5" y1="-54.3" x2="1332.5" y2="319.6"/>
						<line class="st3" x1="1543.6" y1="-54.3" x2="1352.6" y2="319.6"/>
						<line class="st3" x1="1563.7" y1="-54.3" x2="1372.7" y2="319.6"/>
						<line class="st3" x1="1583.8" y1="-54.3" x2="1392.8" y2="319.6"/>
						<line class="st3" x1="1603.9" y1="-54.3" x2="1412.9" y2="319.6"/>
						<line class="st3" x1="1624" y1="-54.3" x2="1433" y2="319.6"/>
						<line class="st3" x1="1644.1" y1="-54.3" x2="1453.1" y2="319.6"/>
						<line class="st3" x1="1664.2" y1="-54.3" x2="1473.2" y2="319.6"/>
						<line class="st3" x1="1684.3" y1="-54.3" x2="1493.3" y2="319.6"/>
						<line class="st3" x1="1704.4" y1="-54.3" x2="1513.4" y2="319.6"/>
						<line class="st3" x1="1724.5" y1="-54.3" x2="1533.5" y2="319.6"/>
						<line class="st3" x1="1744.6" y1="-54.3" x2="1553.6" y2="319.6"/>
						<line class="st3" x1="1764.7" y1="-54.3" x2="1573.7" y2="319.6"/>
						<line class="st3" x1="1784.8" y1="-54.3" x2="1593.8" y2="319.6"/>
						<line class="st3" x1="1804.9" y1="-54.3" x2="1613.9" y2="319.6"/>
						<line class="st3" x1="1825" y1="-54.3" x2="1634" y2="319.6"/>
						<line class="st3" x1="1845.1" y1="-54.3" x2="1654.1" y2="319.6"/>
						<line class="st3" x1="1865.2" y1="-54.3" x2="1674.2" y2="319.6"/>
						<line class="st3" x1="1885.3" y1="-54.3" x2="1694.3" y2="319.6"/>
						<line class="st3" x1="1905.4" y1="-54.3" x2="1714.4" y2="319.6"/>
						<line class="st3" x1="1925.5" y1="-54.3" x2="1734.5" y2="319.6"/>
						<line class="st3" x1="1945.6" y1="-54.3" x2="1754.6" y2="319.6"/>
						<line class="st3" x1="1965.7" y1="-54.3" x2="1774.7" y2="319.6"/>
						<line class="st3" x1="1985.8" y1="-54.3" x2="1794.8" y2="319.6"/>
						<line class="st3" x1="2005.9" y1="-54.3" x2="1814.9" y2="319.6"/>
						<line class="st3" x1="2026" y1="-54.3" x2="1835" y2="319.6"/>
						<line class="st3" x1="2046.1" y1="-54.3" x2="1855.1" y2="319.6"/>
						<line class="st3" x1="2066.2" y1="-54.3" x2="1875.2" y2="319.6"/>
					</g>
				</g>
			</g>
		</g>
	</g>
</g>
</svg>
