<svg xmlns="http://www.w3.org/2000/svg" xmlns:xlink="http://www.w3.org/1999/xlink" viewBox="0 0 1931.47 805.39"><defs><style>.cls-1{fill:#1b88c1;}.cls-2{isolation:isolate;}.cls-3{clip-path:url(#clip-path);}.cls-4{mix-blend-mode:hard-light;}.cls-5{font-size:128.32px;font-family:Lalezar-Regular, Lalezar;}.cls-15,.cls-5,.cls-9{fill:#f6f6f6;}.cls-6{fill:#fafafa;}.cls-16,.cls-17,.cls-21,.cls-36,.cls-37,.cls-40,.cls-7,.cls-8{fill:none;}.cls-7{stroke:#f6f6f6;}.cls-7,.cls-8{stroke-linecap:round;stroke-linejoin:round;stroke-width:4.85px;}.cls-8{stroke:#fafafa;}.cls-10{fill:#f9f9f9;}.cls-11{opacity:0.1;}.cls-11,.cls-13,.cls-47{mix-blend-mode:multiply;}.cls-12{fill:#9e9e9e;}.cls-13{opacity:0.2;}.cls-14{fill:#f2f2f2;}.cls-15{font-size:34.16px;font-family:HacenAlgeriaHd, Hacen Algeria Hd;}.cls-16,.cls-36,.cls-37{stroke:#fff;}.cls-16,.cls-17,.cls-36,.cls-37,.cls-40{stroke-miterlimit:10;}.cls-16{stroke-width:0.63px;}.cls-17{stroke:#ced5fc;}.cls-17,.cls-36,.cls-40{stroke-width:3.3px;}.cls-18{fill:#ced5fc;}.cls-19{fill:#fff;}.cls-20{fill:#1e1272;}.cls-22{fill:url(#Degradado_sin_nombre_44);}.cls-23{fill:url(#Degradado_sin_nombre_43);}.cls-24{fill:#f4f2f8;}.cls-25{fill:#9898fe;}.cls-26{fill:url(#Degradado_sin_nombre_45);}.cls-27{fill:#3231a0;}.cls-28{fill:url(#Degradado_sin_nombre_44-2);}.cls-29{fill:url(#Degradado_sin_nombre_2);}.cls-30{fill:url(#Degradado_sin_nombre_45-2);}.cls-31{fill:url(#Degradado_sin_nombre_45-3);}.cls-32{fill:url(#Degradado_sin_nombre_45-4);}.cls-33{fill:url(#Degradado_sin_nombre_45-5);}.cls-34{fill:url(#Degradado_sin_nombre_44-3);}.cls-35{fill:url(#Degradado_sin_nombre_44-4);}.cls-37{stroke-width:2.88px;}.cls-38{fill:url(#Degradado_sin_nombre_44-5);}.cls-39{fill:url(#Degradado_sin_nombre_43-2);}.cls-40{stroke:#7878f0;}.cls-41{fill:#d1deee;}.cls-42{fill:#ffd3a7;}.cls-43{fill:#fcc393;}.cls-44{fill:#ffd6a7;}.cls-45{fill:url(#Degradado_sin_nombre_42);}.cls-46{fill:url(#Degradado_sin_nombre_41);}.cls-47{opacity:0.3;}</style><clipPath id="clip-path"><polygon class="cls-1" points="0 620.76 963.25 805.39 1931.47 620.76 1931.47 0 0 0 0 620.76"/></clipPath><linearGradient id="Degradado_sin_nombre_44" x1="1855.47" y1="685.32" x2="1326.59" y2="277.3" gradientUnits="userSpaceOnUse"><stop offset="0" stop-color="#ffd225"/><stop offset="1" stop-color="#f08d00"/></linearGradient><linearGradient id="Degradado_sin_nombre_43" x1="1354.77" y1="455.52" x2="1760.43" y2="455.52" gradientUnits="userSpaceOnUse"><stop offset="0" stop-color="#8882fd"/><stop offset="1" stop-color="#3a309e"/></linearGradient><linearGradient id="Degradado_sin_nombre_45" x1="1240.88" y1="736.49" x2="1539.2" y2="736.49" gradientTransform="translate(2780.08 1472.98) rotate(-180)" gradientUnits="userSpaceOnUse"><stop offset="0" stop-color="#3a309e"/><stop offset="1" stop-color="#8882fd"/></linearGradient><linearGradient id="Degradado_sin_nombre_44-2" x1="1129.08" y1="387.63" x2="1129.08" y2="675.73" xlink:href="#Degradado_sin_nombre_44"/><linearGradient id="Degradado_sin_nombre_2" x1="1328.1" y1="502.01" x2="1557.08" y2="502.01" gradientUnits="userSpaceOnUse"><stop offset="0" stop-color="#f08d00"/><stop offset="1" stop-color="#ffd225"/></linearGradient><linearGradient id="Degradado_sin_nombre_45-2" x1="1257.86" y1="386.42" x2="1527.86" y2="386.42" gradientTransform="matrix(1, 0, 0, 1, 0, 0)" xlink:href="#Degradado_sin_nombre_45"/><linearGradient id="Degradado_sin_nombre_45-3" x1="1257.86" y1="452.94" x2="1527.86" y2="452.94" gradientTransform="matrix(1, 0, 0, 1, 0, 0)" xlink:href="#Degradado_sin_nombre_45"/><linearGradient id="Degradado_sin_nombre_45-4" x1="1210.51" y1="551.09" x2="1480.51" y2="551.09" gradientTransform="matrix(1, 0, 0, 1, 0, 0)" xlink:href="#Degradado_sin_nombre_45"/><linearGradient id="Degradado_sin_nombre_45-5" x1="1210.51" y1="670.79" x2="1480.51" y2="670.79" gradientTransform="matrix(1, 0, 0, 1, 0, 0)" xlink:href="#Degradado_sin_nombre_45"/><linearGradient id="Degradado_sin_nombre_44-3" x1="1294.9" y1="676.11" x2="1294.9" y2="797.62" xlink:href="#Degradado_sin_nombre_44"/><linearGradient id="Degradado_sin_nombre_44-4" x1="1505.49" y1="676.11" x2="1505.49" y2="797.62" xlink:href="#Degradado_sin_nombre_44"/><linearGradient id="Degradado_sin_nombre_44-5" x1="1515.17" y1="194.15" x2="1561.18" y2="194.15" gradientTransform="translate(859.63 -790.82) rotate(90)" xlink:href="#Degradado_sin_nombre_44"/><linearGradient id="Degradado_sin_nombre_43-2" x1="1515.17" y1="217.34" x2="1561.18" y2="217.34" gradientTransform="translate(866.4 -774.42) rotate(90)" xlink:href="#Degradado_sin_nombre_43"/><linearGradient id="Degradado_sin_nombre_42" x1="698.92" y1="728.64" x2="933.49" y2="728.64" gradientUnits="userSpaceOnUse"><stop offset="0" stop-color="#5d4fd6"/><stop offset="1" stop-color="#5a4dd0"/></linearGradient><linearGradient id="Degradado_sin_nombre_41" x1="734.3" y1="728.64" x2="957.5" y2="728.64" gradientUnits="userSpaceOnUse"><stop offset="0" stop-color="#8882fd"/><stop offset="1" stop-color="#5a4dd0"/></linearGradient></defs><g class="cls-2"><g id="Layer_2" data-name="Layer 2"><g id="Layer_1-2" data-name="Layer 1"><polygon class="cls-1" points="0 620.76 963.25 805.39 1931.47 620.76 1931.47 0 0 0 0 620.76"/><g class="cls-3"><g class="cls-4"><text class="cls-5" transform="translate(499.59 250.99)">Delta <tspan class="cls-6" x="306.68" y="0">Soft</tspan></text><path class="cls-7" d="M277.36,209.56a80.71,80.71,0,0,1,155.1,1.88"/><path class="cls-8" d="M435.32,234.84a80.7,80.7,0,0,1-161.35-4"/><rect class="cls-6" x="265.97" y="222.79" width="16.01" height="16.01" rx="3.18" transform="translate(36.39 498.91) rotate(-88.57)"/><path class="cls-7" d="M286.21,190.16a80.71,80.71,0,0,1,149.12,42.71"/><rect class="cls-9" x="427.32" y="224.87" width="16.01" height="16.01" rx="3.18" transform="translate(-0.3 0.56) rotate(-0.07)"/><path class="cls-10" d="M309.48,187.05v36.66a6.52,6.52,0,0,0,6.52,6.52h43.4a6.52,6.52,0,0,0,6.53-6.52v-43.4a6.52,6.52,0,0,0-6.53-6.52H322.75a6.52,6.52,0,0,1-6.52-6.53V147.7a6.52,6.52,0,0,0-6.52-6.52H283.4a6.52,6.52,0,0,0-6.52,6.52V174a6.52,6.52,0,0,0,6.52,6.52H303A6.52,6.52,0,0,1,309.48,187.05Z"/><g class="cls-11"><path class="cls-12" d="M327.17,178.11h36.66a6.63,6.63,0,0,1,1.8.26,6.51,6.51,0,0,0-6.23-4.58H322.75a6.63,6.63,0,0,1-1.8-.26A6.52,6.52,0,0,0,327.17,178.11Z"/><path class="cls-12" d="M313.91,191.38a6.52,6.52,0,0,0-4.72-6.26,6.49,6.49,0,0,1,.29,1.93v36.66A6.52,6.52,0,0,0,314.2,230a6.5,6.5,0,0,1-.29-1.94Z"/><path class="cls-12" d="M281.59,180.27a6.49,6.49,0,0,1-.29-1.93V152a6.52,6.52,0,0,1,6.52-6.52h26.31a6.76,6.76,0,0,1,1.81.25,6.54,6.54,0,0,0-6.23-4.58H283.4a6.52,6.52,0,0,0-6.52,6.52V174A6.51,6.51,0,0,0,281.59,180.27Z"/></g><path class="cls-9" d="M362.16,235.41H316.52a8.11,8.11,0,0,0-8.11,8.12v54a8.12,8.12,0,0,0,8.11,8.12h54a8.13,8.13,0,0,0,8.12-8.12V251.93a8.11,8.11,0,0,1,8.12-8.12h24.35a8.12,8.12,0,0,0,8.12-8.12V202.93a8.12,8.12,0,0,0-8.12-8.12H378.4a8.12,8.12,0,0,0-8.12,8.12v24.36A8.13,8.13,0,0,1,362.16,235.41Z"/><g class="cls-13"><path class="cls-12" d="M370.28,202.93v24.36a8.13,8.13,0,0,1-8.12,8.12H316.52a8.11,8.11,0,0,0-8.11,8.12v54a8.09,8.09,0,0,0,2.26,5.62,8.47,8.47,0,0,1-.17-1.68v-54a8.12,8.12,0,0,1,8.11-8.12h45.64a8.12,8.12,0,0,0,8.12-8.12V206.87a8.11,8.11,0,0,1,8.12-8.12h32.75a8.09,8.09,0,0,1,5.86,2.5,8.13,8.13,0,0,0-8-6.44H378.4A8.12,8.12,0,0,0,370.28,202.93Z"/></g><path class="cls-14" d="M367.23,236.6H338.09a5.18,5.18,0,0,0-5.18,5.18v34.49a5.18,5.18,0,0,0,5.18,5.19h34.5a5.18,5.18,0,0,0,5.18-5.19V247.14A5.18,5.18,0,0,1,383,242H398.5a5.18,5.18,0,0,0,5.19-5.18V215.86a5.18,5.18,0,0,0-5.19-5.18H377.59a5.18,5.18,0,0,0-5.18,5.18v15.55A5.18,5.18,0,0,1,367.23,236.6Z"/><g class="cls-11"><path class="cls-12" d="M338.09,281.46h.46a5.15,5.15,0,0,1-1.72-3.85v-34.5a5.18,5.18,0,0,1,5.18-5.18h29.13a5.18,5.18,0,0,0,5.18-5.18V217.2a5.19,5.19,0,0,1,5.19-5.18H402a5.15,5.15,0,0,0-3.47-1.34H377.59a5.18,5.18,0,0,0-5.18,5.18v15.55a5.18,5.18,0,0,1-5.18,5.19H338.09a5.18,5.18,0,0,0-5.18,5.18v34.49A5.18,5.18,0,0,0,338.09,281.46Z"/></g><text class="cls-15" transform="translate(595.71 296.61)"><tspan xml:space="preserve"> اتلد</tspan></text><line class="cls-16" x1="782.6" y1="265.52" x2="505.46" y2="265.52"/><path class="cls-17" d="M656.37,614.27c-45.13,0-40.09,108.63-40.09,108.63s-13.15-132.37-63.15-119.69S534.71,723,534.71,723s-34.31-95.77-75-55.09,46,126.28,46,126.28H669.13C725.93,692.7,701.5,614.27,656.37,614.27Z"/><path class="cls-17" d="M1680.79,606.76c40.61,0,53.06,123.28,53.06,123.28s14.77-164.2,59.76-152.79,13.65,152.92,13.65,152.92,40.88-96.2,77.5-59.59-51.46,123.65-51.46,123.65h-147C1635.18,702.86,1640.18,606.76,1680.79,606.76Z"/><path class="cls-18" d="M803.39,520c-77.57-17.92-80.48,105-80.48,105s-21.37-179.51-102.3-149.43C624.4,501.46,658,718.54,727,791,765,647.06,796.55,542.43,803.39,520Z"/><path class="cls-18" d="M806.58,520.86c-6.78,22.25-38.69,128-77,273.42h31.63S883.46,543.7,806.58,520.86Z"/><path class="cls-18" d="M608.09,481.71c-58,34.64-26.77,151.64,3.68,232.23a124.09,124.09,0,0,0,113.75,80.29c-69.58-71.59-103.66-287.67-108-317.32A79.5,79.5,0,0,0,608.09,481.71Z"/><path class="cls-19" d="M805.34,520.47c-.66-.17-1.3-.3-2-.45-6.84,22.41-38.39,127-76.4,271-69-72.5-102.59-289.58-106.38-315.41-1,.38-2.09.83-3.14,1.28,4.39,29.65,38.47,245.73,108,317.32.78,0,1.55,0,2.33,0h1.7c38.34-145.43,70.25-251.17,77-273.42C806.16,520.74,805.77,520.58,805.34,520.47Z"/><path class="cls-18" d="M1640.45,644.49c18.52.32,38,8,55.42,25.45,55.3,55.31,0,124.34,0,124.34H1631C1662.6,731.75,1647.53,667.25,1640.45,644.49Z"/><path class="cls-18" d="M1508.18,695.16c20.12-1.49,41.21,6.74,56.28,28.94,0-44.93,34.12-78.71,73.27-79.57,6.89,21.79,22.68,86.93-9.66,149.75H1543c-30.68-33.52-50.19-71.74-59-91.28A49.85,49.85,0,0,1,1508.18,695.16Z"/><path class="cls-18" d="M1481.84,704.57c8.84,19.52,27.91,56.67,57.63,89.71h-26.32C1460.94,794.28,1448.75,729.44,1481.84,704.57Z"/><path class="cls-19" d="M1637.73,644.53c.9,0,1.81-.06,2.72,0,7.08,22.76,22.15,87.26-9.43,149.79h-3C1660.41,731.46,1644.62,666.32,1637.73,644.53Z"/><path class="cls-19" d="M1484,703c8.81,19.54,28.32,57.76,59,91.28h-3.52c-29.72-33-48.79-70.19-57.63-89.71C1482.54,704,1483.24,703.49,1484,703Z"/><polygon class="cls-20" points="1610.07 772.57 1567.98 772.88 1567.5 709.65 1546.59 709.8 1547.07 773.04 1504.98 773.36 1505.14 794.28 1610.24 794.28 1610.07 772.57"/><path class="cls-21" d="M1727.82,565.8c-58.55,90.38-176.88,118.63-269.47,66.55L1434.61,669c112.67,65,258.24,30.88,329.76-79.52s43.15-257.19-62.22-333.45l-23.73,36.64C1763.79,355.87,1786.38,475.41,1727.82,565.8Z"/><path class="cls-22" d="M1710.68,242.86l12.09-18.66-21.56-14-12.08,18.65-8.6,13.28-23.67,36.53c3.71,2.09,7.39,4.26,11,6.61s7.11,4.83,10.54,7.36L1702.15,256c105.37,76.26,133.73,223.06,62.22,333.45S1547.28,734,1434.61,669l23.74-36.64c-3.71-2.09-7.4-4.26-11-6.61s-7.12-4.82-10.54-7.36L1413.05,655l-8.52,13.16-12.09,18.66,21.56,14L1426.17,682a260.34,260.34,0,0,0,131,35.45c85.94,0,170.23-42.15,220.33-119.48C1853.74,480.35,1823.3,323.83,1710.68,242.86Z"/><path class="cls-23" d="M1458.35,632.35c92.59,52.08,210.92,23.83,269.47-66.55s36-209.93-49.4-273.14c-3.43-2.53-6.92-5-10.54-7.36s-7.31-4.52-11-6.61c-92.59-52.08-210.92-23.83-269.47,66.56s-36,209.92,49.4,273.13c3.42,2.54,6.91,5,10.54,7.36S1454.64,630.26,1458.35,632.35Z"/><rect class="cls-24" x="703.75" y="284.71" width="360.89" height="509.57"/><rect class="cls-25" x="743.56" y="333.56" width="9.62" height="9.62"/><rect class="cls-25" x="774.02" y="333.56" width="250.8" height="9.62"/><rect class="cls-18" x="774.02" y="359.43" width="250.8" height="9.62"/><rect class="cls-18" x="774.02" y="385.31" width="250.8" height="9.62"/><rect class="cls-25" x="743.56" y="419.95" width="9.62" height="9.62"/><rect class="cls-25" x="774.02" y="419.95" width="250.8" height="9.62"/><rect class="cls-18" x="774.02" y="445.82" width="250.8" height="9.62"/><rect class="cls-18" x="774.02" y="471.7" width="250.8" height="9.62"/><rect class="cls-25" x="743.56" y="506.34" width="9.62" height="9.62"/><rect class="cls-25" x="774.02" y="506.34" width="250.8" height="9.62"/><rect class="cls-18" x="774.02" y="532.22" width="250.8" height="9.62"/><rect class="cls-18" x="774.02" y="558.09" width="250.8" height="9.62"/><rect class="cls-25" x="743.56" y="679.13" width="9.62" height="9.62"/><rect class="cls-25" x="774.02" y="679.13" width="250.8" height="9.62"/><rect class="cls-18" x="774.02" y="705" width="250.8" height="9.62"/><rect class="cls-18" x="774.02" y="730.88" width="250.8" height="9.62"/><rect class="cls-25" x="743.56" y="592.73" width="9.62" height="9.62"/><rect class="cls-25" x="774.02" y="592.73" width="250.8" height="9.62"/><rect class="cls-18" x="774.02" y="618.61" width="250.8" height="9.62"/><rect class="cls-18" x="774.02" y="644.49" width="250.8" height="9.62"/><line class="cls-17" x1="1192.07" y1="415.95" x2="1192.07" y2="332.32"/><line class="cls-17" x1="1238.36" y1="415.95" x2="1238.36" y2="332.32"/><rect class="cls-26" x="1240.88" y="678.7" width="298.32" height="115.58" transform="translate(2780.08 1472.98) rotate(180)"/><rect class="cls-24" x="960.1" y="694.52" width="280.78" height="83.95" transform="translate(2200.98 1472.98) rotate(180)"/><rect class="cls-18" x="960.1" y="762.65" width="280.78" height="15.82" transform="translate(2200.98 1541.11) rotate(180)"/><polygon class="cls-27" points="1240.88 678.7 947.93 678.7 947.93 694.52 1240.88 694.52 1240.88 778.46 947.93 778.46 947.93 794.28 1240.88 794.28 1256.69 794.28 1256.69 678.7 1240.88 678.7"/><rect class="cls-28" x="930.05" y="460.84" width="398.05" height="82.33"/><rect class="cls-24" x="1343.92" y="476.66" width="200.99" height="50.7"/><rect class="cls-18" x="1343.92" y="476.66" width="200.99" height="15.82"/><polygon class="cls-29" points="1557.08 476.66 1557.08 460.84 1343.92 460.84 1328.1 460.84 1328.1 543.18 1343.92 543.18 1557.08 543.18 1557.08 527.36 1343.92 527.36 1343.92 476.66 1557.08 476.66"/><rect class="cls-18" x="1032.67" y="378.51" width="225.19" height="82.33"/><rect class="cls-24" x="1257.86" y="394.33" width="270" height="50.7"/><rect class="cls-18" x="1257.86" y="394.33" width="270" height="15.82"/><polygon class="cls-27" points="1257.86 394.33 1257.86 378.51 1048.49 378.51 1032.67 378.51 1032.67 460.84 1048.49 460.84 1257.86 460.84 1257.86 445.03 1048.49 445.03 1048.49 394.33 1257.86 394.33"/><rect class="cls-30" x="1257.86" y="378.51" width="270" height="15.82"/><rect class="cls-31" x="1257.86" y="445.03" width="270" height="15.82"/><rect class="cls-18" x="985.32" y="543.18" width="225.19" height="135.52"/><rect class="cls-24" x="1210.51" y="558.99" width="270" height="103.89"/><rect class="cls-18" x="1210.51" y="558.99" width="270" height="15.82"/><polygon class="cls-27" points="1210.51 558.99 1210.51 543.18 1001.13 543.18 985.32 543.18 985.32 678.7 1001.13 678.7 1210.51 678.7 1210.51 662.88 1001.13 662.88 1001.13 558.99 1210.51 558.99"/><rect class="cls-32" x="1210.51" y="543.18" width="270" height="15.82"/><rect class="cls-33" x="1210.51" y="662.88" width="270" height="15.82"/><rect class="cls-34" x="1279.42" y="678.7" width="30.94" height="115.57"/><rect class="cls-35" x="1490.02" y="678.7" width="30.94" height="115.57"/><line class="cls-36" x1="1240.88" y1="410.14" x2="1059.79" y2="410.14"/><line class="cls-36" x1="1205.32" y1="705" x2="1024.23" y2="705"/><line class="cls-36" x1="1520.96" y1="429.57" x2="1339.87" y2="429.57"/><line class="cls-36" x1="1287.88" y1="610.38" x2="1106.79" y2="610.38"/><line class="cls-36" x1="1483.4" y1="628.23" x2="1302.31" y2="628.23"/><line class="cls-37" x1="1240.88" y1="419.95" x2="1102.31" y2="419.95"/><line class="cls-36" x1="1421.97" y1="584.71" x2="1240.88" y2="584.71"/><line class="cls-37" x1="1421.97" y1="594.52" x2="1283.4" y2="594.52"/><line class="cls-37" x1="1493.34" y1="502.01" x2="1354.77" y2="502.01"/><line class="cls-37" x1="1549.79" y1="511.15" x2="1411.22" y2="511.15"/><line class="cls-37" x1="1189.01" y1="649.3" x2="1050.45" y2="649.3"/><line class="cls-37" x1="1145.26" y1="736.48" x2="1006.7" y2="736.48"/><rect class="cls-25" x="590.44" y="550.43" width="497.84" height="46.01" transform="translate(-159.64 761.47) rotate(-45)"/><rect class="cls-38" x="658.33" y="724.33" width="14.26" height="46.01" transform="translate(-333.54 689.45) rotate(-45)"/><rect class="cls-39" x="633" y="740.73" width="32.12" height="46.01" transform="translate(-349.94 682.65) rotate(-45)"/><line class="cls-40" x1="1009.95" y1="392" x2="665.08" y2="736.87"/><line class="cls-40" x1="1020.79" y1="402.85" x2="675.93" y2="747.71"/><path class="cls-41" d="M1003.08,379l-4,2.12A7.67,7.67,0,1,0,1010,392l58.78-47.93Z"/><path class="cls-41" d="M1020.79,402.85a7.67,7.67,0,1,0,10.85,10.84l2.12-4,35-65.64Z"/><path class="cls-41" d="M1010,392a7.67,7.67,0,1,0,10.84,10.85l47.94-58.78Z"/><polygon class="cls-20" points="1036.88 361.03 1051.76 375.91 1068.73 344.07 1036.88 361.03"/><path class="cls-20" d="M952.51,525.58s17.81,5,25.31,31.76,32.38,19.74,44,50.87-20.89,65.18-56.53,54.8S891,626.48,891,626.48s-7.42-35.26,17.07-51.67,3.47-27.46,17-40.95"/><path class="cls-42" d="M936.29,589.61s-25,0-81.88,80.27c19.61,21.41,41,0,41,0Z"/><path class="cls-19" d="M936.29,589.61s-37.9,17.44-37.9,56c0,39.07-14.2,64.64-14.2,64.64l73.31,50.52s42.08-96.94,37.22-138.5c-4.42-33.6-46.86-32.71-46.86-32.71"/><polygon class="cls-20" points="875.84 672.22 762.66 672.22 739.58 589.61 852.75 589.61 875.84 672.22"/><rect class="cls-20" x="788.49" y="666.05" width="113.18" height="6.16"/><path class="cls-43" d="M946.18,601.1h0a9.89,9.89,0,0,0,9.9-9.89V572.09H936.29v19.12A9.89,9.89,0,0,0,946.18,601.1Z"/><path class="cls-44" d="M942.57,580.83h0a18.32,18.32,0,0,1-18.26-18.26V552.11a18.31,18.31,0,0,1,18.26-18.25h0a18.31,18.31,0,0,1,18.26,18.25v10.46A18.32,18.32,0,0,1,942.57,580.83Z"/><path class="cls-42" d="M874.09,681.06s55.67,28.35,80.79,35.14,54.3-100.31,30.54-113.88-32.58,91-32.58,91S877.49,668.16,866,668.16s-11.54,2-11.54,9.51S874.09,681.06,874.09,681.06Z"/><path class="cls-20" d="M667.7,794.28h37.46l9.26-11.45h-15.5C671.86,782.83,667.7,794.28,667.7,794.28Z"/><path class="cls-45" d="M920.82,794.28c11.56-.27,16.62-12.77,9.15-21.6C898.42,735.38,832,663,791,663c-55.14,0-92.09,119.82-92.09,119.82h15.5l64.11-79.24L874.35,784s9.87,10.29,17.55,10.29,30.27-.11,30.27-.11"/><path class="cls-20" d="M703.08,794.28h37.46l9.26-11.45H734.3C707.24,782.83,703.08,794.28,703.08,794.28Z"/><path class="cls-46" d="M826.39,663c-55.15,0-92.09,119.82-92.09,119.82h15.5l64.11-79.24s76.33,90.68,110.15,90.68,33.44-33.45,33.44-33.45S881.54,663,826.39,663Z"/><path class="cls-20" d="M942.57,523.94s-28.68.7-28.68,19.24S955.55,548,955.55,548l5.28,11h3.29S972.91,523.94,942.57,523.94Z"/><path class="cls-44" d="M966.11,559a5.29,5.29,0,1,1-5.28-5.63A5.46,5.46,0,0,1,966.11,559Z"/><path class="cls-17" d="M1161.64,277.25h24.11a41.87,41.87,0,0,1,82.44,0h1.11a27.54,27.54,0,0,1,0,55.07H1161.64a27.54,27.54,0,1,1,0-55.07Z"/><path class="cls-43" d="M935.6,557.34s-6.55,12.34,0,11.35"/><path class="cls-19" d="M934.71,571.55h11.8s-.75,3.39-5.9,3.39S934.71,571.55,934.71,571.55Z"/><path class="cls-43" d="M961.41,556.37s-1.94,0-1.94,3.31c2.09,0,2.09,2.54,2.09,2.54a3.1,3.1,0,0,0,2.56-3.18A2.54,2.54,0,0,0,961.41,556.37Z"/><line class="cls-17" x1="419.27" y1="794.23" x2="1923.25" y2="794.23"/></g><polygon class="cls-47" points="0 620.76 963.25 805.39 1931.47 620.76 1931.47 0 0 0 0 620.76"/></g></g></g></g></svg>