<svg xmlns="http://www.w3.org/2000/svg" viewBox="0 0 1805.42 581.33"><defs><style>.cls-1{fill:#004f8a;}.cls-2{fill:#015ba0;}.cls-15,.cls-3{fill:none;stroke-miterlimit:10;stroke-width:1.5px;}.cls-3{stroke:#002a54;}.cls-4{fill:#003369;}.cls-5{fill:#002a54;}.cls-6{fill:#0188d6;}.cls-7{fill:#3594e9;}.cls-8{fill:#f2f2f2;}.cls-9{fill:#fff;}.cls-10,.cls-11,.cls-9{opacity:0.9;}.cls-10{fill:#c8c8c8;}.cls-11{fill:#d0d0d0;}.cls-12{fill:#ef6b20;}.cls-13{fill:#e04d00;}.cls-14{fill:#fc7c37;}.cls-15{stroke:#f8bb4d;}.cls-16{fill:#1c468a;}.cls-17{fill:#ffb27d;}.cls-18{fill:#f99746;}.cls-19{fill:#ed7d2b;}.cls-20{fill:#233862;}.cls-21{fill:#2a4e96;}.cls-22{fill:#ed985f;}.cls-23{fill:#2c3a64;}.cls-24{fill:#bc3f3f;}.cls-25{fill:#a02e2e;}</style></defs><g id="Layer_2" data-name="Layer 2"><g id="Layer_1-2" data-name="Layer 1"><rect class="cls-1" x="157.93" y="177.29" width="124.93" height="402.95"/><rect class="cls-2" x="198.35" y="177.17" width="84.51" height="402.95"/><line class="cls-3" x1="226.52" y1="200.9" x2="250.88" y2="316.32"/><line class="cls-3" x1="277.67" y1="200.9" x2="302.03" y2="316.32"/><line class="cls-3" x1="293.32" y1="276" x2="242.17" y2="276"/><line class="cls-3" x1="299.38" y1="301.27" x2="248.23" y2="301.27"/><line class="cls-3" x1="282.87" y1="225.47" x2="231.72" y2="225.47"/><line class="cls-3" x1="288.49" y1="250.73" x2="237.34" y2="250.73"/><rect class="cls-4" x="330.56" y="413.41" width="105.31" height="166.83"/><rect class="cls-5" x="330.56" y="413.41" width="44.59" height="166.83"/><rect class="cls-6" x="81.98" y="356.54" width="105.31" height="223.7"/><rect class="cls-7" x="81.98" y="356.54" width="83.87" height="223.7"/><rect class="cls-8" x="147.73" y="442.51" width="105.31" height="137.73"/><rect class="cls-9" x="147.73" y="442.51" width="65.41" height="137.73"/><rect class="cls-10" x="239.89" y="315.57" width="105.31" height="264.75"/><rect class="cls-11" x="277.67" y="315.49" width="67.53" height="264.75"/><polygon class="cls-12" points="340.35 40.49 287.96 60.75 287.96 16.23 340.35 40.49"/><polygon class="cls-13" points="287.96 60.75 298.14 42.02 287.96 40.49 287.96 60.75"/><polygon class="cls-14" points="298.14 42.02 227.03 44.52 227.03 0 298.14 9.24 298.14 42.02"/><line class="cls-15" x1="227.03" x2="227.03" y2="177.29"/><path class="cls-16" d="M1805.17,581.33H1a1,1,0,0,1-1-1V580a1,1,0,0,1,1-1H1805.17c.56,0,0,.46,0,1v.35C1805.17,580.87,1805.73,581.33,1805.17,581.33Z"/><path class="cls-17" d="M576,213.21s-6.17-11,0-13.19,9-.18,9.25,2.32-2.35,12.34-2.35,12.34Z"/><path class="cls-18" d="M581,283.34A199.33,199.33,0,0,1,550,286.52a172.06,172.06,0,0,1-23.77-1.07c-1.87-.22-3.66-.46-5.39-.72-18.21-2.76-28.27-7.66-28.27-7.66s16.64-34.84,30.08-33.5c15.78,1.57,42.5,15.73,45.16,11.76,3-4.47,5.49-42.83,5.49-42.83,7-4.79,11.17.26,11.17.26S598.17,280.24,581,283.34Z"/><path class="cls-19" d="M581,283.34A199.33,199.33,0,0,1,550,286.52a172.06,172.06,0,0,1-23.77-1.07c-4.2-13.35-7.21-27,1.23-18.76C542.38,281.18,581,283.34,581,283.34Z"/><path class="cls-20" d="M491.35,564.61s-1.2,13.85,1.73,15.29l37.46-.07s0-4.33-6-5.29-16.58-4.48-18.37-12.33S491.35,564.61,491.35,564.61Z"/><path class="cls-21" d="M518.85,397c-.18,9.06-.62,18.4-1.47,26.79-4,39.84-5.47,88-6.05,97.24-1,16.11-4.19,41.84-4.19,41.84s-6.31,6-18.61,3.14c0,0-10.2-37.07-12.47-76.09,0-.64-.08-1.29-.11-1.93-.26-5.16-.54-11.06-.82-17.42-1.88-42.61-3.91-105.91-3.91-105.91l47-11S519.31,374.43,518.85,397Z"/><path class="cls-20" d="M518.85,397c-11.91,20.56-34.62,58.43-43.72,73.57-1.88-42.61-3.91-105.91-3.91-105.91l47-11S519.31,374.43,518.85,397Z"/><path class="cls-17" d="M399.81,357.18s-7.65,9-8.33,11.49-1.92,11.48-1.26,14.18,5.74-7.53,7.59-8.62-1.39,4.07-.75,4.93,4.28-3,5.7-4.32,1.29-8.37,3-12.54S399.81,357.18,399.81,357.18Z"/><path class="cls-20" d="M398,548.87s-6.67,6.09-5.37,10.41,7.32,7.21,8.13,12.49,4.07,8.17,7,8.17h14s2.16-3.72-3.05-4.84-7.16-7.33-6.84-13.1a101.37,101.37,0,0,0-.48-13.45L400.3,546Z"/><path class="cls-21" d="M510.82,365.62s-44,94.16-67.43,135.48S412.66,554,412.66,554s-13.42-5.29-14.64-8.89c0,0,9-79.76,24.64-99.21,8.86-11,19.27-44,19.76-55.49s10.77-39.05,10.77-39.05Z"/><path class="cls-18" d="M523.69,370.06a76.3,76.3,0,0,1-42.27,10.62c-10.87-.48-32.43-3.56-35.91-12.2-.82-2-.22-4.61,1-8.56,3.18-10.28,10.6-29.85,8.36-73.24a71.8,71.8,0,0,1,.29-11.38c2.33-21.37,14.58-34,26.42-38.16,28.87-10.09,38.49,3.88,38.49,3.88s12.76,10.11,14.69,31.21C538.6,314.44,523.69,370.06,523.69,370.06Z"/><path class="cls-17" d="M490,234.71s13.25,8.06,27.61,5.78c0,0,2.84-.72,1.45-4.06a42.26,42.26,0,0,0,1.27-4.45,68.26,68.26,0,0,0,1.65-7.25l-8.16-8.57L506.14,208C504,227.54,490,234.71,490,234.71Z"/><path class="cls-22" d="M504.9,215.39s4.44,11.86,15.47,16.59c1.26-4.6,2.08-9.41,2.08-9.41l-8.59-6.41Z"/><path class="cls-17" d="M531.17,224.31s-25.29,3.16-27.06-12.38-6.24-25.59,9.83-28.27,19.89,2.91,21.76,8S537.7,223.09,531.17,224.31Z"/><path class="cls-23" d="M496.12,181.14c-.22-.27-.73-.5-1.9-.61a4.73,4.73,0,0,1,2.21-.53c.31-1.62,1.28-4.47,4.11-5.07a3.52,3.52,0,0,0-1.8,2.47c3.37-3.21,10.42-5.37,29.62-3.12,25.31,3,16.33,18.89,13,20.71s-11.43-3.81-17.57-3.56-7.64,9.06-9.76,10.19-1.23-1-4-2.35-3.21,3.27-2.51,6.33-3.31,6.9-3.31,6.9l-3.75-4.35c-3.74-4.35-6.74-22.29-4.83-26Z"/><polygon class="cls-21" points="573.35 205.94 530.42 206.32 530.13 199.86 572.92 196.55 573.35 205.94"/><polygon class="cls-21" points="605.75 207.02 559.01 207.69 558.48 195.95 605.08 192.34 605.75 207.02"/><polygon class="cls-20" points="637.26 207.94 597.85 207.99 597.13 192.14 636.38 188.57 637.26 207.94"/><path class="cls-20" d="M637.82,210.61h0a2.2,2.2,0,0,0,2.11-2.3L639,188a2.2,2.2,0,0,0-2.3-2.1h0a2.2,2.2,0,0,0-2.1,2.3l.92,20.36A2.2,2.2,0,0,0,637.82,210.61Z"/><path class="cls-21" d="M530.29,207.7h0a2,2,0,0,1-2-1.87l-.24-5.28a2,2,0,0,1,1.87-2.05h0a2,2,0,0,1,2,1.87l.24,5.28A2,2,0,0,1,530.29,207.7Z"/><path class="cls-19" d="M446.51,359.92c3.18-10.28,10.6-29.85,8.36-73.24a71.8,71.8,0,0,1,.29-11.38h0c9.51-.82,24,9.45,24,9.45S470.24,339.28,446.51,359.92Z"/><path class="cls-18" d="M490,234.71s-24.36,4.19-37.07,19.7-33.14,37.38-38,45-18.24,59.79-18.24,59.79.88,1.67,4.58,2.65a8.73,8.73,0,0,0,6.11-.52S425.22,331,431.9,315.76c2.78-6.31,50.85-31.32,68.92-28.73C507.92,288.05,490,234.71,490,234.71Z"/><path class="cls-17" d="M573.09,194.7s5.24,3.2,8.37,1.85,2.86-2.6,2.86-2.6S574.85,191.32,573.09,194.7Z"/><path class="cls-24" d="M513.68,251.7S503,319.2,427.13,338.86l-8.26,16.3,14.51,2.46s86.36-25,85.2-107.11Z"/><polygon class="cls-25" points="512.02 240.93 508.52 241.27 508.52 246.34 513.68 251.71 518.58 250.51 518.58 243.48 515.06 240.93 512.02 240.93"/><path class="cls-19" d="M498.28,227.51s-3.39.76-11.14,7.2c0,0,7.71,16.36,24,18.32,0,0-.26-7.59.91-12.1C512,240.93,499.14,236.32,498.28,227.51Z"/><path class="cls-19" d="M512,240.93s7.94,4.21,8.52,10.77c0,0,3-4.8,2.16-8.13a27.24,27.24,0,0,0-3.6-7.14S519.37,240.44,512,240.93Z"/></g></g></svg>